<?xml version="1.0" encoding="UTF-8"?>
<!DOCTYPE svg PUBLIC "-//W3C//DTD SVG 1.1//EN" "http://www.w3.org/Graphics/SVG/1.1/DTD/svg11.dtd">
<!-- Creator: CorelDRAW -->
<svg xmlns="http://www.w3.org/2000/svg" xml:space="preserve" width="156px" height="151px" version="1.1" style="shape-rendering:geometricPrecision; text-rendering:geometricPrecision; image-rendering:optimizeQuality; fill-rule:evenodd; clip-rule:evenodd"
viewBox="0 0 60.93 58.99"
 xmlns:xlink="http://www.w3.org/1999/xlink"
 xmlns:xodm="http://www.corel.com/coreldraw/odm/2003">
 <defs>
  <style type="text/css">
   <![CDATA[
    .fil0 {fill:black}
   ]]>
  </style>
 </defs>
 <g id="Слой_x0020_1">
  <metadata id="CorelCorpID_0Corel-Layer"/>
  <path class="fil0" d="M16.7 42.41c-0.01,-1.42 0.12,-1.77 0.49,-2.77 0.22,-0.61 0.3,-2.16 0.58,-2.52 0.24,-0.29 3.65,-2.18 4.09,-2.28 0.32,0.37 0.45,0.65 0.44,1.16 -0.04,1.78 -1.61,2.68 -3.75,4.82 -0.53,0.52 -1.12,1.38 -1.85,1.59zm13.94 -25.46c0.19,-0.31 0.19,0.03 0.17,-1.21 0,-0.76 0.18,-3.75 -0.17,-4.31 -0.4,0.63 -0.16,3.26 -0.17,4.14l0.01 1.02c0.07,0.37 0.03,0.16 0.16,0.36zm2.93 30.46l2.41 -0.01 0 -1.89 -2.42 0 0.01 1.9zm-28.75 5c0.53,-0.37 1.74,-1.24 2.07,-1.74l-2.59 0.01c-0.21,-0.43 -0.34,-0.79 -0.48,-1.24 -0.18,-0.56 -0.2,-0.8 -0.55,-1.17l-0.86 2.4c-0.6,0 -1.94,-0.12 -2.41,0.18 0.23,0.6 0.82,0.77 1.72,1.55 -0.05,0.69 -0.44,1.91 -0.68,2.4 1.19,-0.08 1.21,-0.94 2.41,-1.2 0.58,0.36 1.29,1.14 2.06,1.21 -0.2,-0.88 -0.48,-1.59 -0.69,-2.4zm49.22 -1.74c0.27,0.57 -0.26,0.05 0.4,0.64l1.5 1.09c-0.19,0.89 -0.6,1.45 -0.71,2.42 0.91,-0.1 1.32,-0.97 2.26,-1.21 0.82,0.41 1.11,0.97 2.07,1.2 -0.03,-1.13 -0.49,-1.28 -0.52,-2.41 0.42,-0.35 1.72,-1.23 1.89,-1.73l-2.58 0c-0.16,-0.7 -0.56,-1.81 -0.86,-2.4l-0.27 0.41c-0.02,0.04 -0.04,0.08 -0.06,0.12l-0.71 1.88 -2.41 -0.01zm-28.05 -47.84l0 7.58 1.72 0 -0.01 -5.36c-0.01,-0.93 -0.16,-1 0.53,-1.18l0 2.92 2.07 0c0,-0.92 0.05,-2.03 -0.01,-2.92 -0.11,-1.63 -0.32,-1.73 -1.72,-1.73 -0.45,0 -0.51,0.25 -0.69,0.52l-0.2 -0.32c-0.43,-0.35 -0.82,-0.2 -1.69,-0.2l0 0.69zm7.56 55.76l2.43 0 -0.01 -10.5 -2.41 0 -0.01 10.5zm-4.12 -31.67l-3.09 0.15c0.12,0.52 -0.06,0.25 0.4,0.66l2.01 1.43c-0.11,1.09 -0.8,2.25 -0.86,3.26 0.89,-0.03 1.44,-0.96 2.92,-1.7 0.65,0.42 2.04,1.65 2.77,1.72 -0.1,-1.06 -0.62,-2.18 -0.87,-3.27 0.54,-0.29 2.44,-1.65 2.76,-2.08l-3.45 -0.18c-0.13,-0.17 -0.01,0.08 -0.19,-0.32l-0.9 -2.54c-0.23,-0.4 -0.13,-0.21 -0.3,-0.4l-1.2 3.27zm3.27 -17.72c-0.2,-0.45 -0.27,-4.11 -0.17,-5 0.06,-0.56 0.01,-0.25 0.17,-0.5 0.5,0.37 0.36,0.3 0.36,1.19 -0.01,1.04 0.28,3.57 -0.36,4.31zm0.52 -7.06c-1.05,0 -2.26,0.02 -2.54,1.07l-0.03 6.15c0.14,0.84 0.86,1.21 1.88,1.23 2.83,0.06 2.41,-1.19 2.41,-3.8 0,-0.9 0.08,-2.26 0.01,-3.1 -0.09,-0.89 -0.77,-1.55 -1.73,-1.55zm6.71 54.9c-0.03,-0.02 -0.09,-0.04 -0.11,-0.05l-0.41 -0.29c-0.41,-0.53 -0.16,-5.58 -0.17,-6.54 0.04,-0.02 0.09,-0.05 0.12,-0.06 0.55,-0.27 0.38,0.02 0.46,-0.23 0.02,-0.05 0.08,-0.03 0.12,-0.06l-0.01 -1.54 -0.68 -0.35 0 -1.72 -2.42 0c-0.01,3.79 -0.51,0.2 -0.51,3.27l0 0.52c0.75,0.08 0.46,-0.28 0.54,0.66l-0.03 3.64c0,2.09 -0.28,3.2 0.52,4.3l2.58 0 0 -1.55zm-16.34 0.86c-0.01,-1.67 -0.35,-6.89 0.18,-7.92 0.68,0.5 0.52,0.55 0.51,1.72 -0.01,0.75 -0.01,1.5 0,2.25l2.4 0 0 -0.69c0.01,-2.19 0.41,-4.9 -0.93,-5.28 -0.95,-0.28 -1.66,0.15 -2,0.63 -0.03,-0.03 -0.05,-0.09 -0.06,-0.11 -0.02,-0.02 -0.05,-0.08 -0.07,-0.11l-0.88 -0.32c-0.48,-0.01 -1.07,0.02 -1.57,0.02l0 10.5 2.42 0.01 0 -0.7zm6.21 0.7c-0.06,-1.55 -0.27,-7.74 0.15,-8.61 0.59,0.43 0.34,2.57 0.34,3.95l2.59 0.02c-0.01,-1.82 0.35,-5.35 -0.68,-5.88 -0.76,-0.4 -1.65,-0.21 -2.08,0.36l-0.45 -0.24c-0.59,-0.22 -1.64,-0.11 -2.3,-0.11l0 10.5 2.43 0.01zm7.73 -51.99c0.39,0.49 0.56,1.1 0.53,1.73l-0.19 0.68c-0.48,-0.35 -0.35,-0.13 -0.36,-1.02 0,-0.46 0.01,-0.93 0.02,-1.39zm0.52 -2.73c-0.55,-0.64 -0.95,-1.72 -0.16,-2.26 0.24,0.57 0.15,1.45 0.16,2.26zm-0.53 2.56l-2.06 0c-0.02,1.28 -0.27,3.25 0.46,3.84 0.33,0.26 4.31,1.36 4.37,-1.59 0.08,-3.81 -0.99,-3.17 -2.09,-4.66l2.09 0c-0.03,-1.59 0.23,-2.86 -0.73,-3.58 -0.19,-0.14 -4.12,-1.56 -4.11,1.51 0,1.99 -0.26,2.27 0.9,3.42 0.69,0.68 0.8,0.49 1.17,1.06zm-14.8 2.59c0.02,-2.71 -0.35,-2.99 0.52,-3.11 0,2.94 0.3,2.67 -0.52,3.11zm0 -4.65c0,-0.69 -0.18,-2.02 0.17,-2.58 0.52,0.39 0.36,0.47 0.36,1.38 0,0.96 0.19,1.03 -0.53,1.2zm-2.06 6.02c0.91,0.02 1.85,0.01 2.76,0.01 1.89,0 2.26,-1.1 2.04,-3.43 -0.11,-1.13 -0.2,-1.4 -1.02,-1.92 0.65,-0.53 0.86,-0.61 1,-1.58 0.55,-3.82 -2.23,-3.27 -4.79,-3.23l0.01 10.15zm22.21 46.63c-0.39,-0.76 -0.38,-6.47 0,-7.21 0.74,0.49 0.51,0.71 0.51,1.89l0 4.3c0,0.8 -0.06,0.86 -0.51,1.02zm2.74 0.53c0.3,-0.6 0.36,-7.02 0.11,-8.02 -0.5,-2.01 -4.44,-2.13 -5.28,-0.42 -0.27,0.54 -0.3,6.98 -0.15,8.08 0.21,1.61 1.68,1.57 2.57,1.57 1.71,0 2.14,-0.04 2.75,-1.21zm-30.63 -7.92c0,1.61 0,3.22 0,4.82 0,2.27 -0.29,3.1 0.51,4.31 1.28,-0.03 1.89,0.28 2.42,-0.52l0.12 0.22c0.02,0.02 0.06,0.07 0.08,0.09l2.55 0.2 -0.01 -10.67 -2.58 0.01c0.01,1.54 0.01,3.09 0.01,4.64 0,0.91 0.29,3.66 -0.35,4.13 -0.48,-0.36 -0.34,0.02 -0.34,-0.86l0 -7.92 -2.41 0 0 1.55zm34.24 4.13l0.71 2.42c-0.06,0.79 0.13,0.34 -0.36,0.68 -0.61,-0.42 -0.32,-1.44 -0.35,-3.1zm0.69 -3.44c-0.48,-0.56 -0.56,-0.58 -0.76,-1.47 -0.29,-1.27 -0.01,-1.3 0.42,-1.46 0.08,0.11 0.1,0.09 0.2,0.32 0.25,0.59 0.15,1.95 0.14,2.61zm0 0l2.76 0c0,-2.02 0.25,-3.86 -1.06,-4.62 -1.18,-0.7 -3.19,-0.68 -4.37,0.06 -0.78,0.49 -0.78,0.8 -0.77,1.97 0,0.65 -0.07,2.2 0.04,2.73 0.17,0.84 1.99,2.18 2.55,2.96l-2.58 0c-0.03,1.99 -0.34,4.21 0.78,5.07 0.75,0.57 3.59,0.77 4.68,-0.12 0.65,-0.54 0.74,-1.05 0.74,-2.19 -0.02,-4.97 -1.12,-3.64 -2.77,-5.86zm-38.72 6.36c-0.46,-0.17 -0.35,0.19 -0.36,-0.83l0.04 -2.76c0.06,-0.34 0.04,-0.18 0.15,-0.36 0.69,0.19 0.52,0.08 0.52,1.89 -0.01,2.29 0.21,1.85 -0.35,2.06zm-0.17 -9.11c0.72,0.19 0.51,0.12 0.52,1.89 0.01,1.22 0.27,1.32 -0.69,1.55l0.17 -3.44zm2.06 4.13c0.62,-0.53 1.11,-0.3 1.34,-2.11 0.64,-4.88 -3.01,-4.08 -6.15,-4.09l0 13.08c1.21,0 2.41,0 3.62,0.01 2.6,0.02 2.85,-2.15 2.5,-4.59 -0.22,-1.55 -0.25,-1.59 -1.1,-2.16l-0.21 -0.14zm25.65 -16.69l3.71 2.14c0.17,0.25 0.21,0.73 0.29,1.08 0.42,1.94 0.67,0.34 0.64,4 -0.8,-0.53 -2.32,-2.25 -3.14,-3.05 -1.04,-1.02 -2.55,-1.86 -1.69,-3.85 0.1,-0.24 0.1,-0.2 0.19,-0.32zm5.68 -1.22l9.63 2.59c-0.37,1.6 -1.41,4.03 -2.24,5.35 -0.68,-0.4 -6.4,-3.35 -6.69,-4.16 0,0 -0.09,-0.4 -0.09,-0.42 -0.47,-2.33 -0.61,-1.09 -0.61,-3.36zm-5.52 0.54c0.4,-0.58 0.66,-1.16 1.05,-1.74l1.65 0.76c0.43,1.02 -0.28,-0.86 0.1,0.25l0.82 2.78c-0.6,-0.38 -1.15,-0.71 -1.84,-1.09 -0.65,-0.36 -1.12,-0.63 -1.78,-0.96zm1.39 -2.42c0.2,-0.4 0.4,-0.72 0.51,-1.22l0.52 1.55c-0.48,-0.02 -0.17,0.05 -0.59,-0.09 -0.64,-0.2 -0.25,-0.11 -0.44,-0.24zm4.13 1.21c0.03,-1 0.18,-1.11 0.17,-3.11l10.49 0.01c0.01,0.63 -0.2,2.36 -0.29,2.97 -0.13,0.95 -0.22,1.99 -0.58,2.69 -0.73,-0.01 -1.7,-0.38 -2.49,-0.57 -0.94,-0.23 -1.52,-0.43 -2.45,-0.66 -0.77,-0.19 -1.62,-0.43 -2.45,-0.65 -0.56,-0.16 -1.96,-0.48 -2.4,-0.68zm0 -6.89c0.85,-0.08 1.61,-0.41 2.48,-0.62 0.92,-0.23 1.5,-0.42 2.45,-0.65 1.63,-0.4 3.26,-0.94 4.88,-1.32 0.42,0.91 0.87,4.52 0.85,5.68l-10.49 0c0.07,-0.95 0.28,-2.16 -0.17,-3.09zm-0.17 -0.68c0.12,-0.35 0.85,-1.02 1.56,-2.41 1.39,-2.71 -0.7,-1.57 2.57,-3.44l3.61 -2.08c0.23,1.01 1.51,2.84 2.06,5.34l-4.81 1.38c-1.08,0.29 -4.14,1.18 -4.99,1.21zm2.34 -6.31c-0.64,-1.88 -3.09,-1.55 -1.79,-3.3 0.58,-0.79 2.48,-2.81 3.23,-3.3 0.92,0.59 2.17,2.41 2.83,3.36 0.16,0.22 0.3,0.4 0.41,0.62 0.26,0.52 0.12,-0.28 0.21,0.66 -0.61,0.13 -1.76,0.91 -2.36,1.25 -0.83,0.47 -1.56,0.86 -2.29,1.33l-0.24 -0.62zm-6.18 -6.15c0.3,-0.54 0.62,-1.02 0.9,-1.5 0.61,-1.03 1.19,-2.05 1.73,-3.09 0.84,0.56 1.63,1.05 2.43,1.7 0.68,0.54 1.59,1.21 2.08,1.95l-2.1 2.02c-0.26,-0.52 -0.85,-2.47 -3.11,-1.38 -1.21,0.58 -0.76,1.69 -1.06,2.54 -0.2,0.55 -0.15,0.23 -0.48,0.74 0.81,0.45 0.16,0 0.62,0.59 0.02,0.03 0.05,0.08 0.07,0.1 0.02,0.03 0.06,0.07 0.08,0.1 0.08,0.09 0.21,0.21 0.26,0.26 -1.85,0.79 -2.23,-0.39 -3.37,1.6 -0.58,1.03 -0.36,0.66 -1.2,1.38 -0.79,0.66 -0.2,0.93 -1.44,0.97l4.59 -7.98zm0.39 -5.79c0.57,0.3 1.16,0.55 1.72,0.87l-7.4 12.72c-2.19,-0.18 -1.29,-2.63 -0.78,-4.4 0.26,-0.91 0.45,-1.66 0.71,-2.55l0.52 -2.06c0,-0.04 0,-0.09 -0.01,-0.12 -0.02,-0.4 0.06,-0.1 -0.09,-0.34 -0.57,0.06 -0.3,-0.05 -0.52,0.34 -0.01,0.01 -0.18,0.7 -0.21,0.83 -0.12,0.5 -0.3,1.14 -0.44,1.63 -0.28,0.98 -0.53,2.43 -0.9,3.23 -0.11,0.12 -0.48,-0.09 -1.08,0.1 -0.4,0.12 -0.5,0.18 -0.52,0.36l-0.27 1.46c-0.06,0.63 -0.02,1.39 -0.03,2.04 0.67,0.05 0.45,0.08 1.15,0.1 1.17,0.02 0.67,0.92 2.62,1.64 2.42,0.91 1.5,0.01 3.82,-1.23 -0.25,1.03 -0.12,1.57 -0.68,2.61 -1.09,2.03 0.48,1.23 -1.23,4.62 -0.99,1.94 -0.85,3.55 -1.12,4.56 -0.16,0.63 -0.19,0.21 -0.25,0.96 -0.1,1.19 0.26,1 0.01,2.05 -0.21,0.85 -0.11,1.09 -0.21,2.04 -0.05,0.49 -0.21,1.56 -0.26,1.98 -0.15,1.13 -0.32,1.64 -1.21,2.23 -0.99,0.67 -1.07,0.18 -1.64,0.63 -1.3,1.04 1.58,0.91 2.1,0.86 0.62,-0.04 2.32,-0.18 2.64,-0.8l0.24 -0.78c0.01,-0.03 0.03,-0.09 0.05,-0.12 0.1,0.39 0.32,0.69 0.5,1.04 0.35,0.67 0.16,0.65 1.06,0.67 -0.56,-2.27 -2.32,-2.13 -1.36,-4.62 0.13,-0.34 0.2,-0.48 0.34,-0.87 0.39,-1.18 -0.21,-0.01 0.32,-0.88 0.81,1.18 4.49,4.36 4.83,4.98 0.29,0.51 -0.04,1.33 2.06,1.4 0.01,-0.02 0.03,-0.09 0.03,-0.07 0,0.02 0.03,-0.06 0.03,-0.07l0.12 -0.25c0.32,-0.82 0.2,-1.13 -0.07,-2.14 -0.34,-1.23 -0.28,-1.83 -0.28,-3.32 0.5,0.26 1.05,0.58 1.53,0.86 0.52,0.3 1.06,0.6 1.64,0.95 1.15,0.68 2.03,1.19 3.19,1.79 -0.17,0.58 -1.02,1.71 -1.37,2.24l2.92 0 1.44 -2.35c0.42,-0.8 0.87,-1.77 1.18,-2.61 3.04,-8.26 2.22,-17.27 -2.37,-24.37 -0.98,-1.52 -2.13,-2.92 -3.31,-4.27 -1.62,-1.85 -4.32,-3.65 -6.43,-4.92 -0.84,-0.51 -1.65,-1 -2.72,-1.23l-0.01 2.58zm-34.25 28.74c0.4,-0.01 8.52,-2.03 9.3,-2.42 -0.01,2.07 -0.69,2.49 -0.69,4.3l-3.24 1.76c-0.67,0.4 -2.46,1.54 -3.13,1.69 -0.14,-0.17 -0.02,0.01 -0.21,-0.3 -0.12,-0.19 -0.07,-0.1 -0.19,-0.33 -0.12,-0.22 -0.2,-0.39 -0.28,-0.57 -0.22,-0.43 -0.37,-0.83 -0.57,-1.33l-0.99 -2.8zm12.4 -3.28c0.58,-0.04 1.03,-0.21 1.56,-0.34 0.24,0.51 0.71,1.31 1.03,1.73l-3.29 1.88c0.1,-1.17 0.61,-2.21 0.7,-3.27zm0.34 -0.68c0.06,-0.7 0.06,-0.64 0.36,-1.03 0.16,0.33 0.32,0.58 0.5,0.86 -0.48,0.04 -0.46,0.07 -0.86,0.17zm-12.9 3.44c-0.03,-1.09 -0.76,-3.02 -0.68,-5.85l9.96 0c0.01,1.29 0.19,1.86 0.17,3.26l-9.45 2.59zm-0.69 -6.36c0,-2.06 0.52,-4.12 0.84,-5.86l6.9 1.9c0.73,0.19 1.36,0.48 2.23,0.52l0 3.43 -9.97 0.01zm1.03 -6.37c0.4,-1.89 1.45,-3.74 2.22,-5.35 0.86,0.44 1.63,0.92 2.43,1.38 4.17,2.38 1.84,0.83 3.7,3.87 0.61,1.01 1.09,1.22 0.76,2.5 -1.48,-0.29 -8.28,-2.34 -9.11,-2.4zm2.58 -6.03c1.08,-1.29 2.2,-3.4 3.61,-4.3 0.65,0.43 1.1,1.03 1.68,1.59 1.03,0.99 0.68,0.7 1.31,1.97 0.98,1.98 -0.37,1.74 -1.37,2.53 -0.46,0.37 -0.28,0.52 -0.58,0.96l-4.65 -2.75zm4.13 -4.82c0.6,-0.92 3.67,-3.24 4.47,-3.44 0.72,0.85 5.39,9.28 6.55,11.18 0.32,0.52 0.56,0.97 0.86,1.56 -1.41,-0.12 -2.74,-2.95 -4.07,-3.51 -0.77,-0.32 -1.39,-0.18 -1.96,-0.45 -0.3,-0.33 -0.11,0.22 0.12,-0.24 0.53,-1.03 0.15,-3.06 -0.52,-4 -0.39,-0.55 -1.33,-0.82 -2.27,-0.5 -0.3,0.1 -0.62,0.39 -0.78,0.6l-0.32 0.54c-0.01,0.03 -0.05,0.09 -0.06,0.11l-2.02 -1.85zm-5.67 32.7l3.09 0c-0.26,-0.4 -0.58,-0.77 -0.87,-1.2 -0.32,-0.49 -0.57,-0.86 -0.85,-1.39l6.02 -3.43c-0.01,0.86 0.01,1.73 0.01,2.59 -0.02,1.54 -0.59,1.38 -0.26,3.08l0.08 0.35c1.83,0.29 0.95,0.18 2.57,0.17 -0.05,-0.84 -0.03,-0.18 -0.68,-1.37l5.38 -5.46c-0.01,0 0.01,0.02 0.02,0.07 0.01,0.09 0.08,0.2 0.1,0.24 0.07,0.2 0.11,0.35 0.16,0.52l0.62 1.81c0.13,0.82 -0.19,0.78 -1.07,2.35 -0.33,0.61 -0.59,1.09 -0.92,1.67 0.89,-0.01 0.82,-0.07 1.43,-1.16 0.2,-0.36 0.2,-0.3 0.31,-0.72l0.1 0.23c0.01,0.04 0.07,0.21 0.09,0.25 0.05,0.15 0.09,0.32 0.21,0.48 0.25,0.33 0.48,0.39 0.93,0.36 0.45,-0.03 0.4,-0.25 1.16,-0.03 0.35,0.1 0.29,0.11 0.41,0.22l0.19 0.37c1.02,-0.09 0.14,-0.07 0.64,-0.22 1.12,-0.33 1.52,0.15 1.77,-0.81 -0.39,-0.64 -0.24,-0.43 -1.1,-0.63 -0.69,-0.16 -0.88,-0.21 -1.32,-0.57 -0.92,-0.75 -0.85,-1.82 -0.85,-3.28 0,-0.74 -0.19,-1.38 -0.18,-2.41 0.05,-2.93 0.57,-0.76 -0.43,-4.38 -0.24,-0.86 -0.41,-1.31 -0.71,-2.04 -0.57,-1.33 -1.24,-2.36 -1.31,-3.79 -0.03,-0.49 0.08,-1.65 -0.08,-2.22 -0.21,-0.78 -0.44,-0.86 -0.55,-2.19 1.88,0.51 1.64,3.31 5.67,0.34 1.05,-0.77 0.85,-0.54 2.24,-0.86l0.3 -1.29c-0.02,-0.71 -0.54,-2.53 -0.98,-2.83 -0.25,-0.16 0.06,-0.08 -0.34,-0.1 -0.34,-0.02 -0.03,-0.04 -0.4,0.02 -0.52,0.08 -0.47,0.07 -0.82,0.23 -0.01,-1.02 -0.53,-2.29 -0.79,-3.33 -0.71,-2.86 -0.55,-2.84 -1.46,-2.86l1.24 4.46c0.74,2.56 0.76,2.34 0.84,4.66 -0.42,0.1 -1.01,0.35 -1.37,0.53 -1.8,-3.42 -4.61,-7.81 -6.54,-11.37 -0.33,-0.6 -0.7,-1 -0.87,-1.72l1.38 -0.69 0 -2.57c-3.27,0.65 -8.44,5.1 -10.83,8.1 -0.61,0.77 -1.03,1.41 -1.56,2.22 -2.26,3.43 -3.45,6.86 -4.06,11.08 -0.62,4.3 0.13,9.66 1.62,13.39 1.1,2.76 1.33,2.8 2.62,5.13z"/>
 </g>
</svg>
