<?xml version="1.0" encoding="UTF-8"?>
<!DOCTYPE svg PUBLIC "-//W3C//DTD SVG 1.1//EN" "http://www.w3.org/Graphics/SVG/1.1/DTD/svg11.dtd">
<!-- Creator: CorelDRAW -->
<svg xmlns="http://www.w3.org/2000/svg" xml:space="preserve" width="224px" height="117px" version="1.1" style="shape-rendering:geometricPrecision; text-rendering:geometricPrecision; image-rendering:optimizeQuality; fill-rule:evenodd; clip-rule:evenodd"
viewBox="0 0 35.88 18.82"
 xmlns:xlink="http://www.w3.org/1999/xlink"
 xmlns:xodm="http://www.corel.com/coreldraw/odm/2003">
 <defs>
  <style type="text/css">
   <![CDATA[
    .fil0 {fill:black}
   ]]>
  </style>
 </defs>
 <g id="Слой_x0020_1">
  <metadata id="CorelCorpID_0Corel-Layer"/>
  <g id="_2770922848064">
   <path class="fil0" d="M23.35 14.53c-0.25,0.69 -0.78,0.87 -1.65,0.97 -0.92,0.11 -4.26,0.68 -4.91,0.39 -0.89,-0.4 -1.7,-2.42 0.97,-2.75 0.9,-0.11 4.2,-0.68 4.83,-0.4 0.56,0.26 1.08,0.94 0.76,1.79zm-4.14 -7.69c1.3,-0.37 2.39,0.42 2.67,1.49 0.35,1.33 -0.47,2.33 -1.41,2.66 -2.65,0.9 -4.27,-3.28 -1.26,-4.15zm-1.24 3.92c-0.66,0.36 -0.83,1.05 -0.62,2.03 -0.86,0.12 -1.52,0.56 -1.72,1.32 -0.24,0.92 0.2,1.71 0.85,2.09 0.83,0.48 4.24,-0.17 5.4,-0.31 2.61,-0.33 2.2,-2.7 1.19,-3.35 -1.29,-0.85 -4.06,0.41 -5.33,0.12 -0.21,-0.82 -0.01,-1.29 0.5,-1.61 0.23,-0.05 0.81,0.52 1.82,0.43 0.72,-0.07 1.2,-0.4 1.57,-0.79 1.08,-1.13 0.85,-2.13 0.17,-3.4l0.54 -0.56c0.38,-0.75 -0.8,0.31 -0.8,0.31 -0.51,-0.29 -0.83,-0.69 -1.84,-0.66 -1.77,0.05 -3.48,2.06 -1.73,4.38z"/>
   <path class="fil0" d="M3.12 5.19c0.38,0.01 2.35,-1.33 3.11,-1.76 6.97,-3.97 16.42,-4.01 23.4,-0.01 0.56,0.32 1.06,0.59 1.54,0.92 0.37,0.26 1.12,0.94 1.58,0.81 0,-0.38 -0.19,-0.42 -0.49,-0.61 -4.5,-2.84 -8.44,-4.6 -14.29,-4.54 -4.5,0.05 -9.87,1.33 -13.48,3.98 -0.82,0.6 -1.33,0.67 -1.37,1.21z"/>
   <path class="fil0" d="M26.46 6.44c1.34,-0.35 2.44,0.6 2.66,1.61 0.29,1.35 -0.66,2.4 -1.63,2.64 -2.76,0.67 -3.85,-3.5 -1.03,-4.25zm2.37 0.28c-2.14,-1.92 -4.95,0.14 -4.37,2.41 0.67,2.6 4.08,2.62 4.87,0.43 0.21,0.42 0.24,1.1 0.32,1.43 0.12,0.44 0.03,0.27 0.3,0.37 0.02,-0.02 0.04,-0.09 0.04,-0.07 0.01,0 0.15,-0.06 0.01,-0.74 -0.06,-0.27 -0.1,-0.49 -0.16,-0.76 -0.11,-0.52 -0.19,-1 -0.28,-1.55l-0.43 -2.31c-0.07,-0.47 0.01,-0.58 -0.37,-0.64 -0.25,0.36 0.07,0.98 0.07,1.43z"/>
   <path class="fil0" d="M13.86 16.92c1.05,-0.57 1.42,-0.38 1.43,-0.91 -0.64,-0.25 -2.68,1.14 -3.14,1.49 -0.79,0.6 -1.42,1.4 -2.27,0.45l-2.98 -2.96c-0.3,-0.29 -2.64,-2.84 -2.33,-1.72 0.06,0.24 4.24,4.29 4.79,4.84 0.32,0.32 0.83,0.84 1.61,0.67 0.48,-0.09 1.58,-1.16 2.89,-1.86z"/>
   <path class="fil0" d="M22.63 13.77c0.03,0.75 -0.28,0.8 -0.97,0.89l-3.41 0.43c-0.53,0.07 -1.25,0.26 -1.41,-0.35 -0.24,-0.94 1.93,-0.88 2.66,-0.98 0.55,-0.07 1.12,-0.14 1.68,-0.21 0.8,-0.1 0.92,-0.26 1.45,0.22zm-1.25 -0.64c-1.33,0.18 -2.73,0.28 -4.04,0.5 -1.2,0.21 -1.55,2.2 0.78,1.88 1.33,-0.18 2.71,-0.29 3.99,-0.51 0.61,-0.1 1.13,-0.61 0.86,-1.34 -0.25,-0.67 -0.88,-0.62 -1.59,-0.53z"/>
   <path class="fil0" d="M21.82 16.54c0.02,0.41 0.25,0.41 0.59,0.6l1.29 0.89c0.25,0.18 0.38,0.34 0.6,0.5 1.26,0.9 2.25,-0.51 2.78,-1.02 0.74,-0.73 1.5,-1.43 2.21,-2.18 0.2,-0.21 0.3,-0.39 0.5,-0.59 0.47,-0.47 1.56,-1.33 1.49,-1.72 -0.38,-0.07 -0.93,0.65 -1.19,0.91 -0.38,0.37 -0.69,0.67 -1.07,1.04 -0.73,0.72 -1.39,1.36 -2.13,2.08 -0.37,0.37 -0.68,0.68 -1.06,1.05 -0.53,0.51 -0.98,0.29 -1.46,-0.09 -0.3,-0.24 -2.07,-1.71 -2.55,-1.47z"/>
   <path class="fil0" d="M26.51 7.29c1.69,-0.66 2.64,1.86 1.02,2.53 -1.75,0.72 -2.73,-1.87 -1.02,-2.53zm-1.28 1.57c0.36,2.15 3.81,1.86 3.52,-0.54 -0.27,-2.26 -3.92,-1.89 -3.52,0.54z"/>
   <path class="fil0" d="M19.47 7.56c1.8,-0.5 2.37,2.24 0.73,2.71 -1.77,0.52 -2.67,-2.16 -0.73,-2.71zm-0.28 -0.27c-2.34,0.98 -0.78,4.1 1.22,3.27 2.27,-0.93 0.81,-4.12 -1.22,-3.27z"/>
   <path class="fil0" d="M7.19 7.15c-0.22,0.31 -0.09,1.57 0.09,2.04 0.13,0.35 2.8,2.28 3.3,2.67 0.13,0.1 0.49,0.47 0.66,0.39 0.39,-0.19 -0.46,-0.64 -0.97,-1.09 -0.49,-0.42 -2.5,-1.78 -2.64,-2.13 -0.21,-0.53 0.07,-1.67 -0.44,-1.88z"/>
   <path class="fil0" d="M3.84 12.76c0.26,-0.34 -0.37,-2.38 -0.49,-2.92 -0.15,-0.66 -0.48,-2.48 -0.73,-2.88 -0.45,0.12 -0.27,0.27 -0.02,1.33 0.13,0.54 0.24,1.01 0.37,1.56 0.14,0.6 0.45,2.7 0.87,2.91z"/>
   <path class="fil0" d="M3.06 12.96c0.23,-0.39 -0.65,-3.48 -0.87,-4.43 -0.16,-0.73 -0.17,-1.26 -0.52,-1.39 -0.07,0.09 -0.21,-0.03 -0.02,0.73 0.07,0.27 0.11,0.49 0.17,0.75l0.7 2.96c0.1,0.45 0.12,1.24 0.54,1.38z"/>
   <path class="fil0" d="M13.85 10.94c0.29,-0.34 -0.02,-3.63 -0.06,-4.55 -0.01,-0.28 -0.01,-0.56 -0.03,-0.84 -0.03,-0.55 -0.1,-0.49 -0.28,-0.53 -0.24,0.36 -0.01,2.42 0.01,3.02l0.11 2.38c0.02,0.36 -0.03,0.41 0.25,0.52z"/>
   <path class="fil0" d="M7.12 13.17c0.14,-0.43 -0.29,-3.72 -0.38,-4.61 -0.09,-0.91 0.01,-1.21 -0.39,-1.33 -0.2,0.36 0.33,4.31 0.42,5.3 0.04,0.51 -0.01,0.51 0.35,0.64z"/>
   <path class="fil0" d="M31.88 13.04c0.35,-0.19 0.72,-2.27 0.85,-2.78 0.13,-0.55 0.75,-2.6 0.61,-2.96 -0.46,-0.01 -0.3,0.09 -0.58,1.25l-0.94 3.82c-0.1,0.41 -0.18,0.46 0.06,0.67z"/>
   <path class="fil0" d="M14.67 10.88c0.13,-0.16 0.16,-0.12 0.14,-0.65 -0.01,-0.27 -0.03,-0.55 -0.05,-0.83l-0.14 -3.11c-0.02,-0.44 0.12,-1.22 -0.31,-1.35 -0.27,0.4 -0.02,2.35 0.01,3l0.11 2.39c0.02,0.4 -0.02,0.41 0.24,0.55z"/>
   <path class="fil0" d="M32.63 13.21c0.4,-0.09 0.33,-0.39 0.53,-1.24l0.74 -3.01c0.1,-0.37 0.47,-1.21 0.17,-1.52 -0.27,0.09 -0.23,0.17 -0.32,0.55 -0.06,0.26 -0.11,0.48 -0.18,0.73 -0.13,0.53 -0.25,1.04 -0.38,1.54 -0.15,0.62 -0.78,2.58 -0.56,2.95z"/>
   <path class="fil0" d="M11.14 11.19c0.13,-0.42 -0.56,-0.74 -1.14,-1.23 -0.47,-0.38 -0.92,-0.87 -1.38,-1.09 0.5,-0.93 1.28,-1.46 1.31,-2.05 -0.5,0.01 -0.38,0.11 -0.65,0.49 -0.85,1.22 -1.44,1.34 -0.64,1.99l1.81 1.49c0.25,0.2 0.39,0.42 0.69,0.4z"/>
   <path class="fil0" d="M1.42 5.56c0.35,-0.14 0.02,-0.31 0.76,-0.14 0.33,1.14 -1.01,1.12 -0.76,0.14zm0.01 -0.47c-0.08,0.05 -0.29,0.05 -0.41,0.46 -0.06,0.22 -0.05,0.43 0.04,0.62 0.19,0.38 0.7,0.59 1.15,0.38 0.94,-0.45 0.23,-2 -0.78,-1.46z"/>
   <path class="fil0" d="M14.17 4.2c-1.08,0.1 -0.92,-0.83 -0.15,-0.89 0.43,0.29 0.43,0.44 0.15,0.89zm-0.47 -1.21c-0.44,0.15 -0.8,0.41 -0.58,1.08 0.12,0.37 0.57,0.66 1.07,0.47 1.02,-0.38 0.43,-1.87 -0.49,-1.55z"/>
   <path class="fil0" d="M33.52 6.42c-0.01,-0.61 0.07,-0.7 0.68,-0.7 0.26,0.38 0.3,0.29 0.17,0.79 -0.47,0.22 -0.41,0.18 -0.85,-0.09zm0.09 -0.97c-1.03,0.59 -0.23,1.92 0.72,1.47 0.99,-0.46 0.22,-2.01 -0.72,-1.47z"/>
   <path class="fil0" d="M7.9 13.05c0.19,-0.32 -0.06,-1.79 -0.12,-2.43 -0.04,-0.37 0.04,-0.54 -0.24,-0.72 -0.26,0.19 -0.2,0.2 -0.15,0.63l0.19 1.82c0.05,0.53 -0.07,0.64 0.32,0.7z"/>
   <path class="fil0" d="M35.08 9.21c0.72,0.43 1.34,-2 0.08,-2 0.02,0.63 0.37,0.44 0.28,1.08 -0.07,0.48 -0.48,0.59 -0.36,0.92z"/>
   <path class="fil0" d="M0.67 9.3c0.34,-0.37 -0.08,-0.46 -0.22,-0.87 -0.18,-0.56 0.16,-0.7 0.28,-1.1 -0.11,-0.1 -0.08,-0.07 -0.21,-0.17 -0.75,0.34 -0.68,1.88 0.15,2.14z"/>
  </g>
 </g>
</svg>
