<?xml version="1.0" encoding="UTF-8"?>
<!DOCTYPE svg PUBLIC "-//W3C//DTD SVG 1.1//EN" "http://www.w3.org/Graphics/SVG/1.1/DTD/svg11.dtd">
<!-- Creator: CorelDRAW -->
<svg xmlns="http://www.w3.org/2000/svg" xml:space="preserve" width="327px" height="156px" version="1.1" style="shape-rendering:geometricPrecision; text-rendering:geometricPrecision; image-rendering:optimizeQuality; fill-rule:evenodd; clip-rule:evenodd"
viewBox="0 0 49.3 23.47"
 xmlns:xlink="http://www.w3.org/1999/xlink"
 xmlns:xodm="http://www.corel.com/coreldraw/odm/2003">
 <defs>
  <style type="text/css">
   <![CDATA[
    .fil0 {fill:black}
    .fil2 {fill:#F97506}
    .fil1 {fill:white}
   ]]>
  </style>
 </defs>
 <g id="Слой_x0020_1">
  <metadata id="CorelCorpID_0Corel-Layer"/>
  <rect class="fil0" width="49.3" height="23.47"/>
  <g id="_2772407162832">
   <path class="fil1" d="M31.94 13.42c1.14,-0.09 1.99,0.06 2.41,0.92 0.48,1 0.23,3.04 -1.48,3.07 -0.96,0.02 -0.98,0.19 -0.95,-0.69 0.03,-1 -0.09,-2.38 0.02,-3.3zm12.28 1.27c-0.28,-0.15 -1.99,-0.08 -2.32,-0.08l0 -1.05 2.31 0c0.2,-0.02 -0.04,0.02 0.14,-0.03l0.12 -0.06 -0.05 -1.38 -4.17 -0.02 0.01 6.68 4.23 0 -0.03 -1.44 -2.59 -0.03 0 -1.22 2.35 -0.01 0 -1.36zm-30.87 3.74c0.44,-0.86 -1.02,-1.4 -1.38,-0.58 -0.4,0.9 0.96,1.38 1.38,0.58zm25.54 0c0.47,-0.88 -1.02,-1.37 -1.39,-0.59 -0.43,0.89 0.95,1.42 1.39,0.59zm-21.26 -0.16c0.1,0.77 1.64,0.82 1.51,-0.23 -0.1,-0.88 -1.64,-0.8 -1.51,0.23zm11.32 0.16c0.43,-0.94 -1.08,-1.36 -1.42,-0.6 -0.44,1.03 1.1,1.3 1.42,0.6zm-14.22 0.31l1.61 0 0 -6.67 -1.63 -0.01 0.02 6.68zm11.53 -0.57l0.04 -3.24 -2.78 0 0 1.41 1.12 0.02 -0.03 0.97c-0.92,0.12 -1.54,0.15 -2.12,-0.43 -0.95,-0.96 -0.68,-4.12 2.08,-3.39 0.5,0.13 0.56,0.32 0.97,0.44l0.55 -1.24c-1.39,-1.34 -5.93,-1.11 -5.84,2.78 0.07,3.15 3.15,4.13 6.01,2.68zm-19.8 -2.56c0.25,0.08 2.6,2.09 3.08,2.48 0.32,0.25 0.76,0.69 1.08,0.74l-0.05 -6.74 -1.58 0 -0.02 3.24c-0.67,-0.33 -3.65,-3.24 -4.17,-3.34l0.02 6.75 1.62 0.01 0.02 -3.14zm23.84 3.11c0.78,0.09 3.25,0.02 3.9,-0.18 2.21,-0.71 2.77,-3.62 1.38,-5.35 -0.62,-0.77 -1.61,-1.09 -2.96,-1.09l-2.33 0 0.01 6.62z"/>
   <path class="fil2" d="M14.6 6.03c-0.01,-0.39 0.06,-0.93 0.3,-1.08 0.22,-0.13 1.01,-0.07 1.23,0 0.24,0.11 0.3,0.39 0.32,0.75 0.11,1.63 -0.81,1.28 -0.73,2.37l0.48 0.24c-0.23,0.13 -0.91,0.08 -1.24,0.08 0.08,-0.19 0.05,-0.1 0.21,-0.23 0,0 0.17,-0.11 0.2,-0.13 0.03,-0.86 -0.75,-0.95 -0.77,-2zm-1.58 -0.01c0.1,1.26 0.93,2.67 2.04,3.62 0.41,0.34 0.47,0.42 0.9,0.05 1.55,-1.33 2.12,-2.78 2.05,-3.96 -0.2,-3.58 -5.24,-2.92 -4.99,0.29z"/>
  </g>
 </g>
</svg>
