<?xml version="1.0" encoding="UTF-8"?>
<!DOCTYPE svg PUBLIC "-//W3C//DTD SVG 1.1//EN" "http://www.w3.org/Graphics/SVG/1.1/DTD/svg11.dtd">
<!-- Creator: CorelDRAW -->
<svg xmlns="http://www.w3.org/2000/svg" xml:space="preserve" width="327px" height="121px" version="1.1" style="shape-rendering:geometricPrecision; text-rendering:geometricPrecision; image-rendering:optimizeQuality; fill-rule:evenodd; clip-rule:evenodd"
viewBox="0 0 110.57 40.8"
 xmlns:xlink="http://www.w3.org/1999/xlink"
 xmlns:xodm="http://www.corel.com/coreldraw/odm/2003">
 <defs>
  <style type="text/css">
   <![CDATA[
    .fil2 {fill:black}
    .fil0 {fill:#E9B341}
    .fil1 {fill:black;fill-rule:nonzero}
   ]]>
  </style>
 </defs>
 <g id="Слой_x0020_1">
  <metadata id="CorelCorpID_0Corel-Layer"/>
  <g id="_2768663118656">
   <rect class="fil0" width="110.57" height="40.8"/>
   <g>
    <path class="fil1" d="M51.24 15.86l4.2 0c1.36,0 3.44,0.37 3.44,2.69 0,1.45 -0.99,2.74 -3.45,2.74l-1.76 0 0 1.86 0.85 0 0 1.31 -3.28 0 0 -1.31 0.85 0 0 -5.99 -0.85 0 0 -1.3zm2.43 4.13l1.75 0c0.72,0 1.83,-0.24 1.83,-1.42 0,-1.28 -1.22,-1.42 -1.82,-1.42l-1.76 0 0 2.84zm-12.84 -4.13l3.26 0 0 1.3 -0.83 0 0 4.99 4.11 -6.3 2.39 0 0 1.31 -0.85 0 0 5.99 0.85 0 0 1.3 -3.26 0 0 -1.3 0.83 0 0 -4.98 -4.11 6.29 -2.39 0 0 -1.3 0.85 0 0 -6 -0.85 0 0 -1.3zm-9.13 0l7.27 0 0 2.76 -1.31 0 0 -1.46 -3.54 0 0 2.11 2.32 0c0.93,0 3.1,0.15 3.1,2.56 0,2.48 -2.6,2.63 -3.11,2.63l-4.73 0 0 -1.31 0.85 0 0 -5.99 -0.85 0 0 -1.3zm2.42 7.29l1.98 0c0.82,0 1.81,-0.22 1.81,-1.33 0,-1.17 -1.12,-1.24 -1.78,-1.24l-2.01 0 0 2.57zm25.89 -7.29l4.86 0c2.2,0 2.69,1.23 2.69,2.17 0,0.95 -0.6,1.7 -1.43,1.85l0 0.02c0.72,0.12 1.79,0.61 1.79,2.15 0,2.17 -1.92,2.41 -3.22,2.41l-4.69 0 0 -1.31 0.85 0 0 -5.99 -0.85 0 0 -1.3zm2.43 3.49l2.09 0c0.87,0 1.4,-0.27 1.4,-1.02 0,-1.14 -1.1,-1.17 -1.44,-1.17l-2.05 0 0 2.19zm0 3.8l2.16 0c0.96,0 1.69,-0.23 1.69,-1.27 0,-1.16 -1,-1.23 -1.65,-1.23l-2.2 0 0 2.5zm8.58 -7.29l2.77 0 2.76 7.29 0.87 0 0 1.31 -3.32 0 0 -1.18 0.8 0 -0.25 -0.75 -3.38 0 -0.25 0.75 0.7 0 0 1.18 -3.25 0 0 -1.31 0.99 0 2.3 -6.05 -0.74 0 0 -1.24zm0.62 5.4l2.58 0 -1.28 -3.85 -1.3 3.85zm6.58 -5.4l3.25 0 0 1.3 -0.82 0 0 4.99 4.11 -6.3 2.39 0 0 1.31 -0.85 0 0 5.99 0.85 0 0 1.3 -3.26 0 0 -1.3 0.83 0 0 -4.98 -4.11 6.29 -2.39 0 0 -1.3 0.85 0 0 -6 -0.85 0 0 -1.3zm3.15 -2.45c0.06,0.65 0.64,0.99 1.32,0.99 0.67,0 1.26,-0.34 1.32,-0.99l0.6 0c0.08,0 0.17,0.02 0.24,0.06 0.07,0.04 0.14,0.1 0.18,0.18 0.04,0.07 0.06,0.15 0.06,0.24 0,0.08 -0.02,0.16 -0.07,0.24 -0.39,0.69 -1.17,1.16 -2.33,1.16 -1.16,0 -1.94,-0.47 -2.34,-1.16 -0.03,-0.05 -0.05,-0.11 -0.06,-0.18 0,-0.06 0,-0.12 0.02,-0.19 0.01,-0.06 0.04,-0.11 0.08,-0.16 0.04,-0.05 0.09,-0.1 0.14,-0.13 0.08,-0.04 0.16,-0.06 0.24,-0.06l0.6 0zm12.72 9.75l0.85 0 0 -2.56 -3.88 0 0 2.55 0.85 0 0 1.31 -3.28 0 0 -1.31 0.85 0 0 -5.99 -0.85 0 0 -1.3 3.28 0 0 1.3 -0.85 0 0 2.14 3.88 0 0 -2.14 -0.85 0 0 -1.3 3.28 0 0 1.3 -0.85 0 0 5.99 0.85 0 0 1.31 -3.28 0 0 -1.3z"/>
    <path class="fil2" d="M23.96 15.17c0.43,1.69 0.64,3.43 0.63,5.18 0.01,1.74 -0.2,3.48 -0.63,5.18l2.11 0c0.56,-1.67 0.85,-3.42 0.84,-5.18 0.01,-1.76 -0.28,-3.51 -0.84,-5.18l-2.11 0z"/>
    <path class="fil2" d="M16.15 25.53c-0.43,-1.7 -0.64,-3.44 -0.63,-5.18 -0.01,-1.75 0.2,-3.49 0.63,-5.18l-2.11 0c-0.56,1.67 -0.85,3.42 -0.84,5.18 -0.01,1.76 0.28,3.51 0.84,5.18l2.11 0z"/>
    <path class="fil2" d="M23.69 26.54c-0.1,0.32 -0.22,0.62 -0.34,0.91l1.89 0c0.16,-0.29 0.31,-0.59 0.45,-0.91l-2 0z"/>
    <path class="fil2" d="M21.53 25.53l2.24 0c0.12,-0.68 0.22,-1.39 0.29,-2.14 -0.57,0.85 -1.46,1.43 -2.47,1.63 -0.02,0.17 -0.04,0.34 -0.06,0.51z"/>
    <path class="fil2" d="M21.39 26.54c-0.05,0.32 -0.1,0.62 -0.17,0.91l2.1 0c0.08,-0.29 0.16,-0.59 0.24,-0.91l-2.17 0z"/>
    <path class="fil2" d="M21.22 26.54l-2.13 0c0.02,0.32 0.03,0.62 0.05,0.91l2.03 0c0.02,-0.29 0.04,-0.59 0.05,-0.91z"/>
    <g>
     <path class="fil2" d="M18.99 25.14c0.01,0.17 0.01,0.32 0.02,0.49l2.19 0c0.01,-0.16 0.02,-0.33 0.02,-0.49 -0.37,0.04 -0.75,0.03 -1.12,-0.02 -0.37,0.05 -0.74,0.06 -1.11,0.02l0 0zm0 0l0 0 0 0z"/>
    </g>
    <g>
     <path class="fil2" d="M16.55 25.62l2.24 0c-0.02,-0.16 -0.04,-0.33 -0.06,-0.51 -0.76,-0.14 -1.47,-0.51 -2.02,-1.06 -0.17,-0.17 -0.32,-0.35 -0.46,-0.55 0.07,0.74 0.17,1.45 0.3,2.13l0 -0.01zm0 0l0 0 0 0z"/>
    </g>
    <path class="fil2" d="M16.65 26.54c0.08,0.32 0.16,0.62 0.25,0.91l2.09 0c-0.06,-0.29 -0.11,-0.59 -0.17,-0.91l-2.17 0z"/>
    <g>
     <path class="fil2" d="M16.42 26.54l-2 0c0.14,0.32 0.29,0.62 0.45,0.91l1.89 0c-0.12,-0.29 -0.24,-0.59 -0.34,-0.91l0 0zm0 0l0 0 0 0z"/>
    </g>
    <g>
     <path class="fil2" d="M18.51 16.88c0.05,-0.6 0.1,-1.17 0.17,-1.71l-2.2 0c-0.29,1.68 -0.44,3.38 -0.43,5.08 0.22,-0.02 0.44,-0.03 0.67,-0.01 -0.38,-1.01 -0.29,-1.72 -0.06,-2.73 0.52,0.07 0.94,0.11 1.43,0.32 0.08,-0.34 0.22,-0.67 0.42,-0.95l0 0zm0 0l0 0 0 0z"/>
    </g>
    <g>
     <path class="fil2" d="M21.32 16.39c-0.01,-0.42 -0.02,-0.83 -0.04,-1.22l-2.25 0c-0.01,0.39 -0.03,0.8 -0.04,1.21 0.36,-0.34 0.73,-0.55 1.16,-0.79 0.44,0.24 0.81,0.45 1.17,0.8l0 0zm0 0l0 0 0 0z"/>
    </g>
    <path class="fil2" d="M23.73 15.17l-2.2 0c0.06,0.56 0.12,1.14 0.17,1.75 0.2,0.29 0.34,0.62 0.41,0.96 0.51,-0.2 0.92,-0.25 1.44,-0.32 0.23,1.02 0.32,1.75 -0.06,2.78 0.22,-0.02 0.45,-0.01 0.68,0.01 0,-1.74 -0.15,-3.47 -0.44,-5.18z"/>
    <path class="fil2" d="M23.35 13.35c0.13,0.29 0.24,0.59 0.34,0.91l2 0c-0.14,-0.32 -0.29,-0.62 -0.45,-0.91l-1.89 0z"/>
    <path class="fil2" d="M21.22 13.35c0.06,0.29 0.12,0.59 0.17,0.91l2.17 0c-0.08,-0.32 -0.16,-0.62 -0.24,-0.91l-2.1 0z"/>
    <path class="fil2" d="M19.14 13.35c-0.02,0.29 -0.03,0.59 -0.05,0.91l2.13 0c-0.01,-0.32 -0.03,-0.62 -0.05,-0.91l-2.03 0z"/>
    <path class="fil2" d="M16.9 13.35c-0.09,0.29 -0.17,0.59 -0.25,0.91l2.17 0c0.06,-0.32 0.11,-0.62 0.17,-0.91l-2.09 0z"/>
    <path class="fil2" d="M16.42 14.26c0.1,-0.32 0.22,-0.62 0.34,-0.91l-1.89 0c-0.16,0.29 -0.31,0.59 -0.45,0.91l2 0z"/>
    <path class="fil2" d="M21.63 20.89c-0.07,-0.87 -0.67,-1.64 -1.57,-2.16 -0.91,0.52 -1.5,1.29 -1.58,2.16 0.72,0.44 1.28,1.11 1.58,1.9 0.29,-0.79 0.85,-1.46 1.57,-1.9z"/>
    <g>
     <path class="fil2" d="M23.17 18.12c-0.68,0.09 -1.33,0.38 -1.85,0.84 0.47,0.46 0.78,1.05 0.89,1.69 0.23,-0.1 0.46,-0.17 0.7,-0.23 0.34,-0.72 0.43,-1.53 0.26,-2.3l0 0zm0 0l0 0 0 0z"/>
    </g>
    <path class="fil2" d="M18.89 18.96c-0.52,-0.46 -1.16,-0.75 -1.85,-0.84 -0.17,0.77 -0.08,1.58 0.26,2.3 0.24,0.06 0.47,0.13 0.7,0.23 0.11,-0.64 0.42,-1.24 0.89,-1.69z"/>
    <path class="fil2" d="M21.53 18.11c-0.12,-0.77 -0.67,-1.45 -1.47,-1.92 -0.81,0.47 -1.36,1.15 -1.48,1.92 0.25,0.15 0.48,0.32 0.69,0.51 0.25,-0.19 0.51,-0.36 0.79,-0.52 0.27,0.16 0.53,0.33 0.77,0.52 0.22,-0.19 0.45,-0.36 0.7,-0.51z"/>
    <g>
     <path class="fil2" d="M17.02 23.64c-0.35,-0.36 -0.62,-0.79 -0.79,-1.27 -0.16,-0.48 -0.22,-0.99 -0.16,-1.49 0.5,-0.06 1.01,-0.01 1.49,0.16 0.47,0.17 0.91,0.44 1.26,0.79 0.36,0.36 0.63,0.8 0.8,1.27 0.16,0.48 0.22,0.99 0.16,1.49 -0.5,0.06 -1.01,0 -1.49,-0.16 -0.47,-0.17 -0.91,-0.44 -1.27,-0.79l0 0zm0 0l0 0 0 0z"/>
    </g>
    <g>
     <path class="fil2" d="M23.09 23.64c0.35,-0.36 0.62,-0.79 0.79,-1.27 0.16,-0.48 0.22,-0.99 0.16,-1.49 -0.43,-0.05 -0.87,-0.02 -1.3,0.1 -0.42,0.12 -0.81,0.32 -1.16,0.59 -0.34,0.27 -0.63,0.61 -0.84,0.99 -0.22,0.38 -0.36,0.8 -0.41,1.24 -0.03,0.26 -0.03,0.53 0,0.79 0.5,0.06 1.01,0 1.49,-0.16 0.48,-0.17 0.91,-0.44 1.27,-0.79l0 0zm0 0l0 0 0 0z"/>
    </g>
   </g>
  </g>
 </g>
</svg>
