<?xml version="1.0" encoding="UTF-8"?>
<!DOCTYPE svg PUBLIC "-//W3C//DTD SVG 1.1//EN" "http://www.w3.org/Graphics/SVG/1.1/DTD/svg11.dtd">
<!-- Creator: CorelDRAW -->
<svg xmlns="http://www.w3.org/2000/svg" xml:space="preserve" width="344px" height="344px" version="1.1" style="shape-rendering:geometricPrecision; text-rendering:geometricPrecision; image-rendering:optimizeQuality; fill-rule:evenodd; clip-rule:evenodd"
viewBox="0 0 46.79 46.79"
 xmlns:xlink="http://www.w3.org/1999/xlink"
 xmlns:xodm="http://www.corel.com/coreldraw/odm/2003">
 <defs>
  <style type="text/css">
   <![CDATA[
    .fil0 {fill:#22522F}
    .fil2 {fill:#E94A2B}
    .fil1 {fill:#ED7308}
    .fil3 {fill:white}
   ]]>
  </style>
 </defs>
 <g id="Слой_x0020_1">
  <metadata id="CorelCorpID_0Corel-Layer"/>
  <g id="_2773547351040">
   <path class="fil0" d="M21.47 34.54l2.53 0 0 0.55 -2.53 0 0 -0.55zm-5.84 -0.91l0.66 0 0 0.87c0.16,0.02 0.76,0.03 0.9,0l0 -0.87 0.66 0 0.01 2.37 -0.67 0 0 -0.9 -0.9 0.01 0 0.89 -0.66 0 0 -2.37zm14.85 1.17c0,-0.66 0.56,-1.25 1.2,-1.25l0.13 0c0.65,0 1.2,0.6 1.2,1.27 0,0.7 -0.57,1.26 -1.26,1.26 -0.7,0 -1.27,-0.56 -1.27,-1.28zm-12.4 0c0,-0.68 0.56,-1.25 1.23,-1.25 1.23,0 1.68,1.41 0.92,2.16 -0.8,0.79 -2.15,0.24 -2.15,-0.91zm6.78 -1.17l0.66 0 0 1.27c0.05,-0.03 0.62,-0.81 0.74,-0.96 0.29,-0.4 0.12,-0.31 0.84,-0.31l0 2.37 -0.66 -0.01 -0.01 -1.31c-0.07,0.05 -0.78,1.05 -0.94,1.25 -0.05,0.06 -0.02,0.04 -0.09,0.07l-0.54 0 0 -2.37zm9.74 1.66c-1.6,0.25 -1.41,-0.7 -1.41,-1.66l0.66 0c0,0.25 -0.01,0.51 0,0.75 0.03,0.47 0.45,0.36 0.76,0.32l0 -1.07 0.66 0 0 2.37 -0.66 0 -0.01 -0.71zm-28.25 -1.66c0.24,-0.02 0.61,0 0.87,0 0.23,0 0.61,-0.04 0.8,0.05 0.18,0.09 0.34,0.28 0.34,0.53 0.01,0.29 -0.14,0.42 -0.3,0.54 0.67,0.31 0.45,1.25 -0.23,1.25 -0.3,0 -1.26,0.01 -1.48,-0.01l0 -2.36zm21.94 0l2.09 0 -0.01 0.58 -0.7 0 0 1.78 -0.66 0 0 -1.78 -0.71 -0.01 -0.01 -0.57zm-12.89 1.94c-0.34,0.45 -0.94,0.64 -1.45,0.43 -1.13,-0.45 -1.07,-1.99 0.02,-2.38 0.45,-0.16 1,-0.03 1.32,0.3l0.11 0.16 -0.5 0.38c-0.06,-0.03 -0.11,-0.14 -0.29,-0.21 -0.13,-0.05 -0.28,-0.06 -0.42,-0.01 -0.55,0.2 -0.52,0.98 0.01,1.15 0.31,0.09 0.57,-0.06 0.69,-0.22 0.08,0.06 0.17,0.13 0.26,0.2 0.04,0.03 0.08,0.06 0.13,0.1 0.05,0.03 0.08,0.05 0.12,0.1zm20.1 -1.94l0.66 0c0,0.26 -0.02,0.68 0,0.89 0.13,0 0.1,0.01 0.16,-0.06 0.03,-0.05 0.06,-0.08 0.09,-0.12l0.4 -0.49c0.05,-0.06 0.15,-0.21 0.21,-0.22l0.75 0c-0.07,0.12 -0.85,0.96 -0.97,1.15l1.01 1.19 0.98 -2.34 0.65 0 1 2.37 -0.71 0 -0.16 -0.42 -0.92 0 -0.16 0.42 -1.5 0c-0.04,-0.09 -0.12,-0.17 -0.19,-0.25 -0.07,-0.09 -0.12,-0.15 -0.2,-0.24 -0.06,-0.09 -0.13,-0.16 -0.19,-0.25 -0.15,-0.19 -0.12,-0.17 -0.26,-0.17l0.01 0.91 -0.66 -0.01 0 -2.36zm-26.86 0l0.66 0 0 0.89c0.09,0.01 0.12,0 0.16,-0.05 0.04,-0.05 0.06,-0.07 0.1,-0.13 0.07,-0.08 0.13,-0.16 0.2,-0.24 0.05,-0.08 0.32,-0.47 0.41,-0.47l1.42 0c0.07,0 0.07,0.03 0.1,0.09l0.2 0.36c0.06,0.12 0.2,0.4 0.27,0.48 0.13,-0.15 0.4,-0.87 0.52,-0.93l0.71 0 -1.3 2.37 -0.74 -0.01 0.44 -0.79 -0.89 -1.53c-0.03,0.02 0,0 -0.04,0.04l-0.91 1.07 1.01 1.21 -0.79 0.01c-0.05,-0.02 -0.51,-0.61 -0.59,-0.7 -0.18,-0.22 -0.13,-0.22 -0.28,-0.2l0 0.9 -0.66 0 0 -2.37zm5.96 -13.84c0.75,-0.08 1.42,0.02 2.09,0.25 0.56,0.19 1.14,0.55 1.49,0.87 0.22,0.2 0.4,0.34 0.6,0.6 0.56,0.74 0.93,1.48 1.04,2.49 0.29,2.78 -1.78,4.97 -4.21,5.22 -2.76,0.29 -4.97,-1.76 -5.22,-4.19 -0.17,-1.57 0.5,-3.1 1.39,-3.92 0.1,-0.09 0.2,-0.18 0.31,-0.27 0.21,-0.17 0.44,-0.34 0.7,-0.48 0.56,-0.3 1.09,-0.48 1.81,-0.57zm12.49 -10.78c0.34,-0.12 0.46,0.19 0.57,0.39 0.13,0.21 0.24,0.41 0.36,0.62l1.44 2.5c0.23,0.4 0.47,0.83 0.71,1.23 0.5,0.82 0.95,1.66 1.44,2.49l1.43 2.49c0.48,0.84 0.96,1.66 1.44,2.49 0.41,0.7 1.11,1.83 1.36,2.55 0.38,1.1 0.3,2.3 -0.12,3.33 -0.2,0.49 -0.46,0.88 -0.74,1.22 -0.21,0.26 -0.3,0.32 -0.48,0.5 -0.09,0.09 -0.43,0.37 -0.56,0.41 -0.33,0.1 -0.44,-0.19 -0.55,-0.38l-1.08 -1.87c-0.24,-0.43 -0.49,-0.83 -0.72,-1.25 -0.23,-0.41 -0.48,-0.84 -0.71,-1.24 -0.73,-1.21 -1.44,-2.5 -2.16,-3.74 -0.25,-0.41 -0.48,-0.81 -0.71,-1.23 -0.7,-1.25 -1.48,-2.51 -2.16,-3.74 -0.24,-0.42 -0.48,-0.8 -0.65,-1.31 -0.35,-1.08 -0.32,-2.3 0.11,-3.32 0.21,-0.5 0.45,-0.89 0.74,-1.23 0.23,-0.27 0.28,-0.29 0.48,-0.5 0.07,-0.07 0.44,-0.38 0.56,-0.41zm-7.93 0c0.33,-0.13 0.47,0.18 0.58,0.38l2.51 4.35c0.92,1.64 1.96,3.34 2.87,4.98 0.24,0.41 0.48,0.84 0.72,1.25 0.25,0.41 0.47,0.83 0.72,1.24 0.36,0.61 1.16,1.93 1.36,2.55 0.37,1.14 0.32,2.28 -0.11,3.34 -0.1,0.23 -0.21,0.45 -0.33,0.65 -0.12,0.19 -0.28,0.42 -0.41,0.57 -0.12,0.14 -0.36,0.41 -0.48,0.5 -0.11,0.09 -0.42,0.36 -0.56,0.41 -0.33,0.1 -0.44,-0.17 -0.56,-0.38l-1.08 -1.87c-0.24,-0.41 -0.48,-0.82 -0.72,-1.25 -0.91,-1.63 -1.96,-3.34 -2.87,-4.97 -0.23,-0.41 -0.47,-0.84 -0.71,-1.24 -0.48,-0.79 -0.96,-1.68 -1.44,-2.49 -0.35,-0.6 -1.16,-1.94 -1.36,-2.55 -0.37,-1.12 -0.33,-2.27 0.1,-3.32 0.21,-0.5 0.46,-0.88 0.74,-1.23 0.13,-0.17 0.45,-0.5 0.62,-0.62 0.12,-0.09 0.26,-0.24 0.41,-0.3zm-19.16 13.97l0.04 2c0.01,0.08 0.02,0.08 0.02,0.17 0.01,0.22 0.04,0.47 0.06,0.66 0.12,0.92 0.2,1.56 0.39,2.48 0.04,0.19 0.09,0.41 0.13,0.59 0.05,0.21 0.1,0.37 0.15,0.57 0.14,0.56 0.32,1.1 0.5,1.65 0.13,0.36 0.26,0.7 0.4,1.05 0.33,0.83 0.63,1.4 1.02,2.2l0.18 0.34c0.03,0.05 0.04,0.06 0.07,0.12 0.53,0.99 1.18,1.91 1.86,2.81 0.1,0.14 0.2,0.27 0.31,0.4 0.24,0.3 0.48,0.6 0.73,0.88 0.04,0.03 0.06,0.05 0.1,0.09 0.04,0.05 0.04,0.06 0.08,0.11l0.52 0.55c0.03,0.04 0.05,0.06 0.09,0.09 0.36,0.36 1.1,1.09 1.48,1.39 0.05,0.03 0.06,0.05 0.1,0.09 0.04,0.03 0.06,0.04 0.1,0.08 0.9,0.8 1.91,1.45 2.91,2.1l0.92 0.52c0.08,0.04 0.14,0.09 0.23,0.13 0.86,0.43 1.25,0.65 2.21,1.03 1.24,0.5 2.54,0.93 3.85,1.19 0.19,0.04 0.4,0.08 0.59,0.12 0.41,0.08 0.81,0.14 1.25,0.2 0.21,0.03 0.42,0.06 0.64,0.08 0.2,0.01 0.45,0.06 0.67,0.06 0.21,0 0.45,0.04 0.67,0.04 0.24,0 0.44,0.02 0.71,0.02l1.19 0c0.31,-0.01 0.69,-0.06 1,-0.06 0.75,-0.01 2.4,-0.31 3.13,-0.45 0.97,-0.19 1.89,-0.48 2.81,-0.79 0.53,-0.18 1.05,-0.38 1.56,-0.6l0.99 -0.46c0.94,-0.47 1.84,-0.98 2.72,-1.56 0.15,-0.11 0.28,-0.2 0.43,-0.3 0.08,-0.05 0.14,-0.1 0.21,-0.15 0.07,-0.05 0.14,-0.1 0.21,-0.15l2.16 -1.79c0.06,-0.06 0.11,-0.13 0.18,-0.18 0.04,-0.04 0.05,-0.04 0.09,-0.08 0.29,-0.25 0.53,-0.55 0.81,-0.82l0.5 -0.56c0.06,-0.07 0.11,-0.12 0.17,-0.19l1.11 -1.4c0.06,-0.07 0.1,-0.13 0.15,-0.2 0.06,-0.08 0.11,-0.15 0.16,-0.22 0.19,-0.29 0.4,-0.56 0.57,-0.86l1.06 -1.83c0.66,-1.31 1.25,-2.66 1.64,-4.09 0.37,-1.33 0.56,-2.14 0.76,-3.55 0.06,-0.46 0.18,-1.54 0.18,-1.97 0,-0.24 0.02,-0.45 0.02,-0.72l0 -1.19c-0.01,-0.31 -0.06,-0.69 -0.06,-1 0,-0.21 -0.04,-0.46 -0.06,-0.66 -0.09,-0.84 -0.23,-1.66 -0.39,-2.47 -0.28,-1.44 -0.81,-3.04 -1.39,-4.37l-0.34 -0.74c-0.29,-0.67 -0.75,-1.48 -1.13,-2.1 -0.35,-0.59 -0.74,-1.17 -1.15,-1.72l-0.95 -1.2c-0.06,-0.07 -0.1,-0.13 -0.16,-0.19l-1.95 -2.01 -0.76 -0.68c-0.07,-0.06 -0.13,-0.11 -0.2,-0.16l-0.59 -0.48c-0.61,-0.47 -1.24,-0.93 -1.9,-1.32 -0.09,-0.05 -0.15,-0.08 -0.22,-0.13 -0.88,-0.56 -1.9,-1.07 -2.86,-1.48 -1.37,-0.59 -2.87,-1.1 -4.34,-1.39 -0.19,-0.04 -0.4,-0.08 -0.59,-0.12 -0.49,-0.1 -2.01,-0.33 -2.55,-0.34 -0.22,0 -0.46,-0.04 -0.67,-0.04 -0.24,0 -0.45,-0.02 -0.72,-0.02l-2 0.04c-1.12,0.09 -2.21,0.25 -3.31,0.47 -0.19,0.04 -0.41,0.09 -0.59,0.13 -1.12,0.24 -2.75,0.8 -3.77,1.26l-1.47 0.69c-0.09,0.04 -0.14,0.08 -0.23,0.12 -0.86,0.43 -1.65,0.98 -2.45,1.5 -0.67,0.45 -1.29,0.97 -1.91,1.49l-0.67 0.6c-0.06,0.07 -0.11,0.12 -0.17,0.18 -0.25,0.23 -0.52,0.46 -0.73,0.72 -0.05,0.06 -0.12,0.12 -0.17,0.18 -0.08,0.08 -0.11,0.11 -0.17,0.19l-1.32 1.55c-0.53,0.67 -0.99,1.4 -1.46,2.12 -0.09,0.15 -0.17,0.31 -0.27,0.46 -0.27,0.45 -0.51,0.93 -0.75,1.41 -0.04,0.09 -0.08,0.14 -0.11,0.24 -0.04,0.09 -0.09,0.17 -0.13,0.25 -0.53,1.2 -0.98,2.42 -1.33,3.69 -0.27,0.99 -0.46,1.97 -0.6,3 -0.12,0.88 -0.2,1.79 -0.2,2.69z"/>
   <path class="fil1" d="M19.16 9.01c-0.15,0.06 -0.29,0.21 -0.41,0.3 -0.17,0.12 -0.49,0.45 -0.62,0.62 -0.28,0.35 -0.53,0.73 -0.74,1.23 -0.43,1.05 -0.47,2.2 -0.1,3.32 0.2,0.61 1.01,1.95 1.36,2.55 0.48,0.81 0.96,1.7 1.44,2.49 0.24,0.4 0.48,0.83 0.71,1.24 0.91,1.63 1.96,3.34 2.87,4.97 0.24,0.43 0.48,0.84 0.72,1.25l1.08 1.87c0.12,0.21 0.23,0.48 0.56,0.38 0.14,-0.05 0.45,-0.32 0.56,-0.41 0.12,-0.09 0.36,-0.36 0.48,-0.5 0.13,-0.15 0.29,-0.38 0.41,-0.57 0.12,-0.2 0.23,-0.42 0.33,-0.65 0.43,-1.06 0.48,-2.2 0.11,-3.34 -0.2,-0.62 -1,-1.94 -1.36,-2.55 -0.25,-0.41 -0.47,-0.83 -0.72,-1.24 -0.24,-0.41 -0.48,-0.84 -0.72,-1.25 -0.91,-1.64 -1.95,-3.34 -2.87,-4.98l-2.51 -4.35c-0.11,-0.2 -0.25,-0.51 -0.58,-0.38z"/>
   <path class="fil1" d="M27.09 9.01c-0.12,0.03 -0.49,0.34 -0.56,0.41 -0.2,0.21 -0.25,0.23 -0.48,0.5 -0.29,0.34 -0.53,0.73 -0.74,1.23 -0.43,1.02 -0.46,2.24 -0.11,3.32 0.17,0.51 0.41,0.89 0.65,1.31 0.68,1.23 1.46,2.49 2.16,3.74 0.23,0.42 0.46,0.82 0.71,1.23 0.72,1.24 1.43,2.53 2.16,3.74 0.23,0.4 0.48,0.83 0.71,1.24 0.23,0.42 0.48,0.82 0.72,1.25l1.08 1.87c0.11,0.19 0.22,0.48 0.55,0.38 0.13,-0.04 0.47,-0.32 0.56,-0.41 0.18,-0.18 0.27,-0.24 0.48,-0.5 0.28,-0.34 0.54,-0.73 0.74,-1.22 0.42,-1.03 0.5,-2.23 0.12,-3.33 -0.25,-0.72 -0.95,-1.85 -1.36,-2.55 -0.48,-0.83 -0.96,-1.65 -1.44,-2.49l-1.43 -2.49c-0.49,-0.83 -0.94,-1.67 -1.44,-2.49 -0.24,-0.4 -0.48,-0.83 -0.71,-1.23l-1.44 -2.5c-0.12,-0.21 -0.23,-0.41 -0.36,-0.62 -0.11,-0.2 -0.23,-0.51 -0.57,-0.39z"/>
   <path class="fil2" d="M14.6 19.79c-0.72,0.09 -1.25,0.27 -1.81,0.57 -0.26,0.14 -0.49,0.31 -0.7,0.48 -0.11,0.09 -0.21,0.18 -0.31,0.27 -0.89,0.82 -1.56,2.35 -1.39,3.92 0.25,2.43 2.46,4.48 5.22,4.19 2.43,-0.25 4.5,-2.44 4.21,-5.22 -0.11,-1.01 -0.48,-1.75 -1.04,-2.49 -0.2,-0.26 -0.38,-0.4 -0.6,-0.6 -0.35,-0.32 -0.93,-0.68 -1.49,-0.87 -0.67,-0.23 -1.34,-0.33 -2.09,-0.25z"/>
   <path class="fil3" d="M38.86 35.06c0.03,-0.11 0.21,-0.59 0.26,-0.64l0.24 0.64 -0.5 0zm-3.36 0.93l0.66 0.01 -0.01 -0.91c0.14,0 0.11,-0.02 0.26,0.17 0.06,0.09 0.13,0.16 0.19,0.25 0.08,0.09 0.13,0.15 0.2,0.24 0.07,0.08 0.15,0.16 0.19,0.25l1.5 0 0.16 -0.42 0.92 0 0.16 0.42 0.71 0 -1 -2.37 -0.65 0 -0.98 2.34 -1.01 -1.19c0.12,-0.19 0.9,-1.03 0.97,-1.15l-0.75 0c-0.06,0.01 -0.16,0.16 -0.21,0.22l-0.4 0.49c-0.03,0.04 -0.06,0.07 -0.09,0.12 -0.06,0.07 -0.03,0.06 -0.16,0.06 -0.02,-0.21 0,-0.63 0,-0.89l-0.66 0 0 2.36z"/>
   <path class="fil3" d="M8.64 36l0.66 0 0 -0.9c0.15,-0.02 0.1,-0.02 0.28,0.2 0.08,0.09 0.54,0.68 0.59,0.7l0.79 -0.01 -1.01 -1.21 0.91 -1.07c0.04,-0.04 0.01,-0.02 0.04,-0.04l0.89 1.53 -0.44 0.79 0.74 0.01 1.3 -2.37 -0.71 0c-0.12,0.06 -0.39,0.78 -0.52,0.93 -0.07,-0.08 -0.21,-0.36 -0.27,-0.48l-0.2 -0.36c-0.03,-0.06 -0.03,-0.09 -0.1,-0.09l-1.42 0c-0.09,0 -0.36,0.39 -0.41,0.47 -0.07,0.08 -0.13,0.16 -0.2,0.24 -0.04,0.06 -0.06,0.08 -0.1,0.13 -0.04,0.05 -0.07,0.06 -0.16,0.05l0 -0.89 -0.66 0 0 2.37z"/>
   <path class="fil3" d="M6.99 35.03c0.28,0 0.83,-0.1 0.81,0.23 0,0.29 -0.42,0.21 -0.81,0.21l0 -0.44zm0.01 -0.87c0.24,0 0.7,-0.09 0.71,0.2 0.01,0.3 -0.46,0.21 -0.72,0.21l0.01 -0.41zm-0.65 1.83c0.22,0.02 1.18,0.01 1.48,0.01 0.68,0 0.9,-0.94 0.23,-1.25 0.16,-0.12 0.31,-0.25 0.3,-0.54 0,-0.25 -0.16,-0.44 -0.34,-0.53 -0.19,-0.09 -0.57,-0.05 -0.8,-0.05 -0.26,0 -0.63,-0.02 -0.87,0l0 2.36z"/>
   <path class="fil3" d="M24.86 36l0.54 0c0.07,-0.03 0.04,-0.01 0.09,-0.07 0.16,-0.2 0.87,-1.2 0.94,-1.25l0.01 1.31 0.66 0.01 0 -2.37c-0.72,0 -0.55,-0.09 -0.84,0.31 -0.12,0.15 -0.69,0.93 -0.74,0.96l0 -1.27 -0.66 0 0 2.37z"/>
   <path class="fil3" d="M31.6 34.23c0.36,-0.1 0.66,0.16 0.73,0.44 0.19,0.79 -0.99,1.05 -1.18,0.28 -0.08,-0.37 0.17,-0.65 0.45,-0.72zm-1.12 0.57c0,0.72 0.57,1.28 1.27,1.28 0.69,0 1.26,-0.56 1.26,-1.26 0,-0.67 -0.55,-1.27 -1.2,-1.27l-0.13 0c-0.64,0 -1.2,0.59 -1.2,1.25z"/>
   <path class="fil3" d="M19.21 34.23c0.36,-0.09 0.66,0.17 0.72,0.45 0.08,0.37 -0.17,0.66 -0.45,0.72 -0.77,0.18 -1.06,-0.99 -0.27,-1.17zm-1.13 0.57c0,1.15 1.35,1.7 2.15,0.91 0.76,-0.75 0.31,-2.16 -0.92,-2.16 -0.67,0 -1.23,0.57 -1.23,1.25z"/>
   <path class="fil3" d="M15.63 36l0.66 0 0 -0.89 0.9 -0.01 0 0.9 0.67 0 -0.01 -2.37 -0.66 0 0 0.87c-0.14,0.03 -0.74,0.02 -0.9,0l0 -0.87 -0.66 0 0 2.37z"/>
   <path class="fil3" d="M15.4 35.57c-0.04,-0.05 -0.07,-0.07 -0.12,-0.1 -0.05,-0.04 -0.09,-0.07 -0.13,-0.1 -0.09,-0.07 -0.18,-0.14 -0.26,-0.2 -0.12,0.16 -0.38,0.31 -0.69,0.22 -0.53,-0.17 -0.56,-0.95 -0.01,-1.15 0.14,-0.05 0.29,-0.04 0.42,0.01 0.18,0.07 0.23,0.18 0.29,0.21l0.5 -0.38 -0.11 -0.16c-0.32,-0.33 -0.87,-0.46 -1.32,-0.3 -1.09,0.39 -1.15,1.93 -0.02,2.38 0.51,0.21 1.11,0.02 1.45,-0.43z"/>
   <path class="fil3" d="M34.6 35.29l0.01 0.71 0.66 0 0 -2.37 -0.66 0 0 1.07c-0.31,0.04 -0.73,0.15 -0.76,-0.32 -0.01,-0.24 0,-0.5 0,-0.75l-0.66 0c0,0.96 -0.19,1.91 1.41,1.66z"/>
   <polygon class="fil3" points="28.3,34.2 29.01,34.21 29.01,35.99 29.67,35.99 29.67,34.21 30.37,34.21 30.38,33.63 28.29,33.63 "/>
   <polygon class="fil3" points="21.47,35.09 24,35.09 24,34.54 21.47,34.54 "/>
   <path class="fil0" d="M31.6 34.23c-0.28,0.07 -0.53,0.35 -0.45,0.72 0.19,0.77 1.37,0.51 1.18,-0.28 -0.07,-0.28 -0.37,-0.54 -0.73,-0.44z"/>
   <path class="fil0" d="M19.21 34.23c-0.79,0.18 -0.5,1.35 0.27,1.17 0.28,-0.06 0.53,-0.35 0.45,-0.72 -0.06,-0.28 -0.36,-0.54 -0.72,-0.45z"/>
   <path class="fil0" d="M6.99 35.47c0.39,0 0.81,0.08 0.81,-0.21 0.02,-0.33 -0.53,-0.23 -0.81,-0.23l0 0.44z"/>
   <path class="fil0" d="M6.99 34.57c0.26,0 0.73,0.09 0.72,-0.21 -0.01,-0.29 -0.47,-0.2 -0.71,-0.2l-0.01 0.41z"/>
   <path class="fil0" d="M38.86 35.06l0.5 0 -0.24 -0.64c-0.05,0.05 -0.23,0.53 -0.26,0.64z"/>
  </g>
 </g>
</svg>
