<?xml version="1.0" encoding="UTF-8"?>
<!DOCTYPE svg PUBLIC "-//W3C//DTD SVG 1.1//EN" "http://www.w3.org/Graphics/SVG/1.1/DTD/svg11.dtd">
<!-- Creator: CorelDRAW -->
<svg xmlns="http://www.w3.org/2000/svg" xml:space="preserve" width="173px" height="57px" version="1.1" style="shape-rendering:geometricPrecision; text-rendering:geometricPrecision; image-rendering:optimizeQuality; fill-rule:evenodd; clip-rule:evenodd"
viewBox="0 0 40.45 13.4"
 xmlns:xlink="http://www.w3.org/1999/xlink"
 xmlns:xodm="http://www.corel.com/coreldraw/odm/2003">
 <defs>
  <style type="text/css">
   <![CDATA[
    .fil0 {fill:#352408}
    .fil1 {fill:#352408;fill-rule:nonzero}
   ]]>
  </style>
 </defs>
 <g id="Слой_x0020_1">
  <metadata id="CorelCorpID_0Corel-Layer"/>
  <g id="_2770925903936">
   <path class="fil0" d="M1.14 3.71l0 -1.53c0,-0.27 0,-0.28 -0.14,-0.39 -0.2,-0.12 -0.69,-0.08 -0.89,0 -0.14,0.32 -0.15,6.27 -0.01,6.63 0.25,0.11 0.72,0.1 0.97,0 0.15,-0.39 0.06,-2.93 0.07,-3.59 2.75,-0.57 1.35,2.32 1.81,3.6 0.22,0.07 0.7,0.12 0.92,0 0.24,-0.19 0.16,-2.96 0.01,-3.39 -0.14,-0.4 -0.34,-0.54 -0.47,-0.78 0.17,-0.34 0.38,-0.41 0.51,-0.95 0.13,-0.5 0,-0.98 0.08,-1.45 0.14,-0.89 1.46,-0.96 1.7,-0.11 0.18,0.63 -0.26,1.54 0.55,2.42 0.83,0.9 1.76,0.55 2.33,0.47 0,1.15 0.21,2.32 -0.49,2.66 -0.46,0.23 -0.93,0 -1.11,-0.27 -0.28,-0.43 -0.06,-0.89 -0.23,-1.33 -0.24,-0.06 -0.69,-0.1 -0.92,0.02 -0.18,0.16 -0.37,1.88 1.02,2.58 1.13,0.56 2.23,-0.14 2.62,-0.91 0.35,-0.71 0.21,-4.22 0.21,-5.49l0 -1.46c-0.02,-0.68 -1.01,-0.42 -1.08,-0.2 -0.04,0.13 -0.02,1 -0.02,1.21 0,0.75 0.16,1.69 -0.34,2.08 -0.58,0.45 -1.37,0.05 -1.4,-0.67 -0.05,-0.86 0.07,-1.4 -0.4,-2.02 -0.82,-1.1 -2.46,-1 -3.19,0.05 -0.54,0.78 -0.25,1.14 -0.37,2.06 -0.11,0.83 -0.91,0.77 -1.74,0.76zm21.84 -2.56c1.21,-0.07 1.73,-0.02 1.73,1.26 0,1.24 -0.48,1.44 -1.76,1.29l0.03 -2.55zm-1.05 7.27c0.26,0.1 0.72,0.11 0.96,-0.01 0.14,-0.37 0.06,-2.95 0.06,-3.59 0.93,-0.1 1.32,0.15 2.06,-0.41 0.44,-0.33 0.79,-0.88 0.79,-1.72 0,-0.86 -0.02,-1.46 -0.49,-1.97 -0.48,-0.51 -0.92,-0.67 -1.85,-0.67 -1.76,0 -1.6,-0.17 -1.6,0.9 0,1.22 -0.07,7.11 0.07,7.47zm10.53 -5.6c0.16,-0.49 -0.07,-1.09 0.34,-1.45 0.4,-0.36 0.99,-0.27 1.29,0.11 0.24,0.29 0.27,1.13 0.16,1.57 -0.16,0.69 -0.62,0.53 -1.09,0.75 -0.06,0.26 -0.06,0.67 0,0.92 0.44,0.23 0.89,0.04 1.08,0.7 0.13,0.44 0.07,1.35 -0.14,1.63 -0.26,0.35 -0.84,0.52 -1.27,0.13 -0.52,-0.46 -0.17,-0.92 -0.38,-1.47 -1.07,-0.31 -1.18,0.28 -0.97,1.24 0.49,2.21 3.76,1.96 3.89,-0.33 0.1,-1.77 -0.15,-1.6 -0.58,-2.36 0.19,-0.34 0.43,-0.44 0.55,-1.03 0.06,-0.31 0.06,-1.23 0.01,-1.55 -0.33,-2.12 -3.92,-2.46 -3.93,0.67 0,0.3 -0.01,0.47 0.29,0.52 0.22,0.04 0.58,0.01 0.75,-0.05zm-5.94 -2.38l0 2.3c0,0.82 0.34,1.34 0.82,1.68 0.64,0.47 1.21,0.41 2.03,0.21 0,0.55 0,1.1 0,1.65 0,0.55 -0.15,0.95 -0.62,1.08 -0.51,0.14 -0.94,-0.16 -1.08,-0.53 -0.25,-0.71 0.38,-1.18 -0.68,-1.17 -0.42,0 -0.46,0.04 -0.47,0.45 0,1.19 0.48,2.29 1.82,2.37 1.27,0.09 2.13,-0.87 2.13,-2.09 0,-0.99 0.05,-3.93 -0.04,-4.72 -0.31,-0.13 -1.01,-0.23 -1.06,0.23 -0.05,0.47 0.12,1.01 -0.14,1.4 -0.46,0.72 -1.61,0.51 -1.61,-0.61l0 -2.19c0,-0.51 -0.16,-0.46 -0.68,-0.46 -0.33,0 -0.42,0.07 -0.42,0.4zm11.06 3.28c-0.05,-0.39 -0.04,-1.29 -0.01,-1.7 0.06,-1.15 1.69,-1.14 1.75,-0.01 0.02,0.42 0.03,1.31 -0.01,1.72l-1.73 -0.01zm-0.09 2.44c0.19,-0.25 0.07,-0.96 0.08,-1.32l1.75 -0.02c0.01,0.7 -0.08,3.2 0.06,3.61 0.26,0.09 0.73,0.09 0.98,-0.01 0.15,-0.4 0.06,-4.07 0.06,-4.83 0,-1.17 0.28,-3.03 -1.49,-3.47 -0.75,-0.18 -1.43,0.09 -1.84,0.49 -0.49,0.47 -0.62,0.94 -0.62,1.85 0,0.37 -0.06,3.48 0.04,3.68 0.1,0.2 0.79,0.23 0.98,0.02zm-26.56 -5.66c0,0.81 -0.09,5.74 0.07,6.11 0.25,0.1 0.7,0.1 0.94,0 0.15,-0.32 0.08,-1.34 0.08,-1.78 0.91,-0.14 1.73,0.01 1.76,0.89 0.02,0.6 -0.09,2.3 0.06,2.71 1.27,0.17 1.03,0.35 1.03,-2.6 0,-1.07 -0.37,-1.15 -0.58,-1.57 0.55,-0.93 0.59,-0.61 0.58,-2.08 -0.02,-1.4 1.81,-1.4 1.75,0.06 -0.03,0.92 0.02,1.66 0.82,2.2 0.77,0.51 1.19,0.34 2.01,0.18l0.01 1.77c0,1.27 -1.45,1.28 -1.72,0.39 -0.1,-0.31 0.01,-0.78 -0.11,-1.07 -1.13,-0.19 -1.02,0.02 -1.02,0.74 0.01,2.7 3.94,2.72 3.94,-0.06 0,-0.88 0.09,-5.91 -0.07,-6.28 -0.33,-0.07 -0.6,-0.13 -0.95,0 -0.39,0.93 0.52,3.4 -0.79,3.59 -0.81,0.12 -1.03,-0.5 -1.03,-1.18 0.01,-0.77 -0.04,-1.31 -0.46,-1.76 -1,-1.09 -2.42,-0.79 -3.02,-0.01 -1.16,1.52 0.64,3.16 -2.21,2.95 -0.01,-0.77 0.07,-3.25 -0.07,-3.59 -0.23,-0.09 -0.37,-0.07 -0.62,-0.07 -0.36,0 -0.4,0.11 -0.4,0.46z"/>
   <path class="fil1" d="M5.99 11.68l0.24 0 0 1.12c0,0.17 -0.05,0.31 -0.17,0.43 -0.11,0.11 -0.25,0.17 -0.41,0.17 -0.13,0 -0.24,-0.03 -0.34,-0.1 -0.11,-0.07 -0.18,-0.17 -0.23,-0.3l0.25 0c0.08,0.12 0.19,0.19 0.33,0.19 0.09,0 0.17,-0.04 0.23,-0.1 0.07,-0.07 0.1,-0.15 0.1,-0.25l0 -0.22c-0.12,0.18 -0.27,0.26 -0.45,0.26 -0.15,0 -0.28,-0.06 -0.39,-0.18 -0.12,-0.13 -0.17,-0.27 -0.17,-0.44 0,-0.17 0.05,-0.32 0.16,-0.44 0.11,-0.12 0.24,-0.18 0.39,-0.18 0.19,0 0.35,0.09 0.46,0.28l0 -0.24zm0.04 0.58c0,-0.11 -0.04,-0.2 -0.12,-0.28 -0.08,-0.07 -0.17,-0.11 -0.28,-0.11 -0.11,0 -0.2,0.04 -0.28,0.12 -0.08,0.07 -0.11,0.16 -0.11,0.26 0,0.11 0.03,0.21 0.11,0.29 0.08,0.08 0.17,0.12 0.28,0.12 0.11,0 0.2,-0.04 0.28,-0.12 0.08,-0.08 0.12,-0.17 0.12,-0.28zm2.04 0.05l-1 0c0.02,0.12 0.07,0.21 0.14,0.26 0.08,0.06 0.17,0.09 0.26,0.09 0.14,0 0.26,-0.06 0.35,-0.18l0.18 0.14c-0.13,0.18 -0.32,0.26 -0.54,0.26 -0.18,0 -0.32,-0.06 -0.44,-0.18 -0.12,-0.12 -0.18,-0.27 -0.18,-0.44 0,-0.17 0.06,-0.31 0.18,-0.44 0.12,-0.12 0.26,-0.18 0.44,-0.18 0.17,0 0.31,0.06 0.43,0.19 0.12,0.12 0.18,0.28 0.18,0.48zm-0.98 -0.2l0.72 0c-0.08,-0.16 -0.2,-0.24 -0.35,-0.24 -0.17,0 -0.29,0.08 -0.37,0.24zm1.53 0.15c0,-0.16 0.06,-0.31 0.19,-0.43 0.13,-0.13 0.27,-0.19 0.44,-0.19 0.17,0 0.31,0.06 0.44,0.19 0.13,0.12 0.19,0.26 0.19,0.43 0,0.16 -0.06,0.31 -0.19,0.44 -0.12,0.12 -0.26,0.19 -0.43,0.19 -0.17,0 -0.32,-0.07 -0.45,-0.19 -0.13,-0.13 -0.19,-0.27 -0.19,-0.44zm1.02 0c0,-0.1 -0.04,-0.19 -0.11,-0.26 -0.08,-0.08 -0.17,-0.11 -0.27,-0.11 -0.11,0 -0.2,0.03 -0.28,0.11 -0.08,0.07 -0.12,0.16 -0.12,0.27 0,0.1 0.04,0.18 0.12,0.26 0.08,0.07 0.17,0.11 0.28,0.11 0.1,0 0.19,-0.04 0.27,-0.11 0.07,-0.08 0.11,-0.17 0.11,-0.27zm1.11 -0.58l0 0.24 0 0c0.06,-0.1 0.11,-0.17 0.16,-0.21 0.06,-0.05 0.13,-0.07 0.21,-0.07 0.02,0 0.06,0.01 0.1,0.02l-0.07 0.24c-0.05,0 -0.08,-0.01 -0.1,-0.01 -0.08,0 -0.15,0.03 -0.21,0.09 -0.05,0.06 -0.08,0.13 -0.08,0.22l0 0.65 -0.25 0 0 -1.17 0.24 0zm2.01 0l0.24 0 0 1.12c0,0.17 -0.06,0.31 -0.17,0.43 -0.12,0.11 -0.25,0.17 -0.42,0.17 -0.12,0 -0.23,-0.03 -0.34,-0.1 -0.1,-0.07 -0.18,-0.17 -0.22,-0.3l0.25 0c0.08,0.12 0.19,0.19 0.32,0.19 0.1,0 0.17,-0.04 0.24,-0.1 0.07,-0.07 0.1,-0.15 0.1,-0.25l0 -0.22c-0.12,0.18 -0.27,0.26 -0.45,0.26 -0.15,0 -0.29,-0.06 -0.4,-0.18 -0.11,-0.13 -0.16,-0.27 -0.16,-0.44 0,-0.17 0.05,-0.32 0.16,-0.44 0.11,-0.12 0.24,-0.18 0.39,-0.18 0.19,0 0.34,0.09 0.46,0.28l0 -0.24zm0.03 0.58c0,-0.11 -0.04,-0.2 -0.11,-0.28 -0.08,-0.07 -0.17,-0.11 -0.29,-0.11 -0.1,0 -0.19,0.04 -0.27,0.12 -0.08,0.07 -0.12,0.16 -0.12,0.26 0,0.11 0.04,0.21 0.12,0.29 0.08,0.08 0.17,0.12 0.28,0.12 0.11,0 0.2,-0.04 0.28,-0.12 0.07,-0.08 0.11,-0.17 0.11,-0.28zm0.89 -0.97c0,-0.05 0.01,-0.1 0.05,-0.13 0.04,-0.04 0.09,-0.06 0.14,-0.06 0.05,0 0.09,0.02 0.13,0.06 0.04,0.03 0.06,0.08 0.06,0.13 0,0.05 -0.02,0.1 -0.06,0.13 -0.04,0.04 -0.08,0.06 -0.13,0.06 -0.05,0 -0.1,-0.02 -0.14,-0.06 -0.04,-0.03 -0.05,-0.08 -0.05,-0.13zm0.07 0.39l0.24 0 0 1.17 -0.24 0 0 -1.17zm1.93 0l0.25 0 0 1.17 -0.25 0 0 -0.23c-0.12,0.17 -0.27,0.26 -0.45,0.26 -0.15,0 -0.29,-0.06 -0.39,-0.18 -0.11,-0.12 -0.17,-0.27 -0.17,-0.44 0,-0.17 0.06,-0.31 0.17,-0.44 0.11,-0.12 0.24,-0.18 0.39,-0.18 0.09,0 0.18,0.03 0.26,0.08 0.08,0.05 0.15,0.11 0.19,0.19l0 -0.23zm0.04 0.58c0,-0.1 -0.04,-0.19 -0.12,-0.27 -0.08,-0.08 -0.17,-0.12 -0.28,-0.12 -0.1,0 -0.19,0.04 -0.27,0.12 -0.08,0.07 -0.12,0.16 -0.12,0.27 0,0.11 0.04,0.2 0.11,0.28 0.08,0.08 0.17,0.12 0.28,0.12 0.11,0 0.2,-0.04 0.28,-0.12 0.08,-0.08 0.12,-0.17 0.12,-0.28zm0.87 0.59l0 -1.17 0.25 0 0 0.19c0.07,-0.08 0.13,-0.14 0.19,-0.17 0.06,-0.04 0.12,-0.06 0.19,-0.06 0.11,0 0.2,0.04 0.27,0.11 0.08,0.07 0.11,0.15 0.11,0.25l0 0.85 -0.24 0 0 -0.78c0,-0.06 -0.02,-0.11 -0.07,-0.16 -0.04,-0.04 -0.09,-0.06 -0.15,-0.06 -0.08,0 -0.15,0.04 -0.21,0.11 -0.06,0.07 -0.09,0.15 -0.09,0.25l0 0.64 -0.25 0zm3.17 -1.83l0 0.25c-0.07,-0.05 -0.14,-0.07 -0.19,-0.07 -0.04,0 -0.08,0.01 -0.1,0.05 -0.03,0.03 -0.04,0.07 -0.04,0.13l0 0.3 0.33 0 0 0.22 -0.33 0 0 0.95 -0.25 0 0 -0.95 -0.21 0 0 -0.22 0.21 0 0 -0.28c0,-0.14 0.04,-0.24 0.11,-0.32 0.07,-0.08 0.16,-0.12 0.27,-0.12 0.06,0 0.12,0.02 0.2,0.06zm0.47 1.24c0,-0.16 0.06,-0.31 0.19,-0.43 0.12,-0.13 0.27,-0.19 0.43,-0.19 0.17,0 0.32,0.06 0.45,0.19 0.12,0.12 0.19,0.26 0.19,0.43 0,0.16 -0.07,0.31 -0.19,0.44 -0.12,0.12 -0.27,0.19 -0.43,0.19 -0.17,0 -0.32,-0.07 -0.45,-0.19 -0.13,-0.13 -0.19,-0.27 -0.19,-0.44zm1.02 0c0,-0.1 -0.04,-0.19 -0.12,-0.26 -0.07,-0.08 -0.16,-0.11 -0.27,-0.11 -0.1,0 -0.2,0.03 -0.28,0.11 -0.07,0.07 -0.11,0.16 -0.11,0.27 0,0.1 0.04,0.18 0.12,0.26 0.07,0.07 0.17,0.11 0.27,0.11 0.11,0 0.19,-0.04 0.27,-0.11 0.08,-0.08 0.12,-0.17 0.12,-0.27zm0.77 0c0,-0.16 0.06,-0.31 0.19,-0.43 0.12,-0.13 0.27,-0.19 0.43,-0.19 0.17,0 0.32,0.06 0.45,0.19 0.12,0.12 0.19,0.26 0.19,0.43 0,0.16 -0.06,0.31 -0.19,0.44 -0.12,0.12 -0.27,0.19 -0.43,0.19 -0.17,0 -0.32,-0.07 -0.45,-0.19 -0.13,-0.13 -0.19,-0.27 -0.19,-0.44zm1.02 0c0,-0.1 -0.04,-0.19 -0.12,-0.26 -0.07,-0.08 -0.16,-0.11 -0.27,-0.11 -0.1,0 -0.2,0.03 -0.27,0.11 -0.08,0.07 -0.12,0.16 -0.12,0.27 0,0.1 0.04,0.18 0.12,0.26 0.08,0.07 0.17,0.11 0.27,0.11 0.11,0 0.2,-0.04 0.27,-0.11 0.08,-0.08 0.12,-0.17 0.12,-0.27zm1.82 -1.26l0.25 0 0 1.85 -0.25 0 0 -0.24c-0.11,0.18 -0.27,0.27 -0.46,0.27 -0.15,0 -0.28,-0.06 -0.39,-0.18 -0.11,-0.12 -0.16,-0.27 -0.16,-0.44 0,-0.17 0.05,-0.32 0.16,-0.44 0.11,-0.12 0.25,-0.18 0.4,-0.18 0.1,0 0.18,0.03 0.26,0.08 0.08,0.05 0.15,0.11 0.19,0.2l0 -0.92zm0.03 1.26c0,-0.11 -0.04,-0.2 -0.11,-0.28 -0.08,-0.07 -0.17,-0.11 -0.28,-0.11 -0.11,0 -0.21,0.04 -0.28,0.11 -0.08,0.08 -0.12,0.17 -0.12,0.28 0,0.1 0.04,0.2 0.12,0.27 0.08,0.08 0.17,0.12 0.27,0.12 0.12,0 0.21,-0.04 0.29,-0.11 0.07,-0.08 0.11,-0.17 0.11,-0.28zm2.51 -0.39l0.38 0.4 0.2 -0.22 0.18 0.16 -0.22 0.24 0.38 0.4 -0.32 0 -0.22 -0.23c-0.2,0.2 -0.4,0.29 -0.59,0.29 -0.17,0 -0.32,-0.05 -0.44,-0.15 -0.12,-0.1 -0.18,-0.23 -0.18,-0.37 0,-0.11 0.03,-0.19 0.08,-0.26 0.06,-0.07 0.18,-0.17 0.38,-0.31 -0.02,-0.02 -0.04,-0.04 -0.05,-0.06 -0.08,-0.11 -0.13,-0.18 -0.15,-0.23 -0.01,-0.05 -0.02,-0.1 -0.02,-0.14 0,-0.1 0.04,-0.2 0.12,-0.29 0.09,-0.08 0.2,-0.13 0.34,-0.13 0.13,0 0.23,0.04 0.32,0.13 0.08,0.08 0.13,0.18 0.13,0.3 0,0.17 -0.11,0.33 -0.32,0.47zm-0.17 -0.17c0.09,-0.06 0.15,-0.11 0.19,-0.16 0.04,-0.04 0.06,-0.09 0.06,-0.14 0,-0.06 -0.02,-0.1 -0.06,-0.14 -0.03,-0.03 -0.09,-0.05 -0.16,-0.05 -0.06,0 -0.11,0.02 -0.15,0.05 -0.04,0.03 -0.06,0.08 -0.06,0.13 0,0.08 0.06,0.18 0.18,0.31zm0.39 0.75l-0.43 -0.45c-0.16,0.1 -0.26,0.18 -0.3,0.23 -0.04,0.05 -0.07,0.11 -0.07,0.16 0,0.08 0.04,0.15 0.11,0.2 0.07,0.06 0.16,0.09 0.26,0.09 0.07,0 0.14,-0.02 0.2,-0.06 0.07,-0.03 0.14,-0.09 0.23,-0.17zm2.89 -0.82l0.33 0.77 0.34 -0.72 0.22 0 -0.58 1.2 -0.32 -0.75 -0.31 0.74 -0.57 -1.19 0.21 0 0.35 0.72 0.33 -0.77zm1.42 -0.34c0,-0.05 0.02,-0.1 0.06,-0.13 0.04,-0.04 0.08,-0.06 0.14,-0.06 0.05,0 0.09,0.02 0.13,0.06 0.04,0.03 0.06,0.08 0.06,0.13 0,0.05 -0.02,0.1 -0.06,0.13 -0.04,0.04 -0.08,0.06 -0.13,0.06 -0.06,0 -0.1,-0.02 -0.14,-0.06 -0.04,-0.03 -0.06,-0.08 -0.06,-0.13zm0.07 0.39l0.25 0 0 1.17 -0.25 0 0 -1.17zm0.9 1.17l0 -1.17 0.25 0 0 0.19c0.07,-0.08 0.14,-0.14 0.19,-0.17 0.06,-0.04 0.13,-0.06 0.2,-0.06 0.1,0 0.19,0.04 0.27,0.11 0.07,0.07 0.11,0.15 0.11,0.25l0 0.85 -0.25 0 0 -0.78c0,-0.06 -0.02,-0.11 -0.06,-0.16 -0.04,-0.04 -0.09,-0.06 -0.16,-0.06 -0.08,0 -0.15,0.04 -0.21,0.11 -0.06,0.07 -0.09,0.15 -0.09,0.25l0 0.64 -0.25 0zm2.83 -0.54l-1 0c0.02,0.12 0.07,0.21 0.15,0.26 0.08,0.06 0.16,0.09 0.25,0.09 0.14,0 0.26,-0.06 0.36,-0.18l0.18 0.14c-0.14,0.18 -0.32,0.26 -0.55,0.26 -0.17,0 -0.32,-0.06 -0.44,-0.18 -0.12,-0.12 -0.17,-0.27 -0.17,-0.44 0,-0.17 0.06,-0.31 0.17,-0.44 0.12,-0.12 0.27,-0.18 0.44,-0.18 0.17,0 0.31,0.06 0.44,0.19 0.12,0.12 0.18,0.28 0.17,0.48zm-0.97 -0.2l0.72 0c-0.08,-0.16 -0.2,-0.24 -0.36,-0.24 -0.17,0 -0.29,0.08 -0.36,0.24z"/>
  </g>
 </g>
</svg>
