<?xml version="1.0" encoding="UTF-8"?>
<!DOCTYPE svg PUBLIC "-//W3C//DTD SVG 1.1//EN" "http://www.w3.org/Graphics/SVG/1.1/DTD/svg11.dtd">
<!-- Creator: CorelDRAW -->
<svg xmlns="http://www.w3.org/2000/svg" xml:space="preserve" width="201px" height="107px" version="1.1" style="shape-rendering:geometricPrecision; text-rendering:geometricPrecision; image-rendering:optimizeQuality; fill-rule:evenodd; clip-rule:evenodd"
viewBox="0 0 220.61 117.08"
 xmlns:xlink="http://www.w3.org/1999/xlink"
 xmlns:xodm="http://www.corel.com/coreldraw/odm/2003">
 <defs>
  <style type="text/css">
   <![CDATA[
    .fil5 {fill:#B73744}
    .fil3 {fill:#B92F3E}
    .fil6 {fill:#C5313E}
    .fil4 {fill:#C83543}
    .fil2 {fill:#CF2433}
    .fil0 {fill:#D22334}
    .fil1 {fill:#FCFCFE}
   ]]>
  </style>
 </defs>
 <g id="Слой_x0020_1">
  <metadata id="CorelCorpID_0Corel-Layer"/>
  <g id="_2770923788208">
   <path class="fil0" d="M107.6 71.6l0.01 -38.06 -40.21 -0.07c-0.3,8.13 6.91,20.71 12.91,26.26 3.28,3.04 6.71,5.67 11.59,7.97 3.17,1.49 11.61,4.45 15.7,3.9z"/>
   <path class="fil1" d="M114.12 36.56l0.01 33.5c4.16,0.16 10.82,-2.23 14.12,-3.73 11.22,-5.14 21.83,-17.58 23.42,-31.35l-37.54 0 -0.01 1.58z"/>
   <path class="fil0" d="M67.01 28.47l39.73 0c-1.02,-5.02 -5.92,-12.87 -8.41,-15.79 -4.64,-5.45 -9.98,-9.7 -17.78,-12.05 -2.82,-0.84 -2.69,-1.1 -4.16,0.91 -5.73,7.87 -9.52,15.96 -9.38,26.93z"/>
   <path class="fil1" d="M115.44 26.96l36.62 0.01c0.81,-5.79 -2.98,-15.08 -5.88,-20.17 -1.05,-1.83 -2.8,-3.64 -3.53,-5.11 -8.07,1.17 -15,7.01 -19.98,12.86 -2.14,2.51 -6.89,9.72 -7.23,12.41z"/>
   <path class="fil0" d="M0.01 116.73l6.05 0.01 0.11 -16.69c1.31,3.39 3.47,7.18 4.65,10.71l4.6 0.03 4.51 -10.68c0.38,5.68 -0.02,11.07 0.2,16.62l6.4 -0.04 0.06 -25.19 -7.7 -0.13c-0.47,1.59 -4.97,11.7 -5.69,12.53l-5.56 -12.46 -7.64 -0.06 0.01 25.35z"/>
   <path class="fil0" d="M40.22 95.92c8.23,-2.1 9.1,14.41 2.62,16.21 -8.44,2.35 -9.51,-14.44 -2.62,-16.21zm-10.86 9.54c0.48,7.45 5.56,12.31 13.63,11.54 7.28,-0.71 11.06,-6.45 10.49,-14.43 -0.52,-7.46 -5.42,-12.2 -13.56,-11.49 -7.33,0.64 -11.07,6.43 -10.56,14.38z"/>
   <path class="fil1" d="M104.85 116.14l5.11 0.03 0.12 -20.5 9.79 -0.02c0,4.91 -0.2,16.33 0.09,20.52l5.04 0 0.12 -24.21 -20.27 -0.02 0 24.2z"/>
   <path class="fil1" d="M173.6 114.7l0.02 1.46 5.17 -0.02 0.01 -10.08 2.61 -0.16 6.52 10.22 6.18 0.03c-0.37,-1.69 -7.36,-10.27 -8.23,-12.53 3.97,-4.41 2.43,-7.37 7.46,-7.38l0 -4.32c-4.93,-0.09 -6.56,0.63 -8.27,4.29 -1.27,2.71 -2.41,6.57 -6.23,5.98l-0.03 -10.22 -5.21 -0.03 0 22.76z"/>
   <path class="fil0" d="M76.47 114.89l0.03 -5.87c-1.83,0.2 -4.14,4.4 -9.21,3.09 -3.34,-0.87 -5.01,-3.78 -5.02,-7.97 -0.01,-4.03 1.65,-7.25 4.84,-8.15 5.11,-1.43 7.49,3.01 9.37,3.08l0.03 -5.94c-10.14,-4.98 -20.46,-1.01 -20.72,10.48 -0.27,12.33 9.99,16.32 20.68,11.28z"/>
   <path class="fil1" d="M205.38 107.52c0.1,-1.43 2.52,-9.17 3.19,-10.33 0.59,0.73 0.66,1.47 0.98,2.55 0.55,1.88 2.17,6.48 2.24,7.79l-6.41 -0.01zm-3.15 8.63c0.85,-0.57 0.95,-1.5 1.24,-2.6 0.13,-0.51 0.2,-0.99 0.36,-1.47 0.35,-1.09 0.04,-0.69 0.78,-1.11l8.42 0.06 1.61 5.1 5.16 0.03c-0.11,-1.43 -4.91,-14.91 -6.04,-18.26 -0.58,-1.69 -1.66,-4.34 -1.96,-5.96l-6.14 0.11c-0.81,1.51 -7.93,22.68 -8.12,24.1l4.69 0z"/>
   <path class="fil1" d="M90.01 96.97c0.68,0.93 3.15,9.05 3.34,10.51l-6.47 0.06 3.13 -10.57zm-11.04 19.13l5.07 0.05c2.79,-6.06 -1.92,-5.17 10.51,-5.17l1.56 5.21 5.15 -0.03c-0.01,-0.72 -7.41,-22.93 -8.06,-24.12l-6.15 -0.11 -8.08 24.17z"/>
   <path class="fil1" d="M158.02 95.65l10.81 -0.11 0 -3.45c-1.79,-0.45 -13.42,-0.22 -15.99,-0.12l0.14 24.18 15.84 -0.06 -0.07 -3.61 -10.74 -0.02 0.03 -7.57 9.91 0 0.01 -3.67 -9.93 0 -0.01 -5.57z"/>
   <path class="fil2" d="M114.13 34.98l37.54 0c-1.59,13.77 -12.2,26.21 -23.42,31.35 -3.3,1.5 -9.96,3.89 -14.12,3.73l-0.01 -33.5 0.01 -1.58zm-1.52 36.75c4.72,0.23 12.03,-2.08 15.68,-3.77 8.34,-3.87 16.26,-10.84 20.39,-19.21 1.78,-3.62 4.76,-10.53 4.65,-15.27l-40.69 -0.01 -0.03 38.26z"/>
   <path class="fil1" d="M128.88 95.64l7.47 0.01c-0.01,6.3 -0.2,14.46 0.05,20.45l5.02 0.07c0.66,-2.59 0.14,-16.63 0.17,-20.42l7.44 -0.12 0.03 -3.56 -20.2 -0.13 0.02 3.7z"/>
   <path class="fil0" d="M115.44 26.96c0.34,-2.69 5.09,-9.9 7.23,-12.41 4.98,-5.85 11.91,-11.69 19.98,-12.86 0.73,1.47 2.48,3.28 3.53,5.11 2.9,5.09 6.69,14.38 5.88,20.17l-36.62 -0.01zm-2.25 1.5l40.51 0.01c0.12,-10.97 -3.64,-19.09 -9.38,-26.93 -1.42,-1.95 -1.29,-1.64 -4.1,-0.86 -1.55,0.42 -3.05,0.98 -4.47,1.61 -5.45,2.4 -8.31,5.14 -12.22,8.9 -2.82,2.7 -9.24,12.51 -10.34,17.27z"/>
   <path class="fil3" d="M104.85 91.94l20.27 0.02 -0.12 24.21 -5.04 0c-0.29,-4.19 -0.09,-15.61 -0.09,-20.52l-9.79 0.02 -0.12 20.5 -5.11 -0.03 0 -24.2zm5.83 4.31l8.62 0 0.1 20.48 6.22 0c0.31,-5.78 0.07,-18.83 0.07,-25.35l-21.43 0c-0.06,5.29 -0.31,20.95 0.1,25.35l6.31 -0.01 0.01 -20.47z"/>
   <path class="fil4" d="M173.6 91.94l5.21 0.03 0.03 10.22c3.82,0.59 4.96,-3.27 6.23,-5.98 1.71,-3.66 3.34,-4.38 8.27,-4.29l0 4.32c-5.03,0.01 -3.49,2.97 -7.46,7.38 0.87,2.26 7.86,10.84 8.23,12.53l-6.18 -0.03 -6.52 -10.22 -2.61 0.16 -0.01 10.08 -5.17 0.02 -0.02 -1.46 0 -22.76zm13.06 11.65c1.63,-1.25 1.67,-2.27 2.7,-4.41 0.98,-2.04 1.92,-2.36 4.57,-2.35l0 -5.48c-4.94,-0.09 -6.95,0.14 -8.87,3.56 -1.49,2.67 -1.92,6.39 -5.65,6.76l-0.11 -9.79c-0.29,-1.13 -4.98,-0.58 -6.29,-0.47l0.06 25.32 6.32 -0.08 0.07 -10.12c2.18,0.01 1.9,0.53 2.83,1.96 0.65,1 1.19,1.74 1.8,2.7 0.34,0.54 0.52,0.81 0.95,1.42 0.4,0.56 0.63,0.79 1.04,1.37 0.63,0.89 0.97,1.88 1.7,2.76l7.47 -0.04c-0.34,-0.79 -0.62,-1.04 -1.06,-1.62l-7.53 -11.49z"/>
   <path class="fil5" d="M158.03 101.22l9.93 0 -0.01 3.67 -9.91 0 -0.03 7.57 10.74 0.02 0.07 3.61 -15.84 0.06 -0.14 -24.18c2.57,-0.1 14.2,-0.33 15.99,0.12l0 3.45 -10.81 0.11 0.01 5.57zm-5.79 15.39l17.11 0.13 0.06 -4.81 -10.77 -0.08 -0.01 -6.31 9.92 -0.03 0.02 -4.88 -9.84 -0.02 -0.12 -4.36 10.8 -0.03 0.01 -4.73 -17.09 -0.12 -0.09 25.24z"/>
   <path class="fil6" d="M87.05 91.93l6.15 0.11c0.65,1.19 8.05,23.4 8.06,24.12l-5.15 0.03 -1.56 -5.21c-12.43,0 -7.72,-0.89 -10.51,5.17l-5.07 -0.05 8.08 -24.17zm-8.8 24.78l6.2 0.03c0.55,-1.21 1.28,-3.68 1.64,-5.17l7.9 0 1.65 5.14 6.46 0.03 -8.41 -25.31c-8.69,-0.08 -6.5,-1.49 -9.04,6.02 -0.75,2.22 -1.49,4.38 -2.21,6.51 -0.91,2.68 -3.95,10.54 -4.19,12.75z"/>
   <path class="fil6" d="M128.86 91.94l20.2 0.13 -0.03 3.56 -7.44 0.12c-0.03,3.79 0.49,17.83 -0.17,20.42l-5.02 -0.07c-0.25,-5.99 -0.06,-14.15 -0.05,-20.45l-7.47 -0.01 -0.02 -3.7zm-0.56 4.29l7.47 -0.01 0.07 20.51 6.32 -0.1 0.01 -20.4 7.49 -0.07 0 -4.78 -21.38 -0.01 0.02 4.86z"/>
   <path class="fil4" d="M202.23 116.15l-4.69 0c0.19,-1.42 7.31,-22.59 8.12,-24.1l6.14 -0.11c0.3,1.62 1.38,4.27 1.96,5.96 1.13,3.35 5.93,16.83 6.04,18.26l-5.16 -0.03 -1.61 -5.1 -8.42 -0.06c-0.74,0.42 -0.43,0.02 -0.78,1.11 -0.16,0.48 -0.23,0.96 -0.36,1.47 -0.29,1.1 -0.39,2.03 -1.24,2.6zm-5.48 0.58l6.23 0.01 1.62 -5.16 7.98 -0.02c0.69,1.61 1,3.51 1.61,5.16l6.42 0.02 -4.19 -12.79c-0.7,-2.05 -1.43,-4.18 -2.14,-6.3 -0.35,-1.04 -0.71,-2.08 -1.07,-3.16 -1.35,-4.02 0.17,-3.13 -8.12,-3.12 -0.91,4.44 -8.04,22.85 -8.34,25.36z"/>
   <path class="fil5" d="M208.48 99.07c0.7,0.84 2.41,6.99 2.6,7.86l-4.97 0 2.37 -7.86zm-3.1 8.45l6.41 0.01c-0.07,-1.31 -1.69,-5.91 -2.24,-7.79 -0.32,-1.08 -0.39,-1.82 -0.98,-2.55 -0.67,1.16 -3.09,8.9 -3.19,10.33z"/>
   <path class="fil5" d="M87.72 106.92c-0.02,-0.9 1.92,-6.97 2.44,-8.06l2.36 8.06 -4.8 0zm-0.84 0.62l6.47 -0.06c-0.19,-1.46 -2.66,-9.58 -3.34,-10.51l-3.13 10.57z"/>
  </g>
 </g>
</svg>
