<?xml version="1.0" encoding="UTF-8"?>
<!DOCTYPE svg PUBLIC "-//W3C//DTD SVG 1.1//EN" "http://www.w3.org/Graphics/SVG/1.1/DTD/svg11.dtd">
<!-- Creator: CorelDRAW -->
<svg xmlns="http://www.w3.org/2000/svg" xml:space="preserve" width="226px" height="189px" version="1.1" style="shape-rendering:geometricPrecision; text-rendering:geometricPrecision; image-rendering:optimizeQuality; fill-rule:evenodd; clip-rule:evenodd"
viewBox="0 0 36.35 30.49"
 xmlns:xlink="http://www.w3.org/1999/xlink"
 xmlns:xodm="http://www.corel.com/coreldraw/odm/2003">
 <defs>
  <style type="text/css">
   <![CDATA[
    .fil0 {fill:red}
    .fil1 {fill:white;fill-rule:nonzero}
   ]]>
  </style>
 </defs>
 <g id="Слой_x0020_1">
  <metadata id="CorelCorpID_0Corel-Layer"/>
  <rect class="fil0" width="36.35" height="30.49" rx="1.45" ry="2.42"/>
  <g id="_2772403132192">
   <path class="fil1" d="M25.07 4.4c-1.99,-0.67 -4.36,-1.05 -6.88,-1.05 -2.65,0 -5.08,0.38 -7.13,1.14 -3.41,1.21 -5.62,3.27 -5.62,5.58 0,2.28 2.21,4.31 5.62,5.54 2.02,0.7 4.48,1.14 7.13,1.14 2.52,0 4.89,-0.38 6.88,-1.08 3.5,-1.2 5.83,-3.26 5.83,-5.6 0,-2.38 -2.33,-4.47 -5.83,-5.67zm-9.5 11.31c-1.29,-0.23 -2.43,-0.67 -3.41,-1.24l0.98 -0.44c0.7,0.44 1.55,0.79 2.43,1.01l0 0.67zm-4.16 -3.3c0.34,0.54 0.85,1.02 1.42,1.43l-0.98 0.47c-0.07,-0.03 -0.1,-0.06 -0.16,-0.09 -1.58,-1.08 -2.56,-2.5 -2.56,-4.09 0,-1.58 0.95,-3.04 2.56,-4.12l1.01 0.45c-0.47,0.34 -0.88,0.76 -1.2,1.23l-0.85 0 0 4.72 0.76 0zm4.16 2.35c-0.79,-0.19 -1.48,-0.51 -2.11,-0.89l1.38 -0.63c0.07,-0.04 0.1,-0.13 0.07,-0.19 -0.03,-0.07 -0.13,-0.1 -0.19,-0.07l-1.55 0.7c-0.53,-0.38 -1.01,-0.79 -1.35,-1.27l3.78 0 0 2.35 -0.03 0zm0 -7.1l-3.69 0c0.31,-0.41 0.69,-0.76 1.17,-1.08l1.67 0.7c0.06,0.03 0.16,0 0.19,-0.09 0.03,-0.07 0,-0.16 -0.07,-0.19l-1.48 -0.64c0.66,-0.41 1.42,-0.73 2.24,-0.95l0 2.25 -0.03 0zm0 -2.57c-0.98,0.26 -1.83,0.64 -2.59,1.11l-0.97 -0.41c1,-0.6 2.2,-1.04 3.56,-1.3l0 0.6zm0 -0.88c-3.85,0.66 -6.72,3.04 -6.72,5.92 0,2.85 2.87,5.2 6.72,5.89l0 0.04c-1.64,-0.23 -3.19,-0.61 -4.48,-1.18 -2.71,-1.14 -4.45,-2.88 -4.45,-4.88 0,-1.96 1.74,-3.73 4.45,-4.91 1.29,-0.5 2.84,-0.95 4.48,-1.14l0 0.26zm4.76 0.28c1.33,0.26 2.5,0.7 3.51,1.3l-0.92 0.44c-0.72,-0.5 -1.61,-0.88 -2.59,-1.14l0 -0.6zm4.01 3.17c-0.31,-0.44 -0.69,-0.86 -1.17,-1.2l0.95 -0.48 0.03 0.03c1.61,1.08 2.56,2.54 2.56,4.12 0,1.55 -0.95,2.98 -2.5,4.02l-0.94 -0.47c0.47,-0.38 0.85,-0.79 1.17,-1.27l0.72 0 0 -4.75 -0.82 0zm-4.01 -2.25c0.86,0.22 1.61,0.57 2.28,0.98l-1.11 0.54c-0.06,0.03 -0.09,0.13 -0.06,0.19 0.03,0.07 0.12,0.1 0.19,0.07l1.26 -0.64c0.41,0.32 0.79,0.67 1.07,1.08l-3.63 0 0 -2.22zm0 7l3.73 0c-0.29,0.41 -0.67,0.79 -1.11,1.11l-1.32 -0.6c-0.07,-0.03 -0.16,0 -0.19,0.06 -0.03,0.07 0,0.16 0.06,0.19l1.17 0.54c-0.66,0.44 -1.45,0.79 -2.34,1.01l0 -2.31zm0 2.66c1.01,-0.25 1.9,-0.66 2.65,-1.17l0.98 0.44c-1.01,0.64 -2.24,1.11 -3.59,1.37l0 -0.64 -0.04 0zm4.74 -0.06c-1.39,0.51 -3,0.92 -4.74,1.11l0 -0.1c3.82,-0.69 6.69,-3.04 6.69,-5.89 0,-1.74 -1.07,-3.29 -2.74,-4.4 -0.03,-0.03 -0.07,-0.07 -0.1,-0.07 -1.07,-0.66 -2.39,-1.17 -3.85,-1.45l0 -0.26c1.74,0.19 3.35,0.54 4.74,1.11 2.84,1.14 4.7,2.95 4.7,4.98 0,2.02 -1.86,3.83 -4.7,4.97z"/>
   <g>
    <path class="fil1" d="M8.25 22.57l0 -0.4 0.24 -0.04 1.07 -2.92 0.69 0 1.06 2.92 0.24 0.04 0 0.4 -1.15 0 0 -0.4 0.24 -0.05 -0.15 -0.46 -1.18 0 -0.15 0.46 0.23 0.05 0 0.4 -1.14 0zm1.22 -1.4l0.86 0 -0.39 -1.15 -0.04 -0.11 -0.01 0 -0.03 0.11 -0.39 1.15z"/>
    <polygon class="fil1" points="11.74,22.57 11.74,22.17 12.1,22.1 12.1,19.69 11.74,19.62 11.74,19.21 15.18,19.21 15.18,19.62 14.82,19.69 14.82,22.1 15.18,22.17 15.18,22.57 13.79,22.57 13.79,22.17 14.15,22.1 14.15,19.73 12.78,19.73 12.78,22.1 13.14,22.17 13.14,22.57 "/>
    <polygon class="fil1" points="16.15,22.57 16.15,22.17 16.51,22.1 16.51,19.73 15.89,19.73 15.86,20.13 15.35,20.13 15.35,19.21 18.34,19.21 18.34,20.13 17.83,20.13 17.8,19.73 17.18,19.73 17.18,22.1 17.54,22.17 17.54,22.57 "/>
    <polygon class="fil1" points="18.53,22.57 18.53,22.17 18.89,22.1 18.89,19.69 18.53,19.62 18.53,19.21 21.14,19.21 21.14,20.12 20.62,20.12 20.59,19.73 19.56,19.73 19.56,20.57 20.7,20.57 20.7,21.09 19.56,21.09 19.56,22.05 20.65,22.05 20.68,21.65 21.19,21.65 21.19,22.57 "/>
    <path class="fil1" d="M21.5 22.57l0 -0.4 0.36 -0.07 0 -2.41 -0.36 -0.07 0 -0.41 1.38 0 0 0.41 -0.35 0.07 0 0.89 0.31 0 0.63 -0.9c0.13,-0.19 0.25,-0.32 0.37,-0.39 0.11,-0.08 0.24,-0.11 0.38,-0.11 0.08,0 0.16,0.01 0.23,0.03 0.07,0.02 0.13,0.05 0.19,0.09l-0.11 0.5c-0.04,-0.01 -0.07,-0.01 -0.09,-0.02 -0.03,0 -0.06,-0.01 -0.08,-0.01 -0.07,0 -0.13,0.02 -0.2,0.06 -0.06,0.04 -0.14,0.12 -0.22,0.23l-0.53 0.72 0.93 1.33 0.36 0.06 0 0.4 -1.33 0 0 -0.4 0.19 -0.03 -0.01 -0.01 -0.62 -0.94 -0.4 0 0 0.91 0.35 0.07 0 0.4 -1.38 0z"/>
    <path class="fil1" d="M24.8 22.57l0 -0.4 0.24 -0.04 1.07 -2.92 0.69 0 1.06 2.92 0.24 0.04 0 0.4 -1.15 0 0 -0.4 0.24 -0.05 -0.15 -0.46 -1.18 0 -0.15 0.46 0.23 0.05 0 0.4 -1.14 0zm1.22 -1.4l0.86 0 -0.39 -1.15 -0.03 -0.11 -0.02 0 -0.03 0.11 -0.39 1.15z"/>
   </g>
   <g>
    <path class="fil1" d="M7.15 26.82l-0.65 -0.9 0 -0.05 0.65 -0.9 0.43 0 -0.55 0.93 0.55 0.92 -0.43 0zm0.91 0l-0.65 -0.9 0 -0.05 0.65 -0.9 0.43 0 -0.55 0.93 0.55 0.92 -0.43 0z"/>
    <path class="fil1" d="M10.31 27.13c-0.22,0 -0.43,-0.04 -0.61,-0.12 -0.19,-0.09 -0.35,-0.21 -0.49,-0.36 -0.13,-0.15 -0.23,-0.33 -0.31,-0.54 -0.07,-0.21 -0.1,-0.43 -0.1,-0.68l0 -0.05c0,-0.24 0.03,-0.47 0.1,-0.68 0.08,-0.2 0.18,-0.38 0.31,-0.54 0.14,-0.15 0.3,-0.27 0.48,-0.36 0.19,-0.08 0.4,-0.12 0.62,-0.12 0.23,0 0.44,0.04 0.63,0.12 0.18,0.09 0.34,0.21 0.48,0.36 0.13,0.16 0.24,0.34 0.31,0.54 0.07,0.21 0.11,0.44 0.11,0.68l0 0.05c0,0.25 -0.04,0.47 -0.11,0.68 -0.07,0.21 -0.18,0.39 -0.31,0.54 -0.14,0.15 -0.3,0.27 -0.48,0.36 -0.19,0.08 -0.4,0.12 -0.63,0.12zm0 -0.52c0.2,0 0.35,-0.05 0.48,-0.15 0.13,-0.1 0.22,-0.23 0.28,-0.41 0.07,-0.18 0.1,-0.38 0.1,-0.62l0 -0.05c0,-0.24 -0.03,-0.44 -0.1,-0.62 -0.06,-0.17 -0.16,-0.31 -0.28,-0.41 -0.13,-0.1 -0.29,-0.15 -0.48,-0.15 -0.19,0 -0.34,0.05 -0.47,0.15 -0.12,0.1 -0.21,0.23 -0.28,0.41 -0.06,0.18 -0.09,0.38 -0.09,0.62l0 0.05c0,0.24 0.03,0.44 0.09,0.62 0.07,0.18 0.16,0.31 0.28,0.41 0.13,0.1 0.29,0.15 0.47,0.15z"/>
    <path class="fil1" d="M13.31 27.13c-0.23,0 -0.44,-0.03 -0.63,-0.11 -0.18,-0.07 -0.33,-0.18 -0.44,-0.32 -0.12,-0.15 -0.17,-0.32 -0.17,-0.53l0.01 -0.02 0.65 0c0,0.09 0.03,0.17 0.07,0.24 0.05,0.07 0.12,0.13 0.21,0.17 0.08,0.04 0.19,0.06 0.3,0.06 0.18,0 0.33,-0.05 0.44,-0.14 0.11,-0.09 0.17,-0.22 0.17,-0.39 0,-0.14 -0.05,-0.26 -0.14,-0.34 -0.1,-0.08 -0.24,-0.12 -0.44,-0.12l-0.41 0 0 -0.51 0.41 0c0.18,0 0.32,-0.04 0.4,-0.12 0.09,-0.08 0.13,-0.19 0.13,-0.33 0,-0.14 -0.05,-0.26 -0.15,-0.34 -0.1,-0.09 -0.25,-0.13 -0.45,-0.13 -0.14,0 -0.26,0.02 -0.36,0.06 -0.1,0.04 -0.18,0.09 -0.24,0.15l-0.07 0.42 -0.5 0 0 -0.64c0.13,-0.15 0.3,-0.28 0.51,-0.37 0.21,-0.09 0.44,-0.14 0.7,-0.14 0.38,0 0.68,0.08 0.9,0.24 0.22,0.16 0.33,0.39 0.33,0.67 0,0.18 -0.04,0.33 -0.14,0.47 -0.09,0.13 -0.22,0.23 -0.38,0.3 0.19,0.07 0.33,0.17 0.43,0.3 0.1,0.13 0.15,0.29 0.15,0.49 0,0.2 -0.06,0.38 -0.17,0.52 -0.11,0.15 -0.26,0.27 -0.45,0.35 -0.19,0.07 -0.42,0.11 -0.67,0.11z"/>
    <polygon class="fil1" points="14.84,27.09 14.84,26.68 15.2,26.61 15.2,24.2 14.84,24.13 14.84,23.73 17.45,23.73 17.45,24.63 16.93,24.63 16.9,24.25 15.87,24.25 15.87,25.09 17.01,25.09 17.01,25.61 15.87,25.61 15.87,26.57 16.96,26.57 16.99,26.17 17.5,26.17 17.5,27.09 "/>
    <path class="fil1" d="M17.81 27.09l0 -0.41 0.36 -0.07 0 -2.41 -0.36 -0.07 0 -0.4 0.36 0 1.24 0c0.26,0 0.48,0.04 0.66,0.13 0.19,0.09 0.33,0.22 0.43,0.38 0.1,0.16 0.15,0.35 0.15,0.56 0,0.21 -0.05,0.4 -0.15,0.56 -0.1,0.16 -0.24,0.29 -0.43,0.38 -0.18,0.08 -0.4,0.13 -0.66,0.13l-0.57 0 0 0.74 0.36 0.07 0 0.41 -1.39 0zm1.03 -1.74l0.57 0c0.19,0 0.33,-0.05 0.43,-0.15 0.09,-0.11 0.14,-0.24 0.14,-0.4 0,-0.16 -0.05,-0.29 -0.14,-0.4 -0.1,-0.1 -0.24,-0.15 -0.43,-0.15l-0.57 0 0 1.1z"/>
    <path class="fil1" d="M20.82 27.09l0 -0.41 0.36 -0.07 0 -2.41 -0.36 -0.07 0 -0.4 1.38 0 0 0.4 -0.34 0.07 0 0.9 0.3 0 0.63 -0.91c0.13,-0.19 0.25,-0.32 0.37,-0.39 0.11,-0.07 0.24,-0.11 0.38,-0.11 0.09,0 0.16,0.01 0.23,0.04 0.07,0.02 0.13,0.05 0.19,0.08l-0.11 0.51c-0.04,-0.01 -0.07,-0.02 -0.09,-0.02 -0.03,-0.01 -0.06,-0.01 -0.08,-0.01 -0.07,0 -0.13,0.02 -0.2,0.06 -0.06,0.04 -0.14,0.11 -0.22,0.22l-0.53 0.72 0.93 1.33 0.36 0.06 0 0.41 -1.33 0 0 -0.41 0.19 -0.03 -0.01 0 -0.62 -0.94 -0.39 0 0 0.9 0.34 0.07 0 0.41 -1.38 0z"/>
    <polygon class="fil1" points="24.18,27.09 24.18,26.68 24.54,26.61 24.54,24.2 24.18,24.13 24.18,23.73 24.54,23.73 25.22,23.73 25.58,23.73 25.58,24.13 25.22,24.2 25.22,25.76 25.23,25.76 26.58,24.39 26.58,24.2 26.23,24.13 26.23,23.73 26.58,23.73 27.26,23.73 27.62,23.73 27.62,24.13 27.26,24.2 27.26,26.61 27.62,26.68 27.62,27.09 26.23,27.09 26.23,26.68 26.58,26.61 26.58,25.09 26.57,25.09 25.22,26.46 25.22,26.61 25.58,26.68 25.58,27.09 "/>
    <path class="fil1" d="M27.83 26.74l0.55 -0.92 -0.55 -0.93 0.43 0 0.65 0.9 0 0.05 -0.65 0.9 -0.43 0zm0.94 0l0.55 -0.92 -0.55 -0.93 0.43 0 0.64 0.9 0 0.05 -0.64 0.9 -0.43 0z"/>
   </g>
  </g>
 </g>
</svg>
