<svg width="138" height="29" viewBox="0 0 138 29" fill="none" xmlns="http://www.w3.org/2000/svg">
<g clip-path="url(#clip0_64_9753)">
<mask id="mask0_64_9753" style="mask-type:luminance" maskUnits="userSpaceOnUse" x="0" y="0" width="138" height="30">
<path d="M137.696 0.213135H0.105469V29.0656H137.696V0.213135Z" fill="white"/>
</mask>
<g mask="url(#mask0_64_9753)">
<path d="M110.941 6.20021C110.875 5.76742 110.786 5.70972 110.654 5.70972H96.8011C94.6569 5.70972 92.9916 5.96218 92.9253 6.28677L88.939 28.0271C88.939 28.1497 89.0642 28.2435 89.219 28.294C90.4193 28.6059 91.6631 28.73 92.9032 28.6618H106.38C106.505 28.6618 106.616 28.5464 106.712 28.4022C107.115 27.6426 107.379 26.82 107.493 25.9714C107.67 25.1906 107.725 24.3879 107.655 23.591C107.581 23.1366 107.493 23.0717 107.345 23.0717H97.6411L98.2969 19.5084H106.247C106.365 19.5084 106.476 19.4002 106.564 19.2632C106.941 18.5376 107.191 17.7548 107.301 16.9478C107.474 16.2079 107.524 15.4455 107.448 14.69C107.382 14.2573 107.301 14.1996 107.161 14.1996H99.2695L99.859 11.0186H109.725C109.795 11.0071 109.86 10.9785 109.916 10.9357C109.971 10.8928 110.015 10.837 110.042 10.7733C110.427 10.0507 110.677 9.26658 110.779 8.45791C110.951 7.71799 111.004 6.95607 110.934 6.20021" fill="#FF0000"/>
<path d="M77.6141 27.9836C77.673 28.1279 77.6951 28.1784 77.9309 28.2794C79.3 28.5881 80.7051 28.7191 82.1088 28.6689C83.6392 28.7427 85.1733 28.6166 86.6699 28.2938C86.8836 28.2144 87.0309 28.1495 86.9572 27.9476L81.1878 15.6131L89.8972 6.44526C90.0372 6.28657 89.9857 6.20722 89.853 6.12788C89.3741 5.84657 87.7236 5.68788 85.8299 5.68788C84.5728 5.63068 83.3143 5.7546 82.0941 6.05575C81.9519 6.11237 81.8259 6.20138 81.7257 6.31542L73.9888 14.4302L75.4625 6.32985C75.4625 6.14952 75.2636 6.0846 75.0793 6.01968C73.8577 5.74652 72.6028 5.63732 71.3509 5.69509C70.2302 5.66639 69.1109 5.78035 68.0204 6.03411C67.8509 6.09903 67.7036 6.16395 67.6667 6.34427L63.7246 27.9836C63.7246 28.1639 63.7688 28.2144 63.9015 28.2721C65.0722 28.5977 66.2888 28.7365 67.5046 28.6833C68.7653 28.7463 70.0276 28.6173 71.2478 28.301C71.3657 28.2433 71.4615 28.2072 71.4983 28.0774L73.3699 17.8276L77.6141 27.9836Z" fill="#FF0000"/>
<path d="M137.305 6.01953C136.084 5.74637 134.829 5.63716 133.577 5.69494C132.456 5.66688 131.337 5.78085 130.246 6.03396C130.145 6.06685 130.052 6.12102 129.974 6.19265L120.395 17.7769L120.616 16.8969L122.569 6.34412C122.569 6.16379 122.37 6.09888 122.185 6.03396C120.964 5.7608 119.709 5.65159 118.457 5.70937C117.339 5.68051 116.221 5.79448 115.134 6.04838C114.964 6.1133 114.81 6.17822 114.78 6.35855L110.809 27.9979C110.809 28.1782 110.853 28.2287 110.985 28.2864C112.156 28.6114 113.373 28.7502 114.589 28.6976C115.849 28.7611 117.112 28.6321 118.332 28.3153C118.406 28.2883 118.474 28.2465 118.531 28.1926L128.058 16.7238L127.837 17.5822L125.929 27.9835C125.892 28.1638 125.973 28.2143 126.105 28.272C127.276 28.5976 128.493 28.7364 129.709 28.6831C130.969 28.7461 132.232 28.6171 133.452 28.3008C133.57 28.2431 133.665 28.2071 133.702 28.0772L137.689 6.34412C137.689 6.16379 137.49 6.09888 137.305 6.03396" fill="#FF0000"/>
<path d="M128.419 0.21314C127.712 0.197545 127.008 0.282609 126.326 0.465606C126.127 0.530524 125.921 0.63872 125.884 0.77577L124.411 7.57774C124.411 7.63544 124.411 7.67151 124.506 7.722C124.823 7.85284 125.165 7.91444 125.509 7.90233C125.849 7.9143 126.189 7.87535 126.518 7.78692C126.643 7.75749 126.75 7.68261 126.82 7.57774L130.917 0.970524C130.948 0.913396 130.956 0.846963 130.94 0.784209C130.924 0.721527 130.884 0.667068 130.829 0.631507C130.075 0.300425 129.25 0.156712 128.426 0.21314" fill="#FF0000"/>
<path d="M65.7804 0.21314C65.0741 0.197545 64.3691 0.282609 63.6878 0.465606C63.4962 0.530524 63.2899 0.63872 63.2457 0.77577L61.772 7.57774C61.772 7.63544 61.772 7.67151 61.8678 7.722C62.1847 7.85198 62.5265 7.91351 62.8699 7.90233C63.2079 7.91358 63.5458 7.87463 63.872 7.78692C63.934 7.77343 63.9927 7.74797 64.0445 7.71205C64.0963 7.67612 64.1404 7.63046 64.1741 7.57774L68.2709 0.970524C68.3019 0.913396 68.31 0.846963 68.2938 0.784209C68.2776 0.721527 68.2378 0.667068 68.1825 0.631507C67.4294 0.300425 66.6042 0.156712 65.7804 0.21314Z" fill="#FF0000"/>
<path d="M61.5506 14.019C61.8748 23.3961 54.0937 29.0656 46.519 29.0656C40.2042 29.0656 36.2548 25.8846 36.0632 20.1935C35.7611 11.4728 42.3558 4.95215 51.0579 4.95215C58.1979 4.95215 61.3737 9.08526 61.5506 14.019ZM43.94 19.3928C44.0137 21.5567 44.9053 23.4682 47.6242 23.4682C51.4264 23.4682 53.8948 19.2341 53.74 14.7187C53.659 12.4249 52.6053 10.5495 49.96 10.5495C45.539 10.5495 43.859 15.8944 43.9769 19.3928" fill="#FF0000"/>
<path d="M11.6296 28.8854C10.8928 28.9648 10.1559 29.0297 9.4191 29.0657C9.4191 29.0657 0.0169939 25.048 0.134889 16.4139C0.22331 9.7129 3.40647 7.75815 3.40647 7.75815C4.97167 8.4465 6.39311 9.41255 7.5991 10.6073C8.57151 11.6669 9.37621 12.8632 9.98647 14.1562C10.8251 10.8316 12.7279 7.85668 15.417 5.66635C22.1223 -0.277224 29.3728 0.220445 29.3728 0.220445C30.3982 2.80151 30.9325 5.5443 30.9496 8.31356C31.0675 19.227 24.318 27.1037 13.7812 28.6113C13.0444 28.7122 12.3665 28.806 11.6517 28.8854" fill="#FF0000"/>
<path d="M10.9002 28.431C13.5727 28.0939 16.1382 27.1912 18.4184 25.7857C20.6986 24.3801 22.6389 22.5054 24.1043 20.2917C25.5698 18.0781 26.5253 15.5787 26.9046 12.9671C27.2837 10.3555 27.0775 7.69437 26.3002 5.1687C22.9762 5.31736 19.7546 6.34047 16.9745 8.13026C14.1944 9.92005 11.9585 12.4104 10.5023 15.3392C9.95652 16.579 9.5058 17.8569 9.15388 19.1621C9.14592 19.2112 9.13362 19.2595 9.11704 19.3064C9.00651 19.6382 8.9402 19.7464 8.90336 19.7248C8.30408 22.6406 8.45094 25.6563 9.33072 28.5031C9.85477 28.5059 10.3787 28.4818 10.9002 28.431Z" fill="url(#paint0_linear_64_9753)"/>
<path d="M10.9012 28.431C13.5737 28.0939 16.1392 27.1912 18.4194 25.7857C20.6996 24.3801 22.6399 22.5054 24.1053 20.2917C25.5708 18.0781 26.5263 15.5787 26.9055 12.9671C27.2847 10.3555 27.0785 7.69437 26.3012 5.1687C22.9772 5.31736 19.7556 6.34047 16.9755 8.13026C14.1954 9.92005 11.9595 12.4104 10.5033 15.3392C9.9575 16.579 9.50677 17.8569 9.15486 19.1621C9.1469 19.2112 9.1346 19.2595 9.11802 19.3064C9.00749 19.6382 8.94117 19.7464 8.90433 19.7248C8.30506 22.6406 8.45191 25.6563 9.3317 28.5031C9.85574 28.5059 10.3796 28.4818 10.9012 28.431Z" fill="url(#paint1_linear_64_9753)"/>
<path d="M9.33833 28.5031C8.45854 25.6562 8.31176 22.6405 8.91096 19.7247C8.8795 19.152 8.92157 18.5777 9.03623 18.0152C9.15412 17.2434 9.27938 16.5726 9.42675 15.8513C8.09867 13.9621 6.3074 12.4294 4.21728 11.3936C3.28097 12.817 2.6691 14.4213 2.42336 16.0971C2.17763 17.7729 2.30377 19.481 2.79333 21.1047C3.28281 22.7285 4.12414 24.2299 5.25998 25.5066C6.39582 26.7833 7.79944 27.8053 9.37517 28.5031H9.33833Z" fill="url(#paint2_linear_64_9753)"/>
</g>
</g>
<defs>
<linearGradient id="paint0_linear_64_9753" x1="18.744" y1="15.6821" x2="22.0879" y2="29.7696" gradientUnits="userSpaceOnUse">
<stop stop-color="#00A03A"/>
<stop offset="0.25" stop-color="#30AA31"/>
<stop offset="0.78" stop-color="#93C01F"/>
<stop offset="1" stop-color="#93C01F"/>
</linearGradient>
<linearGradient id="paint1_linear_64_9753" x1="18.7449" y1="15.6821" x2="22.0888" y2="29.7696" gradientUnits="userSpaceOnUse">
<stop stop-color="#00A03A"/>
<stop offset="0.25" stop-color="#30AA31"/>
<stop offset="0.78" stop-color="#93C01F"/>
<stop offset="1" stop-color="#93C01F"/>
</linearGradient>
<linearGradient id="paint2_linear_64_9753" x1="4.85258" y1="13.62" x2="8.93163" y2="28.841" gradientUnits="userSpaceOnUse">
<stop stop-color="#00A03A"/>
<stop offset="0.25" stop-color="#30AA31"/>
<stop offset="0.78" stop-color="#93C01F"/>
<stop offset="1" stop-color="#93C01F"/>
</linearGradient>
<clipPath id="clip0_64_9753">
<rect width="138" height="29" fill="white"/>
</clipPath>
</defs>
</svg>
