<?xml version="1.0" encoding="UTF-8"?>
<!DOCTYPE svg PUBLIC "-//W3C//DTD SVG 1.1//EN" "http://www.w3.org/Graphics/SVG/1.1/DTD/svg11.dtd">
<!-- Creator: CorelDRAW -->
<svg xmlns="http://www.w3.org/2000/svg" xml:space="preserve" width="285px" height="127px" version="1.1" style="shape-rendering:geometricPrecision; text-rendering:geometricPrecision; image-rendering:optimizeQuality; fill-rule:evenodd; clip-rule:evenodd"
viewBox="0 0 37.01 16.47"
 xmlns:xlink="http://www.w3.org/1999/xlink"
 xmlns:xodm="http://www.corel.com/coreldraw/odm/2003">
 <defs>
  <style type="text/css">
   <![CDATA[
    .fil9 {fill:#513626}
    .fil8 {fill:#5A3929}
    .fil2 {fill:#723F30}
    .fil1 {fill:#CB4021}
    .fil6 {fill:#E0B18B}
    .fil5 {fill:#E0B28B}
    .fil7 {fill:#E0B28C}
    .fil4 {fill:#F36E66}
    .fil3 {fill:#F46E66}
    .fil0 {fill:#FDE6C4}
   ]]>
  </style>
 </defs>
 <g id="Слой_x0020_1">
  <metadata id="CorelCorpID_0Corel-Layer"/>
  <g id="_2773547354688">
   <path class="fil0" d="M31.31 4.37c0.06,0.13 -0.19,0.82 -0.21,1.04 -0.05,0.43 0.16,0.72 0.33,1.04 0.13,0.25 1.01,1.68 0.53,1.9 -0.36,0.16 -0.43,-0.56 -0.5,-0.8 -0.1,-0.35 -0.21,-0.71 -0.32,-1.05 -0.29,-0.88 -0.2,-1.05 0.05,-1.88 0.04,-0.17 0.05,-0.18 0.12,-0.25zm-0.25 -0.06c0.07,0.11 -0.23,0.92 -0.27,1.11 -0.21,0.9 0.02,1.67 0.25,2.55 0.09,0.38 0.24,1.07 -0.17,1.15 -0.48,0.09 -0.46,-0.62 -0.48,-0.97 -0.03,-0.47 -0.01,-0.99 0.04,-1.46 0.05,-0.39 0.38,-2.26 0.63,-2.38zm-0.25 -0.08c0.04,0.12 -0.33,1.05 -0.4,1.27 -0.14,0.43 -0.25,0.89 -0.36,1.34 -0.1,0.37 -0.5,2.74 -1.14,2.22 -0.38,-0.29 0.67,-2.12 0.83,-2.44 0.33,-0.66 0.55,-1.14 0.78,-1.84 0.05,-0.14 0.14,-0.5 0.29,-0.55zm-3.43 4.2c-0.1,-0.49 0.19,-0.7 0.68,-1.12 0.67,-0.58 0.59,-0.47 1.23,-1.14 0.05,-0.05 0.13,-0.17 0.2,-0.26 0.39,-0.52 0.84,-1.7 1.01,-1.77 0.09,0.33 -1.4,2.84 -1.82,3.37 -0.35,0.46 -0.21,0.34 -0.56,0.65 -0.16,0.15 -0.22,0.4 -0.74,0.27zm2.81 -4.46c0.11,0.17 -0.38,1.2 -0.9,1.66l-1.56 1.06c-0.18,0.13 -0.32,0.23 -0.52,0.35 -0.14,0.08 -0.42,0.33 -0.61,0.21 -0.26,-0.15 0.09,-0.53 0.18,-0.59 0.17,-0.11 0.36,-0.23 0.57,-0.31 1.27,-0.48 1.96,-0.62 2.54,-1.82 0.09,-0.18 0.16,-0.47 0.3,-0.56zm-0.29 -0.17c0.06,0.09 0.05,0.08 0.03,0.17l-0.43 0.83c-0.34,0.4 -1.34,0.78 -1.87,1 -0.2,0.09 -0.82,0.44 -0.97,0.35 -0.21,-0.14 0.01,-0.36 0.13,-0.45 0.39,-0.31 1.12,-0.42 1.57,-0.54 1.27,-0.35 1.05,-0.56 1.45,-1.25l0.09 -0.11zm1.7 0.61c0.18,-0.59 -0.07,-0.91 -0.57,-1.13 -0.48,-0.22 -1.05,-0.24 -1.29,0.22 -0.62,1.17 -0.17,0.92 -2.09,1.4 -1.57,0.39 -2.21,1.86 -1.64,3.23 0.09,0.22 0.2,0.4 0.32,0.56 0.25,0.35 0.17,0.2 0.31,0.35 0.06,0.05 0.04,0.04 0.1,0.11 0.1,0.12 0.37,0.29 0.52,0.39 1.31,0.88 3.57,1.07 4.64,-0.01 1.39,-1.41 -0.07,-2.89 -0.39,-3.7 -0.24,-0.62 -0.08,-0.86 0.09,-1.42z"/>
   <path class="fil1" d="M29.9 11.64l0 4.25c0,0.33 0.25,0.58 0.58,0.58 0.48,0 0.61,-0.35 0.81,-0.65l1.14 -1.85c0.1,-0.16 0.18,-0.3 0.29,-0.46 0.08,-0.13 0.19,-0.38 0.3,-0.45l0 2.87c0.03,0.72 1.12,0.61 1.12,0.04l0 -4.2c0,-0.59 -0.42,-0.58 -0.71,-0.58 -0.43,0 -0.96,1.08 -1.28,1.58 -0.09,0.16 -0.17,0.28 -0.27,0.44l-0.54 0.87c-0.16,0.23 -0.17,0.34 -0.32,0.43l0 -2.83c-0.03,-0.72 -1.12,-0.61 -1.12,-0.04z"/>
   <path class="fil1" d="M5.03 11.73l0 4.11c0,0.35 0.25,0.63 0.58,0.63 0.49,0 0.61,-0.35 0.81,-0.65 0.27,-0.41 1.58,-2.65 1.73,-2.76l0 2.87c0.05,0.67 0.8,0.53 0.99,0.36 0.1,-0.08 0.13,-0.19 0.13,-0.36l0 -4.2c0,-0.57 -0.42,-0.54 -0.7,-0.54 -0.43,0 -0.95,1.07 -1.29,1.58 -0.13,0.19 -0.98,1.64 -1.13,1.74l0.01 -2.83c-0.03,-0.68 -1.13,-0.69 -1.13,0.05z"/>
   <path class="fil1" d="M20.04 5.32l0 4.29c0,0.19 0.05,0.28 0.15,0.39 0.07,0.07 0.06,0.07 0.17,0.12 0.7,0.3 0.96,-0.47 1.35,-1.05 0.15,-0.24 1.31,-2.2 1.45,-2.29 0,0.64 0,1.27 0,1.91 0,1 -0.17,1.46 0.67,1.46 0.15,0 0.26,-0.09 0.33,-0.17 0.16,-0.19 0.08,-0.32 0.08,-0.37l0 -4.08c0,-0.09 0.08,-0.39 -0.22,-0.57 -0.51,-0.3 -0.88,0.16 -1.11,0.53l-1.57 2.5c-0.09,0.15 -0.06,0.2 -0.21,0.24 0,-0.81 0,-1.63 0,-2.45 0,-0.5 0.06,-0.76 -0.35,-0.87 -0.31,-0.08 -0.74,0.05 -0.74,0.41z"/>
   <path class="fil1" d="M22.79 14.01l-1.83 0c0.07,-0.28 0.51,-1.72 0.92,-1.73 0.39,-0.01 0.88,1.42 0.91,1.73zm-3.29 2.04c0,0.45 1.06,0.69 1.12,-0.08 0.03,-0.27 0.04,-0.87 0.21,-0.87l2.21 0 0.11 0.88c0.12,0.72 1.09,0.56 1.09,0.07 0,-1.07 -0.28,-2.11 -0.64,-3.06 -0.08,-0.23 -0.17,-0.36 -0.25,-0.57 -0.1,-0.25 -0.19,-0.37 -0.31,-0.57 -0.06,-0.11 -0.08,-0.15 -0.17,-0.24l-0.11 -0.1c-0.33,-0.31 -0.5,-0.32 -0.97,-0.32 -0.78,0 -1.1,0.7 -1.39,1.27 -0.11,0.23 -0.18,0.42 -0.27,0.65 -0.28,0.7 -0.63,1.97 -0.63,2.94z"/>
   <path class="fil1" d="M12.06 5.99c0.36,0 0.69,0.91 0.79,1.21 0.05,0.16 0.1,0.36 0.17,0.49l-1.83 0c0.01,-0.2 0.22,-0.76 0.31,-0.97 0.1,-0.2 0.33,-0.73 0.56,-0.73zm-1.87 4.2c0.67,0 0.61,-0.48 0.68,-0.95 0.01,-0.12 0.06,-0.32 0.07,-0.47l2.28 0c0.03,0.27 0.11,0.58 0.13,0.88 0.05,0.79 1.12,0.63 1.11,0.05 -0.02,-0.87 -0.17,-1.34 -0.38,-2.12 -0.02,-0.07 -0.02,-0.13 -0.04,-0.2 -0.15,-0.48 -0.43,-1.13 -0.67,-1.58l-0.4 -0.56c-0.38,-0.37 -0.61,-0.33 -1.08,-0.33 -0.79,0 -1.18,1.05 -1.42,1.56 -0.28,0.56 -0.57,1.7 -0.67,2.33l-0.1 0.89c0,0.25 0.22,0.5 0.49,0.5z"/>
   <path class="fil1" d="M10.27 11.52l0 4.53c0,0.55 1.08,0.55 1.08,0l0 -1.74 1.83 0 0 1.62c0,0.74 1.13,0.67 1.13,0.08l0 -4.41c0,-0.56 -1.13,-0.58 -1.13,0.04l0 1.58 -1.83 0 0 -1.62c0,-0.61 -1.08,-0.47 -1.08,-0.08z"/>
   <path class="fil2" d="M33.61 5.6c0.11,0.1 0.33,0.01 0.61,0.01 0.61,-0.01 1.14,0.09 1.79,0 0.11,-0.02 0.22,-0.04 0.31,0 -0.48,0.82 -2.41,0.07 -3.03,0.46l0.07 0.02c0.01,0 0.02,0.01 0.03,0.01l0.18 0c0.11,-0.01 0.21,-0.01 0.32,-0.02 0.84,0 1.06,0.04 2.03,-0.01 -0.3,0.86 -2.13,0.11 -2.81,0.48 0.03,0.03 -0.02,0.08 0.21,0.05 0.85,-0.09 1.32,0.09 2.17,-0.05 -0.46,0.75 -1.56,0.24 -2.88,0.71l-0.56 -0.95c-0.02,-0.17 0.42,-0.97 0.49,-1.05 0.74,-0.97 2.2,0.25 3.83,-0.33 0.17,-0.06 0.47,-0.29 0.47,0.01 0,0.22 -0.2,0.34 -0.38,0.41 -0.88,0.35 -2.29,0 -2.85,0.25zm-2.01 -1.19c-0.17,0.56 -0.33,0.8 -0.09,1.42 0.32,0.81 1.78,2.29 0.39,3.7 -1.07,1.08 -3.33,0.89 -4.64,0.01 -0.15,-0.1 -0.42,-0.27 -0.52,-0.39 -0.06,-0.07 -0.04,-0.06 -0.1,-0.11 -0.14,-0.15 -0.06,0 -0.31,-0.35 -0.12,-0.16 -0.23,-0.34 -0.32,-0.56 -0.57,-1.37 0.07,-2.84 1.64,-3.23 1.92,-0.48 1.47,-0.23 2.09,-1.4 0.24,-0.46 0.81,-0.44 1.29,-0.22 0.5,0.22 0.75,0.54 0.57,1.13zm-6.25 -3.72c-0.06,-0.29 -0.03,-0.46 0.24,-0.49 0.17,0.29 0.12,0.68 1.04,1.49l1.13 0.79c0.57,0.47 0.61,0.84 0.36,1.56 -0.2,0.59 -0.19,0.57 -0.49,0.64 -0.3,0.06 -0.54,0.19 -0.8,0.26 -0.12,-0.29 -0.48,-0.84 -0.65,-0.97 -0.18,-0.15 -1.41,-1.44 -0.87,-1.57l0.01 -0.08c-0.03,-0.14 -0.08,-0.2 -0.1,-0.33 -0.01,-0.18 -0.01,-0.21 0.13,-0.24 -0.01,-0.01 -0.03,-0.04 -0.04,-0.05l-0.02 -0.06c0.01,-0.13 0.02,-0.04 0.04,-0.08 -0.02,-0.11 -0.06,-0.2 -0.04,-0.32 0.01,-0.16 0.03,-0.16 0.13,-0.11 -0.01,-0.19 -0.03,-0.12 -0.08,-0.27 -0.07,-0.18 -0.02,-0.14 0.01,-0.17zm-0.19 -0.23c0,0.24 0.05,0.32 0.02,0.44 -0.01,0.08 -0.1,0.21 -0.1,0.31 0,0.2 0.05,0.13 0.03,0.32 -0.02,0.12 -0.08,0.15 -0.08,0.34 0,0.3 0.07,0.19 0,0.5 -0.14,0.66 0.52,1.21 0.82,1.6 0.23,0.3 0.65,0.6 0.76,1.1 -0.14,0.04 -0.1,0.06 -0.22,0.15 -0.24,0.19 -0.39,0.42 -0.56,0.69 -1.2,1.97 0.8,4.78 3.65,4.78 0.87,0 1.74,-0.1 2.38,-0.62 0.8,-0.64 0.95,-1.09 0.95,-2 0,-0.28 -0.08,-0.39 -0.08,-0.63 0.16,-0.01 0.26,-0.08 0.7,-0.13 0.65,-0.06 1.62,0 2.08,-0.46 0.1,-0.1 0.1,-0.11 0.18,-0.23 0.14,-0.21 0.29,-0.21 0.4,-0.43 0.11,-0.2 -0.02,-0.1 0.2,-0.26 0.26,-0.2 0.19,-0.35 0.34,-0.48 0.29,-0.25 0.38,-0.15 0.38,-0.67 0,-0.33 -0.42,-0.16 -0.55,-0.09 -0.65,0.31 -1.49,0.23 -2.16,0.1 -0.8,-0.16 -1.34,-0.41 -1.94,0.29 -0.13,0.17 -0.41,0.72 -0.46,0.95 -0.5,-0.71 0.04,-1.56 0.04,-1.95 0,-0.93 -1.59,-1.56 -2.24,-0.91 -0.56,0.56 0.08,0.99 -1.51,1.36 0.04,-0.14 0.08,-0.18 0.14,-0.32 0.58,-1.61 -0.31,-1.73 -1.44,-2.58 -0.38,-0.28 -0.69,-0.61 -0.92,-1.02 -0.18,-0.33 -0.14,-0.61 -0.48,-0.61 -0.15,0 -0.33,0.29 -0.33,0.46z"/>
   <path class="fil1" d="M0.29 5.78l0 3.87c0,0.78 1.12,0.64 1.12,0.08l0 -3.66 1.83 0 0 3.79c0,0.4 1.09,0.51 1.09,-0.09l0 -4.2c0,-0.26 -0.33,-0.58 -0.59,-0.58l-2.87 0c-0.36,0 -0.58,0.4 -0.58,0.79z"/>
   <path class="fil1" d="M15.26 11.6l0 4.45c0,0.55 1.08,0.55 1.08,0l0 -1.87c0.87,0 1.49,0.91 1.71,1.66 0.17,0.53 0.07,0.63 0.79,0.63 0.89,0 -0.05,-1.73 -0.41,-2.13 -0.08,-0.1 -0.16,-0.16 -0.25,-0.25 -0.09,-0.1 -0.16,-0.15 -0.27,-0.23 -0.11,-0.08 -0.21,-0.13 -0.28,-0.22 0.17,-0.04 0.22,-0.12 0.33,-0.21 0.32,-0.24 0.61,-0.54 0.82,-0.89 0.21,-0.35 0.75,-1.35 -0.11,-1.35 -0.19,0 -0.35,-0.01 -0.51,0.15 -0.21,0.21 -0.33,1.58 -1.82,1.93 0,-0.24 0.04,-1.68 -0.04,-1.84 -0.19,-0.38 -1.04,-0.33 -1.04,0.17z"/>
   <path class="fil1" d="M5.12 5.36c0,0.73 0.62,1.75 1.24,2.08 -0.05,0.07 -0.21,0.2 -0.29,0.25 -0.73,0.56 -1.59,2.5 -0.5,2.5 0.27,0 0.49,-0.14 0.57,-0.35 0.06,-0.16 0.05,-0.35 0.2,-0.72 0.19,-0.47 0.47,-0.75 0.81,-1.05 0.66,0.34 0.89,1.08 1.06,1.73 0.15,0.6 1.69,0.74 0.84,-1.1 -0.16,-0.34 -0.74,-1.13 -1.07,-1.21 0.06,-0.07 0.51,-0.42 0.81,-0.86 0.17,-0.24 0.48,-0.87 0.48,-1.22 0,-0.45 -0.85,-0.7 -1.08,-0.14 -0.21,0.5 -0.33,1.03 -0.76,1.41 -0.12,0.11 -0.13,0.07 -0.24,0.22 -0.35,-0.23 -0.58,-0.59 -0.77,-0.97 -0.31,-0.62 -0.15,-0.98 -0.85,-0.98 -0.22,0 -0.45,0.18 -0.45,0.41z"/>
   <path class="fil1" d="M0.04 11.69c0,0.35 0.31,0.99 0.46,1.2 0.48,0.68 0.67,0.7 0.79,0.87 -0.18,0.12 -0.31,0.25 -0.47,0.41 -0.19,0.19 -0.24,0.25 -0.39,0.48 -0.18,0.27 -0.91,1.82 0.07,1.82 0.58,0 0.6,-0.41 0.67,-0.7 0.09,-0.34 0.25,-0.7 0.46,-0.96 0.16,-0.18 0.3,-0.33 0.49,-0.46 1.34,0.89 0.62,2.12 1.62,2.12 0.98,0 0.29,-1.46 0.06,-1.85 -0.12,-0.19 -0.42,-0.52 -0.61,-0.68 -0.12,-0.1 -0.14,-0.08 -0.24,-0.22 0.79,-0.52 2.01,-2.49 0.63,-2.49 -0.49,0 -0.48,0.57 -0.7,1.01 -0.16,0.35 -0.46,0.75 -0.76,0.94 -1.1,-0.73 -0.65,-1.95 -1.58,-1.95 -0.22,0 -0.5,0.22 -0.5,0.46z"/>
   <path class="fil1" d="M24.7 15.84c0,0.31 0.01,0.63 0.58,0.63 0.18,0 0.39,-0.14 0.46,-0.29 0.09,-0.19 0.07,-0.39 0.11,-0.65 0.07,-0.48 0.14,-0.83 0.23,-1.26 0.08,-0.38 0.56,-2 0.99,-1.99 0.45,0.01 0.91,1.68 0.98,2 0.1,0.43 0.18,0.81 0.23,1.27 0.02,0.18 0.03,0.51 0.1,0.64 0.28,0.5 1.06,0.23 1.06,-0.14 0,-1.04 -0.34,-2.17 -0.63,-2.95 -0.19,-0.53 -0.52,-1.34 -0.97,-1.68 -0.41,-0.32 -1.13,-0.32 -1.54,-0.01 -0.88,0.67 -1.6,3.36 -1.6,4.43z"/>
   <path class="fil1" d="M14.89 9.65c0,0.61 0.74,0.71 1.02,0.27 0.16,-0.24 0.18,-2.24 0.95,-3.54 0.45,-0.76 0.66,-0.32 1.02,0.48 0.86,1.95 0.26,3.33 1.21,3.33 0.26,0 0.54,-0.18 0.54,-0.42 0,-1.03 -0.46,-2.9 -1.02,-3.84 -0.41,-0.69 -0.49,-1.02 -1.48,-1.02 -0.47,0 -0.83,0.31 -1.05,0.69 -0.22,0.39 -0.39,0.76 -0.56,1.18 -0.28,0.69 -0.63,1.93 -0.63,2.87z"/>
   <path class="fil3" d="M25.35 0.69c-0.01,0.26 0.43,0.76 0.62,0.95l1.08 1.09c0.09,0.1 0.17,0.15 0.2,0.31 -0.17,-0.06 -0.03,0.01 -0.14,-0.12 -0.3,-0.37 -0.46,-0.45 -0.58,-0.59 -0.27,-0.29 -1.06,-0.94 -1.11,-1.2 -0.1,-0.05 -0.12,-0.05 -0.13,0.11 -0.02,0.12 0.02,0.21 0.04,0.32 0.2,0.38 0.38,0.51 0.64,0.75l0.75 0.7c0.12,0.14 0.37,0.37 0.44,0.57 -0.18,-0.07 -0.31,-0.33 -0.46,-0.46 -0.09,-0.08 -0.17,-0.13 -0.26,-0.21 -0.08,-0.07 -0.14,-0.14 -0.23,-0.22 -0.18,-0.15 -0.29,-0.29 -0.46,-0.45 -0.17,-0.16 -0.37,-0.33 -0.4,-0.49 -0.14,0.03 -0.14,0.06 -0.13,0.24 0.02,0.13 0.07,0.19 0.1,0.33 0.08,0.07 0.12,0.14 0.17,0.22l1.09 1.03c0.11,0.09 0.34,0.33 0.35,0.49 -0.12,-0.03 -0.16,-0.18 -0.39,-0.41l-0.87 -0.8c-0.24,-0.28 -0.29,-0.25 -0.36,-0.45 -0.54,0.13 0.69,1.42 0.87,1.57 0.17,0.13 0.53,0.68 0.65,0.97 0.26,-0.07 0.5,-0.2 0.8,-0.26 0.3,-0.07 0.29,-0.05 0.49,-0.64 0.25,-0.72 0.21,-1.09 -0.36,-1.56l-1.13 -0.79c-0.92,-0.81 -0.87,-1.2 -1.04,-1.49 -0.27,0.03 -0.3,0.2 -0.24,0.49z"/>
   <path class="fil4" d="M33.61 5.6c0.56,-0.25 1.97,0.1 2.85,-0.25 0.18,-0.07 0.38,-0.19 0.38,-0.41 0,-0.3 -0.3,-0.07 -0.47,-0.01 -1.63,0.58 -3.09,-0.64 -3.83,0.33 -0.07,0.08 -0.51,0.88 -0.49,1.05l0.56 0.95c1.32,-0.47 2.42,0.04 2.88,-0.71 -0.85,0.14 -1.32,-0.04 -2.17,0.05 -0.23,0.03 -0.18,-0.02 -0.21,-0.05 0.68,-0.37 2.51,0.38 2.81,-0.48 -0.97,0.05 -1.19,0.01 -2.03,0.01 -0.11,0.01 -0.21,0.01 -0.32,0.02l-0.18 0c-0.01,0 -0.02,-0.01 -0.03,-0.01l-0.07 -0.02c0.62,-0.39 2.55,0.36 3.03,-0.46 -0.09,-0.04 -0.2,-0.02 -0.31,0 -0.65,0.09 -1.18,-0.01 -1.79,0 -0.28,0 -0.5,0.09 -0.61,-0.01z"/>
   <path class="fil5" d="M30.81 4.23c-0.15,0.05 -0.24,0.41 -0.29,0.55 -0.23,0.7 -0.45,1.18 -0.78,1.84 -0.16,0.32 -1.21,2.15 -0.83,2.44 0.64,0.52 1.04,-1.85 1.14,-2.22 0.11,-0.45 0.22,-0.91 0.36,-1.34 0.07,-0.22 0.44,-1.15 0.4,-1.27z"/>
   <path class="fil6" d="M27.38 8.43c0.52,0.13 0.58,-0.12 0.74,-0.27 0.35,-0.31 0.21,-0.19 0.56,-0.65 0.42,-0.53 1.91,-3.04 1.82,-3.37 -0.17,0.07 -0.62,1.25 -1.01,1.77 -0.07,0.09 -0.15,0.21 -0.2,0.26 -0.64,0.67 -0.56,0.56 -1.23,1.14 -0.49,0.42 -0.78,0.63 -0.68,1.12z"/>
   <path class="fil7" d="M31.06 4.31c-0.25,0.12 -0.58,1.99 -0.63,2.38 -0.05,0.47 -0.07,0.99 -0.04,1.46 0.02,0.35 0,1.06 0.48,0.97 0.41,-0.08 0.26,-0.77 0.17,-1.15 -0.23,-0.88 -0.46,-1.65 -0.25,-2.55 0.04,-0.19 0.34,-1 0.27,-1.11z"/>
   <path class="fil6" d="M30.19 3.97c-0.14,0.09 -0.21,0.38 -0.3,0.56 -0.58,1.2 -1.27,1.34 -2.54,1.82 -0.21,0.08 -0.4,0.2 -0.57,0.31 -0.09,0.06 -0.44,0.44 -0.18,0.59 0.19,0.12 0.47,-0.13 0.61,-0.21 0.2,-0.12 0.34,-0.22 0.52,-0.35l1.56 -1.06c0.52,-0.46 1.01,-1.49 0.9,-1.66z"/>
   <path class="fil6" d="M29.9 3.8l-0.09 0.11c-0.4,0.69 -0.18,0.9 -1.45,1.25 -0.45,0.12 -1.18,0.23 -1.57,0.54 -0.12,0.09 -0.34,0.31 -0.13,0.45 0.15,0.09 0.77,-0.26 0.97,-0.35 0.53,-0.22 1.53,-0.6 1.87,-1l0.43 -0.83c0.02,-0.09 0.03,-0.08 -0.03,-0.17z"/>
   <path class="fil7" d="M31.31 4.37c-0.07,0.07 -0.08,0.08 -0.12,0.25 -0.25,0.83 -0.34,1 -0.05,1.88 0.11,0.34 0.22,0.7 0.32,1.05 0.07,0.24 0.14,0.96 0.5,0.8 0.48,-0.22 -0.4,-1.65 -0.53,-1.9 -0.17,-0.32 -0.38,-0.61 -0.33,-1.04 0.02,-0.22 0.27,-0.91 0.21,-1.04z"/>
   <path class="fil8" d="M25.42 1.13c0.05,0.26 0.84,0.91 1.11,1.2 0.12,0.14 0.28,0.22 0.58,0.59 0.11,0.13 -0.03,0.06 0.14,0.12 -0.03,-0.16 -0.11,-0.21 -0.2,-0.31l-1.08 -1.09c-0.19,-0.19 -0.63,-0.69 -0.62,-0.95 -0.03,0.03 -0.08,-0.01 -0.01,0.17 0.05,0.15 0.07,0.08 0.08,0.27z"/>
   <path class="fil8" d="M25.35 1.75c0.03,0.16 0.23,0.33 0.4,0.49 0.17,0.16 0.28,0.3 0.46,0.45 0.09,0.08 0.15,0.15 0.23,0.22 0.09,0.08 0.17,0.13 0.26,0.21 0.15,0.13 0.28,0.39 0.46,0.46 -0.07,-0.2 -0.32,-0.43 -0.44,-0.57l-0.75 -0.7c-0.26,-0.24 -0.44,-0.37 -0.64,-0.75 -0.02,0.04 -0.03,-0.05 -0.04,0.08l0.02 0.06c0.01,0.01 0.03,0.04 0.04,0.05z"/>
   <path class="fil9" d="M25.31 2.4c0.07,0.2 0.12,0.17 0.36,0.45l0.87 0.8c0.23,0.23 0.27,0.38 0.39,0.41 -0.01,-0.16 -0.24,-0.4 -0.35,-0.49l-1.09 -1.03c-0.05,-0.08 -0.09,-0.15 -0.17,-0.22l-0.01 0.08z"/>
  </g>
 </g>
</svg>
