<?xml version="1.0" encoding="UTF-8"?>
<!DOCTYPE svg PUBLIC "-//W3C//DTD SVG 1.1//EN" "http://www.w3.org/Graphics/SVG/1.1/DTD/svg11.dtd">
<!-- Creator: CorelDRAW -->
<svg xmlns="http://www.w3.org/2000/svg" xml:space="preserve" width="660px" height="217px" version="1.1" style="shape-rendering:geometricPrecision; text-rendering:geometricPrecision; image-rendering:optimizeQuality; fill-rule:evenodd; clip-rule:evenodd"
viewBox="0 0 446.31 147.04"
 xmlns:xlink="http://www.w3.org/1999/xlink"
 xmlns:xodm="http://www.corel.com/coreldraw/odm/2003">
 <defs>
  <style type="text/css">
   <![CDATA[
    .fil0 {fill:#23A638}
   ]]>
  </style>
 </defs>
 <g id="Слой_x0020_1">
  <metadata id="CorelCorpID_0Corel-Layer"/>
  <path class="fil0" d="M424.84 62.02l2.39 0c2.98,0 6.07,2.05 6.07,4.99 0,2.57 -0.25,4.28 -2.33,6.35 -2.48,2.48 -3.55,2.54 -6.78,2.54 -2.36,0 -4.75,-1.92 -5.71,-3.82 -3.73,-7.36 -2.16,-10.06 6.36,-10.06zm-225.97 -59.85l-0.01 5.43c0.03,1.07 0.2,1.08 0.23,2.15 0.11,4.47 -0.43,3.7 6.28,3.7 2.25,0 1.74,-2.54 1.74,-4.78 1.69,0.15 2.59,4.56 4.12,4.56 1.62,0 6.58,0.15 7.8,-0.44 -0.1,-1.18 -2.09,-3.19 -2.81,-4.12 -3.1,-3.97 -4.61,-3.56 -0.31,-6.81 2.63,-1.99 0.76,-1.92 -1.46,-1.68 -3.52,0.4 -1.79,-0.55 -4.03,1.61 -0.59,0.57 -0.94,0.7 -1.53,1.3 -0.56,0.56 -0.8,1.17 -1.78,1.25 0,-3.34 -0.46,-4.17 -1.57,-4.34l-2.29 0 -0.05 0c-1.23,0 -1.95,0.07 -3.04,0.21 -1.1,0.15 -1.29,0.72 -1.29,1.96zm-31.45 6.29c0,-1.5 -0.24,-3.04 1.95,-3.04 1.73,0 2.83,6.29 0,6.29 -1.54,0 -1.95,-1.71 -1.95,-3.25zm-8.03 0c0,10.14 13.65,7.12 16.27,5.63 2.03,-1.15 2.95,-2.49 3.33,-4.92 0.14,-0.88 -0.02,-2.21 -0.36,-3.24 -1.04,-3.14 -4.15,-4.63 -7.74,-4.63 -5.45,0 -11.5,1.84 -11.5,7.16zm140.1 4.55c-2.28,0 -2.12,-6.29 0.44,-6.29 1.58,0 1.84,1.62 1.62,3.13 -0.24,1.61 -0.32,3.16 -2.06,3.16zm-9.54 -3.68c0,6.98 6.39,7.59 12.36,7.59 4.88,0 8.18,-3.59 7.07,-8.59 -0.46,-2.08 -2.14,-3.55 -3.88,-4.36 -4.68,-2.19 -15.55,-2.54 -15.55,5.36zm49.01 9.54c-2.14,0 -2.27,-1.26 -1.99,-2.85 0.26,-1.44 0.36,-2.79 1.99,-2.79 3,0 1.61,5.64 0,5.64zm-11.93 8.24c0,1.32 1.32,1.16 2.92,1.42 6.02,0.99 4.02,1.61 6.19,-7.71 1.08,0.29 1.34,1.27 2.31,1.81 2.21,1.25 6.07,1.09 7.68,-1.15 3.23,-4.52 2.21,-11.94 -3.26,-11.94 -2.43,0 -3.38,-0.07 -5.43,1.3 0.55,-2.36 -1.26,-2.08 -5.05,-2.76 -2.84,-0.52 -2.29,0.56 -3.06,4.62l-1.8 10.57c-0.23,1.37 -0.5,2.35 -0.5,3.84zm-87.83 -16.05c0,1.34 0.37,1.42 0.87,2.17 7.47,0 7.27,2.25 7.58,-7.17 0.05,-1.63 0.73,-1.72 1.96,-1.72 2.23,0 1.3,2.86 1.3,4.77 0,5.84 -0.37,4.28 2.33,4.61l4.18 0.16c1.68,0 1.52,-1.79 1.52,-4.77 0,-1.39 -0.48,-4.56 1.73,-4.56 2.5,0 1.74,3.31 1.53,5.87 -0.38,4.63 -0.2,3.68 7.15,3.68 1.3,0 0.87,-2.82 0.86,-4.13 -0.01,-1.74 0.43,-3.27 0.14,-4.9 -0.27,-1.51 -0.75,-2.47 -1.71,-3.28 -2.32,-1.94 -6.81,-1.91 -9.11,0.53 -0.48,0.51 -0.56,0.81 -1.03,1.15 -0.21,-2.51 -4.59,-4.44 -8.49,-2.85 -0.82,0.33 -1.62,1.06 -2.35,1.55 0,-1.21 -0.19,-1.26 -0.65,-1.95 -1.98,0 -3.45,-0.15 -4.54,-0.22l-1.55 0c-1.39,0.19 -1.52,1.24 -1.5,4.99l-0.22 6.07zm-105.83 9.11c0.05,2.27 1.82,6.07 -1.3,6.07 -1.92,0 -3.34,-6.07 1.3,-6.07zm-5.2 -7.81l1.08 8.03 -1.08 -8.03zm0 0c0,-0.99 -0.15,-2.38 1.73,-2.38 2.27,0 2.23,4.13 1.89,4.69 -0.91,1.5 -3.62,1.58 -3.62,-2.31zm1.08 8.03c-0.95,1.42 -3.28,3.7 -1.42,7.48 2.32,4.72 11.02,3.35 13.07,-1.04 1.11,-2.4 0.76,-7.38 0.06,-8.83 0.9,0 2.03,-0.16 2.6,-0.43 0,-2.43 -0.41,-1.85 -0.65,-1.96 -0.03,-0.01 -0.09,-0.05 -0.1,-0.02 -0.01,0.04 -0.09,-0.01 -0.11,-0.01 -2.67,0.17 -1.47,2.72 -2.91,-4.43 -0.34,-1.69 -0.62,-3.41 -0.93,-4.93 -0.4,-2 -1.36,-1.42 -3.94,-0.99 -0.62,0.11 -1.89,0.29 -2.54,0.5 -0.96,0.31 -1.18,0.69 -1.18,1.86 -0.96,-0.26 -2.51,-2.48 -6.58,-0.51 -5.82,2.81 -3.72,9.64 -1.92,11.83 2.16,2.62 5.61,1.5 6.55,1.48zm70.7 98.24l0 8.24 9.11 0 0 18.87c0,0.94 1.82,1.22 3.66,1.3l3.26 0 0.02 0c1.77,0 2.55,-0.34 3.9,-0.65l0 -19.52 9.11 0 0 -7.81c0,-0.88 -1.7,-0.85 -3.04,-0.87 -1.33,-0.01 -2.11,-0.22 -3.68,-0.21 -1.3,0 -2.62,0.02 -3.92,0 -1.31,-0.01 -2.1,-0.23 -3.67,-0.22 -3.23,0.01 -11.89,0.2 -14.75,0.87zm34.91 0.65l0 26.46c0,1.07 2.71,1.08 3.91,1.08l13.66 0.22 0.51 0 6.43 -0.65 0 -6.73 -13.66 0 0 -4.12 12.79 0 0 -6.5 -12.79 0 0 -3.69 12.79 0c0.5,0 0.65,-0.15 0.65,-0.65 0,-6.22 0.63,-6.29 -2.18,-6.49l-9.96 -0.45 -9.75 0.44c-0.96,0.05 -2.4,0.1 -2.4,1.08zm82.63 6.29c0.56,0.41 0.64,1.13 0.9,1.92l2.14 6.32 -5.64 0c0.47,-2.03 2.49,-6.9 2.6,-8.24zm13.54 21.47l-3.04 0 -0.09 0c-3.64,0 -4.22,-0.26 -4.65,-1.86 -0.38,-1.4 -1.39,-3.55 -1.42,-4.87l-8.24 0c-0.37,1.58 -1.09,3.34 -1.47,4.83 -0.3,1.19 -0.15,1.32 -1.43,1.6 -0.64,0.13 -2.07,0.26 -3.63,0.3l-2.11 0c-2,-0.06 -3.72,-0.3 -3.72,-0.87 0,-0.84 8.07,-23.21 8.75,-25.29 0.73,-2.21 0.28,-2.39 2.86,-2.79l10.72 0.1c1.19,0.15 1.29,0.12 1.69,1.13l3.7 10.4c0.53,1.41 0.99,2.71 1.47,4.17l4.42 12.5c-2.03,0.47 -2.77,0.61 -3.81,0.65zm-187.68 -21.69c0.13,1.61 2.46,6.83 2.6,8.46l-5.42 0c0.08,-1.03 0.97,-3.26 1.33,-4.31l1.49 -4.15zm12.5 21.69l-2.72 0 -0.02 0c-4.06,0 -3.92,-0.73 -4.37,-2.14 -0.49,-1.54 -1.13,-4.59 -1.92,-4.59 -9.26,0 -7.3,-0.74 -8.33,2.31 -0.95,2.83 -0.63,3.86 -2.35,4.15 -0.75,0.13 -1.5,0.22 -2.25,0.27l-2.92 0c-1.46,-0.1 -2.9,-0.32 -4.32,-0.65 0.2,-0.88 0.49,-1.38 0.79,-2.25l5.09 -14.64c0.91,-2.76 1.97,-5.48 2.93,-8.35 0.89,-2.69 0.27,-3.19 5.29,-3.17 1.27,0.01 1.5,-0.22 2.6,-0.24 1.19,-0.02 1.49,0.25 2.81,0.24 1.37,0 4.09,-0.1 4.6,1.04l6.62 18.75c0.41,1.04 2.88,7.78 2.88,8.4 0,0.65 -2.37,0.83 -4.41,0.87zm113.06 -27.98l0 26.89c0,0.69 1.45,1 3.27,1.09l2.43 0c2.21,-0.09 4.36,-0.38 4.93,-0.65l0 -11.5c0.82,0.6 5.56,9.68 6.53,11.03 0.52,0.71 1.87,1 3.38,1.12l5.04 0 0.01 0c1.35,0 3.48,-0.24 4.34,-0.65 -0.08,-0.93 -0.64,-1.34 -1.08,-1.96 -0.43,-0.6 -0.75,-1.15 -1.22,-1.82l-7.68 -10.97c0.73,-1.08 1.45,-2.04 2.27,-3.16 0.93,-1.3 6.74,-8.77 6.84,-10.07 -1.52,-0.13 -4.6,-0.79 -6.77,-0.5 -6.05,0.82 -3.55,-2.03 -10.13,8.97 -0.27,0.46 -0.44,0.72 -0.73,1.22l-0.8 1.15 0 -8.68c0.02,-1.32 0.31,-1.94 -0.73,-2.3 -0.73,-0.25 -4.5,-0.49 -5.21,-0.39 -1.42,0.19 -4.69,-0.12 -4.69,1.18zm-102.36 -0.43l0 27.76c0.58,0.27 2.72,0.56 4.93,0.65l2.43 0c1.83,-0.09 3.27,-0.4 3.27,-1.09l0 -19.73 6.72 0 0 19.73c0,0.74 1.67,1.02 3.58,1.09l2.26 0c1.42,-0.05 2.66,-0.15 3.07,-0.2 0.8,-0.1 1.72,-0.08 1.72,-0.89l0 -26.89c0,-0.86 -1.58,-0.85 -2.82,-0.87 -1.42,-0.02 -1.96,-0.23 -3.47,-0.22 -1.23,0.01 -2.47,0.02 -3.7,0.01 -1.41,0 -2.09,-0.23 -3.67,-0.22 -3.19,0.01 -11.48,0.2 -14.32,0.87zm10.66 -52.19c0,0 3.82,1.14 5.52,-2.59 1.7,-3.73 2.28,-5.57 6.46,-5.74 4.17,-0.17 10.19,4.12 7.4,10.64 -2.78,6.51 -12.18,13.15 -19.38,-2.31zm198.4 -1.38c2.54,-1.7 2.6,-6.72 8.24,-6.72 4.74,0 8.24,4.3 8.24,7.15l0 1.52c0,3.06 -3.7,7.16 -6.72,7.16 -2.98,0 -4.59,-0.97 -6.77,-3.42 -2.08,-2.33 -2.11,-3.73 -2.99,-5.69zm-107.13 0.22c-0.06,-0.74 -0.44,-1.75 -0.61,-2.43 -0.17,-0.69 -0.47,-2.05 -0.47,-2.78 0,-1.82 1.91,-5.2 3.46,-5.2 0.95,0 2.39,1.58 2.39,2.6 0,1.83 -1.96,4.86 -3.2,6.13l-1.57 1.68zm-225.11 -23.64c0,-4.12 0.49,-6.65 2.24,-10.12 0.35,-0.69 1.08,-1.88 1.23,-2.46 1.42,0.95 1.72,0.95 3.09,2.33 0.95,0.96 1.83,1.77 2.54,2.89 2.01,3.15 4.8,10.36 0.92,13.26 -1.15,0.85 -3.59,1.47 -5.47,1.47 -3.2,0 -4.55,-4.04 -4.55,-7.37zm377.35 -1.09c0.92,-3.95 6.13,-11.73 10.7,-14.02 0.96,-0.49 1.82,-1.13 2.94,-0.72 5.34,1.97 -1.36,9.74 -3.06,11.44 -2.05,2.03 -6.53,3.3 -10.58,3.3zm-381.25 -23.42c-13.16,0 -24.31,6.91 -31.07,15.13 -15.53,18.91 -8.8,50.41 14.18,59.88 2.27,0.93 4.77,1.75 7.47,2.29 9.67,1.92 19.31,0.84 27.68,-4.17l5.23 -3.66c7.67,-6.17 11.74,-13.88 17.19,-22.06 0.84,-1.25 1.5,-2.31 2.52,-3.34 1.17,-1.18 2.8,-1.6 3.87,-0.06 3.65,5.28 4.88,20.32 7.08,22.85 2.04,2.33 6.11,2.2 7.88,-0.27 0.82,-1.15 1.14,-2.84 1.6,-4.47 1.34,-4.7 2.55,-9.11 4.61,-13.4 0.56,-1.18 1.48,-2.91 2.29,-3.78 1.21,-1.29 1.89,-2.01 4.05,-1.11 4.64,1.96 2.18,20.37 9.78,20.37 2.44,0 4.34,-1.06 5.13,-3.33 0.7,-2.04 1.3,-3.95 1.99,-5.82 1.01,-2.7 3.49,-9.07 6.54,-9.07 1.57,0 2.18,0.26 2.76,1.36 0.51,0.98 0.81,2.03 1.05,3.28 1.05,5.3 1.32,12.33 6.81,14.88 7.15,3.31 14.53,-3.62 18.73,-8.61 0.58,-0.7 0.97,-1.56 1.88,-1.8 0.64,2.75 4.93,7.43 7.09,9.17 5.76,4.65 12.79,5.96 19.81,2.32 5.03,-2.61 5.98,-5.28 7.89,-7.28 0.62,-0.65 8.98,-5.67 9.67,-5.73 0.24,2.9 2.66,7 5.01,8.86 0.36,0.29 0.47,0.42 0.84,0.69 5.44,3.94 12.45,2 16.76,-2.34 1.48,-1.48 5.08,-6.36 5.58,-8.51l0.43 0c0.5,2.12 3.72,6.65 5.15,8.08 4.45,4.4 8.53,4.97 14.46,3.5 1.77,-0.44 2.99,-1.26 4.47,-1.61 5.98,4.01 7.09,5.21 15.39,5.21 6.94,0 12.13,-6.12 15.25,-11.43 0.16,-0.26 0.17,-0.31 0.32,-0.54 0.03,-0.04 0.07,-0.1 0.09,-0.13 0.03,-0.04 0.07,-0.09 0.1,-0.13 0.38,-0.51 0.01,-0.02 0.29,-0.35 0.23,0.95 0.93,1.99 1.34,3 0.19,0.47 0.43,1.06 0.59,1.57 0.77,2.46 1.24,5.41 5.45,5.41 3.78,0 4.7,-3.74 5.82,-6.54 0.44,-1.1 0.9,-2.06 1.3,-3.04 0.7,-1.71 1.81,-3.92 2.76,-5.48 0.53,-0.88 2.77,-4.68 3.78,-4.68 4.09,0 3.9,8.35 4.28,11.12 0.43,3.18 -0.5,4.5 1.4,6.4 1.31,1.31 3.61,1.99 5.68,1 2.94,-1.4 2.96,-4.8 5.63,-9.77 0.46,-0.86 0.96,-1.65 1.48,-2.42 0.6,-0.88 1.09,-1.39 1.73,-2.18 0.9,-1.12 3.06,-3.28 4.74,-3.28 4.96,0 1.38,13.62 8.8,18.74 5.46,3.77 12.2,2.56 16.21,-2.41 0.6,-0.75 1.63,-1.94 1.88,-2.89 1.19,0.8 9.36,12.23 21.84,6.01 1.96,-0.98 3.77,-2.3 5.42,-3.69 2.72,-2.29 7.06,-6.32 9.82,-8.17 1.36,2.83 0.86,5.92 5.8,10.68 3.06,2.96 7.67,4.72 12.2,4.72 15.21,0 24.52,-18.94 13.08,-29.99 -4.69,-4.53 -12.5,-4.79 -19.02,-3.5 -0.97,0.19 -1.3,0.34 -2.08,0.52 0,-3.41 0.64,-2.6 3.9,-2.6 5.53,0.01 11.2,-1.46 15.25,-4.49 4.44,-3.32 9.91,-10.46 9.91,-16.55 0,-4.45 -0.61,-6.98 -3.74,-10.14 -0.91,-0.91 -2.23,-1.88 -3.42,-2.44 -5.11,-2.39 -9.81,-1.18 -14.4,1.87 -1.15,0.77 -3.73,2.77 -4.62,3.84 -0.6,0.72 -0.76,0.93 -1.42,1.61 -1.87,1.92 -3.22,4.39 -4.59,6.69 -0.74,1.26 -1.32,2.37 -1.89,3.75 -0.26,0.63 -0.56,1.29 -0.84,1.98 -0.26,0.67 -0.56,1.54 -0.86,2.17 -4.05,-1.94 -7.36,-3.73 -9.55,-8.02 -1.04,-2.03 -1.82,-3.74 -4.63,-4.05 -4.07,-0.44 -6.24,3.81 -5.04,7 1.91,5.04 5.79,9.01 10.28,11.83 1.14,0.72 4.66,2.66 6.12,2.78 0,1.34 -0.48,2.73 -0.67,4.11 -0.21,1.53 -0.01,4.98 -1.21,6.16 -0.93,0.91 -3.11,2.82 -4.19,3.39 -1.62,-6.95 -8.86,-13.66 -16.27,-13.66 -4.61,0 -8.16,0.49 -11.64,3.32 -2.41,1.95 -3.85,4.11 -5.33,6.81 -0.57,1.03 -0.78,0.63 -1.63,1.41 -0.58,0.53 -1.03,0.97 -1.36,1.68 -1.2,2.63 -1.88,5.94 -3.28,8.86 -0.6,1.25 -1.7,3.51 -3.22,3.51 -2.79,0 -1.61,-8.22 -4.4,-13.81 -2.73,-5.45 -8.58,-8.64 -15.36,-6.39 -2.52,0.84 -4.49,2.25 -6.32,4.1 -0.48,0.49 -0.81,0.81 -1.3,1.3 -0.48,0.48 -0.83,1.05 -1.24,1.36 -0.48,-2.07 -2.69,-4.39 -4.3,-5.68 -5.51,-4.37 -11.41,-3.22 -16.15,1.5 -1.58,1.58 -5.14,7.49 -5.36,7.65 -0.07,-0.79 -2.08,-5.23 -2.52,-6.59 -0.5,-1.53 -0.59,-1.94 -1.65,-2.91 -1.91,-1.77 -4.86,-1.7 -6.74,0.11 -2.2,2.13 -1.85,5.8 -4.05,10.26 -1.09,2.2 -2.03,4.14 -3.54,6 -3.3,4.05 -6.55,4.92 -11.21,2.45 0.91,-1.36 3.51,-3.52 5.6,-6.76 5.2,-8.08 3.23,-16.69 -4.51,-20.57 -0.75,-0.37 -1.23,-0.64 -2.17,-0.87 -4.53,-1.14 -9.23,0.79 -12.09,4.19 -2.7,3.22 -4.18,6.51 -4.18,11.43 0,3.02 1.55,8.22 2.6,10.2 -4.46,1.04 -5.51,1.6 -8.46,-4.34 -2.06,-4.17 -3.78,-8.76 -5.08,-13.36 -1.72,-6.08 -6.98,-5.23 -8.83,-3.16 -0.79,0.87 -1.17,2.09 -1.43,3.34 -0.58,2.8 -1.13,5.07 -2.04,7.51 -1.23,3.33 -4.68,11.31 -8.42,11.31 -2.53,0 -3.23,-5.3 -3.6,-7.9 -0.26,-1.85 -0.23,-3.31 -1.13,-4.51 -4.05,-5.34 -10.69,0.91 -14.79,3.08 -0.43,-5.2 -5.14,-10.91 -9.61,-13.16 -6.38,-3.21 -15.74,-1.64 -20.14,3.8 -0.65,0.8 -1.89,2.45 -2.13,3.51 -1.63,-0.44 -5.06,-4.87 -9.15,1.91 -1.92,3.18 -4.03,6.19 -6.4,8.99 -1.34,1.59 -4.2,4.97 -6.35,5.14 -0.03,-1.05 -0.46,-2.49 -0.63,-3.49 -0.2,-1.22 -0.32,-2.31 -0.59,-3.53 -1.4,-6.5 -4.82,-12.93 -12.45,-12.93 -3.59,0 -6.18,0.43 -8.89,2.39 -0.85,0.61 -1.69,1.36 -2.35,2.2 -0.42,0.52 -0.73,0.71 -1.12,1.27 -0.39,0.55 -0.5,0.91 -1.08,1.3 -0.1,-1.17 -1.22,-3.06 -1.75,-3.89 -4.49,-7.05 -15.19,-8.3 -21.21,-0.85l-3.22 4.81c-0.47,0.88 -0.46,1.59 -1.15,2.1 -0.28,-3.39 -4.29,-9.32 -7.6,-11.05 -4.02,-2.1 -9.85,-1.48 -13.25,1.25 -0.5,0.4 -0.77,0.72 -1.27,1.12 -2.04,1.62 -3.98,5 -5.42,7.16 -4.63,6.96 -8.53,14.43 -15.66,19.26 -4.79,3.25 -9.5,5.03 -16.65,5.03 -7.45,0 -13.83,-2.39 -19.04,-6.99 -0.5,-0.45 -0.61,-0.37 -1.07,-0.88 -5.67,-6.27 -7.87,-13.64 -7.87,-22.49 0,-10.52 6.74,-19.57 15.76,-24.15 2.27,-1.16 7.07,-3.18 10.26,-3.18 -0.76,3.28 -3.03,6.1 -3.03,13.45 0,1.6 0.33,4.1 0.64,5.42 3.32,13.84 16.68,15.86 26.13,8.77 4.64,-3.48 6.62,-10.76 4.68,-18.1 -0.78,-2.94 -2.27,-6.33 -3.88,-8.49 -1.06,-1.43 -4.41,-5.8 -6.1,-6.25 1.4,-1.92 7.29,-2.17 10.19,-2.17 2.55,0 4.13,0.8 6.14,-0.15 3.88,-1.83 3.86,-7.59 -0.09,-9.16 -1.41,-0.56 -4.92,-0.88 -6.92,-0.88 -5.13,0 -9.67,1.23 -13.22,2.82 -2.16,0.96 -4.31,2.37 -6.1,3.88 -0.62,0.51 -0.36,0.58 -1.28,0.68 -1.03,0.11 -2.67,-0.23 -3.9,-0.23z"/>
 </g>
</svg>
