<?xml version="1.0" encoding="UTF-8"?>
<!DOCTYPE svg PUBLIC "-//W3C//DTD SVG 1.1//EN" "http://www.w3.org/Graphics/SVG/1.1/DTD/svg11.dtd">
<!-- Creator: CorelDRAW -->
<svg xmlns="http://www.w3.org/2000/svg" xml:space="preserve" width="509px" height="206px" version="1.1" style="shape-rendering:geometricPrecision; text-rendering:geometricPrecision; image-rendering:optimizeQuality; fill-rule:evenodd; clip-rule:evenodd"
viewBox="0 0 1993.03 805.58"
 xmlns:xlink="http://www.w3.org/1999/xlink"
 xmlns:xodm="http://www.corel.com/coreldraw/odm/2003">
 <defs>
  <style type="text/css">
   <![CDATA[
    .fil0 {fill:#460C00}
    .fil3 {fill:#F7AE00}
    .fil2 {fill:#F8AF00}
    .fil1 {fill:#FEFEFE}
   ]]>
  </style>
 </defs>
 <g id="Слой_x0020_1">
  <metadata id="CorelCorpID_0Corel-Layer"/>
  <g id="_2772403129312">
   <path class="fil0" d="M177.34 402.95c9.62,-22.3 40.06,-49.84 59.72,-65.6 38.16,-30.58 96.98,-56.22 152.26,-56.22 76.47,0 156.98,36.71 203.16,96.98 2.76,3.59 16.09,20.93 16.06,24.85 -0.03,3.82 -13.83,21.45 -16.89,25.24 -12.06,14.93 -27.71,29.43 -43.02,41.14 -40.37,30.87 -97.81,55.13 -154.29,55.13 -98.95,0 -186.48,-62.87 -217,-121.52zm-135.9 0c0,14.34 0.48,23.01 4.84,35.36 5.31,15.04 14.63,9.42 43.73,24.08 14.61,7.37 29.43,15.66 42.58,25.23 21.14,15.39 37.05,29.28 57.22,44.51 48.58,36.65 109.63,60.97 170.5,66.85l64.38 0.09c60.59,-6.48 124.06,-29.1 170.98,-67.63l57.02 -44.7c3.44,-2.58 5.87,-4.34 9.67,-6.65 4.14,-2.52 7.24,-4.7 10.82,-6.77 14.24,-8.22 29.64,-15.58 46.26,-21.55 14.48,-5.2 14.82,-1.5 19.18,-14.73 7.57,-22.94 4.81,-65.55 -6.07,-72.15 -1.97,-1.2 -1.17,-0.6 -3.61,-1.42 -40.87,-13.71 -60.04,-25.33 -92.4,-49.5 -13.18,-9.84 -24.47,-20.2 -37.21,-30.61 -49.44,-40.39 -123.68,-75.06 -192.43,-75.06 -43.99,0 -69.74,0.8 -111.93,14.91 -41.68,13.93 -74.83,31.82 -108.24,58.79 -6.43,5.18 -11.25,9.84 -17.72,14.92 -6.69,5.26 -12.11,9.86 -18.7,15.22l-28.55 20.42c-11,6.58 -19.61,12.62 -32.42,17.82l-24.02 9.88c-11.7,4.67 -14.44,0.58 -19.04,13.62 -2.86,8.09 -4.84,17.75 -4.84,29.07z"/>
   <path class="fil1" d="M380.84 324.78c46.36,-7.03 83.87,26.83 89.52,66.21 6.78,47.29 -26.65,83.65 -65.86,89.83 -46.84,7.37 -84.34,-26.47 -90.33,-65.52 -7.45,-48.6 26.58,-84.43 66.67,-90.52zm-203.5 78.17c30.52,58.65 118.05,121.52 217,121.52 56.48,0 113.92,-24.26 154.29,-55.13 15.31,-11.71 30.96,-26.21 43.02,-41.14 3.06,-3.79 16.86,-21.42 16.89,-25.24 0.03,-3.92 -13.3,-21.26 -16.06,-24.85 -46.18,-60.27 -126.69,-96.98 -203.16,-96.98 -55.28,0 -114.1,25.64 -152.26,56.22 -19.66,15.76 -50.1,43.3 -59.72,65.6z"/>
   <path class="fil0" d="M1736.05 723.83c-2.39,-8.6 -0.79,-194.95 -0.79,-220.63l25.14 0.52 0 188.07c4.6,-0.55 3.81,-0.33 6.46,-3.91l28.6 -41.69c5.68,-8.01 10.96,-15.73 16.43,-23.73 7.69,-11.27 79.95,-117.76 82.06,-118.6 4.25,-1.69 30.19,-0.76 36.31,-0.45l-0.48 220.59 -24.96 -0.01 -0.02 -187.84c-6.11,-1.07 -5.81,1 -7.99,4.15l-108.45 159.04c-5.01,7.78 -10.66,16.21 -15.76,23.66 -15.08,1.02 -21.51,1.64 -36.55,0.83zm-34.38 -249.29l0 278.79c9.01,2.1 21.82,3.67 32.69,3.74 7.15,0.04 8.77,1.37 16.29,1.37l33.87 -2.64c7.83,-0.64 8.08,-2.31 11.37,-7.47 20.43,-31.99 45.34,-66.58 67.29,-99.74 1.48,-2.24 1.95,-3.09 3.52,-5.25 1.67,-2.29 2.95,-3.74 4.51,-5.55l0 115.54c27.05,2.25 34.51,8.16 69.82,3.26 7.69,-1.07 16.39,-2.7 23.12,-3.26l0 -278.79c-30.12,-2.51 -40.74,-8.35 -77.18,-3.09 -15.46,2.23 -11.82,-0.61 -25.57,19.65l-54.23 80.14c-3.01,4.24 -9.04,15 -12.56,17.58l0 -113.03c-13.48,-6.47 -50.84,-7.02 -69.99,-4.68 -6.11,0.75 -16.6,3.28 -22.95,3.43z"/>
   <path class="fil0" d="M913.86 509.3c24.72,-6.03 171.31,-6.56 194.43,-0.08l0.01 214.61c-7.32,2.27 -17.9,1.71 -25.45,0.32l0.32 -196.54 -144.08 0 -0.01 196.54c-7.92,1.27 -17.86,2.21 -25.46,-0.32l0.24 -214.53zm-33.51 -29.74l0 272.52c16.01,7.68 55.14,7.32 75.54,3.96 4.27,-0.71 5.38,-0.89 9.61,-1.69 3.74,-0.72 7.79,-0.36 7.79,-4.78l0 -188.38 75.35 0 0 188.38c0,5.4 7.75,4.45 17.46,6.39 17.25,3.46 38.41,3.22 55.93,0.44 6.89,-1.1 12.94,-3.07 19.54,-3.07l0 -273.77c-3.75,-0.09 -8.81,-1.02 -13.43,-1.64l-43.02 -3.45c-41.9,-3.36 -101.53,-3.4 -143.3,0 -10.73,0.87 -20.47,0.27 -30.98,1.67l-30.49 3.42z"/>
   <path class="fil0" d="M970.41 205.42c3.49,-2.65 10.72,-7.04 12.91,-9.68 -13.38,-14.61 -26.99,-20.03 -46.5,-46.46 -7.45,-10.09 -11.79,-17.04 -17.37,-29.12 -3.07,-6.63 -11.47,-26.94 -11.01,-34.32 8.43,-0.28 17.57,-0.92 25.37,1.18 4.85,23.04 16.01,42.8 27.26,58.14 8.3,11.31 33.28,34.5 44.87,39.3 21.62,-10.61 50.37,-41.93 61.37,-66.7 2.21,-4.98 4.12,-9.83 6.07,-15.33 1.13,-3.19 1.8,-5.6 2.67,-8.6 2.61,-9 3.94,-10.45 27.38,-7.99 0.35,16.89 -20.89,53.48 -28.52,63.35 -8.88,11.48 -35.52,39.4 -46.99,44.83l25.98 22.82c23.74,19.96 44.7,56.72 50.71,89.83l-25.77 -0.49c-5.91,-34.51 -24.36,-60.31 -47.81,-81.51 -4.17,-3.77 -19.26,-15.62 -25.09,-17.89 -15.27,7.96 -36.37,27.86 -46.4,40.49 -13.23,16.64 -19.38,34.54 -26.81,58.99l-25.47 0.32c7.24,-41.6 31.47,-77 63.15,-101.16zm-102.62 -147.83l9.04 41.2c5.65,22.87 17.76,50.62 31.49,68.97 4.17,5.57 6.72,8.77 11.26,13.87 2.55,2.86 2.8,3.98 5.64,6.91 2.8,2.87 4.48,4 6.62,7.2 -9.34,13.94 -18.88,12.66 -42.29,59.43 -8.66,17.3 -20.11,60.22 -21.76,79.97 27.73,6.46 46.01,4.84 71.58,3.76 7.29,-0.31 14.68,-2.36 21.36,-2.51 7.33,-31.5 15.45,-71.75 45.21,-91.68 8.62,5.78 15.64,14.72 21.6,23.61 10.94,16.32 17.58,38.09 21.18,57.94 1.7,9.31 -1.04,10.75 21.37,12.54 28.72,2.3 39.52,1.68 67.95,-2.2 7.84,-1.07 6.12,-2.32 4.87,-8.94 -7.96,-42.17 -13.39,-62.68 -33.92,-96.83 -10.24,-17.04 -27.47,-30.76 -28.96,-36.35 3.36,-5.01 8.02,-8.28 12.26,-12.85 2.26,-2.44 3.51,-4.4 5.61,-6.95 1.99,-2.42 3.54,-4.44 5.47,-7.1 7.35,-10.2 12.85,-19.88 18.54,-31.69 13.89,-28.85 15.79,-50.9 22.17,-78.3 -25.76,-6 -60.59,-6.79 -87.66,-2.25 -8.41,1.4 -6.16,3.21 -10.79,21.85 -4.25,17.09 -9.64,30.72 -19.09,44.96 -1.45,2.17 -2.65,4.21 -4.07,5.98 -4.19,5.24 -11.03,12.43 -16.53,16.12 -13.13,-8.79 -22.18,-23.06 -29.31,-37.25 -10.66,-21.2 -12.77,-44.13 -15.9,-50.66 -25.89,-6.03 -67.93,-4.57 -92.94,1.25z"/>
   <path class="fil0" d="M1464.62 86.31l24.35 -0.83c2.41,9.05 0.64,52.58 0.78,65.09 0.25,22.12 8.96,34.57 22.13,42.79 31.02,19.37 77.36,7.48 110.67,-0.77 0,-15.15 -1.81,-99.08 0.94,-106.44l23.25 -0.34c2.44,6.84 1.36,198.47 0.87,221.63l-24.75 0.04 -0.32 -94.15c-41.92,7.54 -92.69,18.95 -129.12,-3.97 -38.88,-24.47 -28.8,-71.9 -28.8,-123.05zm-34.21 -26.2l0 87.91c0,20.83 4.54,42.07 12.14,55.68 7.85,14.03 19.72,26.21 33.46,34.34 30.29,17.94 78.59,23.4 112.64,15.47l0 81.63c26.79,2.22 33.32,10.54 72.87,3.79 7.96,-1.36 20.06,-2.58 20.06,-7.56l0 -275.03c-7.85,0 -27.51,-3.77 -52.74,-3.77 -11.26,0 -25.43,1.62 -34.4,3.28 -8.09,1.5 -5.95,3.37 -5.81,13.02l0.02 97.98c-15.38,3.59 -47.05,8.87 -59.4,-4.64 -5.66,-6.19 -5.95,-14.03 -5.91,-25.49 0.08,-20.93 -0.03,-41.87 0.01,-62.8 0.03,-20.55 5.72,-16.05 -24.55,-20.66 -9.92,-1.52 -32.92,-1.3 -43.66,0.18 -9.41,1.3 -24.73,1.35 -24.73,6.67z"/>
   <path class="fil0" d="M1283.41 686.73c5.4,-8.04 19.63,-27.34 22.66,-35.66 -41.92,-22.35 -76.23,-57.94 -99.31,-99.78 -3.95,-7.16 -18.61,-38.66 -16.7,-47.44l25.22 0.11c2.84,4.72 5.67,14.68 8.22,20.52 15.3,34.97 31.86,59.37 60.65,83.74 5.35,4.53 26.4,20.4 33.23,23.01 6.45,-7.71 21.97,-47.21 26.63,-59.72 8.04,-21.57 12.9,-43.28 17.89,-68.17l25.51 1.4c-6.62,58.4 -38.4,127.93 -69.66,174.89l-34.1 46.01c-7.92,-0.1 -19.54,-2.09 -24.98,-6.22 1.16,-2.96 9.43,-12.27 12.46,-16.1 4.57,-5.79 8.06,-10.29 12.28,-16.59zm-133.05 -207.17c2.49,29.91 21.04,81.88 37.66,106.76 4.98,7.45 9.71,14.35 15.07,21.35 8.67,11.33 44.03,49.39 56.53,52.73 -1.48,6.36 -11.67,17.88 -16.32,23.87l-32.66 36.41c0.83,3.12 3.79,6.7 5.95,9.12 2.65,2.97 5.09,4.43 8.13,6.94 5.57,4.57 11.84,7.9 19.28,10.86 16.25,6.5 33.25,9.5 54.55,9.5 3.95,0 15.38,-15.61 18.32,-19.36 28.35,-36.09 43.03,-59.61 63.73,-100.78 10.71,-21.32 20.9,-47.72 27.95,-72.52 6.09,-21.47 15.58,-63.58 15.58,-86.14l-25.27 -4.86c-8.59,-1.48 -17.8,-2.67 -27.47,-2.67 -7.44,0 -36.62,1.91 -39.03,4.92l-6.71 37.25c-4.26,18.95 -8.14,34.15 -14.72,51.84 -1.94,5.22 -4.7,10.48 -6.1,16.5 -9.22,-2.46 -33.25,-35.41 -38.95,-46.45 -14.57,-28.21 -22.51,-56.65 -25.1,-61.55l-34.82 -1.8c-14.16,0.56 -45.22,3.1 -55.6,8.08z"/>
   <path class="fil0" d="M1190.46 306.5c2.35,-64.71 28.74,-136.47 56.41,-192.57 2.27,-4.6 5.29,-9.54 7.72,-13.61 1.32,-2.22 2.56,-4.49 3.73,-6.34 2.6,-4.08 0.71,-3.08 5.52,-4.37 8.99,-2.43 27.34,-3.17 37.22,-3.16 7.63,0.01 31.8,1.1 37.87,3.49 4.42,1.74 7,8.1 9.34,12.12 31.09,53.43 61.12,143.03 63.01,204.35l-25.15 -0.15c-0.92,-13.16 -4.72,-45.74 -9.72,-57.12l-151.95 0.14c-2.68,19.36 -6.87,36.48 -8.79,57.38l-25.21 -0.16zm-33.82 9.8l0 20.09c9.37,0 26.9,3.77 47.72,3.77 17.97,0 34.17,-3.77 43.96,-3.77l1.21 -27.67c0.01,-9.35 2.55,-17.77 2.55,-26.33l97.96 0c0,11.33 2.51,20.92 2.51,33.91l0 20.09c7.58,0 15.74,1.92 22.68,2.44 46.1,3.47 46.64,-2.44 70.25,-2.44 0,-46.09 -8.43,-102.64 -22.12,-143.65l-20.74 -57.12c-2.18,-5.38 -5.33,-12.47 -8.2,-18.17 -6.18,-12.27 -11.62,-22.67 -18.55,-34.2 -16.31,-27.1 -12.82,-23.01 -26.98,-25.77 -34.59,-6.75 -59.09,-6.12 -93.58,-0.42 -15.1,2.49 -13.64,-0.52 -27.95,23.53 -36.92,62.03 -70.72,161.82 -70.72,235.71z"/>
   <path class="fil0" d="M1470.12 723.67c-1.29,-21.87 -0.15,-47.28 -0.15,-69.55l-0.11 -138.28c-0.07,-9.98 -1.16,-8 25.88,-9.18l69.05 -1.05c56.63,0 93.92,18.69 86.75,79.74 -8.95,76.2 -97.97,65.39 -156.43,61.87l-0.15 76.66 -24.84 -0.21zm-33.43 -246.62l0 276.28c6.32,0.53 15.53,2.68 21.69,3.44 37.98,4.67 42.57,-1.16 69.99,-3.44l0 -71.58c7.63,3.66 49.04,0.92 58.67,-0.36 29.42,-3.9 45.59,-11.46 65.48,-27.45 32.23,-25.89 39.4,-77.76 28.83,-116.38 -8.92,-32.56 -34.06,-49.49 -65.77,-58.55 -25.76,-7.36 -48.6,-6.99 -75.91,-6.99 -7.75,0 -18.84,-0.64 -26.19,0.19l-76.79 4.84z"/>
   <path class="fil0" d="M1734.95 191.97c0,-62.59 49.81,-107.7 112.4,-107.7 64.61,0 111.47,45.59 111.47,108.95l0 6.29c0,61.77 -47.03,108.63 -108.95,108.63 -66.91,0 -114.92,-46.15 -114.92,-108.63l0 -7.54zm103.61 149.45c49.42,0 69.8,-6.15 106.22,-34.44 29.79,-23.14 48.25,-71.84 48.25,-109.99 0,-32.96 -10.91,-63.74 -24.09,-83.91 -55.84,-85.52 -193.41,-83.65 -247.92,6.56 -16.76,27.74 -17.39,46.63 -20.08,74.12 -0.45,4.62 0.68,5.93 0.75,12 0.84,71.04 64.4,135.66 136.87,135.66z"/>
   <path class="fil2" d="M380.84 324.78c-40.09,6.09 -74.12,41.92 -66.67,90.52 5.99,39.05 43.49,72.89 90.33,65.52 39.21,-6.18 72.64,-42.54 65.86,-89.83 -5.65,-39.38 -43.16,-73.24 -89.52,-66.21z"/>
   <path class="fil2" d="M1491.95 423.05l483.5 0 1.26 -27.63c0,-6.32 -1.13,-5.63 -1.26,-11.31l-483.5 0 0 38.94z"/>
   <path class="fil2" d="M866.54 402.95l2.51 20.1 482.24 0 0 -38.94 -482.24 0c-1.39,5.98 -2.51,11.39 -2.51,18.84z"/>
   <path class="fil3" d="M1736.05 723.83c15.04,0.81 21.47,0.19 36.55,-0.83 5.1,-7.45 10.75,-15.88 15.76,-23.66l108.45 -159.04c2.18,-3.15 1.88,-5.22 7.99,-4.15l0.02 187.84 24.96 0.01 0.48 -220.59c-6.12,-0.31 -32.06,-1.24 -36.31,0.45 -2.11,0.84 -74.37,107.33 -82.06,118.6 -5.47,8 -10.75,15.72 -16.43,23.73l-28.6 41.69c-2.65,3.58 -1.86,3.36 -6.46,3.91l0 -188.07 -25.14 -0.52c0,25.68 -1.6,212.03 0.79,220.63z"/>
   <path class="fil0" d="M1793.35 195.74c0,-16.64 5.72,-29.58 13.99,-38.77 0.17,-0.19 0.42,-0.47 0.59,-0.66 13.68,-14.76 27.05,-15.83 45.7,-15.83 44.93,0 60.02,63.84 33.56,95.09 -26.26,31.03 -93.84,20.16 -93.84,-39.83zm38.63 -87.91c-82.16,15.02 -93.08,115.78 -38.4,160.51 16.08,13.15 43.71,21.27 70.1,16.6 109,-19.31 84.95,-198.41 -31.7,-177.11z"/>
   <path class="fil3" d="M1831.98 107.83c116.65,-21.3 140.7,157.8 31.7,177.11 -26.39,4.67 -54.02,-3.45 -70.1,-16.6 -54.68,-44.73 -43.76,-145.49 38.4,-160.51zm-97.03 84.14l0 7.54c0,62.48 48.01,108.63 114.92,108.63 61.92,0 108.95,-46.86 108.95,-108.63l0 -6.29c0,-63.36 -46.86,-108.95 -111.47,-108.95 -62.59,0 -112.4,45.11 -112.4,107.7z"/>
   <path class="fil3" d="M1228.94 229.01c7.31,-36.09 31.73,-96.16 49.99,-120.7 14.47,-1.73 29.14,-1.27 43.63,-0.16 17.29,21.8 43.54,86.31 50.08,120.86l-143.7 0zm-38.48 77.49l25.21 0.16c1.92,-20.9 6.11,-38.02 8.79,-57.38l151.95 -0.14c5,11.38 8.8,43.96 9.72,57.12l25.15 0.15c-1.89,-61.32 -31.92,-150.92 -63.01,-204.35 -2.34,-4.02 -4.92,-10.38 -9.34,-12.12 -6.07,-2.39 -30.24,-3.48 -37.87,-3.49 -9.88,-0.01 -28.23,0.73 -37.22,3.16 -4.81,1.29 -2.92,0.29 -5.52,4.37 -1.17,1.85 -2.41,4.12 -3.73,6.34 -2.43,4.07 -5.45,9.01 -7.72,13.61 -27.67,56.1 -54.06,127.86 -56.41,192.57z"/>
   <path class="fil3" d="M913.86 509.3l-0.24 214.53c7.6,2.53 17.54,1.59 25.46,0.32l0.01 -196.54 144.08 0 -0.32 196.54c7.55,1.39 18.13,1.95 25.45,-0.32l-0.01 -214.61c-23.12,-6.48 -169.71,-5.95 -194.43,0.08z"/>
   <path class="fil3" d="M1495.26 528.08c10.8,-1.92 77.97,-1.14 89.55,0.6 26.47,3.98 42.5,19.39 41.73,48.86 -0.74,28.66 -17.31,42.72 -43.06,47.51 -10.29,1.91 -79.92,3.31 -88.39,0.96l0.17 -97.93zm-25.14 195.59l24.84 0.21 0.15 -76.66c58.46,3.52 147.48,14.33 156.43,-61.87 7.17,-61.05 -30.12,-79.74 -86.75,-79.74l-69.05 1.05c-27.04,1.18 -25.95,-0.8 -25.88,9.18l0.11 138.28c0,22.27 -1.14,47.68 0.15,69.55z"/>
   <path class="fil3" d="M983.32 195.74c-2.19,2.64 -9.42,7.03 -12.91,9.68 -31.68,24.16 -55.91,59.56 -63.15,101.16l25.47 -0.32c7.43,-24.45 13.58,-42.35 26.81,-58.99 10.03,-12.63 31.13,-32.53 46.4,-40.49 5.83,2.27 20.92,14.12 25.09,17.89 23.45,21.2 41.9,47 47.81,81.51l25.77 0.49c-6.01,-33.11 -26.97,-69.87 -50.71,-89.83l-25.98 -22.82c11.47,-5.43 38.11,-33.35 46.99,-44.83 7.63,-9.87 28.87,-46.46 28.52,-63.35 -23.44,-2.46 -24.77,-1.01 -27.38,7.99 -0.87,3 -1.54,5.41 -2.67,8.6 -1.95,5.5 -3.86,10.35 -6.07,15.33 -11,24.77 -39.75,56.09 -61.37,66.7 -11.59,-4.8 -36.57,-27.99 -44.87,-39.3 -11.25,-15.34 -22.41,-35.1 -27.26,-58.14 -7.8,-2.1 -16.94,-1.46 -25.37,-1.18 -0.46,7.38 7.94,27.69 11.01,34.32 5.58,12.08 9.92,19.03 17.37,29.12 19.51,26.43 33.12,31.85 46.5,46.46z"/>
   <path class="fil3" d="M1464.62 86.31c0,51.15 -10.08,98.58 28.8,123.05 36.43,22.92 87.2,11.51 129.12,3.97l0.32 94.15 24.75 -0.04c0.49,-23.16 1.57,-214.79 -0.87,-221.63l-23.25 0.34c-2.75,7.36 -0.94,91.29 -0.94,106.44 -33.31,8.25 -79.65,20.14 -110.67,0.77 -13.17,-8.22 -21.88,-20.67 -22.13,-42.79 -0.14,-12.51 1.63,-56.04 -0.78,-65.09l-24.35 0.83z"/>
   <path class="fil3" d="M1306.07 651.07c-3.03,8.32 -17.26,27.62 -22.66,35.66 -4.22,6.3 -7.71,10.8 -12.28,16.59 -3.03,3.83 -11.3,13.14 -12.46,16.1 5.44,4.13 17.06,6.12 24.98,6.22l34.1 -46.01c31.26,-46.96 63.04,-116.49 69.66,-174.89l-25.51 -1.4c-4.99,24.89 -9.85,46.6 -17.89,68.17 -4.66,12.51 -20.18,52.01 -26.63,59.72 -6.83,-2.61 -27.88,-18.48 -33.23,-23.01 -28.79,-24.37 -45.35,-48.77 -60.65,-83.74 -2.55,-5.84 -5.38,-15.8 -8.22,-20.52l-25.22 -0.11c-1.91,8.78 12.75,40.28 16.7,47.44 23.08,41.84 57.39,77.43 99.31,99.78z"/>
   <path class="fil0" d="M1297.29 140.48c6.01,0 5.85,-2.12 11.75,9.61 5.45,10.82 15.85,34.71 18.39,45.65l-52.74 0c1.18,-14.26 20.88,-47.89 22.6,-55.26zm-68.35 88.53l143.7 0c-6.54,-34.55 -32.79,-99.06 -50.08,-120.86 -14.49,-1.11 -29.16,-1.57 -43.63,0.16 -18.26,24.54 -42.68,84.61 -49.99,120.7z"/>
   <path class="fil0" d="M352.9 794.78c11.93,6.31 22.35,11.16 38.77,10.77 17.6,-0.41 27.87,-4.18 40.34,-10.77l-1.43 -41.27c-1.46,-12.91 -3.17,-76.47 -4.71,-80.68 -1.93,-5.26 -7.62,-6.57 -13.18,-8.17 -14.36,-4.13 -26.13,-4.03 -40.45,0.01 -15.91,4.5 -15.71,4.44 -15.58,27.13 0.06,8.73 -1.08,13.02 -1.3,20.05 -0.85,28.44 -2.46,54.07 -2.46,82.93z"/>
   <path class="fil0" d="M352.9 12.39c0,21.39 0.82,41.99 2.44,61.59l1.28 46.45c0.01,7.27 1.3,8.74 1.3,15.02 5.81,1.36 7.95,3.91 15.53,5.82 4.43,1.12 13.86,2.98 18.38,2.98 9.18,0 29.61,-4.46 33.12,-9.58 2.14,-3.1 4.38,-53.37 4.59,-60.71 0.24,-8.09 -0.02,-13.93 0.87,-20.48l1.6 -42.35c-33.29,-22.29 -79.11,-5.3 -79.11,1.26z"/>
   <path class="fil0" d="M0 170.62c0,3.11 76.2,80.44 82.89,90.42 13.19,-3.07 23.66,-7.54 32.86,-14.86 6.12,-4.85 19.88,-19.24 19.88,-29.1l-36.95 -48.44c-3.82,-4.89 -36.51,-48.25 -38.4,-48.25 -12.47,0 -30.96,10.93 -38,17.25 -9.4,8.46 -3.51,1.13 -13.68,13.95 -2.89,3.64 -8.6,13.12 -8.6,19.03z"/>
   <path class="fil0" d="M648.02 217.08c0,9.79 13.08,23.5 19.35,28.38 10.48,8.16 18.7,12.16 33.39,15.58l82.89 -90.42c0,-7.85 -9.75,-21.8 -14.7,-26.74 -8.67,-8.63 -30.83,-23.49 -45.58,-23.49 -2.16,0 -32.6,40.99 -37.85,47.55 -3.31,4.14 -5.81,7.72 -9.15,12.19l-28.35 36.95z"/>
   <path class="fil0" d="M0 635.28c0,18.72 34.57,47.99 61.54,50.24 9.1,-13.59 44.26,-57.75 55.97,-73.38 18.06,-24.1 29.12,-25.07 -1.66,-52.52 -8.56,-7.64 -18.88,-11.77 -31.7,-14.76 -8.46,5.66 -13.68,14.41 -21.03,21.67 -4.4,4.34 -6.35,6.37 -10.19,11.17 -3.21,4.03 -7.43,7.59 -11.19,11.41 -3.99,4.02 -5.75,7.11 -10.02,11.33 -4.69,4.63 -6.5,6.8 -10.74,11.87 -2.57,3.08 -20.98,21.04 -20.98,22.97z"/>
   <path class="fil0" d="M648.02 586.31c0,3.8 14.73,21.29 17.58,25.11 13.92,18.63 45.13,57.11 56.52,74.1 27.36,-2.28 61.53,-31.49 61.53,-50.24l-30.45 -33.59c-12.46,-12.38 -44.91,-50.95 -53.69,-56.83 -12.83,2.99 -23.15,7.12 -31.71,14.76 -4.99,4.44 -19.78,19.19 -19.78,26.69z"/>
   <path class="fil0" d="M162.01 61.36l12.73 29.97c3.92,9.57 8.87,19.43 13.11,29.59 4.42,10.58 8.83,19.9 12.91,29.79 7.93,19.21 7.63,23.68 20.27,23.68 25.01,0 50.29,-16.01 53.02,-23.55 1.34,-3.7 -8.72,-30.06 -10.16,-34.38 -5.17,-15.51 -10.62,-30.58 -15.39,-46.15 -11.91,-38.92 -7.88,-37.83 -28.72,-37.83 -22.33,0 -46.35,11.83 -57.77,28.88z"/>
   <path class="fil0" d="M162.01 744.54c18.17,27.14 62.92,32.58 73.44,26.98 3.16,-1.68 3.4,-6.69 4.57,-10.49 2.25,-7.3 4.99,-14.95 7.54,-22.61 5.08,-15.22 10.1,-30.29 15.39,-46.15l11.06 -34.19c2.45,-11.09 -30.3,-26.57 -49.21,-26.57 -16.78,0 -12.84,-2.85 -24.22,23.51l-38.57 89.52z"/>
   <path class="fil0" d="M508.62 149.27c14.37,21.46 58.48,32.39 65.81,20.6l34.48 -78.54c3.2,-7.81 6.08,-13.97 9.52,-21.89 1.93,-4.42 4.45,-6.75 1.6,-11.34 -11.67,-18.77 -68.69,-35.73 -74.92,-19.28 -7.75,20.46 -30.22,97.38 -36.49,110.45z"/>
   <path class="fil0" d="M560.11 773.43c13.21,0 27.1,-4.28 36.79,-8.42 10.98,-4.69 18.64,-11.35 24.74,-20.47l-44.77 -103.41c-4.31,-9.61 -1.11,-9.62 -18.02,-9.62 -17.53,0 -33.7,8.48 -43.6,16.69 -8.91,7.39 -6.09,8.14 -2.37,19.25 2.84,8.52 4.72,15.47 7.52,23.87l26.48 79.01c2.26,2.66 8.14,3.1 13.23,3.1z"/>
   <path class="fil0" d="M1562.28 593.84l-33.91 0 0 -32.65 37.67 0c24.74,0 26.38,4.28 26.38,18.83 0,14.36 -17.84,13.82 -30.14,13.82zm-67.19 32.17c8.47,2.35 78.1,0.95 88.39,-0.96 25.75,-4.79 42.32,-18.85 43.06,-47.51 0.77,-29.47 -15.26,-44.88 -41.73,-48.86 -11.58,-1.74 -78.75,-2.52 -89.55,-0.6l-0.17 97.93z"/>
   <path class="fil0" d="M1373.9 449.42c36.27,3.02 20.44,4.76 56.25,-45.47 0.16,-0.22 0.37,-0.52 0.53,-0.74 0.15,-0.2 0.38,-0.51 0.53,-0.71 1.76,-2.29 0.67,-0.86 1.71,-2.06l0 48.98c20.98,1.75 5.4,1.75 26.38,0l0 -91.68c-16.44,-1.64 -23.54,-4.2 -30.17,6.25l-22.32 34.19c-0.91,1.38 -1.58,2.47 -2.51,3.78l-1.06 1.44c-1.76,2.29 -0.67,0.87 -1.71,2.06 0,-4.52 0.83,-43.45 -0.62,-45.84 -2.75,-4.52 -19.37,-3.96 -24.28,-1.67 -4.13,1.93 -2.89,4.5 -2.77,11.05l0.04 80.42z"/>
  </g>
 </g>
</svg>
