<?xml version="1.0" encoding="UTF-8"?>
<!DOCTYPE svg PUBLIC "-//W3C//DTD SVG 1.1//EN" "http://www.w3.org/Graphics/SVG/1.1/DTD/svg11.dtd">
<!-- Creator: CorelDRAW -->
<svg xmlns="http://www.w3.org/2000/svg" xml:space="preserve" width="289px" height="103px" version="1.1" style="shape-rendering:geometricPrecision; text-rendering:geometricPrecision; image-rendering:optimizeQuality; fill-rule:evenodd; clip-rule:evenodd"
viewBox="0 0 37.34 13.25"
 xmlns:xlink="http://www.w3.org/1999/xlink"
 xmlns:xodm="http://www.corel.com/coreldraw/odm/2003">
 <defs>
  <style type="text/css">
   <![CDATA[
    .fil0 {fill:#33B143}
    .fil1 {fill:red}
    .fil2 {fill:white}
    .fil3 {fill:white;fill-rule:nonzero}
   ]]>
  </style>
 </defs>
 <g id="Слой_x0020_1">
  <metadata id="CorelCorpID_0Corel-Layer"/>
  <g id="_2732182457568">
   <polygon class="fil0" points="0,0 6.94,0 6.94,6.62 0,6.62 "/>
   <polygon class="fil0" points="6.94,6.62 37.34,6.62 37.34,13.25 6.94,13.25 "/>
   <polygon class="fil1" points="6.94,0 37.34,0 37.34,6.62 6.94,6.62 "/>
   <polygon class="fil1" points="0,6.62 6.94,6.62 6.94,13.25 0,13.25 "/>
   <polygon class="fil2" points="1.37,10.63 1.37,9.24 2.77,9.24 2.77,7.84 4.16,7.84 4.16,9.24 5.57,9.24 5.57,10.63 4.16,10.63 4.16,12.03 2.77,12.03 2.77,10.63 "/>
   <path class="fil3" d="M9.27 4.54l0.26 -0.1c0.03,0 0.05,-0.02 0.07,-0.04 0.02,-0.02 0.04,-0.04 0.05,-0.06l0.81 -1.01 -0.78 -1.11c-0.02,-0.02 -0.03,-0.04 -0.05,-0.06 -0.02,-0.02 -0.05,-0.03 -0.07,-0.04l-0.25 -0.09 0 -0.18 1.36 0 0 0.18 -0.24 0.13 0.38 0.54 0.12 0.24 0.01 0 0.59 -0.77 -0.24 -0.14 0 -0.18 1.02 0 0 0.18 -0.24 0.09c-0.02,0.01 -0.03,0.02 -0.06,0.04 -0.02,0.02 -0.04,0.04 -0.06,0.06l-0.78 0.99 0.8 1.13c0.02,0.02 0.04,0.05 0.06,0.07 0.02,0.01 0.04,0.03 0.06,0.03l0.25 0.1 0 0.18 -1.35 0 0 -0.18 0.24 -0.13 -0.4 -0.58 -0.12 -0.23 -0.02 0 -0.61 0.8 0.23 0.14 0 0.18 -1.04 0 0 -0.18zm4.43 0.23c-0.18,0 -0.34,-0.03 -0.48,-0.08 -0.15,-0.05 -0.27,-0.12 -0.37,-0.22 -0.11,-0.09 -0.19,-0.21 -0.24,-0.36 -0.06,-0.14 -0.09,-0.3 -0.09,-0.49 0,-0.17 0.03,-0.32 0.08,-0.47 0.06,-0.14 0.14,-0.26 0.25,-0.36 0.1,-0.1 0.23,-0.18 0.38,-0.24 0.14,-0.06 0.31,-0.08 0.5,-0.08 0.2,0 0.37,0.03 0.52,0.09 0.15,0.06 0.27,0.14 0.37,0.24 0.09,0.11 0.17,0.23 0.21,0.37 0.05,0.14 0.08,0.29 0.08,0.44 0,0.17 -0.03,0.33 -0.09,0.47 -0.05,0.14 -0.13,0.26 -0.24,0.36 -0.1,0.11 -0.23,0.19 -0.38,0.24 -0.15,0.06 -0.31,0.09 -0.5,0.09zm0.03 -0.31c0.09,0 0.17,-0.02 0.23,-0.07 0.06,-0.05 0.11,-0.11 0.15,-0.19 0.04,-0.07 0.06,-0.16 0.08,-0.26 0.01,-0.09 0.02,-0.19 0.02,-0.29 0,-0.11 -0.01,-0.22 -0.03,-0.33 -0.02,-0.11 -0.05,-0.2 -0.09,-0.28 -0.04,-0.08 -0.09,-0.15 -0.15,-0.19 -0.07,-0.05 -0.15,-0.08 -0.24,-0.08 -0.1,0 -0.17,0.03 -0.23,0.08 -0.07,0.04 -0.11,0.11 -0.15,0.18 -0.04,0.08 -0.06,0.16 -0.08,0.26 -0.01,0.09 -0.02,0.19 -0.02,0.28 0,0.11 0.01,0.21 0.02,0.32 0.02,0.1 0.05,0.2 0.08,0.29 0.04,0.08 0.1,0.15 0.16,0.2 0.07,0.06 0.15,0.08 0.25,0.08zm1.5 1.07l0.26 -0.11c0.02,-0.01 0.04,-0.02 0.05,-0.03 0.01,-0.01 0.02,-0.03 0.02,-0.06l0 -2.36c0,-0.03 -0.01,-0.05 -0.02,-0.06 -0.02,-0.01 -0.04,-0.02 -0.05,-0.03l-0.25 -0.11 0 -0.19 0.93 -0.09 0 0.36 0.03 0c0.06,-0.09 0.13,-0.16 0.2,-0.21 0.07,-0.05 0.14,-0.09 0.21,-0.11 0.06,-0.03 0.13,-0.04 0.19,-0.05 0.06,-0.01 0.11,-0.01 0.14,-0.01 0.14,0 0.26,0.03 0.37,0.08 0.11,0.05 0.2,0.13 0.28,0.22 0.07,0.1 0.13,0.21 0.17,0.34 0.04,0.13 0.06,0.27 0.06,0.42 0,0.16 -0.03,0.32 -0.07,0.47 -0.05,0.15 -0.12,0.27 -0.21,0.38 -0.09,0.11 -0.2,0.2 -0.32,0.26 -0.13,0.07 -0.28,0.1 -0.45,0.1 -0.06,0 -0.12,-0.01 -0.18,-0.02 -0.06,-0.01 -0.11,-0.03 -0.17,-0.05 -0.05,-0.02 -0.09,-0.05 -0.13,-0.08 -0.04,-0.03 -0.07,-0.06 -0.1,-0.09l0.02 0.16 0 0.67c0,0.02 0.01,0.04 0.02,0.05 0.02,0.02 0.04,0.03 0.06,0.03l0.32 0.12 0 0.18 -1.38 0 0 -0.18zm1.38 -1.15c0.09,0 0.17,-0.02 0.24,-0.05 0.07,-0.04 0.12,-0.09 0.16,-0.16 0.05,-0.06 0.08,-0.14 0.1,-0.23 0.02,-0.09 0.03,-0.18 0.03,-0.28 0,-0.11 -0.01,-0.22 -0.03,-0.32 -0.02,-0.09 -0.05,-0.18 -0.09,-0.25 -0.05,-0.07 -0.1,-0.13 -0.17,-0.17 -0.06,-0.04 -0.14,-0.06 -0.24,-0.06 -0.02,0 -0.05,0.01 -0.09,0.01 -0.04,0.01 -0.07,0.02 -0.11,0.04 -0.04,0.01 -0.07,0.04 -0.11,0.06 -0.03,0.03 -0.06,0.06 -0.09,0.1l0 1.22c0.03,0.02 0.06,0.03 0.09,0.05 0.04,0.01 0.08,0.02 0.12,0.02 0.04,0.01 0.07,0.02 0.11,0.02 0.03,0 0.06,0 0.08,0zm2.77 0.39c-0.18,0 -0.34,-0.03 -0.49,-0.08 -0.14,-0.05 -0.27,-0.12 -0.37,-0.22 -0.1,-0.09 -0.18,-0.21 -0.24,-0.36 -0.06,-0.14 -0.09,-0.3 -0.09,-0.49 0,-0.17 0.03,-0.32 0.09,-0.47 0.05,-0.14 0.13,-0.26 0.24,-0.36 0.1,-0.1 0.23,-0.18 0.38,-0.24 0.15,-0.06 0.31,-0.08 0.5,-0.08 0.2,0 0.37,0.03 0.52,0.09 0.15,0.06 0.27,0.14 0.37,0.24 0.1,0.11 0.17,0.23 0.22,0.37 0.05,0.14 0.07,0.29 0.07,0.44 0,0.17 -0.03,0.33 -0.08,0.47 -0.06,0.14 -0.14,0.26 -0.24,0.36 -0.11,0.11 -0.23,0.19 -0.38,0.24 -0.15,0.06 -0.32,0.09 -0.5,0.09zm0.02 -0.31c0.1,0 0.18,-0.02 0.24,-0.07 0.06,-0.05 0.11,-0.11 0.14,-0.19 0.04,-0.07 0.06,-0.16 0.08,-0.26 0.01,-0.09 0.02,-0.19 0.02,-0.29 0,-0.11 -0.01,-0.22 -0.03,-0.33 -0.01,-0.11 -0.04,-0.2 -0.08,-0.28 -0.04,-0.08 -0.1,-0.15 -0.16,-0.19 -0.07,-0.05 -0.15,-0.08 -0.24,-0.08 -0.09,0 -0.17,0.03 -0.23,0.08 -0.06,0.04 -0.11,0.11 -0.15,0.18 -0.04,0.08 -0.06,0.16 -0.08,0.26 -0.01,0.09 -0.02,0.19 -0.02,0.28 0,0.11 0.01,0.21 0.03,0.32 0.01,0.1 0.04,0.2 0.08,0.29 0.04,0.08 0.09,0.15 0.16,0.2 0.06,0.06 0.14,0.08 0.24,0.08zm1.57 0.08l0.25 -0.11c0.02,-0.01 0.04,-0.02 0.06,-0.04 0.01,-0.01 0.02,-0.03 0.02,-0.05l0 -1.43c0,-0.03 -0.01,-0.05 -0.02,-0.06 -0.02,-0.01 -0.04,-0.02 -0.06,-0.03l-0.25 -0.11 0 -0.18 1.21 0 0 0.18 -0.16 0.1c-0.02,0.02 -0.04,0.03 -0.06,0.04 -0.01,0.01 -0.02,0.03 -0.02,0.06l0 1.48 0.69 0 0 -1.48c0,-0.03 -0.01,-0.04 -0.02,-0.06 -0.02,-0.01 -0.04,-0.02 -0.06,-0.04l-0.17 -0.1 0 -0.18 1.13 0 0 0.18 -0.16 0.1c-0.03,0.02 -0.04,0.03 -0.06,0.04 -0.01,0.01 -0.02,0.03 -0.02,0.06l0 1.48 0.69 0 0 -1.48c0,-0.03 -0.01,-0.04 -0.03,-0.06 -0.01,-0.01 -0.03,-0.02 -0.05,-0.04l-0.17 -0.1 0 -0.18 1.22 0 0 0.18 -0.25 0.11c-0.03,0.01 -0.04,0.02 -0.06,0.03 -0.01,0.01 -0.02,0.03 -0.02,0.06l0 1.43c0,0.02 0.01,0.04 0.02,0.05 0.02,0.02 0.03,0.03 0.06,0.04l0.25 0.11 0 0.18 -3.96 0 0 -0.18zm5.02 0.22c-0.1,0 -0.2,-0.02 -0.28,-0.05 -0.08,-0.04 -0.14,-0.09 -0.2,-0.15 -0.05,-0.06 -0.1,-0.12 -0.13,-0.2 -0.03,-0.08 -0.04,-0.15 -0.04,-0.23 0,-0.1 0.02,-0.18 0.05,-0.26 0.03,-0.07 0.07,-0.14 0.12,-0.2 0.06,-0.06 0.12,-0.11 0.19,-0.15 0.07,-0.04 0.14,-0.07 0.22,-0.1 0.07,-0.03 0.15,-0.05 0.23,-0.06 0.08,-0.01 0.15,-0.02 0.22,-0.02 0.02,0 0.04,0 0.08,0 0.03,0.01 0.07,0.01 0.11,0.01 0.03,0.01 0.07,0.01 0.1,0.02 0.04,0 0.06,0 0.08,0l0 -0.16c0,-0.07 -0.01,-0.13 -0.02,-0.19 -0.01,-0.05 -0.03,-0.1 -0.06,-0.14 -0.02,-0.03 -0.06,-0.06 -0.1,-0.08 -0.04,-0.02 -0.09,-0.03 -0.15,-0.03 -0.06,0 -0.12,0.02 -0.19,0.05 -0.07,0.03 -0.14,0.07 -0.21,0.11 -0.07,0.05 -0.14,0.09 -0.2,0.14 -0.06,0.04 -0.11,0.08 -0.15,0.1l-0.15 0 0 -0.53c0.07,-0.02 0.14,-0.04 0.21,-0.06 0.07,-0.02 0.15,-0.04 0.22,-0.06 0.08,-0.01 0.16,-0.03 0.25,-0.04 0.09,-0.01 0.19,-0.01 0.3,-0.01 0.12,0 0.23,0.01 0.34,0.03 0.1,0.01 0.2,0.05 0.28,0.1 0.09,0.05 0.15,0.13 0.2,0.22 0.05,0.09 0.08,0.21 0.08,0.35l0 1.06c0,0.03 0,0.05 0.01,0.07 0.01,0.02 0.03,0.04 0.04,0.06 0.01,0.01 0.03,0.03 0.05,0.03 0.02,0.01 0.04,0.02 0.06,0.02 0.03,0 0.06,0 0.09,-0.01 0.04,-0.01 0.07,-0.01 0.1,-0.02l0.08 0 0 0.21c-0.03,0.01 -0.07,0.03 -0.11,0.05 -0.04,0.02 -0.09,0.04 -0.14,0.06 -0.05,0.02 -0.1,0.03 -0.15,0.04 -0.05,0.02 -0.09,0.02 -0.13,0.02 -0.09,0 -0.16,-0.01 -0.23,-0.02 -0.06,-0.02 -0.11,-0.04 -0.16,-0.07 -0.04,-0.03 -0.07,-0.07 -0.09,-0.11 -0.02,-0.05 -0.03,-0.11 -0.03,-0.17l-0.03 0c-0.05,0.08 -0.11,0.14 -0.18,0.19 -0.06,0.05 -0.13,0.09 -0.19,0.12 -0.07,0.02 -0.14,0.04 -0.2,0.05 -0.07,0.01 -0.13,0.01 -0.19,0.01zm0.34 -0.38c0.04,0 0.07,-0.01 0.11,-0.01 0.04,-0.01 0.07,-0.02 0.11,-0.04 0.04,-0.02 0.07,-0.04 0.1,-0.06 0.04,-0.03 0.06,-0.06 0.09,-0.1l0 -0.53c-0.11,0 -0.21,0.01 -0.3,0.02 -0.09,0.01 -0.16,0.03 -0.23,0.06 -0.06,0.04 -0.11,0.08 -0.14,0.13 -0.04,0.05 -0.05,0.12 -0.05,0.2 0,0.06 0.01,0.12 0.03,0.16 0.02,0.04 0.04,0.07 0.07,0.1 0.03,0.02 0.07,0.04 0.11,0.05 0.03,0.01 0.07,0.02 0.1,0.02zm1.55 0.34l0 -0.18 0.26 -0.1c0.03,-0.01 0.05,-0.03 0.08,-0.04 0.02,-0.01 0.04,-0.03 0.06,-0.05l0.41 -0.53c-0.05,-0.01 -0.11,-0.04 -0.17,-0.07 -0.06,-0.02 -0.11,-0.06 -0.16,-0.11 -0.05,-0.05 -0.09,-0.11 -0.12,-0.18 -0.04,-0.07 -0.05,-0.15 -0.05,-0.24 0,-0.09 0.01,-0.17 0.04,-0.25 0.03,-0.09 0.08,-0.16 0.15,-0.23 0.07,-0.06 0.16,-0.11 0.28,-0.15 0.11,-0.04 0.25,-0.06 0.42,-0.06l1.48 0 0 0.18 -0.25 0.11c-0.03,0.01 -0.04,0.02 -0.06,0.03 -0.01,0.01 -0.02,0.03 -0.02,0.06l0 1.43c0,0.02 0.01,0.04 0.02,0.05 0.02,0.02 0.03,0.03 0.06,0.04l0.25 0.11 0 0.18 -1.23 0 0 -0.18 0.18 -0.11c0.03,-0.02 0.05,-0.03 0.06,-0.04 0.01,-0.01 0.02,-0.03 0.02,-0.05l0 -0.46 -0.28 0 -0.45 0.65c-0.03,0.04 -0.06,0.07 -0.08,0.1 -0.02,0.03 -0.05,0.05 -0.07,0.07 -0.03,0.02 -0.06,0.03 -0.09,0.04 -0.03,0 -0.07,0.01 -0.12,0l-0.62 -0.02zm1.71 -1.13l0 -0.76 -0.33 0c-0.12,0 -0.22,0.03 -0.28,0.1 -0.07,0.07 -0.1,0.16 -0.1,0.28 0,0.05 0,0.1 0.02,0.15 0.01,0.04 0.03,0.08 0.06,0.12 0.03,0.03 0.07,0.06 0.11,0.08 0.05,0.02 0.11,0.03 0.18,0.03l0.34 0z"/>
   <path class="fil3" d="M9.21 10.96l0.22 -0.11c0.04,-0.02 0.07,-0.05 0.09,-0.1l0.81 -2.04 0.24 -0.48 0.53 0 0.97 2.53c0.01,0.02 0.02,0.04 0.04,0.06 0.01,0.02 0.03,0.03 0.05,0.04l0.22 0.1 0 0.18 -1.31 0 0 -0.18 0.33 -0.13 -0.24 -0.58 -1.03 0 -0.22 0.56 0.34 0.15 0 0.18 -1.04 0 0 -0.18zm1.81 -1.06l-0.27 -0.7 -0.07 -0.27 -0.04 0 -0.37 0.97 0.75 0zm1.55 1.06l0.25 -0.11c0.02,-0.01 0.04,-0.02 0.06,-0.03 0.01,-0.01 0.02,-0.03 0.02,-0.06l0 -1.43c0,-0.03 -0.01,-0.05 -0.02,-0.06 -0.02,-0.01 -0.04,-0.02 -0.06,-0.03l-0.25 -0.11 0 -0.18 2.7 0 0 0.18 -0.25 0.11c-0.02,0.01 -0.04,0.02 -0.05,0.03 -0.02,0.01 -0.03,0.03 -0.03,0.06l0 1.43c0,0.03 0.01,0.05 0.03,0.06 0.01,0.01 0.03,0.02 0.05,0.03l0.25 0.11 0 0.18 -1.23 0 0 -0.18 0.18 -0.11c0.03,-0.01 0.04,-0.03 0.06,-0.04 0.01,-0.01 0.02,-0.03 0.02,-0.05l0 -1.49 -0.76 0 0 1.49c0,0.02 0.01,0.04 0.02,0.05 0.02,0.01 0.04,0.03 0.06,0.04l0.18 0.11 0 0.18 -1.23 0 0 -0.18zm3.56 0l0.26 -0.11c0.03,-0.01 0.05,-0.02 0.06,-0.03 0.01,-0.01 0.02,-0.03 0.02,-0.06l0 -1.49 -0.4 0c-0.03,0 -0.05,0.01 -0.06,0.03 -0.01,0.01 -0.02,0.03 -0.03,0.06l-0.07 0.37 -0.31 0 0 -0.78 2.38 0 0 0.78 -0.31 0 -0.07 -0.37c-0.01,-0.03 -0.02,-0.05 -0.03,-0.06 -0.01,-0.02 -0.03,-0.03 -0.06,-0.03l-0.4 0 0 1.49c0,0.03 0.01,0.05 0.02,0.06 0.02,0.01 0.04,0.02 0.06,0.03l0.26 0.11 0 0.18 -1.32 0 0 -0.18zm3.31 0.23c-0.16,0 -0.31,-0.03 -0.45,-0.08 -0.14,-0.05 -0.27,-0.12 -0.37,-0.21 -0.1,-0.1 -0.18,-0.22 -0.24,-0.36 -0.06,-0.14 -0.09,-0.3 -0.09,-0.48 0,-0.17 0.03,-0.32 0.08,-0.47 0.06,-0.14 0.14,-0.26 0.24,-0.37 0.1,-0.1 0.22,-0.18 0.36,-0.24 0.14,-0.06 0.3,-0.09 0.47,-0.09 0.17,0 0.31,0.02 0.44,0.07 0.13,0.04 0.24,0.11 0.33,0.19 0.08,0.07 0.15,0.17 0.2,0.27 0.04,0.11 0.07,0.22 0.07,0.34 0,0.01 0,0.04 0,0.07 -0.01,0.03 -0.01,0.06 -0.01,0.09 0,0.04 0,0.07 -0.01,0.1 0,0.03 0,0.05 0,0.06l-1.51 0c0,0.22 0.07,0.38 0.19,0.5 0.13,0.11 0.31,0.17 0.56,0.17 0.07,0 0.14,-0.01 0.21,-0.02 0.06,-0.01 0.12,-0.02 0.18,-0.04 0.05,-0.01 0.1,-0.03 0.15,-0.05 0.05,-0.02 0.09,-0.04 0.12,-0.06l0.11 0 0 0.27c-0.06,0.04 -0.12,0.08 -0.2,0.12 -0.08,0.04 -0.16,0.08 -0.25,0.11 -0.08,0.03 -0.18,0.06 -0.27,0.08 -0.1,0.02 -0.2,0.03 -0.31,0.03zm0.37 -1.43c0,-0.09 -0.01,-0.17 -0.02,-0.24 -0.01,-0.07 -0.04,-0.13 -0.07,-0.18 -0.03,-0.05 -0.07,-0.09 -0.13,-0.11 -0.05,-0.03 -0.11,-0.04 -0.19,-0.04 -0.06,0 -0.12,0.01 -0.17,0.04 -0.05,0.02 -0.1,0.06 -0.14,0.11 -0.04,0.05 -0.07,0.11 -0.09,0.18 -0.03,0.07 -0.04,0.15 -0.05,0.24l0.86 0zm2.99 1.41c-0.04,0 -0.09,0 -0.12,-0.01 -0.04,-0.01 -0.07,-0.02 -0.1,-0.04 -0.02,-0.02 -0.05,-0.04 -0.07,-0.07 -0.02,-0.03 -0.04,-0.06 -0.06,-0.1l-0.4 -0.76 -0.23 -0.04 0 0.61c0,0.02 0,0.04 0.02,0.05 0.01,0.01 0.03,0.03 0.05,0.04l0.19 0.11 0 0.18 -1.23 0 0 -0.18 0.25 -0.11c0.02,-0.01 0.04,-0.02 0.05,-0.03 0.02,-0.01 0.02,-0.03 0.02,-0.06l0 -1.43c0,-0.03 0,-0.05 -0.02,-0.06 -0.01,-0.01 -0.03,-0.02 -0.05,-0.03l-0.25 -0.11 0 -0.18 1.23 0 0 0.18 -0.19 0.11c-0.02,0.01 -0.04,0.02 -0.05,0.03 -0.02,0.01 -0.02,0.03 -0.02,0.06l0 0.6 0.15 0c0.06,0 0.11,-0.01 0.15,-0.02 0.05,-0.01 0.09,-0.04 0.12,-0.08 0.04,-0.04 0.08,-0.1 0.1,-0.16 0.03,-0.07 0.05,-0.13 0.07,-0.2 0.02,-0.07 0.04,-0.14 0.07,-0.21 0.02,-0.06 0.05,-0.11 0.08,-0.16 0.03,-0.03 0.06,-0.06 0.09,-0.08 0.03,-0.02 0.06,-0.04 0.09,-0.06 0.03,-0.02 0.06,-0.03 0.1,-0.04 0.03,0 0.08,-0.01 0.12,-0.01 0.05,0 0.1,0.01 0.15,0.01 0.05,0.01 0.1,0.01 0.15,0.02l0 0.49 -0.13 0c-0.03,0 -0.06,0 -0.08,0 -0.03,-0.01 -0.05,-0.01 -0.08,-0.01 -0.02,0 -0.04,0 -0.06,0 -0.02,0 -0.03,0 -0.05,0 -0.04,0 -0.06,0.01 -0.08,0.05 -0.03,0.03 -0.04,0.07 -0.06,0.12 -0.02,0.04 -0.04,0.09 -0.06,0.15 -0.03,0.06 -0.06,0.11 -0.1,0.15l0.53 0.89c0.02,0.03 0.04,0.04 0.06,0.06 0.02,0.01 0.05,0.02 0.08,0.03l0.19 0.09 0 0.18 -0.62 0.03zm1.42 0.01c-0.11,0 -0.2,-0.01 -0.28,-0.05 -0.08,-0.04 -0.15,-0.09 -0.2,-0.14 -0.06,-0.06 -0.1,-0.13 -0.13,-0.21 -0.03,-0.07 -0.04,-0.15 -0.04,-0.23 0,-0.1 0.01,-0.18 0.04,-0.26 0.04,-0.07 0.08,-0.14 0.13,-0.2 0.06,-0.05 0.12,-0.1 0.19,-0.14 0.07,-0.05 0.14,-0.08 0.22,-0.11 0.07,-0.03 0.15,-0.04 0.23,-0.06 0.08,-0.01 0.15,-0.02 0.22,-0.02 0.01,0 0.04,0 0.07,0.01 0.04,0 0.08,0 0.11,0.01 0.04,0 0.08,0 0.11,0.01 0.04,0 0.06,0 0.08,0.01l0 -0.17c0,-0.07 -0.01,-0.13 -0.02,-0.19 -0.01,-0.05 -0.03,-0.1 -0.06,-0.13 -0.02,-0.04 -0.06,-0.07 -0.1,-0.09 -0.04,-0.02 -0.09,-0.03 -0.16,-0.03 -0.05,0 -0.11,0.02 -0.19,0.05 -0.07,0.03 -0.14,0.07 -0.21,0.12 -0.07,0.04 -0.13,0.09 -0.2,0.13 -0.06,0.04 -0.11,0.08 -0.15,0.1l-0.15 0 0 -0.53c0.08,-0.02 0.15,-0.04 0.22,-0.06 0.07,-0.02 0.14,-0.04 0.22,-0.06 0.08,-0.01 0.16,-0.03 0.25,-0.04 0.09,-0.01 0.19,-0.01 0.3,-0.01 0.11,0 0.22,0.01 0.33,0.03 0.11,0.02 0.21,0.05 0.29,0.1 0.08,0.06 0.15,0.13 0.2,0.22 0.05,0.09 0.08,0.21 0.08,0.35l0 1.06c0,0.03 0,0.05 0.01,0.07 0.01,0.03 0.02,0.04 0.04,0.06 0.01,0.02 0.03,0.03 0.05,0.04 0.02,0.01 0.03,0.01 0.05,0.01 0.03,0 0.07,0 0.1,-0.01 0.04,-0.01 0.07,-0.01 0.1,-0.02l0.07 0 0 0.21c-0.02,0.01 -0.06,0.03 -0.1,0.05 -0.05,0.02 -0.09,0.04 -0.14,0.06 -0.05,0.02 -0.1,0.03 -0.15,0.05 -0.05,0.01 -0.1,0.01 -0.14,0.01 -0.08,0 -0.16,0 -0.22,-0.02 -0.06,-0.01 -0.12,-0.04 -0.16,-0.07 -0.04,-0.03 -0.07,-0.07 -0.09,-0.11 -0.02,-0.05 -0.03,-0.1 -0.03,-0.17l-0.03 0c-0.05,0.08 -0.11,0.15 -0.18,0.2 -0.06,0.04 -0.13,0.08 -0.2,0.11 -0.06,0.02 -0.13,0.04 -0.2,0.05 -0.06,0.01 -0.13,0.01 -0.18,0.01zm0.34 -0.38c0.03,0 0.07,-0.01 0.11,-0.01 0.03,-0.01 0.07,-0.02 0.11,-0.04 0.03,-0.02 0.07,-0.04 0.1,-0.06 0.03,-0.03 0.06,-0.06 0.09,-0.1l0 -0.53c-0.11,0 -0.21,0.01 -0.3,0.02 -0.09,0.01 -0.16,0.03 -0.23,0.07 -0.06,0.03 -0.11,0.07 -0.15,0.12 -0.03,0.05 -0.05,0.12 -0.05,0.2 0,0.06 0.01,0.12 0.03,0.16 0.02,0.04 0.05,0.08 0.08,0.1 0.03,0.03 0.07,0.04 0.1,0.05 0.04,0.01 0.08,0.02 0.11,0.02z"/>
  </g>
 </g>
</svg>
