<?xml version="1.0" encoding="UTF-8"?>
<!DOCTYPE svg PUBLIC "-//W3C//DTD SVG 1.1//EN" "http://www.w3.org/Graphics/SVG/1.1/DTD/svg11.dtd">
<!-- Creator: CorelDRAW -->
<svg xmlns="http://www.w3.org/2000/svg" xml:space="preserve" width="215px" height="148px" version="1.1" style="shape-rendering:geometricPrecision; text-rendering:geometricPrecision; image-rendering:optimizeQuality; fill-rule:evenodd; clip-rule:evenodd"
viewBox="0 0 27.61 18.97"
 xmlns:xlink="http://www.w3.org/1999/xlink"
 xmlns:xodm="http://www.corel.com/coreldraw/odm/2003">
 <defs>
  <style type="text/css">
   <![CDATA[
    .fil0 {fill:black}
    .fil1 {fill:#CC2128}
   ]]>
  </style>
 </defs>
 <g id="Слой_x0020_1">
  <metadata id="CorelCorpID_0Corel-Layer"/>
  <g id="_2731700264272">
   <path class="fil0" d="M1.25 11.36c0,-0.06 0.01,-0.18 0.03,-0.23 0.01,-0.08 0.04,-0.16 0.07,-0.22 0.37,-0.74 1.01,-0.64 1.76,-0.64l0 2.17 -0.86 0c-0.28,0 -0.53,-0.16 -0.71,-0.33 -0.18,-0.18 -0.29,-0.49 -0.29,-0.75zm3.98 1.08l-0.86 0 0 -2.17c0.36,0 0.86,-0.03 1.16,0.08 0.32,0.12 0.55,0.39 0.65,0.7 0.02,0.09 0.03,0.13 0.04,0.23 0.05,0.41 -0.22,0.86 -0.57,1.04 -0.1,0.05 -0.27,0.12 -0.42,0.12zm-5.23 -1.19c0,0.55 0.03,0.65 0.22,1.11 0.09,0.22 0.32,0.51 0.48,0.67 0.34,0.34 0.92,0.67 1.6,0.67l0.81 0 0 0.94 1.26 0 0 -0.94 0.8 0c0.81,0 1.47,-0.44 1.86,-0.97 0.17,-0.21 0.29,-0.49 0.37,-0.76 0.07,-0.25 0.07,-0.44 0.07,-0.7 0,-0.58 -0.28,-1.16 -0.67,-1.55 -0.23,-0.23 -0.3,-0.26 -0.56,-0.42 -0.14,-0.09 -0.35,-0.15 -0.51,-0.2 -0.12,-0.04 -0.34,-0.07 -0.49,-0.07l-3.01 0c-0.43,0 -0.89,0.18 -1.23,0.42 -0.12,0.08 -0.21,0.15 -0.31,0.25 -0.04,0.05 -0.09,0.09 -0.13,0.14 -0.13,0.17 -0.24,0.31 -0.34,0.51 -0.1,0.23 -0.22,0.58 -0.22,0.9z"/>
   <path class="fil0" d="M20.84 14.64l1.25 0 0.01 -3.84 1.85 2.77c0.04,-0.03 0.2,-0.28 0.24,-0.34l1.63 -2.44 0 3.85 1.25 0 0 -5.61 -1.59 0c-0.02,0.06 -1.27,1.91 -1.43,2.14 -0.02,0.04 -0.08,0.11 -0.09,0.16l-1.15 -1.72c-0.03,-0.06 -0.36,-0.53 -0.38,-0.58l-1.59 0 0 5.61z"/>
   <path class="fil0" d="M0.82 2.75l0.88 0.89 0.24 -0.28c0.03,-0.03 0.06,-0.05 0.09,-0.08 0.36,-0.37 0.98,-0.53 1.51,-0.45 0.18,0.02 0.38,0.08 0.52,0.15 0.19,0.09 0.46,0.27 0.58,0.43 0.03,0.04 0.05,0.05 0.08,0.09 0.11,0.14 0.26,0.37 0.3,0.54l-2.07 0 0 1.22c0,0.07 0.11,0.04 0.22,0.04l1.85 0c-0.03,0.13 -0.18,0.38 -0.26,0.49 -0.6,0.8 -1.69,0.98 -2.56,0.41 -0.07,-0.05 -0.25,-0.2 -0.3,-0.27 -0.04,-0.04 -0.11,-0.11 -0.13,-0.16l-0.9 0.89 0.2 0.22c0.51,0.52 1.33,0.9 2.05,0.9 0.6,0 0.95,-0.04 1.47,-0.29 0.14,-0.06 0.23,-0.12 0.36,-0.19 0.78,-0.46 1.43,-1.53 1.43,-2.48 0,-0.56 -0.01,-0.71 -0.19,-1.23l-0.14 -0.33c-0.01,-0.02 -0.02,-0.03 -0.03,-0.06 -0.11,-0.22 -0.23,-0.37 -0.38,-0.56 -0.03,-0.03 -0.06,-0.06 -0.09,-0.1 -0.06,-0.08 -0.21,-0.2 -0.29,-0.27l-0.22 -0.16c-0.69,-0.52 -1.76,-0.7 -2.61,-0.44 -0.37,0.11 -0.6,0.22 -0.91,0.42l-0.2 0.14c-0.17,0.14 -0.31,0.3 -0.45,0.45 -0.03,0.04 -0.03,0.02 -0.05,0.07z"/>
   <path class="fil0" d="M14.92 7.47l1.26 0 0 -2.17 1.31 0c0.01,0.05 0.11,0.22 0.14,0.27 0.05,0.09 0.11,0.18 0.15,0.27 0.05,0.09 0.11,0.19 0.16,0.27l0.76 1.36 1.43 0c-0.01,-0.04 -0.07,-0.13 -0.09,-0.18l-0.62 -1.1c-0.04,-0.07 -0.07,-0.13 -0.11,-0.19l-0.21 -0.37c-0.03,-0.07 -0.06,-0.12 -0.1,-0.18 -0.04,-0.07 -0.07,-0.12 -0.11,-0.19 -0.03,-0.06 -0.06,-0.12 -0.1,-0.18l-0.31 -0.56 0.19 -0.35c0.14,-0.24 0.48,-0.88 0.59,-1.05l0.55 0c0.07,0 0.16,0.02 0.16,-0.04l0 -1.22 -1.42 0c-0.04,0 -0.07,0.09 -0.08,0.12 -0.03,0.04 -0.06,0.09 -0.08,0.14l-0.78 1.37c-0.05,0.09 -0.09,0.18 -0.15,0.27 -0.03,0.05 -0.05,0.09 -0.08,0.14 -0.02,0.05 -0.06,0.09 -0.07,0.14l-1.13 0 0 -2.18 -1.26 0 0 5.61z"/>
   <path class="fil0" d="M17.6 11.83l-1.42 0 0 -1.56 1.36 0c0.26,0 0.46,0.08 0.59,0.21 0.33,0.33 0.34,0.76 0.04,1.11 -0.02,0.02 -0.03,0.03 -0.05,0.04 -0.15,0.12 -0.29,0.2 -0.52,0.2zm-2.68 2.81l1.22 0c0.03,0 0.04,-0.01 0.04,-0.04l0 -1.52 1.32 0c0.35,0 0.62,-0.05 0.86,-0.15 0.18,-0.07 0.42,-0.2 0.56,-0.34 0.09,-0.08 0.18,-0.16 0.26,-0.26 0.02,-0.02 0.03,-0.04 0.05,-0.07 0.6,-0.79 0.53,-1.92 -0.18,-2.63 -0.35,-0.35 -0.84,-0.6 -1.36,-0.6l-2.77 0 0 5.61z"/>
   <path class="fil0" d="M10.95 4.66l-1.49 0 0 -1.54 1.48 0c0.15,0 0.3,0.06 0.41,0.14 0.3,0.21 0.41,0.64 0.26,0.94 -0.08,0.16 -0.05,0.09 -0.15,0.22 -0.09,0.12 -0.33,0.24 -0.51,0.24zm-2.73 2.81l1.24 0 0 -1.55 1.45 0c1.11,0 2.02,-0.92 2.02,-2.03 0,-0.52 -0.2,-1 -0.54,-1.36 -0.02,-0.03 -0.02,-0.05 -0.05,-0.07l-0.28 -0.23c-0.33,-0.23 -0.74,-0.37 -1.16,-0.37l-2.68 0 0 5.61z"/>
   <path class="fil0" d="M10.56 11.25c0.04,0.03 0.05,0.07 0.09,0.14l0.25 0.45c0.05,0.09 0.32,0.56 0.34,0.6l-1.35 0 0.67 -1.19zm-3.33 3.39l1.42 0c0.17,-0.31 0.37,-0.64 0.53,-0.94l2.77 0 0.13 0.23c0.12,0.2 0.29,0.55 0.4,0.71l1.43 0c-0.01,-0.04 -0.03,-0.06 -0.05,-0.1l-0.67 -1.2c-0.16,-0.3 -0.45,-0.78 -0.63,-1.11l-0.73 -1.3c-0.04,-0.06 -0.07,-0.12 -0.1,-0.18 -0.2,-0.33 -0.43,-0.78 -0.63,-1.11 -0.04,-0.07 -0.07,-0.13 -0.1,-0.19 -0.08,-0.13 -0.14,-0.25 -0.21,-0.37 -0.03,-0.05 -0.2,-0.33 -0.21,-0.39l-0.02 0c-0.02,0.05 -0.08,0.14 -0.1,0.19l-0.63 1.11c-0.04,0.07 -0.06,0.12 -0.1,0.19l-0.42 0.73c-0.03,0.07 -0.07,0.13 -0.1,0.18 -0.04,0.07 -0.07,0.13 -0.11,0.19 -0.04,0.07 -0.06,0.13 -0.1,0.19 -0.14,0.23 -0.29,0.53 -0.42,0.74l-0.42 0.74c-0.26,0.48 -0.58,1.02 -0.83,1.49 -0.03,0.05 -0.1,0.14 -0.1,0.2z"/>
   <path class="fil0" d="M23.95 4.08c0.03,0.03 0.67,1.17 0.68,1.21l-1.35 0c0.01,-0.04 0.06,-0.11 0.08,-0.15l0.59 -1.06zm-3.34 3.39l1.44 0 0.4 -0.71c0.02,-0.05 0.04,-0.07 0.06,-0.12 0.02,-0.03 0.05,-0.1 0.09,-0.1l2.71 0c0.05,0 0.1,0.13 0.15,0.22l0.14 0.23c0.09,0.17 0.18,0.32 0.26,0.48l1.44 0c-0.22,-0.4 -0.49,-0.88 -0.73,-1.3l-0.21 -0.37c-0.03,-0.06 -0.07,-0.12 -0.1,-0.18l-0.73 -1.3c-0.04,-0.07 -0.07,-0.12 -0.11,-0.19 -0.07,-0.13 -0.14,-0.25 -0.21,-0.37 -0.24,-0.46 -0.57,-1.01 -0.83,-1.49 -0.05,-0.09 -0.4,-0.72 -0.43,-0.74l-0.83 1.48c-0.14,0.25 -0.28,0.49 -0.42,0.74 -0.15,0.28 -0.39,0.66 -0.52,0.93l-0.42 0.74c-0.03,0.06 -0.07,0.12 -0.1,0.19 -0.15,0.27 -0.39,0.66 -0.52,0.93 -0.04,0.06 -0.08,0.12 -0.11,0.18 -0.1,0.21 -0.3,0.53 -0.42,0.75z"/>
   <path class="fil1" d="M12.79 9.96l1.42 0c-0.01,-0.07 -0.77,-1.38 -0.77,-1.4l-0.79 -1.41 -1.44 0 1.18 2.11c0.03,0.06 0.06,0.11 0.1,0.17 0.04,0.07 0.06,0.12 0.1,0.18l0.2 0.35z"/>
   <path class="fil1" d="M26.17 2.8l1.44 0c-0.13,-0.24 -0.26,-0.46 -0.39,-0.7l-0.4 -0.7c-0.03,-0.06 -0.06,-0.11 -0.09,-0.17l-0.2 -0.35c-0.03,-0.06 -0.06,-0.11 -0.1,-0.18 -0.07,-0.12 -0.12,-0.22 -0.19,-0.34l-0.2 -0.36 -1.44 0 0.88 1.57c0.04,0.06 0.07,0.12 0.1,0.18l0.59 1.05z"/>
   <path class="fil0" d="M2.53 17.69c0,-0.09 0.04,-0.18 0.09,-0.23 0.1,-0.12 0.34,-0.14 0.48,-0.01 0.18,0.17 0.11,0.59 -0.24,0.59 -0.19,0 -0.33,-0.15 -0.33,-0.35zm0.04 -0.47l0 -0.13 -0.36 0 0 1.88 0.36 0 0 -0.79c0.15,0.11 0.13,0.17 0.42,0.17 0.31,0 0.57,-0.28 0.57,-0.59 0,-0.19 0,-0.29 -0.12,-0.47 -0.17,-0.25 -0.54,-0.31 -0.75,-0.17 -0.05,0.03 -0.08,0.07 -0.12,0.1z"/>
   <path class="fil0" d="M15.56 18.31l0.35 0c0.03,-0.13 0.06,-0.41 0.09,-0.56 0.01,-0.06 -0.01,-0.04 0.03,-0.07l0.29 0.66 0.12 0c0.01,-0.04 0.05,-0.13 0.07,-0.17 0.04,-0.08 0.2,-0.46 0.23,-0.5 0,0.09 0.09,0.5 0.09,0.64l0.36 0 -0.11 -0.62c-0.02,-0.11 -0.1,-0.56 -0.1,-0.64 -0.32,0 -0.26,-0.02 -0.3,0.08l-0.3 0.64c-0.03,-0.03 -0.06,-0.12 -0.09,-0.17l-0.12 -0.27c-0.03,-0.07 -0.1,-0.22 -0.12,-0.28l-0.27 0 -0.16 0.94c-0.02,0.08 -0.06,0.24 -0.06,0.32z"/>
   <path class="fil0" d="M20.08 18.04c-0.43,0 -0.47,-0.68 0.03,-0.68 0.39,0 0.43,0.68 -0.03,0.68zm-0.11 0.31c0.3,0 0.27,-0.07 0.41,-0.17l0 0.13 0.36 0 0 -1.22 -0.36 0 0 0.13c-0.09,-0.06 -0.09,-0.12 -0.23,-0.16 -0.19,-0.05 -0.44,0.01 -0.58,0.15 -0.21,0.22 -0.24,0.62 -0.09,0.85 0.09,0.15 0.26,0.29 0.49,0.29z"/>
   <path class="fil0" d="M9.96 17.36l0.07 0c0.15,0 0.29,0.15 0.29,0.3l0 0.09c0,0.35 -0.62,0.44 -0.66,-0.03 -0.01,-0.09 0.03,-0.18 0.08,-0.25 0.05,-0.05 0.13,-0.11 0.22,-0.11zm-0.66 0.33c0,0.36 0.26,0.66 0.56,0.66 0.35,0 0.34,-0.11 0.44,-0.18l0 0.14 0.34 0 0 -1.22 -0.34 0 0 0.14c-0.37,-0.42 -1,-0.09 -1,0.46z"/>
   <path class="fil0" d="M24.96 18.31c0.43,0 0.29,0.07 0.62,-0.36 0.05,-0.06 0.09,-0.12 0.14,-0.18l0.14 -0.19 0 0.73 0.36 0 0 -1.19c0,-0.07 -0.14,-0.04 -0.32,-0.04 -0.05,0 -0.39,0.48 -0.45,0.55l-0.14 0.19 0 -0.57c0,-0.21 0.06,-0.17 -0.35,-0.17l0 1.23z"/>
   <path class="fil0" d="M23.1 18.31l0.33 0c0.04,0 0.04,-0.03 0.08,-0.08l0.22 -0.28c0.05,-0.07 0.08,-0.12 0.13,-0.19 0.04,-0.04 0.12,-0.16 0.15,-0.18l0 0.73 0.35 0 0 -1.22 -0.33 0c-0.05,0 -0.13,0.14 -0.15,0.17 -0.06,0.08 -0.39,0.54 -0.43,0.56l0 -0.73 -0.35 0 0 1.22z"/>
   <path class="fil0" d="M14.47 18.04c-0.48,0 -0.47,-0.68 -0.01,-0.68 0.3,0 0.44,0.36 0.24,0.58 -0.05,0.04 -0.14,0.1 -0.23,0.1zm-0.72 -0.38c0,0.19 0.04,0.38 0.19,0.51 0.19,0.17 0.34,0.18 0.58,0.18 0.25,0 0.46,-0.14 0.56,-0.35 0.2,-0.4 -0.04,-0.89 -0.48,-0.94 -0.04,-0.01 -0.13,-0.02 -0.15,-0.02 -0.08,0 -0.2,0.02 -0.28,0.05 -0.08,0.03 -0.14,0.07 -0.21,0.12 -0.05,0.04 -0.11,0.12 -0.14,0.18 -0.04,0.07 -0.07,0.17 -0.07,0.27z"/>
   <path class="fil0" d="M4.01 18.97l0.39 0 0.37 -0.7c0.03,-0.05 0.04,-0.07 0.07,-0.12l0.55 -1.06 -0.39 0c-0.06,0.11 -0.12,0.23 -0.18,0.34 -0.04,0.08 -0.12,0.3 -0.17,0.34 -0.02,-0.07 -0.06,-0.11 -0.09,-0.17l-0.09 -0.17c-0.06,-0.12 -0.12,-0.22 -0.18,-0.34l-0.41 0c0.08,0.16 0.17,0.31 0.25,0.46 0.02,0.04 0.05,0.08 0.07,0.12l0.2 0.35c0.08,0.14 0.06,0.11 -0.01,0.24l-0.38 0.71z"/>
   <polygon class="fil0" points="21.33,18.31 21.68,18.31 21.68,17.82 22.15,17.82 22.15,18.31 22.51,18.31 22.51,17.09 22.15,17.09 22.15,17.51 21.68,17.51 21.68,17.09 21.33,17.09 "/>
   <polygon class="fil0" points="5.84,18.31 6.19,18.31 6.19,17.39 6.65,17.39 6.65,18.31 7.01,18.31 7.01,17.09 5.84,17.09 "/>
   <polygon class="fil0" points="7.6,18.31 7.95,18.31 7.95,17.39 8.41,17.39 8.41,18.31 8.77,18.31 8.77,17.09 7.6,17.09 "/>
   <polygon class="fil0" points="17.68,18.31 18.04,18.31 18.04,17.39 18.5,17.39 18.5,18.31 18.85,18.31 18.85,17.09 17.68,17.09 "/>
   <path class="fil0" d="M12.19 18.31l0.36 0 0 -0.44c0,-0.03 0.02,-0.03 0.03,-0.06 0.07,0.05 0.3,0.35 0.39,0.46 0.05,0.05 0.05,0.04 0.14,0.04 0.12,0 0.23,0 0.35,0l-0.29 -0.34c-0.07,-0.08 -0.24,-0.26 -0.29,-0.34l0.54 -0.54c-0.11,0 -0.22,0 -0.32,0 -0.18,0 -0.14,0.05 -0.3,0.2l-0.25 0.25 0 -0.45 -0.36 0 0 1.22z"/>
   <polygon class="fil0" points="0.98,18.31 1.32,18.31 1.32,17.39 1.76,17.39 1.76,17.09 0.98,17.09 "/>
   <path class="fil0" d="M25.12 16.58c0.04,0.08 0.04,0.12 0.14,0.2 0.2,0.17 0.72,0.12 0.79,-0.2 -0.08,-0.02 -0.15,-0.09 -0.23,-0.11 -0.02,0.06 -0.03,0.09 -0.08,0.13 -0.12,0.1 -0.37,0.04 -0.38,-0.13 -0.1,0.03 -0.16,0.09 -0.24,0.11z"/>
  </g>
 </g>
</svg>
