<svg width="103" height="33" viewBox="0 0 103 33" fill="none" xmlns="http://www.w3.org/2000/svg">
<g clip-path="url(#clip0_118_1184)">
<path fill-rule="evenodd" clip-rule="evenodd" d="M34.0368 16.9906C34.08 16.7236 34.64 15.0639 34.7706 14.6533C34.881 14.3049 35.3601 12.3563 35.441 12.2512C35.6746 13.0714 35.8586 13.8505 36.1105 14.6579C36.2347 15.0548 36.3699 15.4361 36.4968 15.8311C36.5943 16.1329 36.815 16.6961 36.8564 16.9906H34.0368ZM55.7816 18.2378C55.9913 16.8086 55.5443 15.4342 54.4583 15.0712C53.2269 14.6597 52.0543 15.5367 51.9578 16.9174C51.8731 18.1464 51.8465 19.7732 53.2682 20.1709C54.7268 20.5778 55.6041 19.4522 55.7816 18.2378ZM93.015 16.7903L89.5038 16.783C89.4634 16.0871 90.1108 14.8426 91.2493 14.785C92.5028 14.7219 93.1245 15.8384 93.015 16.7903ZM77.3242 14.9139C80.1759 14.2181 80.5512 19.6607 78.1702 20.2496C75.3644 20.9436 74.8439 15.5193 77.3242 14.9139ZM32.7796 21.3871L31.0194 21.3981C31.1003 21.0204 31.3073 20.4681 31.4342 20.085L33.576 13.4655C33.6625 13.1912 34.3743 10.8677 34.4791 10.8311H36.4876C36.6449 10.9335 36.6807 11.2508 36.7396 11.4355L39.5344 20.0411C39.6769 20.469 39.8617 20.9573 39.9693 21.3981L38.1751 21.3972L37.1681 18.29L33.7305 18.2936L32.7796 21.3871ZM46.9761 18.2378C46.7977 19.4494 45.9203 20.5714 44.4682 20.1718C43.0354 19.7786 43.074 18.1427 43.1531 16.9183C43.338 14.091 47.5738 14.1824 46.9761 18.2378ZM0.04599 27.5183V5.40127C0.0478293 4.33872 0.312685 3.43436 0.841477 2.64888C1.07599 2.30049 1.32981 1.96764 1.65904 1.70429C2.50418 1.02762 3.36772 0.5 4.58625 0.5H98.1613C98.7453 0.5 99.5371 0.763352 99.9427 0.965438C100.471 1.2297 100.83 1.4958 101.225 1.88808C101.97 2.62876 102.621 3.82207 102.621 4.93401V27.9855C102.621 30.2999 100.407 32.5 98.0813 32.5H4.58625C3.86617 32.5 3.18104 32.2403 2.68443 31.9943C2.02873 31.6688 2.03885 31.5892 1.61857 31.2555L1.05575 30.6575C0.349471 29.7165 0.0478293 28.8067 0.04599 27.5183ZM81.469 18.1583C81.1995 20.3099 79.6205 21.8178 77.1559 21.5389C75.048 21.3002 73.755 19.4092 74.0355 17.0208C74.2875 14.8792 75.9042 13.3823 78.3459 13.6594C78.379 13.663 78.4112 13.6667 78.4434 13.6713C78.4765 13.6758 78.5087 13.6813 78.5399 13.6859C78.5721 13.6914 78.6043 13.6969 78.6356 13.7033C78.6677 13.7097 78.699 13.7161 78.7303 13.7225C78.7615 13.7298 78.7928 13.7362 78.8232 13.7444C78.8544 13.7517 78.8848 13.76 78.9151 13.7682C78.9455 13.7764 78.9758 13.7856 79.0062 13.7947C79.0356 13.8029 79.0659 13.813 79.0954 13.8221C79.1248 13.8322 79.1542 13.8422 79.1837 13.8532C79.2131 13.8633 79.2416 13.8743 79.2701 13.8852C79.2986 13.8971 79.3271 13.9081 79.3556 13.92C79.3841 13.9328 79.4117 13.9447 79.4402 13.9575C79.4678 13.9703 79.4954 13.9831 79.523 13.9959C79.5497 14.0096 79.5773 14.0233 79.6039 14.037C79.6306 14.0507 79.6573 14.0654 79.6839 14.08C79.7106 14.0946 79.7364 14.1102 79.7621 14.1248C79.7888 14.1403 79.8145 14.1559 79.8394 14.1724C79.8651 14.1879 79.8899 14.2044 79.9148 14.2208C79.9405 14.2382 79.9644 14.2547 79.9893 14.272C80.0132 14.2894 80.038 14.3068 80.0619 14.3251C80.0858 14.3424 80.1097 14.3607 80.1327 14.3799C80.1566 14.3982 80.1796 14.4165 80.2026 14.4357C80.2256 14.4549 80.2477 14.475 80.2707 14.4942C80.2927 14.5143 80.3148 14.5345 80.3369 14.5546C80.359 14.5747 80.3801 14.5957 80.4013 14.6168C80.4224 14.6378 80.4436 14.6588 80.4647 14.6799L80.5263 14.7457C80.5466 14.7676 80.5659 14.7905 80.5861 14.8124C80.6054 14.8353 80.6247 14.8582 80.644 14.8819C80.6634 14.9048 80.6818 14.9286 80.7001 14.9524C80.7185 14.9761 80.7369 14.9999 80.7553 15.0246C80.7728 15.0484 80.7912 15.0731 80.8087 15.0977C80.8261 15.1224 80.8427 15.148 80.8592 15.1736C80.8758 15.1983 80.8923 15.2239 80.9089 15.2505C80.9255 15.2761 80.9411 15.3026 80.9567 15.3291L81.0027 15.4086C81.0174 15.4352 81.0321 15.4626 81.0459 15.49C81.0606 15.5175 81.0744 15.5449 81.0882 15.5732C81.102 15.6007 81.1158 15.629 81.1287 15.6574C81.1416 15.6857 81.1544 15.7141 81.1673 15.7424C81.1802 15.7717 81.1922 15.8009 81.2032 15.8302C81.2151 15.8595 81.2271 15.8887 81.2381 15.918C81.2492 15.9482 81.2602 15.9783 81.2703 16.0085C81.2814 16.0387 81.2915 16.0689 81.3016 16.099C81.3117 16.1301 81.3209 16.1603 81.3301 16.1914L81.3568 16.2856C81.365 16.3167 81.3733 16.3487 81.3816 16.3798C81.389 16.4118 81.3963 16.4438 81.4037 16.4758C81.411 16.5087 81.4175 16.5407 81.4239 16.5736C81.4303 16.6056 81.4368 16.6385 81.4423 16.6715V16.6724C81.4478 16.7053 81.4533 16.7382 81.4588 16.7711C81.4634 16.805 81.468 16.8379 81.4726 16.8726C81.4772 16.9055 81.4809 16.9403 81.4846 16.9741C81.4883 17.008 81.492 17.0427 81.4947 17.0765C81.4975 17.1113 81.5002 17.146 81.5021 17.1808C81.5048 17.2155 81.5057 17.2503 81.5076 17.285C81.5094 17.3207 81.5103 17.3554 81.5103 17.3911C81.5113 17.4268 81.5122 17.4624 81.5122 17.4981C81.5122 17.5337 81.5113 17.5703 81.5103 17.606L81.5067 17.7148C81.5048 17.7514 81.503 17.788 81.5012 17.8245L81.4929 17.9352C81.4892 17.9718 81.4864 18.0083 81.4818 18.0458C81.4782 18.0833 81.4736 18.1208 81.469 18.1583ZM94.5858 17.9928H89.4827C89.559 19.8801 90.9127 20.3602 92.4761 20.2194C93.0996 20.1627 93.4307 20.0164 93.9669 19.8984L94.2216 21.0643C92.4025 21.751 90.3416 21.7721 89.0183 20.6565C87.3795 19.2748 87.2866 15.394 89.7632 14.0023C90.486 13.5954 91.5923 13.4774 92.4816 13.738C94.2786 14.2647 94.8957 16.4172 94.5858 17.9928ZM68.3981 13.7828L69.5109 13.7773L69.5137 12.3774C69.8171 12.2969 70.9998 11.9 71.181 11.9064L71.1819 13.7782H73.0405C73.0883 14.0864 73.0607 14.7128 73.0589 15.0539L71.1874 15.0557C71.1138 16.1201 71.1819 17.4368 71.1819 18.5177C71.181 19.8847 71.4955 20.3328 72.92 20.085L72.9789 21.3533C72.5439 21.6166 71.2601 21.5974 70.7837 21.4109C69.281 20.822 69.5109 19.0261 69.5109 17.5987C69.5109 16.7611 69.5376 15.8814 69.5072 15.0484L68.3963 15.0447L68.3981 13.7828ZM42.9784 14.9807C43.361 14.5966 43.487 14.1358 44.4728 13.7929C45.192 13.5423 46.1217 13.5615 46.7829 13.8724C50.0541 15.4086 49.2209 22.1022 44.8581 21.5407C44.2172 21.4584 43.6782 21.1996 43.3113 20.7223L43.1495 20.5367L43.1311 24.4879L41.4573 24.4824C41.3994 24.1733 41.4582 16.1996 41.4261 15.042C41.4169 14.7274 41.3543 14.0434 41.3975 13.7782H42.8726L42.9784 14.9807ZM82.9496 13.7792H84.4035L84.4845 15.2285C84.7567 15.0154 84.9746 13.4728 87.0309 13.6475L87.0438 15.2642C86.2823 15.1846 85.7747 15.223 85.3287 15.6656C85.1346 15.8576 85.0252 15.9811 84.9011 16.2783C84.7925 16.5352 84.7208 16.8434 84.6997 17.1579C84.6463 17.9471 84.6905 20.4132 84.6905 21.3862L82.9845 21.3972L82.9818 15.6409C82.979 15.1435 82.8972 14.2162 82.9496 13.7792ZM50.2003 13.7782H51.6635L51.7729 14.9615C51.8354 14.9313 51.8023 14.9505 51.8529 14.8975C52.1831 14.5518 52.3596 14.0919 53.2728 13.7938C54.0371 13.5451 54.9245 13.5698 55.6124 13.8834C58.8035 15.3364 58.0715 22.1141 53.66 21.5407C52.7275 21.4191 52.436 21.0799 51.9688 20.5275L51.9522 24.487H50.2592C50.2086 24.1523 50.261 16.2883 50.2316 15.0822C50.2233 14.7402 50.1589 14.08 50.2003 13.7782ZM23.7929 19.828C23.4848 21.3286 21.675 24.0919 20.5006 24.8747C19.3143 25.6647 18.3716 25.1966 17.2313 24.7604C15.9622 24.2757 14.9699 24.4595 13.8231 24.9451C12.4262 25.5376 11.7043 25.4316 10.6963 24.626C10.1482 24.188 9.20467 22.8721 8.84785 22.3097C7.05272 19.4796 5.8811 14.646 8.35217 11.5562C8.48551 11.3907 8.63082 11.2709 8.76784 11.1292C9.25893 10.6217 9.97349 10.1773 10.8517 9.9258C13.5573 9.15312 14.4264 11.1475 16.2335 10.4836C17.0152 10.1965 17.8309 9.80053 18.7487 9.70543C19.6987 9.60667 20.7553 9.85814 21.4892 10.2193C22.0382 10.49 23.0554 11.2435 23.2466 11.7793C22.7132 11.9586 21.8745 12.9882 21.6281 13.4106C20.7075 14.9825 20.8372 16.944 21.9361 18.4043C22.2451 18.8148 23.1289 19.6342 23.7929 19.828ZM61.2176 19.5007C61.4107 19.5638 61.6149 19.6927 61.819 19.7768L61.8494 19.7896L61.8788 19.8015L61.9092 19.8134L61.9386 19.8244L61.9689 19.8363L61.9993 19.8472L62.0296 19.8582L62.06 19.8692L62.0903 19.8792V19.8801L62.1207 19.8902L62.151 19.9003L62.1823 19.9103L62.2126 19.9204L62.2439 19.9295L62.2743 19.9387L62.3055 19.9478V19.9487L62.3368 19.957L62.3681 19.9661L62.3993 19.9743L62.4306 19.9826L62.4619 19.9908L62.4931 19.999L62.5244 20.0063L62.5557 20.0146L62.5879 20.0219L62.6191 20.0283L62.6513 20.0356L62.6826 20.042L62.7148 20.0484L62.747 20.0548L62.7782 20.0612L62.8104 20.0667L62.8426 20.0731L62.8748 20.0786L62.907 20.0831L62.9382 20.0886L62.9704 20.0932L63.0035 20.0978L63.0357 20.1023L63.0679 20.106L63.1001 20.1106L63.1323 20.1142L63.1645 20.1179L63.1967 20.1206L63.2298 20.1234L63.262 20.127L63.2951 20.1289L63.3272 20.1316L63.3594 20.1334L63.3925 20.1362L63.4247 20.138L63.4578 20.1389L63.49 20.1407L63.5231 20.1417L63.5553 20.1426L63.5884 20.1435H63.6206L63.6537 20.1444H63.6859L63.719 20.1435H63.7521L63.7843 20.1426L63.8174 20.1417L63.8496 20.1407C64.8207 20.1042 65.5794 19.6762 65.7082 18.8148C65.8636 17.7742 65.1068 17.2292 64.417 16.9156L64.3784 16.8982L64.3398 16.8809L64.3021 16.8644V16.8635L64.2644 16.847L64.2267 16.8306L64.1889 16.815L64.1522 16.7986L64.1154 16.783L64.0786 16.7675L64.0427 16.7519L64.0059 16.7373L63.9701 16.7227L63.9342 16.7071L63.8993 16.6925L63.8634 16.6779L63.8285 16.6632L63.7935 16.6495L63.7586 16.6349L63.7245 16.6212L63.6896 16.6065L63.6556 16.5928L63.6215 16.5791V16.5782L63.5875 16.5645L63.5535 16.5508L63.5195 16.537L63.4864 16.5224L63.4523 16.5087L63.4192 16.495L63.3861 16.4803L63.353 16.4666L63.3199 16.452L63.2868 16.4383L63.2546 16.4236L63.2215 16.409L63.1893 16.3944L63.1562 16.3798L63.124 16.3651L63.0918 16.3505L63.0596 16.3349L63.0274 16.3194L62.9953 16.3039L62.9631 16.2883L62.9309 16.2728L62.8987 16.2563L62.8665 16.2399L62.8352 16.2234L62.8031 16.206L62.7709 16.1886L62.7387 16.1713L62.7074 16.1539L62.6752 16.1356L62.643 16.1173L62.6109 16.0981L62.5796 16.0789L62.5474 16.0597L62.5152 16.0396L62.483 16.0195L62.4508 15.9984L62.4186 15.9783L62.3865 15.9564L62.3543 15.9344L62.3221 15.9125L62.2899 15.8887L62.2577 15.8659C61.694 15.458 61.0971 14.8499 61.0236 13.845C60.8084 10.9015 64.4731 9.98707 67.0242 11.1776L66.6085 12.5429C66.4016 12.4871 66.191 12.3664 65.9703 12.2932C65.3394 12.082 64.4814 11.986 63.8395 12.157C63.4183 12.2695 63.0679 12.4971 62.8913 12.8108C62.6789 13.1894 62.6532 13.6996 62.8693 14.0992C63.4431 15.159 65.7339 15.3227 66.775 16.6065C67.2771 17.2265 67.5686 18.0422 67.3571 19.0919C66.7851 21.9257 62.7479 22.0135 60.8341 20.9043L61.2176 19.5007ZM19.4853 4.73009C19.5285 5.47625 19.4458 6.04502 19.2002 6.68145C18.8066 7.70377 18.0691 8.60539 17.1025 9.06991C16.8763 9.17873 15.598 9.6844 15.3571 9.44574C15.1281 9.21805 15.5391 7.83088 15.6449 7.58124C15.8996 6.97407 16.1544 6.6275 16.5057 6.19956C16.9011 5.71583 18.3919 4.6734 19.4853 4.73009Z" fill="black"/>
</g>
<defs>
<clipPath id="clip0_118_1184">
<rect width="102.667" height="32" fill="white" transform="translate(0 0.5)"/>
</clipPath>
</defs>
</svg>
