<svg width="400" height="450" viewBox="0 0 400 450" fill="none" xmlns="http://www.w3.org/2000/svg">
<path d="M212.842 105.711H189.127V449.418H212.842V105.711Z" fill="black"/>
<path d="M187.966 83.8137H213.526V433.038H186.585V83.8137H187.966ZM210.758 86.4875H189.353V430.364H210.758V86.4875Z" fill="#FEFEFE"/>
<path d="M230.924 432.04H169.623V449.249H230.924V432.04Z" fill="#22201E"/>
<path d="M168.377 430.044H231.033V449.909H167.022V430.044H168.377ZM228.318 432.696H169.738V447.258H228.318V432.696Z" fill="#FEFEFE"/>
<path d="M399.105 -0.112122H0.906616V222.589H399.105V-0.112122Z" fill="#22201E"/>
<path d="M0.906973 -0.997803H400.007V223.475H0V-0.997803H0.906973ZM398.198 0.768349H1.80861V221.704H398.198V0.768349Z" fill="#B2B3B3"/>
<path d="M390.67 7.96844H9.33075V214.509H390.67V7.96844Z" fill="url(#paint0_linear_136_80)"/>
<path d="M9.33084 7.08276H391.577C391.604 76.5201 391.604 145.958 391.577 215.395H8.4292V7.08276H9.33084ZM389.769 8.84892H10.2378V213.623H389.769V8.84892Z" fill="#727271"/>
<defs>
<linearGradient id="paint0_linear_136_80" x1="272.128" y1="221.991" x2="132.708" y2="-2.51274" gradientUnits="userSpaceOnUse">
<stop/>
<stop offset="0.568627" stop-color="#3D3D3D"/>
<stop offset="1" stop-color="#7A7A7A"/>
</linearGradient>
</defs>
</svg>
