<svg width="46" height="46" viewBox="0 0 46 46" fill="none" xmlns="http://www.w3.org/2000/svg">
<path d="M45.5 23C45.5 35.4264 35.4264 45.5 23 45.5C10.5736 45.5 0.5 35.4264 0.5 23C0.5 10.5736 10.5736 0.5 23 0.5C35.4264 0.5 45.5 10.5736 45.5 23Z" fill="white" stroke="#E3E3E3"/>
<path fill-rule="evenodd" clip-rule="evenodd" d="M21.8948 12.2736C22.5817 11.8902 23.4182 11.8902 24.1051 12.2736L38.0347 20.0483C39.1283 20.6586 39.52 22.0399 38.9096 23.1335C38.2992 24.2271 36.9179 24.6188 35.8244 24.0084L23 16.8506L10.1755 24.0084C9.08198 24.6188 7.70067 24.2271 7.09031 23.1335C6.47995 22.0399 6.87167 20.6586 7.96523 20.0483L21.8948 12.2736Z" fill="#FF0009" stroke="#E3E3E3" stroke-linecap="round" stroke-linejoin="round"/>
<path fill-rule="evenodd" clip-rule="evenodd" d="M21.8948 21.3439C22.5817 20.9606 23.4182 20.9606 24.1051 21.3439L38.0347 29.1186C39.1283 29.7289 39.52 31.1102 38.9096 32.2038C38.2992 33.2974 36.9179 33.6891 35.8244 33.0787L23 25.9209L10.1755 33.0787C9.08198 33.6891 7.70067 33.2974 7.09031 32.2038C6.47995 31.1102 6.87167 29.7289 7.96523 29.1186L21.8948 21.3439Z" fill="#D10004" stroke="#E3E3E3" stroke-linecap="round" stroke-linejoin="round"/>
</svg>
