<svg width="24" height="24" viewBox="0 0 24 24" fill="none" xmlns="http://www.w3.org/2000/svg">
<path d="M2 0.335786C1.55862 0.335786 1.13532 0.511122 0.823224 0.823222C0.511124 1.13532 0.335788 1.55862 0.335789 2C0.335789 2.44137 0.511124 2.86467 0.823225 3.17677L20.8232 23.1768C21.1353 23.4889 21.5586 23.6642 22 23.6642C22.4414 23.6642 22.8647 23.4889 23.1768 23.1768C23.4889 22.8647 23.6642 22.4414 23.6642 22C23.6642 21.5586 23.4889 21.1353 23.1768 20.8232L3.17678 0.823222C2.86468 0.511122 2.44138 0.335786 2 0.335786Z" fill="#8C8C8C" stroke="#8C8C8C" stroke-width="0.5"/>
<path d="M23.6642 2C23.6642 1.55862 23.4889 1.13532 23.1768 0.823224C22.8647 0.511124 22.4414 0.335788 22 0.335788C21.5586 0.335788 21.1353 0.511124 20.8232 0.823224L0.823245 20.8232C0.511146 21.1353 0.335807 21.5586 0.335808 22C0.335807 22.4414 0.511146 22.8647 0.823245 23.1768C1.13534 23.4889 1.55864 23.6642 2.00002 23.6642C2.4414 23.6642 2.8647 23.4889 3.1768 23.1768L23.1768 3.17678C23.4889 2.86468 23.6642 2.44138 23.6642 2Z" fill="#8C8C8C" stroke="#8C8C8C" stroke-width="0.5"/>
</svg>
