<svg width="280" height="108" viewBox="0 0 280 108" fill="none" xmlns="http://www.w3.org/2000/svg">
<g clip-path="url(#clip0_376_5479)">
<path d="M235.547 43.1939C239.074 33.6444 232.364 23.5531 222.245 23.1894L17.1308 15.8168C7.23212 15.461 -0.422155 24.6403 1.73267 34.2827L14.747 92.5193C16.3185 99.5512 22.6983 104.388 29.9218 104.024L206.523 95.125C212.593 94.8191 217.934 90.884 220.048 85.1587L235.547 43.1939Z" fill="black"/>
<path d="M250.909 43.6708C242.795 44.7914 229.286 41.128 227.246 39.7022C213.07 51.1429 180.988 82.91 238.18 67.0375C260.767 60.7688 275.099 38.1772 276.738 29.761C273.335 33.8948 265.581 41.6446 250.909 43.6708Z" fill="black"/>
<path d="M232.077 44.7185C235.822 35.1108 229.084 24.801 218.835 24.4575L20.2793 17.8028C10.3183 17.4689 2.67137 26.7753 4.95844 36.4482L17.1269 87.9135C18.7659 94.8454 25.0853 99.586 32.2279 99.2417L204.381 90.9443C210.365 90.6559 215.657 86.8379 217.842 81.2316L232.077 44.7185Z" fill="white"/>
<path d="M250.291 46.6185C243.831 48.0145 231.498 46.0042 230.077 44.754C217.453 54.487 194.435 68.0916 237.341 62.0106C256.412 59.3076 270.489 42.8448 272.862 35.599C269.653 39.1325 264.24 43.6039 250.291 46.6185Z" fill="white"/>
</g>
<defs>
<clipPath id="clip0_376_5479">
<rect width="276.24" height="91.2144" fill="white" transform="matrix(0.998317 -0.0579942 0.0373655 0.999302 0.586914 16.1982)"/>
</clipPath>
</defs>
</svg>
