<svg width="294" height="91" viewBox="0 0 294 91" fill="none" xmlns="http://www.w3.org/2000/svg">
<g clip-path="url(#clip0_376_5452)">
<path d="M261.117 50.5809L264.571 60.6085L235.043 55.8956L232.284 51.5389L227.76 35.016L249.221 44.5486L246.231 34.6809L292.23 55.1413L261.117 50.5809Z" fill="#231F20"/>
<path d="M235.624 85.0702L0.87793 80.2471L32.0881 1.35603L246.042 12.0468L235.624 85.0702Z" fill="#231F20"/>
<path d="M258.938 47.929L262.377 57.9154L225.128 53.0674L227.104 44.349L231.2 38.0509L252.79 47.6381L249.8 37.7754L279.361 50.9241L258.938 47.929Z" fill="white"/>
<path d="M15.9326 75.8291L35.1508 2.65545L240.364 14.178L231.503 79.6498L15.9326 75.8291Z" fill="white"/>
</g>
<defs>
<clipPath id="clip0_376_5452">
<rect width="291.139" height="80.5169" fill="white" transform="matrix(0.999442 0.0333947 0.0215019 -0.999769 0.853516 80.5427)"/>
</clipPath>
</defs>
</svg>
