<svg width="182" height="90" viewBox="0 0 182 90" fill="none" xmlns="http://www.w3.org/2000/svg">
<g clip-path="url(#clip0_376_5463)">
<path d="M22.6524 70.6208L24.98 81.0603L55.2622 59.4605L45.6227 57.9682L40.8774 41.3127L28.9106 59.7453L25.5348 52.0003L0.667236 89.196L22.6524 70.6208Z" fill="#231F20"/>
<ellipse cx="78.0927" cy="36.1449" rx="78.0927" ry="36.1449" transform="matrix(1 -1.58897e-06 -9.9673e-07 1 24 0)" fill="black"/>
<path d="M23.0245 67.2678L25.3431 77.664L50.6823 58.0223L48.5698 50.3411L39.7136 45.5937L27.6743 64.1343L24.7707 55.9876L8.59357 79.4624L23.0245 67.2678Z" fill="white"/>
<ellipse cx="104.186" cy="35.5" rx="76" ry="33.5" fill="white"/>
</g>
<defs>
<clipPath id="clip0_376_5463">
<rect width="180.512" height="89.245" fill="white" transform="matrix(-1 -6.08264e-05 -3.91517e-05 1 181.016 0.0119629)"/>
</clipPath>
</defs>
</svg>
