<svg width="445" height="140" viewBox="0 0 445 140" fill="none" xmlns="http://www.w3.org/2000/svg">
<g clip-path="url(#clip0_65_18335)">
<path d="M395.515 78.11L400.74 93.6309L356.016 86.3674L351.842 79.6255L345 54.0498L377.501 68.7842L372.978 53.5103L442.639 85.1356L395.515 78.11Z" fill="#231F20"/>
<path d="M356.875 131.535L1.30957 124.331L48.6404 2.15661L372.709 18.4683L356.875 131.535Z" fill="#231F20"/>
<path d="M392.216 74.0067L397.418 89.4638L341 81.9999L344 68.4999L350.209 58.7445L382.904 73.5632L378.382 58.2971L423.149 78.6208L392.216 74.0067Z" fill="white"/>
<path d="M24.1152 117.474L53.2777 4.16474L364.106 21.7741L350.637 123.147L24.1152 117.474Z" fill="white"/>
</g>
<defs>
<clipPath id="clip0_65_18335">
<rect width="441.005" height="123.963" fill="white" transform="matrix(0.999442 0.0333947 0.0215019 -0.999769 0.722656 124.38)"/>
</clipPath>
</defs>
</svg>
