<svg width="329" height="109" viewBox="0 0 329 109" fill="none" xmlns="http://www.w3.org/2000/svg">
<path fill-rule="evenodd" clip-rule="evenodd" d="M82.5 23H320C324.418 23 328 26.5817 328 31V100C328 104.418 324.418 108 320 108H9C4.58173 108 1 104.418 1 100V31C1 26.5817 4.58172 23 9 23H54.2727L48 2L82.5 23Z" fill="white"/>
<path d="M82.5 23L82.24 23.4271L82.3598 23.5H82.5V23ZM54.2727 23V23.5H54.9439L54.7518 22.8569L54.2727 23ZM48 2L48.26 1.5729L47.1485 0.896359L47.5209 2.1431L48 2ZM82.5 23.5H320V22.5H82.5V23.5ZM320 23.5C324.142 23.5 327.5 26.8579 327.5 31H328.5C328.5 26.3056 324.694 22.5 320 22.5V23.5ZM327.5 31V100H328.5V31H327.5ZM327.5 100C327.5 104.142 324.142 107.5 320 107.5V108.5C324.694 108.5 328.5 104.694 328.5 100H327.5ZM320 107.5H9V108.5H320V107.5ZM9 107.5C4.85787 107.5 1.5 104.142 1.5 100H0.5C0.5 104.694 4.30558 108.5 9 108.5V107.5ZM1.5 100V31H0.5V100H1.5ZM1.5 31C1.5 26.8579 4.85786 23.5 9 23.5V22.5C4.30558 22.5 0.5 26.3056 0.5 31H1.5ZM9 23.5H54.2727V22.5H9V23.5ZM54.7518 22.8569L48.4791 1.8569L47.5209 2.1431L53.7936 23.1431L54.7518 22.8569ZM47.74 2.4271L82.24 23.4271L82.76 22.5729L48.26 1.5729L47.74 2.4271Z" fill="#BBBBBB"/>
</svg>
