<svg width="188" height="66" viewBox="0 0 188 66" fill="none" xmlns="http://www.w3.org/2000/svg">
<g clip-path="url(#clip0_376_5474)">
<path d="M40.8251 26.2031C37.9132 16.8624 44.5789 7.27942 54.3491 6.76018L171.234 0.548395C180.982 0.0303484 188.62 8.81362 186.753 18.3952L179.936 53.3951C178.512 60.7082 171.935 65.8674 164.493 65.5099L61.8635 60.5801C55.5709 60.2779 50.1377 56.0759 48.2627 50.0615L40.8251 26.2031Z" fill="black"/>
<path d="M27.8331 18.0631C43.5801 21.4788 49.656 14.6756 51.06 12.9017C67.6898 28.0513 94.5856 69.4326 65.4613 58.3269C32.3131 45.6868 4.31662 12.0338 0.110083 1.15304C4.54826 6.57526 20.0619 16.3774 27.8331 18.0631Z" fill="black"/>
<path d="M43.0696 27.142C39.9948 17.7454 46.6929 7.99636 56.5671 7.49644L167.451 1.88251C177.242 1.38679 184.869 10.263 182.906 19.8681L176.841 49.5334C175.361 56.7685 168.836 61.8506 161.459 61.513L63.0365 57.0087C56.8078 56.7237 51.405 52.6152 49.4659 46.6892L43.0696 27.142Z" fill="white"/>
<path d="M31.2802 21.2409C37.6682 22.8985 50.389 20.3963 51.3947 18.7629C66.3531 30.9789 75.2534 54.9237 50.0869 44.4711C30.5677 36.364 9.61991 16.0293 5.24235 6.78647C9.35065 11.2505 18.5391 17.9346 31.2802 21.2409Z" fill="white"/>
</g>
<defs>
<clipPath id="clip0_376_5474">
<rect width="187.26" height="65.4921" fill="white" transform="matrix(-1 -6.08264e-05 -3.91517e-05 1 187.253 0.259155)"/>
</clipPath>
</defs>
</svg>
