<svg width="110" height="95" viewBox="0 0 110 95" fill="none" xmlns="http://www.w3.org/2000/svg">
<path fill-rule="evenodd" clip-rule="evenodd" d="M71.4891 55.3224C71.4891 58.5542 73.4315 61.1801 75.9647 62.4262C80.6462 64.7312 87.2478 61.8128 87.2478 55.1561C87.2478 47.5117 76.1631 44.1552 72.2604 52.1263C71.9173 52.8273 71.4891 54.3734 71.4891 55.3224ZM14.7621 79.1006H31.847V83.0631H14.7621V79.1006ZM14.5771 67.5858L31.9276 67.5754L31.9828 71.6255L14.5831 71.7043L14.5771 67.5858ZM14.5592 56.1334L31.9679 56.1185L31.9709 60.1909L14.6412 60.2444L14.5592 56.1334ZM14.7621 45.0849H31.847V49.0474H14.7621V45.0849ZM10.5819 90.8159H35.9929L35.9855 37.3767H10.6162L10.5819 90.8159ZM15.7572 33.1944H35.4962V29.067H15.7572V33.1944ZM44.619 49.7084H53.0779V53.6709H44.619V49.7084ZM44.4623 36.3712L56.2093 36.3177L56.2362 40.4169L44.513 40.4436L44.4623 36.3712ZM44.619 23.1217H68.3383V27.0857H44.619V23.1217ZM40.1404 90.8827H48.7455L48.7723 74.844L57.2298 74.7593L57.2626 78.912L52.9123 78.9476V90.9897H76.3004C76.1587 90.4594 70.5656 83.2413 69.8615 82.2062C67.1433 78.205 64.3878 74.2261 62.0903 69.9636L59.5228 64.7579C58.9305 63.3158 58.289 61.8544 57.8519 60.1464C57.3446 58.1562 57.2163 57.2829 57.2193 54.6556C57.2238 50.4257 59.763 44.5087 62.5722 41.4907C74.5803 28.5872 96.5347 32.9255 100.648 49.0757C102.18 55.0893 100.736 61.9806 97.3656 68.6982C96.6824 70.0587 95.9663 71.327 95.1771 72.6295C94.364 73.9707 93.6569 75.2064 92.7886 76.5267C89.8198 81.0447 87.0076 84.9434 83.7627 89.1718L82.4365 90.9897H109.5V94.9522H0V90.9897H6.46876V33.1944H11.7769L11.7142 25.2693C12.2155 24.9663 12.5959 25.0747 13.2702 25.0792H36.0168C36.0168 20.7067 35.7841 4.1259 36.1048 0.102479C36.1093 0.0445562 36.1406 0.0341597 36.16 0L63.6941 0.00445562V8.09586H80.6119V27.5803H76.6316V12.0584H40.1404V90.8827ZM40.1404 8.09586H59.7137V3.96699H40.1404V8.09586Z" fill="white"/>
</svg>
