<svg width="279" height="107" viewBox="0 0 279 107" fill="none" xmlns="http://www.w3.org/2000/svg">
<g clip-path="url(#clip0_65_18355)">
<path d="M45.1924 30.8266C42.3826 21.5232 49.0262 12.0447 58.7301 11.5124L262.626 0.327279C272.347 -0.206003 279.993 8.51928 278.187 18.0864L263.946 93.5557C262.557 100.918 255.947 106.127 248.463 105.756L75.6365 97.1872C69.3041 96.8732 63.8529 92.6118 62.0198 86.5423L45.1924 30.8266Z" fill="black"/>
<path d="M35.1422 43.4632C52.4227 42.7509 56.901 33.8496 57.8814 31.5784C79.2424 43.0866 118.341 79.6291 85.0893 75.8603C47.2436 71.5708 9.08509 43.541 1.78149 33.1427C7.85416 37.6789 26.6141 43.8147 35.1422 43.4632Z" fill="black"/>
<path d="M48.4731 32.1907C45.5058 22.8305 52.1829 13.1909 61.9888 12.6784L256.815 2.49669C266.578 1.9865 274.212 10.8014 272.313 20.3909L259.072 87.2378C257.629 94.5242 251.07 99.6569 243.65 99.3065L77.5407 91.4603C71.2699 91.164 65.8468 86.9941 63.9496 81.0098L48.4731 32.1907Z" fill="white"/>
<path d="M39.5786 45.889C46.662 45.889 59.2033 39.7247 59.8077 37.7124C78.6415 46.5653 94.3435 69.5467 65.3798 65.3807C42.9154 62.1495 15.6704 46.3237 8.63071 37.7124C14.1023 41.3218 25.4503 45.889 39.5786 45.889Z" fill="white"/>
</g>
<defs>
<clipPath id="clip0_65_18355">
<rect width="277.637" height="106" fill="white" transform="matrix(-1 -6.08264e-05 -3.91517e-05 1 278.626 0.130859)"/>
</clipPath>
</defs>
</svg>
