<svg width="287" height="102" viewBox="0 0 287 102" fill="none" xmlns="http://www.w3.org/2000/svg">
<g clip-path="url(#clip0_65_18340)">
<path d="M30.9847 73.2403L33.501 84.9763L59.7614 63.8163L59.9048 58.0125L54.6113 39.3286L39.1264 60.6762L36.2488 49.3562L3.07649 95.1394L30.9847 73.2403Z" fill="#231F20"/>
<path d="M47.1839 15.4406L284.138 1.2644L256.908 89.0794L40.6037 95.1989L47.1839 15.4406Z" fill="#231F20"/>
<path d="M31.5646 69.4269L34.0712 81.1143L56.8879 62.7304L56.9986 58.2748L53.0176 44.2234L37.439 65.6961L34.5635 54.3815L13.2457 83.8035L31.5646 69.4269Z" fill="white"/>
<path d="M269.196 7.28125L253.751 87.9286L46.2149 92.4274L51.6306 20.9569L269.196 7.28125Z" fill="white"/>
</g>
<defs>
<clipPath id="clip0_65_18340">
<rect width="284.371" height="87.1017" fill="white" transform="matrix(-0.998943 0.0459741 0.0296101 0.999562 284.386 0.963623)"/>
</clipPath>
</defs>
</svg>
