<svg width="399" height="153" viewBox="0 0 399 153" fill="none" xmlns="http://www.w3.org/2000/svg">
<g clip-path="url(#clip0_65_18360)">
<path d="M348.788 38.4282C351.917 28.7186 344.754 18.9046 334.608 19.0004L16.1062 22.0056C6.19194 22.0992 -1.03998 31.6332 1.56707 41.1729L28.1734 138.531C30.0693 145.469 36.6497 149.999 43.8367 149.315L311.611 123.814C317.648 123.239 322.799 119.087 324.667 113.291L348.788 38.4282Z" fill="black"/>
<path d="M361.336 71.3151C350.542 72.9446 332.575 67.6453 329.862 65.5805C310.999 82.1688 268.309 128.224 344.392 105.184C374.441 96.0848 393.515 63.3378 395.699 51.141C391.171 57.1335 380.853 68.3689 361.336 71.3151Z" fill="black"/>
<path d="M344.042 40.7241C347.388 30.947 340.188 20.9142 329.913 21.0359L20.7435 24.6963C10.7672 24.8144 3.54821 34.4763 6.29006 44.0408L31.3939 131.611C33.3531 138.445 39.8684 142.881 46.9751 142.22L308.133 117.921C314.084 117.367 319.191 113.335 321.135 107.655L344.042 40.7241Z" fill="white"/>
<path d="M360.511 75.587C351.918 77.6144 335.515 74.7097 333.625 72.899C316.828 87.0116 286.203 106.742 343.278 97.9004C368.648 93.9704 387.381 70.1047 390.541 59.6033C386.271 64.7259 379.068 71.2091 360.511 75.587Z" fill="white"/>
</g>
<defs>
<clipPath id="clip0_65_18360">
<rect width="394.408" height="128.421" fill="white" transform="matrix(0.998317 -0.0579942 0.0373655 0.999302 0.112305 23.7693)"/>
</clipPath>
</defs>
</svg>
