<svg width="327" height="93" viewBox="0 0 327 93" fill="none" xmlns="http://www.w3.org/2000/svg">
<path fill-rule="evenodd" clip-rule="evenodd" d="M83.5338 69.6063H317.715C322.133 69.6063 325.715 66.0246 325.715 61.6063V9.05664C325.715 4.63837 322.133 1.05664 317.715 1.05664H8.99999C4.58171 1.05664 1 4.63836 1 9.05664V61.6063C1 66.0246 4.58172 69.6063 9 69.6063H54.3249L47.834 91L83.5338 69.6063Z" fill="white"/>
<path d="M83.5338 69.6063L83.2767 69.1774L83.3954 69.1063H83.5338V69.6063ZM54.3249 69.6063V69.1063H54.9991L54.8033 69.7515L54.3249 69.6063ZM47.834 91L48.091 91.4289L46.9792 92.0951L47.3555 90.8548L47.834 91ZM83.5338 69.1063H317.715V70.1063H83.5338V69.1063ZM317.715 69.1063C321.857 69.1063 325.215 65.7485 325.215 61.6063H326.215C326.215 66.3007 322.409 70.1063 317.715 70.1063V69.1063ZM325.215 61.6063V9.05664H326.215V61.6063H325.215ZM325.215 9.05664C325.215 4.91451 321.857 1.55664 317.715 1.55664V0.556641C322.409 0.556641 326.215 4.36222 326.215 9.05664H325.215ZM317.715 1.55664H8.99999V0.556641H317.715V1.55664ZM8.99999 1.55664C4.85786 1.55664 1.5 4.9145 1.5 9.05664H0.5C0.5 4.36222 4.30557 0.556641 8.99999 0.556641V1.55664ZM1.5 9.05664V61.6063H0.5V9.05664H1.5ZM1.5 61.6063C1.5 65.7485 4.85786 69.1063 9 69.1063V70.1063C4.30558 70.1063 0.5 66.3007 0.5 61.6063H1.5ZM9 69.1063H54.3249V70.1063H9V69.1063ZM54.8033 69.7515L48.3124 91.1452L47.3555 90.8548L53.8464 69.4612L54.8033 69.7515ZM47.577 90.5711L83.2767 69.1774L83.7908 70.0352L48.091 91.4289L47.577 90.5711Z" fill="#BBBBBB"/>
</svg>
