<svg width="239" height="86" viewBox="0 0 239 86" fill="none" xmlns="http://www.w3.org/2000/svg">
<g clip-path="url(#clip0_376_5469)">
<path d="M210.535 70.0333L217.552 63.0418L191.066 48.7551L186.972 51.0008L176.38 63.2556L198.155 68.0564L191.59 75.1935L238.274 85.457L210.535 70.0333Z" fill="#231F20"/>
<ellipse cx="104.802" cy="39.6102" rx="104.802" ry="39.6102" transform="matrix(-1 -0.000114449 -8.35635e-05 1 210.593 0.962158)" fill="black"/>
<path d="M207.627 71.084L214.615 64.1208L191.603 51.7071L188.46 53.4306L180.494 62.647L202.399 67.4785L195.836 74.6115L225.836 81.2072L207.627 71.084Z" fill="white"/>
<ellipse cx="102.532" cy="36.7809" rx="102.532" ry="36.7809" transform="matrix(-1 -0.000112959 -8.48324e-05 1 206.052 3.38672)" fill="white"/>
</g>
<defs>
<clipPath id="clip0_376_5469">
<rect width="238.501" height="84.541" fill="white" transform="matrix(1 6.08264e-05 -3.91517e-05 1 0.503906 0.95166)"/>
</clipPath>
</defs>
</svg>
