<svg width="180" height="63" viewBox="0 0 180 63" fill="none" xmlns="http://www.w3.org/2000/svg">
<g clip-path="url(#clip0_376_5458)">
<path d="M19.4303 45.157L20.9948 52.4539L37.3222 39.2977L37.4113 35.6891L34.1201 24.0725L24.4924 37.3453L22.7033 30.3072L2.07844 58.7727L19.4303 45.157Z" fill="#231F20"/>
<path d="M29.5026 9.22014L176.828 0.406128L159.898 55.0049L25.4114 58.8097L29.5026 9.22014Z" fill="#231F20"/>
<path d="M19.7906 42.786L21.349 50.0526L35.5353 38.6224L35.6041 35.8521L33.1289 27.1157L23.4429 40.4663L21.6551 33.4315L8.40084 51.7246L19.7906 42.786Z" fill="white"/>
<path d="M167.538 4.14709L157.935 54.2894L28.8999 57.0865L32.2671 12.6499L167.538 4.14709Z" fill="white"/>
</g>
<defs>
<clipPath id="clip0_376_5458">
<rect width="177.246" height="54.3892" fill="white" transform="matrix(-0.998943 0.0459741 0.0296101 0.999562 177.478 0.12561)"/>
</clipPath>
</defs>
</svg>
