<svg width="92" height="156" viewBox="0 0 92 156" fill="none" xmlns="http://www.w3.org/2000/svg">
<g clip-path="url(#clip0_67_18644)">
<path fill-rule="evenodd" clip-rule="evenodd" d="M34.6761 64.1782C35.7239 64.1782 39.0286 63.6124 40.5601 63.4508C41.4467 63.2891 41.7691 63.3699 42.0916 62.6425C42.6558 61.6725 44.3484 57.3078 45.1545 56.6611L47.9756 62.7233C48.3786 63.4508 47.9756 62.9658 48.4592 63.2083L55.4716 64.1782L50.3131 69.5129L51.6833 76.5451C50.8773 76.1409 45.5575 73.3119 45.1545 73.3119C44.7514 73.2311 43.9454 73.716 43.5424 73.9585L38.7062 76.5451L39.6735 70.5637C39.9153 69.5938 39.9959 69.5938 39.2705 68.9471C38.2226 67.8964 35.3209 65.229 34.6761 64.1782ZM34.8373 45.2642L37.336 44.1326L39.2705 47.6083L42.2528 49.2249L46.2829 49.3865L50.2324 47.1233L52.5699 44.6176L54.585 45.2642V47.8508H63.2901C65.2246 47.8508 66.9979 48.2549 68.2875 48.9015C69.9802 49.7907 74.0103 52.2155 75.4612 53.5896C76.7508 54.8021 78.1211 55.6912 79.2495 57.1461C79.4913 57.4694 79.6525 57.5502 79.9749 57.9544C83.4409 61.9958 84.9723 68.543 83.7633 73.716C82.3124 79.9399 77.2344 85.5979 72.6401 89.2352C72.0758 89.7202 71.5922 90.2052 70.9474 90.6093C64.1768 95.2166 57.3255 86.1637 63.2095 80.9907C66.1918 78.2425 71.834 74.1202 71.834 69.5938C71.834 66.3606 67.8039 62.885 65.3052 61.5109C65.3052 62.0767 65.144 62.5616 64.9828 63.0466C63.2095 71.857 61.1138 81.6373 59.5824 90.3668C59.0988 93.4383 59.0182 92.1451 60.2272 95.7015L70.4638 126.74C71.3504 129.488 73.1237 134.661 73.8491 137.086C74.4133 139.349 76.9926 145.816 76.9926 147.594C76.9926 154.464 70.1414 158.102 64.5798 154.626C61.4363 152.686 60.7108 148.483 59.5824 145.007C58.2927 140.885 55.7134 133.853 54.6656 130.135C53.4566 125.77 51.1997 120.031 49.8294 115.343C49.0234 112.837 48.2174 110.493 47.4114 107.907C46.9277 106.613 46.6053 105.482 46.1217 104.189C45.8799 103.38 45.0739 101.279 44.9933 100.47L42.4946 107.988C41.6885 110.332 40.7213 112.999 39.9959 115.343C39.3511 117.93 38.4644 120.274 37.5778 122.779L29.0339 148.968C28.5503 150.342 28.3085 151.15 27.5024 152.282C24.6813 156.162 18.9585 156.727 15.4926 153.333C11.543 149.534 13.1551 145.654 14.5254 141.693L26.374 105.644C27.5024 102.249 28.5503 98.8539 29.7593 95.3782C30.8071 92.0642 30.9684 92.8725 30.4041 90.0435C28.8727 82.5264 27.583 74.6052 25.8904 67.1689C25.6486 66.1181 25.568 65.3098 25.3261 64.4207C25.1649 63.6124 24.8425 62.4 24.8425 61.5109C23.9559 61.9958 21.3766 64.0974 20.7318 64.744C17.9107 67.8964 17.4271 70.8062 20.2482 74.5243C21.2154 75.8176 22.1826 76.9492 23.3917 78.0808C23.7947 78.4041 23.8753 78.4041 24.2783 78.8083C24.6813 79.1316 24.7619 79.2124 25.1649 79.5357C25.8098 80.0207 26.5352 80.5057 27.0188 81.0715C31.5326 85.3554 28.1472 92.0642 22.7469 91.8217C19.2003 91.7409 13.9611 86.2445 11.7849 83.658C10.8176 82.5264 9.93099 81.314 9.12496 80.0207C6.78747 76.1409 5.98145 73.8777 5.98145 68.8663C5.98145 65.229 8.31893 59.9751 10.5758 57.5502C12.9939 54.9637 12.2685 55.8528 14.5254 53.7513C15.009 53.2663 15.5732 52.943 16.0568 52.5388C19.2003 50.1948 22.7469 47.8508 26.8576 47.8508H34.8373V45.2642Z" fill="white"/>
<path fill-rule="evenodd" clip-rule="evenodd" d="M63.6924 94.6508C63.6924 95.2974 64.0954 96.1865 64.2566 96.8332L75.2992 130.701C75.6216 130.539 79.2487 130.377 79.8936 130.296C81.425 130.054 82.7953 129.892 84.1655 129.569L89.9689 127.872C90.775 127.629 91.2586 127.387 91.984 127.225C91.9034 126.417 89.3241 118.899 88.8405 117.525L84.8104 105.32C84.5685 104.431 84.2461 103.623 84.0043 102.815L79.1681 88.1036C78.4427 88.2653 78.1203 88.9119 77.5561 89.3969C76.9113 89.8819 76.6695 90.2052 76.0246 90.8518C74.332 92.4684 71.1079 94.8933 68.6092 95.1358C65.1432 95.4591 65.1432 94.7316 63.6924 94.6508Z" fill="white"/>
<path fill-rule="evenodd" clip-rule="evenodd" d="M0.0166016 127.225L15.17 128.68C15.6536 127.629 16.1372 125.851 16.5402 124.558C17.1044 123.103 17.4268 121.809 17.9104 120.274L23.5527 103.219C24.0363 101.845 26.2932 95.3782 26.3738 94.6508C24.4393 95.0549 24.1169 95.3782 21.86 95.1357C20.1673 94.9741 18.8777 94.4083 17.7492 93.6808C15.573 92.2259 14.3639 90.8518 12.6713 89.4777C12.2682 89.1544 12.1876 88.9927 11.8652 88.7502L0.0166016 127.225Z" fill="white"/>
<path fill-rule="evenodd" clip-rule="evenodd" d="M51.3607 131.024C51.2801 130.216 46.2827 115.585 45.3961 112.756C45.2349 112.191 45.2349 111.948 44.8319 111.625C44.5901 112.756 44.0258 114.131 43.7034 115.181C42.172 119.789 40.5599 125.123 38.9478 129.488C38.303 131.266 39.4315 130.216 42.0914 130.62C44.7513 131.024 49.1038 130.539 51.3607 131.024Z" fill="white"/>
<path fill-rule="evenodd" clip-rule="evenodd" d="M44.0258 0C42.6555 0.646632 41.3659 1.29326 40.0762 1.9399C39.0284 2.42487 38.0612 2.90984 37.0133 3.31399C35.6431 3.96062 32.3383 5.5772 31.6129 6.87047C31.2905 7.35544 30.9681 7.84041 30.6457 8.32539C30.1621 9.05285 29.6785 9.86114 29.2754 10.7503C28.0664 13.0943 27.341 15.6808 27.0992 18.3482C27.0186 19.3181 27.0186 20.3689 27.0186 21.3389C27.0992 21.1772 27.2604 20.9347 27.4216 20.8539C27.8246 20.4497 28.2276 20.1264 28.6306 19.8031C29.0336 19.4798 29.5172 19.1565 29.9203 18.8332C30.1621 18.6715 30.4039 18.5098 30.6457 18.2674C31.0487 17.944 31.5323 17.6207 31.6935 17.1357C32.0965 16.2466 32.822 14.7917 33.7086 14.3067C34.031 14.0642 34.5146 13.9026 34.837 13.8218C35.4013 13.6601 35.9655 13.4176 36.5297 13.3368C37.0939 13.1751 37.6581 13.0135 38.2224 12.8518C38.6254 12.771 39.0284 12.6902 39.3508 12.6093C39.8344 12.5285 40.318 12.5285 40.6404 12.8518C40.8823 13.0135 40.9629 13.3368 41.0435 13.5793C41.0435 13.6601 41.0435 13.7409 41.0435 13.7409C41.1241 13.7409 41.2853 13.7409 41.2853 13.7409C41.5271 13.7409 41.7689 13.8218 41.9301 13.8218C42.2525 13.9026 42.6555 13.9026 42.9779 13.9834C43.4616 13.9834 44.0258 13.9834 44.5094 14.0642C45.1542 14.0642 45.7184 14.0642 46.2827 14.0642C46.6051 14.0642 47.0081 14.1451 47.3305 14.0642C47.4917 14.0642 47.6529 13.4176 47.6529 13.256C47.7335 13.0135 48.0559 12.9326 48.2977 12.9326C48.5395 12.8518 48.8619 12.8518 49.1038 12.8518C49.9098 12.8518 50.6352 12.9326 51.4412 12.9326C52.0055 13.0135 52.5697 13.0943 53.2145 13.1751C53.6175 13.1751 54.0205 13.256 54.5042 13.3368C55.2296 13.5793 55.8744 13.9026 56.358 14.3067C56.1968 13.7409 56.0356 12.6902 56.1162 11.4777C56.1968 9.69948 56.4386 8.32539 56.6804 8.40622C56.8416 8.40622 55.8744 12.6093 56.761 14.7917C57.0834 15.115 57.3253 15.4383 57.6477 15.8425C57.8895 16.2466 58.3731 16.5699 58.6955 16.8933C59.2597 17.2974 59.7433 17.7016 60.3076 18.1057C60.9524 18.5907 61.6778 19.0756 62.3226 19.5606C62.5644 19.7223 62.8063 19.8839 63.0481 20.1264C63.2093 20.2073 63.4511 20.3689 63.5317 20.5306C63.9347 20.9347 63.8541 22.228 63.7735 22.713C63.7735 23.9254 63.6123 25.057 63.4511 26.2694C63.3705 27.4819 63.2093 28.6135 63.0481 29.8259C62.8869 30.3917 62.8063 31.0383 62.7257 31.685C62.6451 31.8466 62.7257 32.0891 62.645 32.2508C62.645 32.5741 62.4838 32.8166 62.242 33.0591C61.839 33.4632 61.1942 33.8674 60.7912 34.1907C59.7433 34.8373 58.6149 35.4031 57.5671 35.8881C56.6804 36.2922 55.8744 36.6964 54.9878 37.0197C54.4235 37.2622 53.7787 37.5855 53.1339 37.7471C52.6503 37.9088 52.0861 37.9896 51.6024 37.7471C51.3606 37.5855 51.1188 37.4238 50.9576 37.1813C50.7158 36.9389 50.474 36.6964 50.2322 36.4539C49.8292 36.1306 48.4589 34.9181 47.4917 34.1098L47.4111 43.6477L50.7158 47.1233C50.9576 47.285 50.9576 47.4466 51.6024 47.0425C52.8921 46.2342 58.9373 43.3244 60.227 42.5161C60.3882 42.4352 60.4688 42.3544 60.63 42.2736C60.7912 42.1119 60.9524 41.9503 61.033 41.7078C61.839 40.3337 63.4511 30.4725 63.6929 28.371C63.7735 27.9668 63.7735 27.5627 63.8541 27.1585C64.4183 21.5813 63.7735 16.8124 61.436 11.7202C60.4688 9.53782 59.2597 7.43627 57.4059 5.90052C56.1162 4.93057 54.5848 4.20311 53.1339 3.55648C52.5697 3.31399 51.9249 3.0715 51.3606 2.82902C48.9425 1.85907 46.4439 0.889119 44.0258 0ZM28.7918 22.9554C28.7918 22.9554 31.0487 20.2881 33.3056 19.0756C35.5625 17.8632 39.109 16.5699 47.0887 16.6508C54.9878 16.7316 57.4865 18.5098 58.2925 18.914C59.0985 19.3181 60.9524 20.4497 60.9524 21.258C61.033 21.9855 60.1464 29.0176 60.1464 29.9876C60.1464 30.9575 60.227 31.3617 59.9851 31.685C59.7433 32.0891 56.761 33.7865 55.6326 34.2715C54.5848 34.6756 52.4085 35.7264 51.4412 34.8373C50.474 33.8674 48.5395 31.4425 47.9753 31.2808C47.4917 31.2 45.0736 31.0383 44.0258 31.0383C42.8973 31.0383 42.0913 31.2 41.6077 31.2808C41.1241 31.3617 40.8017 31.4425 40.5598 31.8466C40.318 32.3316 37.6581 35.0798 37.6581 35.0798C37.6581 35.0798 37.3357 35.5648 36.6103 35.4031C35.8849 35.2414 30.7263 32.7358 30.7263 32.7358C30.7263 32.7358 29.8397 32.5741 29.5978 31.5233C29.2754 30.3917 28.6306 26.1886 28.7918 22.9554ZM30.4845 22.3088C30.4845 22.3088 33.3862 19.399 37.5775 18.3482C41.6883 17.3782 48.6201 17.3782 50.7158 17.5399C52.7309 17.7016 54.746 18.6715 56.4386 19.4798C58.0507 20.2881 58.5343 20.8539 58.5343 21.4197C58.6149 21.9855 58.5343 30.9575 58.5343 30.9575C58.5343 30.9575 55.552 32.6549 54.1011 32.8974C52.7309 33.0591 52.0055 32.5741 50.7964 31.685C49.5874 30.8767 48.0559 29.8259 46.9275 29.7451C45.7184 29.7451 42.6555 29.6642 42.0913 29.8259C41.5271 29.9876 40.7211 30.4725 39.6732 31.4425C38.706 32.3316 37.8193 33.544 36.7715 33.3824C35.6431 33.1399 31.6129 31.685 31.6129 31.685C31.6129 31.685 30.5651 26.9969 30.4845 22.3088ZM27.4216 30.23C27.5828 31.4425 27.744 32.6549 27.9052 33.8674C28.147 35.6456 28.55 37.343 28.953 39.1212C29.2754 40.3337 29.7591 42.1927 30.6457 42.9202C31.0487 43.3243 31.6129 43.6477 32.0159 43.971C32.7414 44.3751 33.4668 44.8601 34.1922 45.2642C34.9982 45.83 35.8043 46.315 36.6103 46.8C36.9327 46.9617 37.2551 47.1233 37.5775 47.285C37.6581 47.3658 38.4642 47.6891 38.5448 47.6891C38.706 47.7699 40.9629 44.5368 41.7689 43.6477C41.6077 42.3544 41.4465 37.1813 41.3659 34.029C40.8823 34.514 40.1568 35.3223 39.915 35.5648C39.5926 35.9689 39.2702 36.3731 38.9478 36.6964C38.706 36.9389 38.3836 37.2622 38.1418 37.5047C37.9806 37.5855 37.8999 37.7471 37.7387 37.7471C37.1745 38.0705 36.5297 37.9896 35.9655 37.828C35.1595 37.6663 34.3534 37.343 33.628 37.1005C32.6608 36.6964 31.7741 36.2922 30.8069 35.8881C30.4039 35.6456 30.0009 35.4031 29.5172 35.1606C29.4366 35.1606 29.4366 35.0798 29.356 35.0798C28.953 34.9181 28.7918 34.6756 28.55 34.2715C28.3888 33.9482 28.3082 33.6249 28.147 33.2207C27.9858 32.6549 27.8246 32.0083 27.6634 31.3617C27.5828 30.9575 27.5022 30.5534 27.4216 30.23ZM41.7689 33.7865C41.8495 36.7772 42.0107 41.8694 42.1719 43.4052C43.0585 43.4052 46.0408 43.486 47.0081 43.486V33.7865C46.7663 33.544 46.6051 33.4632 46.4439 33.4632C45.8796 33.3016 42.5749 33.544 41.7689 33.7865ZM29.8397 11.3969C29.8397 11.3969 31.1293 8.00207 32.4996 6.70881C33.8698 5.41554 36.2879 4.36477 38.1418 3.47565C39.9956 2.58653 43.784 0.727461 43.784 0.727461C43.784 0.727461 48.7813 2.5057 51.0382 3.31399C53.2951 4.12228 55.7132 5.0114 57.0834 6.38549C58.4537 7.67876 59.8239 10.4269 59.8239 10.4269C59.8239 10.4269 58.3731 7.84041 57.3253 7.5171C56.2774 7.19378 55.2296 7.19378 54.1011 8.00207C52.9727 8.89119 52.0861 9.69948 51.7637 10.1845C51.3606 10.6694 50.2322 10.9119 49.668 10.6694C49.0232 10.4269 49.1844 9.94197 49.265 9.37616C49.3456 8.81036 49.668 6.95129 49.9904 6.22383C50.3128 5.41554 50.474 5.25389 50.5546 5.25389C50.6352 5.33471 50.7158 5.25389 50.6352 5.5772C50.474 5.90052 49.8292 7.67876 49.668 8.97202C49.5068 10.2653 49.668 10.4269 50.3934 10.4269C51.1994 10.4269 51.7637 9.45699 52.8921 8.40622C53.9399 7.43627 54.6654 7.03212 55.4714 6.87047C56.2774 6.78964 56.6804 6.87047 56.6804 6.87047C56.6804 6.87047 55.6326 5.98135 54.2623 5.5772C52.8115 5.25389 51.3606 4.93057 49.9098 4.68808C48.4589 4.52642 47.3305 4.52642 47.0887 4.36477C46.9275 4.20311 46.4439 3.55648 46.2827 3.63731C46.1214 3.71813 45.9602 3.71813 45.7184 4.60725C45.4766 5.5772 45.4766 6.54715 45.4766 7.11295C45.4766 7.67876 45.7184 7.92124 45.4766 7.92124C45.2348 7.92124 45.1542 7.19378 45.0736 6.46632C45.0736 5.73886 45.396 4.60725 45.4766 4.4456C45.4766 4.20311 45.6378 4.20311 44.993 4.20311C44.4288 4.20311 43.784 4.36477 43.4615 4.12228C43.1391 3.87979 42.8973 3.39482 42.6555 3.31399C42.4137 3.23316 42.2525 3.31399 42.2525 3.47565C42.2525 3.63731 42.1719 4.76891 42.4943 6.143C42.8973 7.43627 43.4616 8.00207 43.1391 8.16373C42.8973 8.24456 42.4137 7.03212 42.1719 6.38549C41.9301 5.73886 41.7689 4.4456 41.7689 4.4456C41.7689 4.4456 40.2374 4.60725 39.2702 4.76891C38.303 4.84974 36.2879 5.33471 35.1595 5.81969C34.031 6.30466 33.4668 6.38549 33.0638 6.87047C32.6608 7.27461 32.6608 7.35544 32.6608 7.35544C32.6608 7.35544 34.031 7.03212 35.1595 7.75958C36.2073 8.48705 37.5775 9.78031 37.8999 10.0228C38.2224 10.2653 38.4642 10.2653 38.7866 10.2653C39.1896 10.2653 38.9478 9.45699 38.9478 8.81036C38.9478 8.16373 38.8672 7.03212 38.9478 6.22383C38.9478 5.49637 39.0284 5.33471 39.1896 5.49637C39.2702 5.5772 39.109 6.06218 39.1896 8.0829C39.2702 10.0228 39.4314 10.3461 39.109 10.5886C38.8672 10.7503 38.4642 10.7503 38.0612 10.5886C37.5775 10.4269 36.8521 9.53782 36.2879 9.05285C35.6431 8.56787 34.7564 7.84041 34.2728 7.67876C33.7086 7.59793 32.9026 7.5171 32.5802 7.67876C32.2577 7.75958 31.4517 8.48705 29.8397 11.3969Z" fill="white"/>
<path fill-rule="evenodd" clip-rule="evenodd" d="M29.7585 34.8373C29.7585 34.8373 31.7736 35.9689 33.7887 36.7772C35.8037 37.5047 37.0934 37.9088 37.8994 37.2622C38.6248 36.6155 40.4787 34.2715 41.3653 33.6249L41.2847 31.7658C41.1235 31.8466 40.9623 31.9275 40.8817 32.0891C40.4787 32.5741 37.8188 35.6456 37.8188 35.6456C37.8188 35.6456 37.4964 36.0497 36.6904 35.8881C35.965 35.7264 29.7585 33.2207 29.5167 32.5741C29.2749 31.9275 28.7107 29.7451 28.3883 26.6736C28.1465 23.6021 27.8241 22.5513 28.4689 21.5813C28.4689 21.5813 31.5318 18.0249 36.6904 16.7316C41.7684 15.4383 48.8614 15.8425 52.1661 16.1658C55.4709 16.4083 59.7428 18.5907 60.71 19.4798C61.5967 20.3689 61.9997 21.0964 61.7579 21.6622C61.4355 22.1471 61.4355 21.6622 61.3549 22.6321C61.2743 23.6021 60.5488 30.3917 60.5488 31.1192C60.6294 31.7658 60.7907 31.8466 60.3876 32.1699C59.9846 32.4124 57.0023 34.2715 55.1484 35.0798C53.214 35.8072 52.2467 35.8881 51.5213 35.4839C50.7959 35.0798 47.9748 31.6041 47.733 31.6041C47.733 31.6041 47.5718 31.6041 47.4912 31.6041V33.6249C48.4584 34.3523 49.7481 35.6456 50.4735 36.2114C51.4407 37.0197 51.6019 37.9088 53.0528 37.4238C54.423 36.9389 58.4532 35.2414 60.5488 33.8673C62.6445 32.4933 62.2415 32.3316 62.3221 31.6041C62.4833 30.8767 63.9342 21.5005 63.2893 20.773C62.6445 20.0456 58.3726 17.4591 57.3247 16.085C56.3575 14.7109 55.7127 14.0642 54.423 13.7409C53.0528 13.4176 48.136 13.0135 48.0554 13.4176C47.8942 13.7409 47.8136 14.4684 47.33 14.4684C46.7657 14.4684 42.8162 14.3876 41.849 14.2259C40.9623 13.9834 40.8817 14.3067 40.7205 13.7409C40.4787 13.0943 40.4787 12.8518 39.4309 13.0135C38.383 13.0943 34.5947 14.1451 33.8693 14.63C33.0632 15.0342 32.3378 16.6508 32.0154 17.2166C31.7736 17.7824 31.2094 18.2673 30.8064 18.5907C30.4034 18.914 27.1792 21.1772 27.0986 21.8238C27.0986 22.5513 27.0986 27.401 27.9853 31.2808C28.9525 35.0798 29.2749 34.514 29.7585 34.8373ZM41.2847 18.429C41.2847 18.429 43.461 18.1865 44.9119 18.1865C46.3627 18.1057 47.2494 18.1057 47.2494 18.1057C47.2494 18.1057 45.5567 19.7223 44.8313 20.6114C44.0252 21.5813 43.1386 22.5513 43.1386 22.5513C43.1386 22.5513 43.5416 22.5513 43.9446 22.5513C44.2671 22.5513 44.7507 22.5513 44.7507 22.5513C44.7507 22.5513 37.577 32.5741 37.4964 32.6549C37.4158 32.7357 37.0128 32.9782 37.3352 32.0891C37.6576 31.2 40.1563 25.7844 40.1563 25.7844C40.1563 25.7844 40.3175 25.542 39.9951 25.542C39.6727 25.542 38.7055 25.4611 38.7055 25.4611L41.2847 18.429ZM41.7684 33.3824C42.8162 33.1399 45.9597 32.9782 46.5239 33.0591C46.6851 33.1399 46.8463 33.2207 47.0076 33.3015V31.6041C46.0403 31.6041 44.3477 31.6041 43.7834 31.6041C43.2998 31.6041 42.4132 31.6041 41.7684 31.685V33.3824ZM50.7959 14.2259C50.7959 14.2259 53.1334 14.5492 53.8588 14.7109C54.5036 14.8725 54.9872 15.115 54.9066 15.1958C54.9066 15.2767 54.1812 15.115 53.3752 15.115C52.5692 15.0342 51.0377 14.8725 51.0377 14.8725C51.0377 14.8725 49.9899 14.0642 50.7959 14.2259ZM34.8365 15.9233C34.8365 15.9233 37.8188 14.8725 38.3024 14.7109C38.7055 14.4684 39.3503 14.3876 38.7055 14.9534C37.98 15.6 37.6576 15.5192 36.9322 15.6808C36.2068 15.8425 34.4335 16.4083 34.5947 16.3275C34.7559 16.1658 34.8365 15.9233 34.8365 15.9233Z" fill="#FEFEFE"/>
</g>
<defs>
<clipPath id="clip0_67_18644">
<rect width="92" height="156" fill="white"/>
</clipPath>
</defs>
</svg>
