<svg width="314" height="92" viewBox="0 0 314 92" fill="none" xmlns="http://www.w3.org/2000/svg">
<path fill-rule="evenodd" clip-rule="evenodd" d="M233.698 69.0001H9C4.58173 69.0001 1 65.4184 1 61.0001V9.00012C1 4.58184 4.58173 1.00012 9 1.00012H305C309.418 1.00012 313 4.58184 313 9.00012V61.0001C313 65.4184 309.418 69.0001 305 69.0001H261.763L268 90.2222L233.698 69.0001Z" fill="white"/>
<path d="M233.698 69.0001L233.961 68.5749L233.84 68.5001H233.698V69.0001ZM261.763 69.0001V68.5001H261.095L261.284 69.1411L261.763 69.0001ZM268 90.2222L267.737 90.6474L268.848 91.3349L268.48 90.0812L268 90.2222ZM233.698 68.5001H9V69.5001H233.698V68.5001ZM9 68.5001C4.85788 68.5001 1.5 65.1423 1.5 61.0001H0.5C0.5 65.6945 4.30557 69.5001 9 69.5001V68.5001ZM1.5 61.0001V9.00012H0.5V61.0001H1.5ZM1.5 9.00012C1.5 4.85799 4.85788 1.50012 9 1.50012V0.500122C4.30557 0.500122 0.5 4.30569 0.5 9.00012H1.5ZM9 1.50012H305V0.500122H9V1.50012ZM305 1.50012C309.142 1.50012 312.5 4.85799 312.5 9.00012H313.5C313.5 4.30569 309.694 0.500122 305 0.500122V1.50012ZM312.5 9.00012V61.0001H313.5V9.00012H312.5ZM312.5 61.0001C312.5 65.1423 309.142 68.5001 305 68.5001V69.5001C309.694 69.5001 313.5 65.6945 313.5 61.0001H312.5ZM305 68.5001H261.763V69.5001H305V68.5001ZM261.284 69.1411L267.52 90.3631L268.48 90.0812L262.243 68.8591L261.284 69.1411ZM268.263 89.797L233.961 68.5749L233.435 69.4253L267.737 90.6474L268.263 89.797Z" fill="#BBBBBB"/>
</svg>
