<svg width="327" height="93" viewBox="0 0 327 93" fill="none" xmlns="http://www.w3.org/2000/svg">
<path fill-rule="evenodd" clip-rule="evenodd" d="M243.466 23.3937H9.28525C4.86697 23.3937 1.28525 26.9754 1.28525 31.3937V83.9434C1.28525 88.3616 4.86697 91.9434 9.28525 91.9434H318C322.418 91.9434 326 88.3616 326 83.9434V31.3937C326 26.9754 322.418 23.3937 318 23.3937H272.675L279.166 2L243.466 23.3937Z" fill="white"/>
<path d="M243.466 23.3937L243.723 23.8226L243.605 23.8937H243.466V23.3937ZM272.675 23.3937V23.8937H272.001L272.197 23.2485L272.675 23.3937ZM279.166 2L278.909 1.57111L280.021 0.904855L279.644 2.14517L279.166 2ZM243.466 23.8937H9.28525V22.8937H243.466V23.8937ZM9.28525 23.8937C5.14313 23.8937 1.78525 27.2515 1.78525 31.3937H0.785248C0.785248 26.6993 4.59082 22.8937 9.28525 22.8937V23.8937ZM1.78525 31.3937V83.9434H0.785248V31.3937H1.78525ZM1.78525 83.9434C1.78525 88.0855 5.14313 91.4434 9.28525 91.4434V92.4434C4.59082 92.4434 0.785248 88.6378 0.785248 83.9434H1.78525ZM9.28525 91.4434H318V92.4434H9.28525V91.4434ZM318 91.4434C322.142 91.4434 325.5 88.0855 325.5 83.9434H326.5C326.5 88.6378 322.694 92.4434 318 92.4434V91.4434ZM325.5 83.9434V31.3937H326.5V83.9434H325.5ZM325.5 31.3937C325.5 27.2515 322.142 23.8937 318 23.8937V22.8937C322.694 22.8937 326.5 26.6993 326.5 31.3937H325.5ZM318 23.8937H272.675V22.8937H318V23.8937ZM272.197 23.2485L278.688 1.85483L279.644 2.14517L273.154 23.5388L272.197 23.2485ZM279.423 2.42889L243.723 23.8226L243.209 22.9648L278.909 1.57111L279.423 2.42889Z" fill="#BBBBBB"/>
</svg>
