<svg width="383" height="137" viewBox="0 0 383 137" fill="none" xmlns="http://www.w3.org/2000/svg">
<g clip-path="url(#clip0_65_18350)">
<path d="M337.554 111.994L348.839 100.749L306.241 77.7711L299.657 81.383L282.62 101.093L317.643 108.815L307.083 120.294L382.168 136.801L337.554 111.994Z" fill="#231F20"/>
<ellipse cx="168.561" cy="63.7078" rx="168.561" ry="63.7078" transform="matrix(-1 -0.000114449 -8.35635e-05 1 337.646 0.9021)" fill="black"/>
<path d="M332.876 113.684L344.115 102.485L307.104 82.5189L302.049 85.2909L289.236 100.114L324.467 107.885L313.911 119.358L362.164 129.966L332.876 113.684Z" fill="white"/>
<ellipse cx="164.91" cy="59.1572" rx="164.91" ry="59.1572" transform="matrix(-1 -0.000112959 -8.48324e-05 1 330.344 4.802)" fill="white"/>
</g>
<defs>
<clipPath id="clip0_65_18350">
<rect width="382.124" height="135.976" fill="white" transform="matrix(1 6.08264e-05 -3.91517e-05 1 0.505859 0.885254)"/>
</clipPath>
</defs>
</svg>
