<svg width="281" height="152" viewBox="0 0 281 152" fill="none" xmlns="http://www.w3.org/2000/svg">
<g clip-path="url(#clip0_65_18345)">
<path d="M28.8394 119.139L35.1077 135.16L77.9248 93.3774L62.2363 93.3772L50.5958 68.0719L36.1106 100.314L28.8394 88.8342L-1.53426 154.073L28.8394 119.139Z" fill="#231F20"/>
<ellipse cx="132.145" cy="58.1343" rx="132.145" ry="58.1343" transform="matrix(1 -1.58897e-06 -9.9673e-07 1 16.3857 0.446045)" fill="black"/>
<path d="M28.6059 113.718L34.8491 129.672L70.2915 92.2183L65.0438 80.5293L49.7994 75.1626L35.2255 107.594L28.6059 95.3596L8.66922 136.652L28.6059 113.718Z" fill="white"/>
<ellipse cx="151.393" cy="57.9873" rx="129.283" ry="53.9819" fill="white"/>
</g>
<defs>
<clipPath id="clip0_65_18345">
<rect width="280.998" height="150.644" fill="white" transform="matrix(-1 -6.08264e-05 -3.91517e-05 1 281.006 0.465576)"/>
</clipPath>
</defs>
</svg>
