<svg width="24" height="24" viewBox="0 0 24 24" fill="none" xmlns="http://www.w3.org/2000/svg">
<path d="M2.53745 1.2439C2.16292 1.18289 1.79463 1.26995 1.53723 1.5233C1.27983 1.77665 1.18693 2.14351 1.242 2.51896C1.29684 2.89288 1.49416 3.26151 1.78011 3.55203L20.9477 23.0262C21.2337 23.3167 21.5991 23.5199 21.9721 23.5807C22.3467 23.6417 22.7149 23.5546 22.9723 23.3013C23.2297 23.0479 23.3226 22.6811 23.2676 22.3056C23.2127 21.9317 23.0154 21.5631 22.7295 21.2725L3.56185 1.79834C3.2759 1.50782 2.91045 1.30467 2.53745 1.2439Z" fill="#8C8C8C" stroke="#8C8C8C" stroke-width="0.5"/>
<path d="M23.299 2.52093C23.3547 2.14559 23.2624 1.77861 23.0055 1.52482C22.7485 1.27103 22.3804 1.18331 22.0058 1.24365C21.6327 1.30374 21.2669 1.50622 20.9805 1.79622L1.78197 21.2345C1.49555 21.5245 1.29762 21.8927 1.24216 22.2665C1.18648 22.6419 1.27876 23.0088 1.53572 23.2626C1.79267 23.5164 2.16077 23.6041 2.53539 23.5438C2.90848 23.4837 3.27425 23.2812 3.56067 22.9912L22.7592 3.55298C23.0456 3.26299 23.2436 2.89474 23.299 2.52093Z" fill="#8C8C8C" stroke="#8C8C8C" stroke-width="0.5"/>
</svg>
