<svg width="172" height="71" viewBox="0 0 172 71" fill="none" xmlns="http://www.w3.org/2000/svg">
<path d="M157.356 22.884C149.619 22.884 143.347 28.5871 143.347 35.6212C143.347 42.6579 149.619 48.361 157.356 48.361C165.09 48.361 171.362 42.6579 171.362 35.6212C171.362 28.5871 165.09 22.884 157.356 22.884ZM157.356 42.5737C153.794 42.5737 150.906 39.4618 150.906 35.6212C150.906 31.7832 153.794 28.6686 157.356 28.6686C160.918 28.6686 163.806 31.7832 163.806 35.6212C163.806 39.4618 160.918 42.5737 157.356 42.5737Z" fill="#FF0009"/>
<path d="M140.096 34.1743C140.123 47.0193 134.822 58.5043 117.147 58.5043C104.012 58.5043 93.3638 48.1268 93.3638 35.3213C93.3638 22.5183 104.012 12.1382 117.147 12.1382C124.371 12.1382 130.591 14.9634 134.725 19.6353L127.439 25.9328C125.083 22.9313 121.424 21.2767 117.147 21.2767C109.647 21.2767 103.567 27.6532 103.567 35.5185C103.567 43.3839 109.647 49.7577 117.147 49.7577C122.625 49.7577 126.02 47.6796 127.979 44.5177C128.351 43.9126 128.548 43.2182 128.548 42.5106V42.0686H116.113V34.1743H140.096Z" fill="#FF0009"/>
<path d="M28.4244 15.8289H0V21.8239H10.4247V47.9584H17.9997V21.8239H28.4244V15.8289ZM78.5484 23.439H68.0265H60.7214V47.9584H68.0265V29.2894H78.5484V47.9584H85.8508V23.439H78.5484ZM41.904 22.884C34.1671 22.884 27.8955 28.587 27.8955 35.6211C27.8955 42.6579 34.1671 48.3609 41.904 48.3609C49.6382 48.3609 55.9098 42.6579 55.9098 35.6211C55.9098 28.587 49.6382 22.884 41.904 22.884ZM41.904 42.5737C38.3418 42.5737 35.4543 39.4618 35.4543 35.6211C35.4543 31.7832 38.3418 28.6686 41.904 28.6686C45.4662 28.6686 48.3537 31.7832 48.3537 35.6211C48.3537 39.4618 45.4662 42.5737 41.904 42.5737Z" fill="black"/>
<path d="M97.749 54.2429L90.3764 62.2134L88.7653 53.5063L97.749 54.2429ZM93.5095 17.0074C93.5095 17.0074 102.852 6.10109 117.702 6.10109C131.757 6.10109 139.302 13.9191 139.302 13.9191L142.214 11.3122C142.214 11.3122 132.367 0.0639648 115.479 0.0639648C98.5909 0.0639648 89.6963 9.50765 87.9503 11.0044L93.5095 17.0074ZM138.754 17.936L146.766 10.573L147.649 19.3801L138.754 17.936ZM142.924 51.5965C142.924 51.5965 134.518 63.2025 119.716 64.3757C105.707 65.4858 97.5385 58.2887 97.5385 58.2887L94.8534 61.1165C94.8534 61.1165 105.602 71.5519 122.433 70.2182C139.264 68.8845 147.347 58.77 148.963 57.1417L142.924 51.5965Z" fill="black"/>
</svg>
