<svg width="103" height="32" viewBox="0 0 103 32" fill="none" xmlns="http://www.w3.org/2000/svg">
<g clip-path="url(#clip0_118_1178)">
<path fill-rule="evenodd" clip-rule="evenodd" d="M0.0462341 27.0161V4.90271C0.0462341 3.83932 0.312527 2.93394 0.840817 2.14814C1.07704 1.80222 1.33045 1.4691 1.66117 1.20432C2.503 0.529561 3.3663 0 4.58609 0H98.1622C98.7463 0 99.5366 0.26478 99.9403 0.465501C100.469 0.730282 100.829 0.995062 101.225 1.38796C101.968 2.12679 102.62 3.32257 102.62 4.43294V27.4859C102.62 29.8006 100.404 32 98.0806 32H4.58609C3.86453 32 3.18162 31.7395 2.68339 31.4918C2.03054 31.1672 2.03913 31.0903 1.61822 30.7572L1.05557 30.1551C0.351182 29.2155 0.0462341 28.3059 0.0462341 27.0161ZM80.6084 10.8005L82.0171 10.8218L81.9871 19.2051L80.6041 19.1966L80.6084 10.8005ZM38.139 16.6641C38.5985 18.8976 42.1248 18.3296 41.5535 15.6733C41.0811 13.4611 37.5849 13.9907 38.139 16.6641ZM46.7677 14.3152C44.5214 14.6355 44.8693 18.4706 47.3905 18.0222C49.4865 17.6463 49.1987 13.9736 46.7677 14.3152ZM53.919 14.328C51.5996 14.7466 52.1838 18.1375 54.7007 17.672C56.8396 17.2791 56.4144 13.8753 53.919 14.328ZM63.4454 15.6776L66.7397 15.6733C66.7354 14.8491 65.9494 14.2298 65.099 14.2298C64.2614 14.2255 63.4067 14.879 63.4454 15.6776ZM74.11 15.6562C75.6777 15.6519 77.7178 15.9552 77.7178 14.0846C77.7135 12.2397 75.6476 12.5429 74.1186 12.5258L74.11 15.6562ZM87.3988 16.6128C86.8662 16.6128 85.8311 16.553 85.3716 16.6854C84.6285 16.899 84.6972 17.6591 85.028 17.9624C85.4618 18.3595 87.5964 18.5731 87.3988 16.6128ZM59.2921 10.7919L60.6836 10.8133V19.1966L59.2749 19.2009L59.2921 10.7919ZM46.2695 13.1664C48.2023 12.7137 49.7614 13.8583 50.1307 15.3786C50.6032 17.3388 49.3791 18.8549 47.8544 19.1923C43.5121 20.1489 42.2837 14.0932 46.2695 13.1664ZM39.0323 13.1835C40.9565 12.7095 42.5371 13.8241 42.9236 15.3188C43.4262 17.2662 42.2236 18.8336 40.7074 19.1838C36.3737 20.1831 35.068 14.1658 39.0323 13.1835ZM67.6846 18.2784C67.0274 19.3418 64.7897 19.5639 63.4797 18.825C62.3759 18.2015 61.5427 16.6128 62.2599 14.879C62.7582 13.6789 64.1798 12.7009 65.9794 13.192C67.6073 13.6319 68.4061 15.4598 68.0582 16.6342L63.4325 16.6385C63.5484 17.3858 64.124 17.877 64.8498 18.0179C65.9666 18.2314 66.3961 17.7915 66.9458 17.4371C67.1649 17.5823 67.5171 18.0649 67.6846 18.2784ZM56.0364 18.1759C55.3836 18.8677 53.8588 19.171 52.7035 18.6457C49.7098 17.2833 50.9812 12.4404 54.705 13.1323C55.4909 13.2817 55.667 13.5422 56.1137 13.8839L56.1524 13.1451H57.4323C57.5612 13.696 57.4667 16.237 57.4667 16.9887C57.4667 18.1631 57.5697 19.4101 56.9641 20.3027C55.6842 22.1946 52.085 21.4301 51.3462 20.5931L51.9819 19.5681C52.3384 19.7432 52.6906 19.9909 53.163 20.119C54.6148 20.5077 56.3113 20.1532 56.0364 18.1759ZM72.6582 11.2831C73.3283 11.1891 76.193 11.2318 76.8373 11.3599C79.715 11.9194 79.861 15.2633 77.9197 16.4292C76.8888 17.0484 75.4242 16.9032 74.1143 16.9161L74.0885 19.2051L72.6411 19.1966L72.6582 11.2831ZM83.6106 13.8241C84.7531 12.8931 87.1583 12.7436 88.2192 13.8241C88.8205 14.4391 88.8291 15.1907 88.8248 16.2157C88.8248 16.8563 88.9064 18.6969 88.799 19.2051L87.5062 19.1838L87.4718 18.5175C87.2055 19.3631 83.9327 19.9012 83.4517 17.8812C83.194 16.7965 83.8425 16.1217 84.5469 15.8527C85.2857 15.5708 86.5613 15.6519 87.416 15.6562C87.3945 14.7508 86.9951 14.328 86.1146 14.2768C85.0838 14.2085 84.7917 14.5587 84.1174 14.8448L83.6106 13.8241ZM89.9372 19.9012C90.444 20.0977 91.2901 20.8023 91.9387 19.6023C92.1921 19.1325 91.9988 18.966 91.8098 18.5133C91.6552 18.146 91.5006 17.7873 91.346 17.4328C91.0195 16.694 90.7404 16.0064 90.4182 15.2719C90.2293 14.8362 89.5979 13.4953 89.5335 13.1451H90.9723L92.8492 17.5524C93.3174 16.6342 94.4083 13.7259 94.7433 13.1451H96.0276C96.019 13.4483 94.0304 17.9197 93.7469 18.5944C93.3389 19.5639 93.0124 20.5675 92.3124 21.0799C91.4619 21.7035 90.109 21.5497 89.3831 20.9091L89.9372 19.9012ZM35.3901 15.1523C35.4374 15.6818 35.403 16.378 35.403 16.9246C35.403 17.5951 35.5147 18.2314 35.214 18.4535C34.5655 18.9318 33.5476 19.2692 32.5597 19.3034C30.3478 19.3888 28.8359 18.1588 28.3205 16.5146C27.3412 13.4013 29.9183 10.6638 33.2254 11.2233C34.3937 11.424 34.8533 11.8511 35.4846 12.3977C35.3343 12.6924 34.8318 13.1792 34.5956 13.333C34.1489 13.0767 33.9642 12.765 33.2813 12.5771C31.7179 12.15 29.9569 12.8888 29.6477 14.691C29.2096 17.2364 31.7651 18.7909 34.0114 17.6122L34.0372 15.1352L35.3901 15.1523ZM16.1355 16.5146C16.4533 16.6513 17.0288 17.3517 17.3467 17.6549C17.5872 17.877 18.4161 18.5773 18.5192 18.8037L15.7231 20.4265C15.0918 20.781 7.58833 24.962 7.25332 25.0516L16.1355 16.5146ZM19.3653 13.4312L21.3969 14.5843C22.316 15.1181 23.1579 15.3829 22.9775 16.0705C22.8873 16.4249 22.4148 16.5787 22.0927 16.7709C21.5644 17.0826 19.331 18.3937 19.069 18.4663C18.4462 17.7787 17.0933 16.6299 16.6165 16.0491L19.3653 13.4312ZM6.52316 7.26438C6.64772 7.30282 7.51961 8.19111 7.66564 8.3235C7.8761 8.51995 8.03931 8.67797 8.24977 8.87015L9.98067 10.5314C10.1868 10.7193 10.3372 10.9201 10.539 11.1037C10.7495 11.3001 10.917 11.4582 11.1274 11.6503L12.2699 12.7693C12.678 13.1451 13.043 13.4782 13.4425 13.8583C13.8118 14.2085 15.6029 15.9423 15.6888 16.1132C15.0832 16.5659 13.0001 18.6756 12.227 19.4272L8.79524 22.7284C8.41298 23.1128 8.01783 23.4502 7.62269 23.8217C7.32204 24.1036 6.82381 24.7015 6.51027 24.868L6.52316 7.26438ZM13.8548 13.4483C13.6486 13.2433 13.5069 13.0682 13.3007 12.876C13.0989 12.6881 12.94 12.5429 12.7424 12.3593C12.5577 12.1884 7.24902 7.11491 7.15883 6.94835C7.57974 7.08074 9.54257 8.15695 10.1482 8.44735C10.917 8.8189 18.1713 12.5472 18.7554 13.1024C18.6781 13.2262 16.3631 15.464 16.1355 15.605L13.8548 13.4483Z" fill="black"/>
</g>
<defs>
<clipPath id="clip0_118_1178">
<rect width="102.667" height="32" fill="white"/>
</clipPath>
</defs>
</svg>
