<svg width="129" height="54" viewBox="0 0 129 54" fill="none" xmlns="http://www.w3.org/2000/svg">
<path d="M118.017 17.5359C112.214 17.5359 107.511 21.9183 107.511 27.3237C107.511 32.731 112.214 37.1134 118.017 37.1134C123.818 37.1134 128.521 32.731 128.521 27.3237C128.521 21.9183 123.818 17.5359 118.017 17.5359ZM118.017 32.6663C115.345 32.6663 113.18 30.2749 113.18 27.3237C113.18 24.3744 115.345 21.981 118.017 21.981C120.689 21.981 122.854 24.3744 122.854 27.3237C122.854 30.2749 120.689 32.6663 118.017 32.6663Z" fill="#FF0009"/>
<path d="M105.072 26.2119C105.092 36.0825 101.117 44.9081 87.86 44.9081C78.0094 44.9081 70.0228 36.9336 70.0228 27.0932C70.0228 17.2549 78.0094 9.27838 87.86 9.27838C93.2781 9.27838 97.9433 11.4494 101.044 15.0395L95.5793 19.8788C93.8124 17.5723 91.0679 16.3008 87.86 16.3008C82.2354 16.3008 77.6754 21.2008 77.6754 27.2449C77.6754 33.2889 82.2354 38.1869 87.86 38.1869C91.9686 38.1869 94.5147 36.5899 95.9841 34.1602C96.2634 33.6952 96.4112 33.1616 96.4112 32.6178V32.2782H87.0848V26.2119H105.072Z" fill="#FF0009"/>
<path d="M21.3183 12.1144H0V16.7213H7.81854V36.8042H13.4998V16.7213H21.3183V12.1144ZM58.9113 17.9624H51.0199H45.541V36.8042H51.0199V22.4581H58.9113V36.8042H64.3881V17.9624H58.9113ZM31.428 17.5359C25.6253 17.5359 20.9216 21.9184 20.9216 27.3237C20.9216 32.731 25.6253 37.1135 31.428 37.1135C37.2287 37.1135 41.9323 32.731 41.9323 27.3237C41.9323 21.9184 37.2287 17.5359 31.428 17.5359ZM31.428 32.6663C28.7564 32.6663 26.5907 30.275 26.5907 27.3237C26.5907 24.3744 28.7564 21.981 31.428 21.981C34.0996 21.981 36.2653 24.3744 36.2653 27.3237C36.2653 30.275 34.0996 32.6663 31.428 32.6663Z" fill="black"/>
<path d="M73.3118 41.6334L67.7823 47.7583L66.574 41.0674L73.3118 41.6334ZM70.1321 13.02C70.1321 13.02 77.1391 4.63918 88.2769 4.63918C98.8177 4.63918 104.477 10.6469 104.477 10.6469L106.66 8.64363C106.66 8.64363 99.2751 0 86.6091 0C73.9432 0 67.2723 7.25693 65.9628 8.40713L70.1321 13.02ZM104.066 13.7336L110.075 8.07561L110.737 14.8434L104.066 13.7336ZM107.193 39.5998C107.193 39.5998 100.888 48.5184 89.7868 49.4199C79.2804 50.273 73.1539 44.7423 73.1539 44.7423L71.14 46.9154C71.14 46.9154 79.2015 54.9344 91.8249 53.9095C104.448 52.8846 110.51 45.1122 111.722 43.861L107.193 39.5998Z" fill="black"/>
</svg>
