<svg width="180" height="72" viewBox="0 0 180 72" fill="none" xmlns="http://www.w3.org/2000/svg">
<path fill-rule="evenodd" clip-rule="evenodd" d="M9 71C4.58172 71 1 67.4183 1 63V9C1 4.58172 4.58172 1 9 1H145C149.418 1 153 4.58172 153 9V26.685L178 32.7931L153 39.8502V63C153 67.4183 149.418 71 145 71H9Z" fill="white"/>
<path d="M153 26.685L152.881 27.1707L152.5 27.0775V26.685H153ZM178 32.7931L178.119 32.3074L179.964 32.7583L178.136 33.2743L178 32.7931ZM153 39.8502H152.5V39.4718L152.864 39.3691L153 39.8502ZM1.5 63C1.5 67.1421 4.85786 70.5 9 70.5V71.5C4.30558 71.5 0.5 67.6944 0.5 63H1.5ZM1.5 9V63H0.5V9H1.5ZM9 1.5C4.85786 1.5 1.5 4.85786 1.5 9H0.5C0.5 4.30557 4.30558 0.5 9 0.5V1.5ZM145 1.5H9V0.5H145V1.5ZM152.5 9C152.5 4.85786 149.142 1.5 145 1.5V0.5C149.694 0.5 153.5 4.30557 153.5 9H152.5ZM152.5 26.685V9H153.5V26.685H152.5ZM177.882 33.2788L152.881 27.1707L153.119 26.1993L178.119 32.3074L177.882 33.2788ZM152.864 39.3691L177.864 32.3119L178.136 33.2743L153.136 40.3314L152.864 39.3691ZM152.5 63V39.8502H153.5V63H152.5ZM145 70.5C149.142 70.5 152.5 67.1421 152.5 63H153.5C153.5 67.6944 149.694 71.5 145 71.5V70.5ZM9 70.5H145V71.5H9V70.5Z" fill="#BBBBBB"/>
</svg>
