<svg width="179" height="60" viewBox="0 0 179 60" fill="none" xmlns="http://www.w3.org/2000/svg">
<g clip-path="url(#clip0_376_139)">
<path d="M25.1995 25.9543C21.4493 16.3677 28.2489 5.93893 38.5336 5.50341L162.909 0.23653C172.889 -0.186096 180.486 9.08122 178.115 18.7846L171.957 43.9785C170.265 50.902 163.935 55.6786 156.813 55.406L44.7114 51.1141C38.7494 50.8858 33.4894 47.1458 31.3158 41.5894L25.1995 25.9543Z" fill="black"/>
<path d="M29.7313 51.5616C42.2992 45.8572 44.0749 39.9588 44.4088 38.504C62.0497 37.7348 96.9691 44.1758 71.9123 52.546C43.3936 62.0728 10.6111 59.6578 3.48112 56.6433C8.71107 57.0659 23.529 54.3767 29.7313 51.5616Z" fill="black"/>
<path d="M28.6186 28.5843C24.5217 18.9232 31.3566 8.14945 41.8424 7.73987L160.171 3.11789C170.253 2.72409 177.841 12.1957 175.257 21.9484L170.134 41.2849C168.34 48.0535 162.103 52.6808 155.105 52.4336L46.5126 48.598C40.6869 48.3923 35.5079 44.83 33.232 39.4632L28.6186 28.5843Z" fill="white"/>
<path d="M33.4006 51.4199C38.6019 49.2297 46.7633 42.2261 46.8652 41.0188C62.199 39.6846 77.6341 46.483 55.6584 53.3262C38.6139 58.6337 15.9189 59.0328 9.2864 56.8428C13.9175 56.9813 23.0264 55.7884 33.4006 51.4199Z" fill="white"/>
</g>
<defs>
<clipPath id="clip0_376_139">
<rect width="177.6" height="59.2815" fill="white" transform="matrix(-1 3.59349e-05 -6.62715e-05 -1 178.538 59.4216)"/>
</clipPath>
</defs>
</svg>
