<svg width="41" height="37" viewBox="0 0 41 37" fill="none" xmlns="http://www.w3.org/2000/svg">
<path d="M6.38187 0C2.85698 0 0 2.77499 0 6.19873V18.5954C0 22.0191 2.85698 24.7941 6.38187 24.7941H19.1448C22.6697 24.7941 25.5267 22.0191 25.5267 18.5954V0H6.38187Z" fill="#B4FF0A"/>
<path d="M6.97707 9.90053C6.76825 9.01402 7.67939 8.2293 8.85722 8.2293C9.91852 8.2293 10.9822 8.46024 11.3873 9.89749H12.7474V12.0914C11.051 10.7369 7.37359 11.5862 6.97707 9.90053ZM21.0931 9.29357H18.0288L15.1132 12.3945V6.19877H12.7474V7.69983C12.6707 7.6026 12.5886 7.50688 12.4979 7.41268C11.6376 6.52845 10.3979 6.08026 8.81343 6.08026C6.98098 6.08026 5.93923 6.87637 5.38786 7.54486C4.70275 8.3744 4.39695 9.50627 4.6089 10.4285C5.15714 12.8168 7.43851 13.1982 9.11453 13.4101C10.4378 13.5772 11.7033 13.8104 11.6696 14.956C11.6344 16.1448 10.2548 16.4373 9.34916 16.4373C6.99115 16.4373 6.91138 14.744 6.91138 14.744H4.37427C4.41181 15.3799 4.60968 16.4008 5.41523 17.2767C6.29821 18.2361 7.62152 18.7231 9.34916 18.7231C10.6748 18.7231 11.8824 18.3038 12.7474 17.5585V18.5825H15.1132V15.6571L15.95 14.7676L18.3393 18.5825H21.0923L17.6159 12.9961L21.0931 9.29357Z" fill="#4D5759"/>
<path d="M1.32023 34.8953C1.43331 34.9321 1.56533 34.9505 1.7163 34.9505C1.90514 34.9505 2.05554 34.8953 2.16918 34.7855C2.28227 34.6757 2.35747 34.529 2.39535 34.364L0 29.4359H1.59374L3.13067 32.9718L4.4793 29.4359H5.99785L3.83813 34.2909C3.55515 34.9321 3.26325 35.4083 2.94238 35.7107C2.62151 36.0224 2.2728 36.1777 1.8862 36.1777C1.75418 36.1777 1.65056 36.1777 1.56533 36.1593C1.47119 36.1506 1.39599 36.1322 1.3297 36.1138L1.15032 36.0586C1.10353 36.0402 1.05618 36.0224 1.00883 36.0132V34.7671C1.09406 34.8223 1.19767 34.8677 1.32023 34.8953Z" fill="#4D5759"/>
<path d="M8.59435 34.1627C8.5002 34.1898 8.39659 34.2082 8.28295 34.2358C8.16987 34.2542 8.04731 34.2726 7.92476 34.2818C7.80221 34.3002 7.67965 34.3002 7.56602 34.3002C7.27412 34.3002 7.02901 34.2726 6.80229 34.2266C6.58559 34.1719 6.39731 34.0984 6.24634 33.9885C6.09538 33.8787 5.9823 33.732 5.90654 33.5486C5.83134 33.3749 5.79346 33.1553 5.79346 32.8983V31.1398H7.09474V32.651C7.09474 32.7884 7.11368 32.9075 7.15156 32.9902C7.17997 33.0817 7.23624 33.1553 7.312 33.2099C7.3872 33.2651 7.47187 33.3014 7.58496 33.3197C7.6986 33.3381 7.83062 33.3473 7.98158 33.3473C8.20775 33.3473 8.37765 33.3289 8.50967 33.2922C8.64169 33.2467 8.74531 33.2007 8.82051 33.1553V31.1398H10.1224V36.0132H8.82051V34.0892C8.76425 34.1075 8.68905 34.1351 8.59435 34.1627Z" fill="#4D5759"/>
<path d="M13.5926 33.7413C13.508 33.7781 13.4044 33.8149 13.2723 33.8327L12.9231 33.8971C12.7721 33.9247 12.6401 33.9517 12.527 33.9885C12.4139 34.0253 12.3198 34.0708 12.244 34.126C12.1688 34.1898 12.112 34.2634 12.0741 34.3456C12.0368 34.4284 12.0178 34.5291 12.0178 34.6573C12.0178 34.7579 12.0368 34.8494 12.0646 34.923C12.1025 35.0052 12.1499 35.0604 12.2156 35.115C12.2724 35.161 12.3382 35.207 12.4139 35.2254C12.4986 35.2525 12.5838 35.2617 12.678 35.2617C12.7253 35.2617 12.791 35.2525 12.8668 35.2433C12.942 35.2341 13.0172 35.2162 13.1119 35.1886C13.1966 35.1518 13.2812 35.115 13.3665 35.0604C13.4512 35.0144 13.5269 34.9414 13.5926 34.8586C13.6684 34.7763 13.7247 34.6757 13.7625 34.5475C13.8004 34.4284 13.8288 34.291 13.8288 34.126V33.6314C13.7531 33.6769 13.6684 33.7137 13.5926 33.7413ZM15.1585 35.4083C15.1674 35.4997 15.1959 35.5825 15.2243 35.6285C15.2527 35.6924 15.2811 35.7292 15.3184 35.7562C15.3563 35.7838 15.3847 35.8022 15.4315 35.8114V36.0132H13.9887L13.9135 35.7838C13.8756 35.6924 13.8662 35.5825 13.8662 35.4451L13.5737 35.7292C13.4701 35.8114 13.3665 35.885 13.2439 35.9488C13.1214 36.0132 12.9893 36.0679 12.8289 36.1047C12.6685 36.1409 12.4796 36.1593 12.2629 36.1593C12.0368 36.1593 11.829 36.1323 11.6407 36.0679C11.4519 36.0035 11.2914 35.9028 11.1499 35.7838C11.0179 35.6556 10.9048 35.4997 10.8296 35.3077C10.7539 35.1242 10.7166 34.9046 10.7166 34.6573C10.7166 34.4555 10.7444 34.2726 10.8107 34.0984C10.8764 33.9247 10.9711 33.7781 11.0842 33.6498C11.2068 33.5216 11.3483 33.4118 11.5182 33.329C11.6875 33.2375 11.8763 33.1823 12.093 33.1553L13.3665 32.9719C13.4133 32.9627 13.4606 32.9627 13.5174 32.9443C13.5737 32.9351 13.6211 32.9167 13.6684 32.8804C13.7152 32.8528 13.7531 32.816 13.7815 32.77C13.8099 32.7154 13.8288 32.651 13.8288 32.5688C13.8288 32.486 13.8099 32.4129 13.791 32.3491C13.7625 32.2755 13.7152 32.2209 13.6589 32.1749C13.5926 32.1197 13.5174 32.0834 13.4133 32.0558C13.3097 32.0282 13.1776 32.019 13.0267 32.019C12.8479 32.019 12.7158 32.0374 12.6122 32.065C12.4986 32.1018 12.4139 32.1565 12.3571 32.2117C12.2914 32.2755 12.244 32.3491 12.2156 32.4221L12.1593 32.6878H10.858C10.858 32.6332 10.8675 32.5504 10.8859 32.4405C10.9048 32.3399 10.9427 32.2209 10.9995 32.0926C11.0463 31.9736 11.131 31.8448 11.2257 31.7171C11.3198 31.5889 11.4424 31.4693 11.6123 31.3595C11.7633 31.2588 11.961 31.1674 12.1877 31.103C12.4139 31.0392 12.678 31.0024 12.9983 30.9932C13.4417 30.9932 13.8099 31.0392 14.0923 31.1214C14.3658 31.2128 14.5831 31.3319 14.7435 31.4693C14.8939 31.6159 14.9981 31.7718 15.0544 31.946C15.1017 32.1197 15.1301 32.2939 15.1301 32.4681V35.0512C15.1301 35.1978 15.1396 35.3169 15.1585 35.4083Z" fill="#4D5759"/>
<path d="M18.7966 32.5228C18.7588 32.4221 18.7025 32.3399 18.6362 32.2755C18.561 32.2025 18.4763 32.1565 18.3822 32.1197C18.278 32.0926 18.1555 32.0742 18.014 32.0742C17.7973 32.0742 17.6274 32.1197 17.4953 32.2209C17.3633 32.3215 17.2597 32.4405 17.1934 32.5872C17.1182 32.743 17.0803 32.9075 17.0519 33.0817C17.033 33.2559 17.0146 33.4204 17.0146 33.5762C17.0146 33.7321 17.0241 33.9063 17.043 34.08C17.0614 34.2634 17.0993 34.4192 17.1745 34.5659C17.2408 34.7125 17.3349 34.8407 17.4764 34.9322C17.6084 35.0328 17.7878 35.0788 18.014 35.0788C18.1649 35.0788 18.2969 35.0512 18.41 34.9868C18.5136 34.9322 18.6083 34.8586 18.6836 34.7763C18.7588 34.6849 18.8156 34.5929 18.8535 34.4923C18.8819 34.4008 18.9002 34.3094 18.9002 34.2266H20.2584C20.2584 34.3094 20.2494 34.41 20.221 34.5383C20.1831 34.6757 20.1358 34.8039 20.0701 34.9506C20.0043 35.088 19.9096 35.2341 19.806 35.3807C19.6835 35.5273 19.5514 35.6556 19.3815 35.7654C19.2116 35.885 19.0228 35.9764 18.7966 36.05C18.5705 36.1231 18.3064 36.1593 18.014 36.1593C17.6368 36.1593 17.297 36.1047 17.0051 35.9948C16.7127 35.8758 16.4676 35.7108 16.2693 35.4906C16.0715 35.2709 15.9205 35.0052 15.8164 34.6757C15.7128 34.3548 15.6565 33.9885 15.6565 33.5762C15.6565 33.1553 15.7128 32.7884 15.8258 32.4681C15.9389 32.1565 16.0999 31.8816 16.3071 31.6619C16.5144 31.4423 16.7595 31.2772 17.0519 31.1674C17.3349 31.0484 17.6652 30.9932 18.014 30.9932C18.1649 30.9932 18.3254 31.0116 18.4953 31.03C18.6551 31.0484 18.8156 31.0938 18.976 31.149C19.1364 31.2128 19.2874 31.2864 19.4378 31.3779C19.5793 31.4693 19.7119 31.5889 19.8344 31.7263C19.9475 31.8632 20.0417 32.0282 20.1169 32.2117C20.1926 32.3945 20.24 32.6148 20.2584 32.862H18.9002C18.8724 32.7338 18.844 32.6148 18.7966 32.5228Z" fill="#4D5759"/>
<path d="M24.802 31.1398V32.1656H23.2835V36.0132H21.9822V32.1656H20.4636V31.1398H24.802Z" fill="#4D5759"/>
<path d="M28.4205 32.8983V31.1398H29.7218V36.0132H28.4205V33.9247H26.5059V36.0132H25.2046V31.1398H26.5059V32.8983H28.4205Z" fill="#4D5759"/>
<path d="M31.915 34.1443L33.7443 31.1398H35.1119V36.0132H33.8101V33.0725H33.7917L32.0186 36.0132H30.5947V31.1398H31.896V34.1443H31.915Z" fill="#4D5759"/>
<path d="M39.1795 31.1398H40.9147L38.8402 33.1639L41 36.0132H39.302L37.8308 33.9517L37.3028 34.4739V36.0132H36.0015V31.1398H37.3028V32.9902L39.1795 31.1398Z" fill="#4D5759"/>
</svg>
