<svg width="213" height="79" viewBox="0 0 213 79" fill="none" xmlns="http://www.w3.org/2000/svg">
<path d="M186.59 37.2059L187.916 28.0869L163.508 35.5935L161.86 39.7005L160.669 54.5916L177.424 43.8247L176.467 52.7511L212.373 29.6491L186.59 37.2059Z" fill="#231F20"/>
<ellipse cx="86.4967" cy="38.3987" rx="86.4967" ry="38.3987" transform="matrix(-1 -0.000121429 -7.87599e-05 1 173 1.01929)" fill="black"/>
<path d="M185.16 39.763L186.48 30.6816L165.273 37.203L164.008 40.3557L163.112 51.5547L179.967 40.7256L179.01 49.6475L202.085 34.8012L185.16 39.763Z" fill="white"/>
<ellipse cx="84.6231" cy="35.6559" rx="84.6231" ry="35.6559" transform="matrix(-1 -0.000132679 -7.22237e-05 1 169.251 3.36987)" fill="white"/>
</svg>
