<svg width="181" height="94" viewBox="0 0 181 94" fill="none" xmlns="http://www.w3.org/2000/svg">
<path fill-rule="evenodd" clip-rule="evenodd" d="M172 93C176.418 93 180 89.4183 180 85V9C180 4.58173 176.418 1 172 1H36.5782C32.1599 1 28.5782 4.58172 28.5782 9V38.8239L2.00015 59.9106L28.5782 57.0081V85C28.5782 89.4183 32.1599 93 36.5782 93H172Z" fill="white"/>
<path d="M28.5782 38.8239L28.8889 39.2156L29.0782 39.0655V38.8239H28.5782ZM2.00015 59.9106L1.68939 59.5189L0.332138 60.5957L2.05443 60.4076L2.00015 59.9106ZM28.5782 57.0081H29.0782V56.4505L28.5239 56.511L28.5782 57.0081ZM179.5 85C179.5 89.1421 176.142 92.5 172 92.5V93.5C176.694 93.5 180.5 89.6944 180.5 85H179.5ZM179.5 9V85H180.5V9H179.5ZM172 1.5C176.142 1.5 179.5 4.85787 179.5 9H180.5C180.5 4.30558 176.694 0.5 172 0.5V1.5ZM36.5782 1.5H172V0.5H36.5782V1.5ZM29.0782 9C29.0782 4.85786 32.436 1.5 36.5782 1.5V0.5C31.8837 0.5 28.0782 4.30557 28.0782 9H29.0782ZM29.0782 38.8239V9H28.0782V38.8239H29.0782ZM2.31091 60.3023L28.8889 39.2156L28.2674 38.4322L1.68939 59.5189L2.31091 60.3023ZM28.5239 56.511L1.94588 59.4135L2.05443 60.4076L28.6324 57.5051L28.5239 56.511ZM29.0782 85V57.0081H28.0782V85H29.0782ZM36.5782 92.5C32.436 92.5 29.0782 89.1421 29.0782 85H28.0782C28.0782 89.6944 31.8837 93.5 36.5782 93.5V92.5ZM172 92.5H36.5782V93.5H172V92.5Z" fill="#BBBBBB"/>
</svg>
