<svg width="186" height="55" viewBox="0 0 186 55" fill="none" xmlns="http://www.w3.org/2000/svg">
<g clip-path="url(#clip0_376_12039)">
<path d="M20.8998 41.6638L21.2413 48.1321L39.4247 40.1087L40.103 37.0739L38.7734 26.6243L27.1484 36.0194L26.544 29.7272L1.63522 49.881L20.8998 41.6638Z" fill="#231F20"/>
<path d="M35.5026 8.55112L182.828 0.95874L165.898 47.9901L31.4114 51.2675L35.5026 8.55112Z" fill="#231F20"/>
<path d="M21.6422 39.7273L21.9827 46.1688L37.7816 39.1983L38.3027 36.8685L37.3027 29.0098L25.6078 38.4597L25.0041 32.1705L8.9968 45.1221L21.6422 39.7273Z" fill="white"/>
<path d="M173.538 4.18115L163.935 47.3737L34.8999 49.7831L38.2671 11.5055L173.538 4.18115Z" fill="white"/>
</g>
<defs>
<clipPath id="clip0_376_12039">
<rect width="183.512" height="46.8416" fill="white" transform="matrix(-0.999215 0.0396129 0.0343692 0.999409 183.49 0.668213)"/>
</clipPath>
</defs>
</svg>
