<svg width="188" height="74" viewBox="0 0 188 74" fill="none" xmlns="http://www.w3.org/2000/svg">
<g clip-path="url(#clip0_266_390)">
<path d="M154.668 27.9442C157.288 18.4204 150.131 8.9882 140.244 8.93484L16.1206 8.26486C6.31645 8.21194 -0.878551 17.4212 1.54093 26.9261L10.3711 61.6155C12.1941 68.7768 18.9567 73.5594 26.3113 72.8883L134.976 62.9725C141.186 62.4059 146.387 58.0562 148.039 52.0478L154.668 27.9442Z" fill="black"/>
<path d="M163.212 44.7719C156.376 43.8026 146.112 38.138 144.738 36.6432C130.88 41.8977 98.3339 58.094 148.126 59.0834C167.791 59.4742 184.026 46.084 187.06 40.2793C183.454 42.5573 175.573 46.5245 163.212 44.7719Z" fill="black"/>
<path d="M152.325 29.2183C155.137 19.6243 147.936 9.99623 137.929 9.96928L18.3219 9.64719C8.46584 9.62065 1.28685 18.9413 3.82468 28.4693L11.7414 58.1916C13.6237 65.2585 20.3233 69.9534 27.6031 69.307L133.432 59.9112C139.566 59.3666 144.734 55.1281 146.464 49.2227L152.325 29.2183Z" fill="white"/>
<path d="M162.113 46.7951C156.569 46.3926 146.929 42.1987 146.024 40.9691C133.776 45.3149 112.279 50.204 148.457 55.2152C164.538 57.4428 179.328 48.4867 182.724 43.7015C179.397 45.5825 174.085 47.6642 162.113 46.7951Z" fill="white"/>
</g>
<defs>
<clipPath id="clip0_266_390">
<rect width="184.734" height="65.1889" fill="white" transform="matrix(0.998975 -0.0452653 0.047883 0.998853 0.212158 8.88843)"/>
</clipPath>
</defs>
</svg>
