<svg width="179" height="61" viewBox="0 0 179 61" fill="none" xmlns="http://www.w3.org/2000/svg">
<path fill-rule="evenodd" clip-rule="evenodd" d="M170 60C174.418 60 178 56.4183 178 52V9C178 4.58172 174.418 1 170 1H34.5783C30.16 1 26.5783 4.58172 26.5783 9V29.4109L0.999878 29.4107L26.5783 41.9113V52C26.5783 56.4183 30.16 60 34.5783 60H170Z" fill="white"/>
<path d="M26.5783 29.4109V29.9109L27.0783 29.9109V29.4109H26.5783ZM0.999878 29.4107V28.9107L0.780334 29.8599L0.999878 29.4107ZM26.5783 41.9113H27.0783V41.5991L26.7979 41.462L26.5783 41.9113ZM177.5 52C177.5 56.1421 174.142 59.5 170 59.5V60.5C174.694 60.5 178.5 56.6944 178.5 52H177.5ZM177.5 9V52H178.5V9H177.5ZM170 1.5C174.142 1.5 177.5 4.85786 177.5 9H178.5C178.5 4.30558 174.694 0.5 170 0.5V1.5ZM34.5783 1.5H170V0.5H34.5783V1.5ZM27.0783 9C27.0783 4.85786 30.4362 1.5 34.5783 1.5V0.5C29.8839 0.5 26.0783 4.30558 26.0783 9H27.0783ZM27.0783 29.4109V9H26.0783V29.4109H27.0783ZM0.999878 29.9107L26.5783 29.9109V28.9109L0.999878 28.9107V29.9107ZM26.7979 41.462L1.21942 28.9615L0.780334 29.8599L26.3588 42.3605L26.7979 41.462ZM27.0783 52V41.9113H26.0783V52H27.0783ZM34.5783 59.5C30.4362 59.5 27.0783 56.1421 27.0783 52H26.0783C26.0783 56.6944 29.8839 60.5 34.5783 60.5V59.5ZM170 59.5H34.5783V60.5H170V59.5Z" fill="#BBBBBB"/>
</svg>
