<svg width="151" height="80" viewBox="0 0 151 80" fill="none" xmlns="http://www.w3.org/2000/svg">
<path fill-rule="evenodd" clip-rule="evenodd" d="M84.0768 68.9999H142C146.418 68.9999 150 65.4182 150 60.9999V8.99992C150 4.58164 146.418 0.999924 142 0.999924H9C4.58173 0.999924 1 4.58164 1 8.99992V60.9999C1 65.4182 4.58173 68.9999 9 68.9999H66.7692L75.9998 79L84.0768 68.9999Z" fill="white"/>
<path d="M84.0768 68.9999V68.4999H83.8379L83.6878 68.6858L84.0768 68.9999ZM66.7692 68.9999L67.1366 68.6608L66.9881 68.4999H66.7692V68.9999ZM75.9998 79L75.6324 79.3391L76.0251 79.7645L76.3888 79.3142L75.9998 79ZM142 68.4999H84.0768V69.4999H142V68.4999ZM149.5 60.9999C149.5 65.1421 146.142 68.4999 142 68.4999V69.4999C146.694 69.4999 150.5 65.6943 150.5 60.9999H149.5ZM149.5 8.99992V60.9999H150.5V8.99992H149.5ZM142 1.49992C146.142 1.49992 149.5 4.85778 149.5 8.99992H150.5C150.5 4.3055 146.694 0.499924 142 0.499924V1.49992ZM9 1.49992H142V0.499924H9V1.49992ZM1.5 8.99992C1.5 4.85778 4.85786 1.49992 9 1.49992V0.499924C4.30559 0.499924 0.5 4.3055 0.5 8.99992H1.5ZM1.5 60.9999V8.99992H0.5V60.9999H1.5ZM9 68.4999C4.85786 68.4999 1.5 65.1421 1.5 60.9999H0.5C0.5 65.6943 4.30559 69.4999 9 69.4999V68.4999ZM66.7692 68.4999H9V69.4999H66.7692V68.4999ZM66.4018 69.3391L75.6324 79.3391L76.3672 78.6609L67.1366 68.6608L66.4018 69.3391ZM76.3888 79.3142L84.4658 69.3141L83.6878 68.6858L75.6109 78.6858L76.3888 79.3142Z" fill="#BBBBBB"/>
</svg>
