<svg width="176" height="39" viewBox="0 0 176 39" fill="none" xmlns="http://www.w3.org/2000/svg">
<path fill-rule="evenodd" clip-rule="evenodd" d="M167 38C171.418 38 175 34.4182 175 30V8.99997C175 4.58169 171.418 0.999969 167 0.999969H30.7714C26.3531 0.999969 22.7714 4.58169 22.7714 8.99997V14.0055L1 15.4475L22.7714 25.012V30C22.7714 34.4182 26.3531 38 30.7714 38H167Z" fill="white"/>
<path d="M22.7714 14.0055L22.8045 14.5044L23.2714 14.4735V14.0055H22.7714ZM1 15.4475L0.966949 14.9486L0.798889 15.9052L1 15.4475ZM22.7714 25.012H23.2714V24.6855L22.9725 24.5542L22.7714 25.012ZM174.5 30C174.5 34.1421 171.142 37.5 167 37.5V38.5C171.694 38.5 175.5 34.6944 175.5 30H174.5ZM174.5 8.99997V30H175.5V8.99997H174.5ZM167 1.49997C171.142 1.49997 174.5 4.85783 174.5 8.99997H175.5C175.5 4.30555 171.694 0.499969 167 0.499969V1.49997ZM30.7714 1.49997H167V0.499969H30.7714V1.49997ZM23.2714 8.99997C23.2714 4.85783 26.6293 1.49997 30.7714 1.49997V0.499969C26.077 0.499969 22.2714 4.30555 22.2714 8.99997H23.2714ZM23.2714 14.0055V8.99997H22.2714V14.0055H23.2714ZM1.03305 15.9464L22.8045 14.5044L22.7384 13.5066L0.966949 14.9486L1.03305 15.9464ZM22.9725 24.5542L1.20111 14.9897L0.798889 15.9052L22.5703 25.4698L22.9725 24.5542ZM23.2714 30V25.012H22.2714V30H23.2714ZM30.7714 37.5C26.6293 37.5 23.2714 34.1421 23.2714 30H22.2714C22.2714 34.6944 26.077 38.5 30.7714 38.5V37.5ZM167 37.5H30.7714V38.5H167V37.5Z" fill="#BBBBBB"/>
</svg>
