<svg width="274" height="61" viewBox="0 0 274 61" fill="none" xmlns="http://www.w3.org/2000/svg">
<path d="M273.645 16.8482L41.0468 9.12158L70.2519 61.0001L265.301 51.0659L273.645 16.8482Z" fill="#FF0009"/>
<path d="M171.028 7.98131L17.673 0L36.9283 53.5888L165.527 43.3271L171.028 7.98131Z" fill="black"/>
<g clip-path="url(#clip0_266_311)">
<path fill-rule="evenodd" clip-rule="evenodd" d="M6.55263 12.7189C5.37224 13.4893 4.43904 14.0096 3.41503 14.9101C2.50704 15.7106 1.57384 16.5511 0.827271 17.6367L0.993735 17.8869C1.88154 18.2621 5.51349 20.8136 6.8452 21.5841L8.61577 19.713C9.27658 19.0926 9.86677 18.7224 10.689 18.2571C14.7901 15.9257 24.4652 15.9257 24.8284 22.3695C24.9393 24.6258 23.8044 26.0066 22.7703 27.2174L19.1535 30.5243C16.7927 32.6806 14.0082 36.0675 14.4521 39.7547H15.1785C16.4446 39.7597 21.5495 39.9648 22.291 39.6747C22.8207 37.9887 22.1296 36.793 25.1562 33.9363L29.0303 30.2792C29.227 30.079 29.4137 29.969 29.6104 29.7689C30.1098 29.2786 31.0228 28.0979 31.4466 27.3524C34.448 22.0143 33.3382 15.6906 27.739 12.4587C23.6278 10.0923 17.8268 9.71209 13.1305 10.4975C10.2501 10.9778 8.89321 11.7233 6.55263 12.7189Z" fill="white"/>
<path fill-rule="evenodd" clip-rule="evenodd" d="M6.55261 12.7187C8.8932 11.7231 10.2501 10.9776 13.1305 10.4974C17.8268 9.7119 23.6278 10.0921 27.7389 12.4585C33.3382 15.6904 34.448 22.0141 31.4466 27.3522C31.0228 28.0977 30.1098 29.2784 29.6104 29.7687C29.4137 29.9688 29.227 30.0788 29.0303 30.279L25.1562 33.9361C22.1296 36.7928 22.8207 37.9885 22.291 39.6745C21.5495 39.9646 16.4446 39.7595 15.1785 39.7545L15.2491 41.7907C15.7233 41.8958 25.4488 41.5005 26.044 41.3605C26.3417 39.2842 25.3883 38.5888 27.4615 35.8622C28.4098 34.6165 31.6382 31.8149 33.1112 29.8537C35.9058 26.1315 37.2072 20.168 34.1856 15.5053C29.1463 7.72073 15.3046 7.80078 8.05583 11.7731L6.8805 12.4235C6.86032 12.4385 6.83005 12.4585 6.80987 12.4735L6.55261 12.7187Z" fill="black"/>
<path fill-rule="evenodd" clip-rule="evenodd" d="M16.1773 54.1431C17.963 54.6334 19.3048 54.8385 20.9341 53.948C23.5017 52.5422 24.3239 48.6499 21.943 46.3986C21.605 46.0834 21.6101 45.9883 21.1662 45.7182C20.9341 45.5731 20.5054 45.348 20.1876 45.2379C19.2947 44.9177 18.4775 44.9477 17.4787 45.0078C15.6829 45.6031 13.8922 46.2935 13.4836 48.87C13.2818 50.1358 13.524 51.3115 14.099 52.242C14.8658 53.4777 15.3853 53.5478 16.1773 54.1431Z" fill="white"/>
<path fill-rule="evenodd" clip-rule="evenodd" d="M17.4787 45.0078C18.4775 44.9477 19.2947 44.9177 20.1875 45.2379C20.5053 45.348 20.9341 45.5731 21.1661 45.7182C21.61 45.9883 21.605 46.0834 21.943 46.3986C24.3239 48.6499 23.5017 52.5422 20.9341 53.948C19.3048 54.8385 17.963 54.6334 16.1772 54.1431C16.3286 54.6234 16.8179 54.9386 17.3475 55.3138C20.7424 57.7102 26.5333 56.2394 27.411 51.2814C28.5713 44.7776 20.6617 42.1961 17.4787 45.0078Z" fill="black"/>
<path fill-rule="evenodd" clip-rule="evenodd" d="M0.99374 17.8869C0.595235 18.3071 0.292573 18.8675 0 19.3377C0.206819 19.5729 8.29294 24.3106 8.72675 24.4307C9.39765 23.6903 10.1341 22.0493 11.5566 21.0587C12.9691 20.0782 13.8115 19.5078 15.8998 19.0776C17.7057 18.7024 19.9656 18.6073 21.6908 19.1826C24.0919 19.9881 24.2684 21.2238 24.8284 22.3695C24.4652 15.9257 14.7901 15.9257 10.689 18.2571C9.86678 18.7224 9.27659 19.0926 8.61578 19.713L6.8452 21.584C5.51349 20.8136 1.88155 18.2621 0.99374 17.8869Z" fill="black"/>
</g>
<defs>
<clipPath id="clip0_266_311">
<rect width="35.9159" height="47.3178" fill="white" transform="translate(0 9.12158)"/>
</clipPath>
</defs>
</svg>
