<svg width="176" height="51" viewBox="0 0 176 51" fill="none" xmlns="http://www.w3.org/2000/svg">
<path fill-rule="evenodd" clip-rule="evenodd" d="M167 50C171.418 50 175 46.4183 175 42V9C175 4.58172 171.418 1 167 1H35C30.5817 1 27 4.58172 27 9V23.7486L0.335358 43.2283L27 36.2645V42C27 46.4183 30.5817 50 35 50H167Z" fill="white"/>
<path d="M27 23.7486L27.295 24.1523L27.5 24.0025V23.7486H27ZM0.335358 43.2283L0.0404053 42.8245L0.4617 43.7121L0.335358 43.2283ZM27 36.2645H27.5V35.6172L26.8737 35.7807L27 36.2645ZM174.5 42C174.5 46.1421 171.142 49.5 167 49.5V50.5C171.694 50.5 175.5 46.6944 175.5 42H174.5ZM174.5 9V42H175.5V9H174.5ZM167 1.5C171.142 1.5 174.5 4.85786 174.5 9H175.5C175.5 4.30558 171.694 0.5 167 0.5V1.5ZM35 1.5H167V0.5H35V1.5ZM27.5 9C27.5 4.85786 30.8579 1.5 35 1.5V0.5C30.3056 0.5 26.5 4.30558 26.5 9H27.5ZM27.5 23.7486V9H26.5V23.7486H27.5ZM0.63031 43.632L27.295 24.1523L26.705 23.3449L0.0404053 42.8245L0.63031 43.632ZM26.8737 35.7807L0.209015 42.7445L0.4617 43.7121L27.1263 36.7483L26.8737 35.7807ZM27.5 42V36.2645H26.5V42H27.5ZM35 49.5C30.8579 49.5 27.5 46.1421 27.5 42H26.5C26.5 46.6944 30.3056 50.5 35 50.5V49.5ZM167 49.5H35V50.5H167V49.5Z" fill="#BBBBBB"/>
</svg>
