<svg width="182" height="73" viewBox="0 0 182 73" fill="none" xmlns="http://www.w3.org/2000/svg">
<g clip-path="url(#clip0_376_12044)">
<path d="M22.029 57.9251L14.0248 53.5836L39.6561 33.0662L38.3951 41.5092L50.8986 49.303L32.6113 55.1498L38.1235 59.7567L1.0352 72.1598L22.029 57.9251Z" fill="#231F20"/>
<ellipse cx="85.0926" cy="31.1352" rx="85.0926" ry="31.1352" transform="matrix(1 -1.36874e-06 -1.15711e-06 1 10.8242 0.010498)" fill="black"/>
<path d="M24.8882 58.3785L16.9173 54.0545L39.657 37.2443L45.4431 40.7748L47.0678 49.3032L28.6728 55.1862L34.6382 59.488L11.1064 67.7216L24.8882 58.3785Z" fill="white"/>
<ellipse cx="98.0098" cy="30.59" rx="83" ry="28.8569" fill="white"/>
</g>
<defs>
<clipPath id="clip0_376_12044">
<rect width="180.738" height="72.4905" fill="white" transform="matrix(-1 -5.23958e-05 -4.54513e-05 1 181.254 0.0209961)"/>
</clipPath>
</defs>
</svg>
