<svg width="264" height="138" viewBox="0 0 264 138" fill="none" xmlns="http://www.w3.org/2000/svg">
<g clip-path="url(#clip0_376_157)">
<path d="M226.58 121.248L238.218 113.834L207.316 87.4164L201.114 89.2902L183 102.757L210.631 115.187L199.55 122.921L247.029 137.624L226.58 121.248Z" fill="#231F20"/>
<ellipse cx="131.84" cy="58.4782" rx="131.84" ry="58.4782" transform="matrix(-1 -0.000115928 -8.15495e-05 1 263.926 0.043457)" fill="black"/>
<path d="M221.399 121.091L232.99 113.707L206.141 90.7532L201.379 92.1909L187.756 102.319L215.55 114.826L204.474 122.555L238.079 132.864L221.399 121.091Z" fill="white"/>
<ellipse cx="128.984" cy="54.3012" rx="128.984" ry="54.3012" transform="matrix(-1 -0.000115928 -8.15495e-05 1 258.214 3.62329)" fill="white"/>
</g>
<defs>
<clipPath id="clip0_376_157">
<rect width="263.486" height="137.899" fill="white" transform="matrix(1 3.59349e-05 -6.62715e-05 1 0.411133 -0.000244141)"/>
</clipPath>
</defs>
</svg>
