<svg width="177" height="105" viewBox="0 0 177 105" fill="none" xmlns="http://www.w3.org/2000/svg">
<path fill-rule="evenodd" clip-rule="evenodd" d="M9 104C4.58172 104 1 100.418 1 96V9C1 4.58172 4.58172 1 9 1H145C149.418 1 153 4.58173 153 9V32.3504L176.679 30.1845L153 45.493V96C153 100.418 149.418 104 145 104H9Z" fill="white"/>
<path d="M153 32.3504L153.046 32.8483L152.5 32.8982V32.3504H153ZM176.679 30.1845L176.633 29.6866L176.95 30.6044L176.679 30.1845ZM153 45.493H152.5V45.2209L152.729 45.0731L153 45.493ZM1.5 96C1.5 100.142 4.85786 103.5 9 103.5V104.5C4.30558 104.5 0.5 100.694 0.5 96H1.5ZM1.5 9V96H0.5V9H1.5ZM9 1.5C4.85786 1.5 1.5 4.85786 1.5 9H0.5C0.5 4.30557 4.30558 0.5 9 0.5V1.5ZM145 1.5H9V0.5H145V1.5ZM152.5 9C152.5 4.85787 149.142 1.5 145 1.5V0.5C149.694 0.5 153.5 4.30558 153.5 9H152.5ZM152.5 32.3504V9H153.5V32.3504H152.5ZM176.724 30.6824L153.046 32.8483L152.954 31.8524L176.633 29.6866L176.724 30.6824ZM152.729 45.0731L176.407 29.7646L176.95 30.6044L153.271 45.9129L152.729 45.0731ZM152.5 96V45.493H153.5V96H152.5ZM145 103.5C149.142 103.5 152.5 100.142 152.5 96H153.5C153.5 100.694 149.694 104.5 145 104.5V103.5ZM9 103.5H145V104.5H9V103.5Z" fill="#BBBBBB"/>
</svg>
