<svg width="194" height="69" viewBox="0 0 194 69" fill="none" xmlns="http://www.w3.org/2000/svg">
<g clip-path="url(#clip0_376_163)">
<path d="M25.4318 54.8325L27.355 63.6593L65.1719 46.2949L48.1904 46.4775L44.1185 32.3011L31.8751 46.4258L28.8443 39.7274L3.43809 68.1647L25.4318 54.8325Z" fill="#231F20"/>
<ellipse cx="80.5526" cy="29.7063" rx="80.5526" ry="29.7063" transform="matrix(1 -4.8767e-06 -4.67847e-06 1 31.9648 -0.00195312)" fill="black"/>
<path d="M25.9031 52.0992L27.8189 60.8895L64.6868 42.1338L51.3062 40.4508L42.8462 35.7284L30.5287 49.9356L27.9704 42.9486L11.4665 60.852L25.9031 52.0992Z" fill="white"/>
<ellipse cx="78.8078" cy="27.5844" rx="78.8078" ry="27.5844" transform="matrix(1 -3.42333e-06 -3.37802e-06 1 35.4546 1.81689)" fill="white"/>
</g>
<defs>
<clipPath id="clip0_376_163">
<rect width="193.56" height="68.3093" fill="white" transform="matrix(-1 -3.59349e-05 -6.62715e-05 1 193.611 0.00439453)"/>
</clipPath>
</defs>
</svg>
