<svg width="245" height="93" viewBox="0 0 245 93" fill="none" xmlns="http://www.w3.org/2000/svg">
<g clip-path="url(#clip0_376_12060)">
<path d="M210.423 38.674C213.835 29.1666 207.113 19.1621 197.045 18.7634L16.6736 11.6195C6.7942 11.2282 -0.851045 20.3263 1.26603 29.955L12.5017 81.0562C14.0578 88.1335 20.4804 93.0279 27.7455 92.673L183.844 85.0456C189.957 84.747 195.314 80.7741 197.385 75.004L210.423 38.674Z" fill="black"/>
<path d="M216.439 53.9888C208.665 53.665 196.478 48.1626 194.757 46.5483C179.88 54.4956 145.411 77.7557 201.294 72.8792C223.364 70.9533 239.908 53.0212 242.597 45.7345C238.837 48.8878 230.496 54.5742 216.439 53.9888Z" fill="black"/>
<path d="M207.274 40.0886C210.899 30.5219 204.147 20.3046 193.951 19.9269L19.5168 13.466C9.57723 13.0978 1.94049 22.3199 4.18665 31.9786L14.6225 76.854C16.2455 83.8333 22.6081 88.6322 29.7935 88.2967L181.929 81.193C187.958 80.9114 193.269 77.0535 195.411 71.3992L207.274 40.0886Z" fill="white"/>
<path d="M215.456 56.5331C209.198 56.7276 197.89 52.902 196.726 51.5468C183.54 58.2154 160.064 66.6563 201.192 68.2286C219.473 68.9275 234.942 56.4554 238.16 50.3397C234.664 52.9859 228.969 56.1129 215.456 56.5331Z" fill="white"/>
</g>
<defs>
<clipPath id="clip0_376_12060">
<rect width="241.104" height="80.4677" fill="white" transform="matrix(0.99875 -0.0499778 0.0433672 0.999059 0.0878906 12.2126)"/>
</clipPath>
</defs>
</svg>
