<svg width="215" height="78" viewBox="0 0 215 78" fill="none" xmlns="http://www.w3.org/2000/svg">
<g clip-path="url(#clip0_266_384)">
<path d="M27.2774 27.8082C24.1303 18.3882 30.8418 8.56557 40.7614 8.07356L198.253 0.262058C208.063 -0.224551 215.686 8.6931 213.679 18.3087L203.833 65.478C202.33 72.6789 195.826 77.7272 188.478 77.3979L51.9373 71.2792C45.7371 71.0013 40.3484 66.9338 38.3818 61.0473L27.2774 27.8082Z" fill="black"/>
<path d="M28.9676 48.3829C41.7276 42.5086 42.576 35.0759 42.6707 33.23C61.9379 34.3687 101.569 46.948 75.5666 54.7667C45.9714 63.6657 9.44591 56.5652 1.03529 51.7932C6.86936 52.9744 22.6704 51.2819 28.9676 48.3829Z" fill="black"/>
<path d="M30.0977 29.1404C26.7513 19.6597 33.4962 9.63558 43.5391 9.16413L195.707 2.02088C205.572 1.55775 213.185 10.5902 211.058 20.2349L201.962 61.4766C200.395 68.5844 193.951 73.5411 186.678 73.2326L53.651 67.5903C47.5295 67.3306 42.1813 63.3741 40.142 57.5965L30.0977 29.1404Z" fill="white"/>
<path d="M32.9793 48.6437C38.2921 46.4337 45.9599 38.3413 45.8457 36.7883C62.4684 36.915 80.727 47.5987 57.8284 53.8103C40.0681 58.6281 15.1701 56.3975 7.46139 52.755C12.5833 53.4952 22.3827 53.0516 32.9793 48.6437Z" fill="white"/>
</g>
<defs>
<clipPath id="clip0_266_384">
<rect width="213.129" height="77.4396" fill="white" transform="matrix(-1 -4.74446e-05 -5.01945e-05 1 214.051 0.0603027)"/>
</clipPath>
</defs>
</svg>
