<svg width="178" height="64" viewBox="0 0 178 64" fill="none" xmlns="http://www.w3.org/2000/svg">
<g clip-path="url(#clip0_376_12055)">
<path d="M31.1675 26.8354C28.1057 17.4431 34.8014 7.70726 44.6673 7.20585L161.117 1.28749C170.905 0.790048 178.533 9.65884 176.577 19.262L170.027 51.4204C168.552 58.6617 162.023 63.7499 154.641 63.4108L51.7539 58.6846C45.5201 58.3983 40.1148 54.2823 38.1807 48.3493L31.1675 26.8354Z" fill="black"/>
<path d="M21.9539 31.5015C31.4472 27.3923 31.9681 21.477 32.0103 20.0025C46.5017 21.8167 76.47 33.7502 57.0592 38.7974C34.9666 44.542 7.4173 37.1433 1.02448 32.9264C5.42555 34.1459 17.2688 33.5294 21.9539 31.5015Z" fill="black"/>
<path d="M33.4337 27.7484C30.2013 18.3017 36.9276 8.39283 46.9002 7.90999L157.323 2.56363C167.157 2.08749 174.776 11.0542 172.718 20.6822L166.933 47.7388C165.402 54.8997 158.925 59.9085 151.609 59.5884L52.921 55.2693C46.7545 54.9994 41.3827 50.9797 39.3845 45.1396L33.4337 27.7484Z" fill="white"/>
<path d="M24.9709 31.899C28.9272 30.3771 34.5605 24.2524 34.4504 23.0027C46.9394 23.8824 60.8227 33.2967 43.7184 37.2016C30.4523 40.2303 11.7139 37.2777 5.8661 33.9985C9.72525 34.8313 17.0797 34.9346 24.9709 31.899Z" fill="white"/>
</g>
<defs>
<clipPath id="clip0_376_12055">
<rect width="176.499" height="63.4437" fill="white" transform="matrix(-1 -5.23958e-05 -4.54513e-05 1 177.25 0.313721)"/>
</clipPath>
</defs>
</svg>
