<svg width="151" height="103" viewBox="0 0 151 103" fill="none" xmlns="http://www.w3.org/2000/svg">
<path fill-rule="evenodd" clip-rule="evenodd" d="M84.0768 11.0001H142C146.418 11.0001 150 14.5818 150 19.0001V94.0001C150 98.4184 146.418 102 142 102H9C4.58173 102 1 98.4184 1 94.0001V19.0001C1 14.5818 4.58173 11.0001 9 11.0001H66.7692L75.9998 1L84.0768 11.0001Z" fill="white"/>
<path d="M84.0768 11.0001V11.5001H83.8379L83.6878 11.3142L84.0768 11.0001ZM66.7692 11.0001L67.1366 11.3392L66.9881 11.5001H66.7692V11.0001ZM75.9998 1L75.6324 0.660864L76.0251 0.235494L76.3888 0.685831L75.9998 1ZM142 11.5001H84.0768V10.5001H142V11.5001ZM149.5 19.0001C149.5 14.8579 146.142 11.5001 142 11.5001V10.5001C146.694 10.5001 150.5 14.3057 150.5 19.0001H149.5ZM149.5 94.0001V19.0001H150.5V94.0001H149.5ZM142 101.5C146.142 101.5 149.5 98.1422 149.5 94.0001H150.5C150.5 98.6945 146.694 102.5 142 102.5V101.5ZM9 101.5H142V102.5H9V101.5ZM1.5 94.0001C1.5 98.1422 4.85786 101.5 9 101.5V102.5C4.30559 102.5 0.5 98.6945 0.5 94.0001H1.5ZM1.5 19.0001V94.0001H0.5V19.0001H1.5ZM9 11.5001C4.85786 11.5001 1.5 14.8579 1.5 19.0001H0.5C0.5 14.3057 4.30559 10.5001 9 10.5001V11.5001ZM66.7692 11.5001H9V10.5001H66.7692V11.5001ZM66.4018 10.6609L75.6324 0.660864L76.3672 1.33914L67.1366 11.3392L66.4018 10.6609ZM76.3888 0.685831L84.4658 10.6859L83.6878 11.3142L75.6109 1.31417L76.3888 0.685831Z" fill="#BBBBBB"/>
</svg>
