<svg width="316" height="171" viewBox="0 0 316 171" fill="none" xmlns="http://www.w3.org/2000/svg">
<g clip-path="url(#clip0_360_12007)">
<path d="M2.21346 33.0644C-1.48514 17.4183 10.2918 2.50589 26.3485 2.50348L290.111 2.46399C304.369 2.46186 315.836 14.3586 315.298 28.5957L313.403 78.7269C312.919 91.5435 302.801 101.836 289.99 102.545L43.19 116.192C31.0302 116.864 20.0872 108.675 17.2808 96.8034L2.21346 33.0644Z" fill="black"/>
<path d="M154.138 134.48L170.743 132.87L142.76 97.3351L134.636 96.3991L108.118 100.569L137.049 122.679L121.003 124.794L183.052 172.168L154.138 134.48Z" fill="#231F20"/>
<path d="M11.0797 30.9135C7.80429 15.1263 20.1089 0.41288 36.2265 0.843798L288.021 7.57573C302.312 7.95782 313.373 20.2247 312.279 34.4791L309.004 77.1706C308.024 89.9474 297.542 99.9144 284.732 100.25L47.7535 106.453C35.6618 106.77 25.0779 98.3841 22.6206 86.5404L11.0797 30.9135Z" fill="white"/>
<path d="M148.831 133.259L165.368 131.655L141.056 100.78L134.819 100.061L114.876 103.197L143.976 125.441L127.938 127.554L167.813 157.997L148.831 133.259Z" fill="white"/>
<path d="M88.5679 53.7488C83.2833 53.7488 79 57.799 79 62.7962V80.8898C79 85.887 83.2833 89.9372 88.5679 89.9372H107.703C112.987 89.9372 117.27 85.887 117.27 80.8898V53.7488H88.5679Z" fill="#B4FF0A"/>
<path d="M89.4603 68.1991C89.1472 66.9052 90.5132 65.7598 92.2791 65.7598C93.8702 65.7598 95.4649 66.0969 96.0722 68.1946H98.1113V71.3967C95.5681 69.4198 90.0548 70.6594 89.4603 68.1991ZM110.623 67.3132H106.029L101.658 71.8391V62.7961H98.1113V64.987C97.9964 64.8451 97.8733 64.7054 97.7372 64.5679C96.4475 63.2773 94.589 62.6232 92.2134 62.6232C89.4662 62.6232 87.9044 63.7851 87.0777 64.7608C86.0506 65.9716 85.5921 67.6236 85.9099 68.9696C86.7318 72.4556 90.1521 73.0121 92.6648 73.3215C94.6488 73.5654 96.5459 73.9058 96.4955 75.5778C96.4428 77.313 94.3744 77.7398 93.0166 77.7398C89.4814 77.7398 89.3618 75.2684 89.3618 75.2684H85.5581C85.6144 76.1965 85.911 77.6866 87.1188 78.965C88.4425 80.3654 90.4265 81.0761 93.0166 81.0761C95.0041 81.0761 96.8145 80.464 98.1113 79.3764V80.871H101.658V76.6012L102.913 75.3028L106.495 80.871H110.622L105.41 72.7172L110.623 67.3132Z" fill="#4D5759"/>
<path d="M126.296 78.6068C126.535 78.6822 126.812 78.7199 127.13 78.7199C127.528 78.7199 127.844 78.6068 128.083 78.3818C128.321 78.1567 128.48 77.8562 128.559 77.518L123.518 67.4196H126.872L130.107 74.6652L132.946 67.4196H136.142L131.596 77.3684C131.001 78.6822 130.386 79.6579 129.711 80.2777C129.036 80.9164 128.302 81.2346 127.488 81.2346C127.21 81.2346 126.992 81.2346 126.812 81.1969C126.614 81.1791 126.456 81.1414 126.316 81.1037L125.939 80.9906C125.84 80.9529 125.741 80.9164 125.641 80.8975V78.3441C125.82 78.4571 126.039 78.5503 126.296 78.6068Z" fill="#4D5759"/>
<path d="M141.607 77.1056C141.409 77.161 141.191 77.1987 140.951 77.2553C140.713 77.293 140.456 77.3307 140.198 77.3495C139.94 77.3872 139.682 77.3872 139.442 77.3872C138.828 77.3872 138.312 77.3307 137.835 77.2364C137.379 77.1244 136.982 76.9736 136.665 76.7486C136.347 76.5235 136.109 76.223 135.949 75.8472C135.791 75.4913 135.711 75.0411 135.711 74.5144V70.911H138.45V74.0077C138.45 74.2894 138.49 74.5333 138.57 74.7029C138.63 74.8903 138.748 75.0411 138.908 75.1531C139.066 75.2662 139.244 75.3405 139.482 75.3782C139.722 75.4159 139.999 75.4347 140.317 75.4347C140.793 75.4347 141.151 75.397 141.429 75.3216C141.707 75.2285 141.925 75.1342 142.083 75.0411V70.911H144.823V80.8975H142.083V76.9548C141.965 76.9925 141.806 77.049 141.607 77.1056Z" fill="#4D5759"/>
<path d="M152.129 76.2419C151.951 76.3173 151.733 76.3927 151.455 76.4293L150.72 76.5612C150.402 76.6178 150.124 76.6732 149.886 76.7486C149.648 76.824 149.45 76.9172 149.29 77.0303C149.132 77.1611 149.012 77.3119 148.933 77.4804C148.854 77.65 148.814 77.8563 148.814 78.119C148.814 78.3253 148.854 78.5126 148.913 78.6634C148.992 78.832 149.092 78.9451 149.23 79.057C149.35 79.1513 149.488 79.2455 149.648 79.2832C149.826 79.3387 150.006 79.3575 150.204 79.3575C150.303 79.3575 150.442 79.3387 150.601 79.3198C150.759 79.301 150.918 79.2644 151.117 79.2078C151.295 79.1324 151.474 79.057 151.653 78.9451C151.831 78.8508 151.991 78.7011 152.129 78.5315C152.288 78.363 152.407 78.1567 152.487 77.894C152.566 77.65 152.626 77.3684 152.626 77.0303V76.0169C152.467 76.11 152.288 76.1854 152.129 76.2419ZM155.425 79.658C155.444 79.8454 155.504 80.015 155.563 80.1092C155.623 80.2401 155.683 80.3155 155.762 80.3709C155.841 80.4275 155.901 80.4652 156 80.484V80.8976H152.963L152.804 80.4275C152.725 80.2401 152.705 80.015 152.705 79.7334L152.089 80.3155C151.871 80.484 151.653 80.6348 151.395 80.7656C151.137 80.8976 150.859 81.0096 150.521 81.0849C150.184 81.1592 149.786 81.1969 149.33 81.1969C148.854 81.1969 148.417 81.1415 148.02 81.0095C147.623 80.8776 147.285 80.6714 146.987 80.4275C146.71 80.1647 146.472 79.8454 146.313 79.4518C146.154 79.0759 146.075 78.6257 146.075 78.119C146.075 77.7055 146.134 77.3307 146.273 76.9737C146.412 76.6178 146.611 76.3173 146.849 76.0546C147.107 75.7918 147.405 75.5667 147.762 75.3971C148.119 75.2097 148.516 75.0966 148.973 75.0412L151.653 74.6653C151.751 74.6464 151.851 74.6464 151.971 74.6087C152.089 74.5899 152.189 74.5522 152.288 74.4779C152.387 74.4214 152.467 74.346 152.526 74.2517C152.586 74.1397 152.626 74.0078 152.626 73.8393C152.626 73.6696 152.586 73.52 152.546 73.3891C152.487 73.2383 152.387 73.1263 152.269 73.0321C152.129 72.919 151.971 72.8447 151.751 72.7882C151.533 72.7316 151.255 72.7128 150.938 72.7128C150.561 72.7128 150.283 72.7505 150.065 72.807C149.826 72.8824 149.648 72.9944 149.528 73.1075C149.39 73.2383 149.29 73.3891 149.23 73.5388L149.112 74.0832H146.373C146.373 73.9712 146.393 73.8016 146.432 73.5765C146.472 73.3703 146.551 73.1263 146.671 72.8636C146.769 72.6196 146.948 72.3558 147.147 72.0941C147.345 71.8313 147.603 71.5863 147.961 71.3612C148.278 71.155 148.695 70.9676 149.172 70.8357C149.648 70.7048 150.204 70.6294 150.878 70.6106C151.811 70.6106 152.586 70.7048 153.181 70.8734C153.756 71.0607 154.214 71.3047 154.551 71.5863C154.868 71.8868 155.087 72.2061 155.206 72.5631C155.305 72.919 155.365 73.276 155.365 73.633V78.9262C155.365 79.2267 155.385 79.4706 155.425 79.658Z" fill="#4D5759"/>
<path d="M163.082 73.745C163.003 73.5388 162.884 73.3703 162.745 73.2383C162.586 73.0886 162.408 72.9944 162.21 72.919C161.991 72.8636 161.733 72.8259 161.435 72.8259C160.979 72.8259 160.621 72.919 160.343 73.1263C160.065 73.3326 159.847 73.5765 159.708 73.877C159.549 74.1963 159.47 74.5333 159.41 74.8904C159.37 75.2474 159.331 75.5844 159.331 75.9038C159.331 76.2231 159.351 76.5801 159.391 76.936C159.43 77.3119 159.51 77.6312 159.668 77.9317C159.807 78.2321 160.006 78.4949 160.303 78.6823C160.581 78.8885 160.959 78.9828 161.435 78.9828C161.753 78.9828 162.03 78.9262 162.269 78.7943C162.487 78.6823 162.686 78.5315 162.844 78.363C163.003 78.1756 163.122 77.9871 163.202 77.7809C163.262 77.5935 163.3 77.4061 163.3 77.2365H166.159C166.159 77.4061 166.14 77.6123 166.08 77.8751C166.001 78.1567 165.901 78.4195 165.763 78.72C165.624 79.0016 165.425 79.301 165.207 79.6014C164.949 79.9019 164.671 80.1647 164.313 80.3898C163.956 80.6348 163.558 80.8222 163.082 80.973C162.606 81.1226 162.05 81.1969 161.435 81.1969C160.641 81.1969 159.926 81.0849 159.311 80.8599C158.696 80.6159 158.18 80.2778 157.762 79.8265C157.346 79.3764 157.028 78.832 156.809 78.1567C156.591 77.4993 156.473 76.7486 156.473 75.9038C156.473 75.0412 156.591 74.2894 156.829 73.633C157.067 72.9944 157.406 72.4312 157.842 71.981C158.278 71.5309 158.794 71.1927 159.41 70.9676C160.006 70.7237 160.701 70.6106 161.435 70.6106C161.753 70.6106 162.09 70.6483 162.448 70.686C162.784 70.7237 163.122 70.8168 163.46 70.9299C163.797 71.0607 164.115 71.2115 164.432 71.3989C164.73 71.5863 165.009 71.8313 165.267 72.113C165.505 72.3935 165.703 72.7316 165.861 73.1075C166.021 73.4823 166.12 73.9335 166.159 74.4402H163.3C163.242 74.1774 163.182 73.9335 163.082 73.745Z" fill="#4D5759"/>
<path d="M175.722 70.911V73.0132H172.526V80.8975H169.787V73.0132H166.59V70.911H175.722Z" fill="#4D5759"/>
<path d="M183.339 74.5144V70.911H186.078V80.8975H183.339V76.6177H179.309V80.8975H176.57V70.911H179.309V74.5144H183.339Z" fill="#4D5759"/>
<path d="M190.694 77.0679L194.545 70.911H197.424V80.8975H194.683V74.8715H194.645L190.913 80.8975H187.916V70.911H190.655V77.0679H190.694Z" fill="#4D5759"/>
<path d="M205.985 70.911H209.638L205.271 75.0588L209.817 80.8975H206.243L203.147 76.6732L202.035 77.7431V80.8975H199.296V70.911H202.035V74.7029L205.985 70.911Z" fill="#4D5759"/>
</g>
<defs>
<clipPath id="clip0_360_12007">
<rect width="316" height="171" fill="white"/>
</clipPath>
</defs>
</svg>
