<svg width="209" height="75" viewBox="0 0 209 75" fill="none" xmlns="http://www.w3.org/2000/svg">
<g clip-path="url(#clip0_266_369)">
<path d="M17.5002 45.4998L14.5002 38.5L40.9386 39.9999L44.0002 45.4998L42.0002 58.4998L27.5001 50.4999L29.5001 57.4999L1.50025 45L17.5002 45.4998Z" fill="#231F20"/>
<path d="M38.0982 8.8655L206.239 0.316895L187.618 67.4827L34.075 70.0481L38.0982 8.8655Z" fill="#231F20"/>
<path d="M20.6121 47.8288L17.8572 40.5446L40.5017 43.1741L42.686 46.5914L38.5991 53.8453L24.4851 47.7456L26.9508 54.9594L7.62427 46.5914L20.6121 47.8288Z" fill="white"/>
<path d="M195.677 4.79004L185.367 66.5679L38.0363 67.9753L41.3001 13.1455L195.677 4.79004Z" fill="white"/>
</g>
<defs>
<clipPath id="clip0_266_369">
<rect width="206.294" height="66.6585" fill="white" transform="matrix(-0.999356 0.0358747 0.037951 0.99928 206.295 0.2146)"/>
</clipPath>
</defs>
</svg>
