<svg width="179" height="94" viewBox="0 0 179 94" fill="none" xmlns="http://www.w3.org/2000/svg">
<path fill-rule="evenodd" clip-rule="evenodd" d="M170 93C174.418 93 178 89.4183 178 85V9C178 4.58173 174.418 1 170 1H34.5782C30.1599 1 26.5782 4.58172 26.5782 9V31.0265L0.999985 37.9106L26.5782 43.6249V85C26.5782 89.4183 30.1599 93 34.5782 93H170Z" fill="white"/>
<path d="M26.5782 31.0265L26.7081 31.5093L27.0782 31.4097V31.0265H26.5782ZM0.999985 37.9106L0.870041 37.4278L0.890976 38.3985L0.999985 37.9106ZM26.5782 43.6249H27.0782V43.2243L26.6872 43.1369L26.5782 43.6249ZM177.5 85C177.5 89.1421 174.142 92.5 170 92.5V93.5C174.694 93.5 178.5 89.6944 178.5 85H177.5ZM177.5 9V85H178.5V9H177.5ZM170 1.5C174.142 1.5 177.5 4.85787 177.5 9H178.5C178.5 4.30558 174.694 0.5 170 0.5V1.5ZM34.5782 1.5H170V0.5H34.5782V1.5ZM27.0782 9C27.0782 4.85786 30.436 1.5 34.5782 1.5V0.5C29.8837 0.5 26.0782 4.30557 26.0782 9H27.0782ZM27.0782 31.0265V9H26.0782V31.0265H27.0782ZM1.12993 38.3934L26.7081 31.5093L26.4482 30.5437L0.870041 37.4278L1.12993 38.3934ZM26.6872 43.1369L1.10899 37.4226L0.890976 38.3985L26.4691 44.1128L26.6872 43.1369ZM27.0782 85V43.6249H26.0782V85H27.0782ZM34.5782 92.5C30.436 92.5 27.0782 89.1421 27.0782 85H26.0782C26.0782 89.6944 29.8837 93.5 34.5782 93.5V92.5ZM170 92.5H34.5782V93.5H170V92.5Z" fill="#BBBBBB"/>
</svg>
