<svg width="272" height="90" viewBox="0 0 272 90" fill="none" xmlns="http://www.w3.org/2000/svg">
<g clip-path="url(#clip0_376_145)">
<path d="M246.43 64.8191L248.051 54.024L225.447 62.8354L223.759 67.694L222 85.3252L237.77 72.6281L236.494 83.1964L267.5 56.9994L246.43 64.8191Z" fill="#231F20"/>
<path d="M229.202 86.7886L1.9707 84.1172L28.0001 1.49963L239.878 12.5608L229.202 86.7886Z" fill="#231F20"/>
<path d="M245.351 67.2949L246.848 56.3437L225.822 64.2853L224.525 68.0148L223.203 81.2742L240.297 68.1778L240.203 77.2945L259.51 61.5593L245.351 67.2949Z" fill="white"/>
<path d="M16.584 79.4836L31.5 6.00007L234.401 14.6826L225.262 81.2315L16.584 79.4836Z" fill="white"/>
</g>
<defs>
<clipPath id="clip0_376_145">
<rect width="268.255" height="83.9882" fill="white" transform="matrix(0.999805 0.019736 0.0363803 -0.999338 0.36084 84.2722)"/>
</clipPath>
</defs>
</svg>
