<svg width="265" height="99" viewBox="0 0 265 99" fill="none" xmlns="http://www.w3.org/2000/svg">
<g clip-path="url(#clip0_376_133)">
<path d="M234.466 28.2655C237.415 18.629 230.177 8.85081 220.082 8.83378L16.6162 8.49055C6.72172 8.47386 -0.436931 17.8691 2.1989 27.4123L18.3108 85.7465C20.2426 92.7405 26.8981 97.3732 34.12 96.7508L208.322 81.7371C214.396 81.2136 219.532 77.0648 221.314 71.2428L234.466 28.2655Z" fill="black"/>
<path d="M234.067 59.6459C226.326 58.0882 214.688 51.1314 213.128 49.392C197.464 54.155 160.69 69.5715 217.046 74.2568C239.304 76.1073 257.627 62.5902 261.039 56.4411C256.967 58.6796 248.062 62.4623 234.067 59.6459Z" fill="black"/>
<path d="M231.116 29.9143C234.277 20.2113 226.999 10.2192 216.776 10.2271L19.84 10.3794C9.88583 10.3871 2.74159 19.9066 5.50889 29.4753L20.4184 81.0291C22.4119 87.9221 29.0021 92.4616 36.1451 91.862L205.972 77.6062C211.962 77.1034 217.057 73.0721 218.917 67.3646L231.116 29.9143Z" fill="white"/>
<path d="M232.831 61.7862C226.555 60.9438 215.63 55.6456 214.6 54.2312C200.755 58.1135 176.444 61.9233 217.408 70.0369C235.616 73.6434 252.321 64.8868 256.146 59.8822C252.388 61.7054 246.383 63.6052 232.831 61.7862Z" fill="white"/>
</g>
<defs>
<clipPath id="clip0_376_133">
<rect width="258.26" height="89.4106" fill="white" transform="matrix(0.999412 -0.0342992 0.0631659 0.998003 0.754883 9.12012)"/>
</clipPath>
</defs>
</svg>
