<svg width="208" height="78" viewBox="0 0 208 78" fill="none" xmlns="http://www.w3.org/2000/svg">
<g clip-path="url(#clip0_376_151)">
<path d="M22.2686 40.0788L16.914 48.2168L49.5007 49.9998L58.0005 42.9997L47.6828 31.6267L31.4876 36.6491L36.5074 28.5798L1.78617 39.3692L22.2686 40.0788Z" fill="#231F20"/>
<path d="M36.5005 10.9998L202.26 -0.805908L184.528 71.552L43.0005 68.9997L36.5005 10.9998Z" fill="#231F20"/>
<path d="M24.4588 38.1155L19.1266 46.2201L46.2695 46.8239L53.0006 41.5L44.5997 33.7319L28.3086 38.7823L33.3263 30.7172L11.0131 37.6509L24.4588 38.1155Z" fill="white"/>
<path d="M191.954 3.93164L182.317 70.5443L44.5005 66.4997L44.5005 11.9998L191.954 3.93164Z" fill="white"/>
</g>
<defs>
<clipPath id="clip0_376_151">
<rect width="204.032" height="71.931" fill="white" transform="matrix(-0.999631 0.0271792 0.0500797 0.998745 204.088 0.223145)"/>
</clipPath>
</defs>
</svg>
