<svg width="260" height="91" viewBox="0 0 260 91" fill="none" xmlns="http://www.w3.org/2000/svg">
<g clip-path="url(#clip0_376_12033)">
<path d="M240.155 45.1911L240.019 36.6405L222.722 48.9909L221.999 53.0812L222.95 66.822L234.13 53.2662L234.518 61.5585L258.473 32.4822L240.155 45.1911Z" fill="#231F20"/>
<path d="M229.014 76.7006L0.202148 83L27.7602 7.25872L236.532 7.44564L229.014 76.7006Z" fill="#231F20"/>
<path d="M239.403 47.8318L239.267 39.3166L217.198 54.0733L220.414 60.0207L221.357 66.5533L235.645 49.8855L236.086 56.857L250.815 39.3166L239.403 47.8318Z" fill="white"/>
<path d="M15.0186 78.1389L31.0138 8.33749L230.271 9.72708L224.035 71.7973L15.0186 78.1389Z" fill="white"/>
</g>
<defs>
<clipPath id="clip0_376_12033">
<rect width="257.041" height="82.7548" fill="white" transform="matrix(0.999586 0.0287703 0.0249596 -0.999688 0.233398 83.438)"/>
</clipPath>
</defs>
</svg>
