<svg width="180" height="61" viewBox="0 0 180 61" fill="none" xmlns="http://www.w3.org/2000/svg">
<path fill-rule="evenodd" clip-rule="evenodd" d="M9 60C4.58172 60 1 56.4183 1 52V9C1 4.58172 4.58172 1 8.99999 1H144.422C148.84 1 152.422 4.58172 152.422 9V19.9999H178L152.422 35.3573V52C152.422 56.4183 148.84 60 144.422 60H9Z" fill="white"/>
<path d="M152.422 19.9999V20.4999H151.922V19.9999H152.422ZM178 19.9999V19.4999H179.804L178.257 20.4286L178 19.9999ZM152.422 35.3573H151.922V35.0743L152.164 34.9286L152.422 35.3573ZM1.5 52C1.5 56.1421 4.85786 59.5 9 59.5V60.5C4.30558 60.5 0.5 56.6944 0.5 52H1.5ZM1.5 9V52H0.5V9H1.5ZM8.99999 1.5C4.85786 1.5 1.5 4.85786 1.5 9H0.5C0.5 4.30558 4.30557 0.5 8.99999 0.5V1.5ZM144.422 1.5H8.99999V0.5H144.422V1.5ZM151.922 9C151.922 4.85786 148.564 1.5 144.422 1.5V0.5C149.116 0.5 152.922 4.30558 152.922 9H151.922ZM151.922 19.9999V9H152.922V19.9999H151.922ZM178 20.4999H152.422V19.4999H178V20.4999ZM152.164 34.9286L177.743 19.5713L178.257 20.4286L152.679 35.786L152.164 34.9286ZM151.922 52V35.3573H152.922V52H151.922ZM144.422 59.5C148.564 59.5 151.922 56.1421 151.922 52H152.922C152.922 56.6944 149.116 60.5 144.422 60.5V59.5ZM9 59.5H144.422V60.5H9V59.5Z" fill="#BBBBBB"/>
</svg>
