<svg width="203" height="63" viewBox="0 0 203 63" fill="none" xmlns="http://www.w3.org/2000/svg">
<g clip-path="url(#clip0_266_363)">
<path d="M181.76 28.0152L184.681 18.5954L165.142 24.095L163.054 28.2359L159 43.7124L173.611 34.0591L171.002 43.313L202.319 22.5961L181.76 28.0152Z" fill="#231F20"/>
<path d="M162.145 4.85433L0.786621 6.26514L22.8985 62.012L169.913 56.2991L162.145 4.85433Z" fill="#231F20"/>
<path d="M180.162 30.5548L183.072 21.1738L157 28.5L157 34L161.443 40.7692L176.141 31.0604L173.533 40.3097L193.659 26.9961L180.162 30.5548Z" fill="white"/>
<path d="M11.1737 9.49927L24.9932 61.1239L165.991 54.7522L159.357 8.63165L11.1737 9.49927Z" fill="white"/>
</g>
<defs>
<clipPath id="clip0_266_363">
<rect width="201.059" height="56.8365" fill="white" transform="matrix(0.999661 -0.0260535 0.0275624 0.99962 0.36377 6.02637)"/>
</clipPath>
</defs>
</svg>
