<svg width="179" height="90" viewBox="0 0 179 90" fill="none" xmlns="http://www.w3.org/2000/svg">
<g clip-path="url(#clip0_266_374)">
<path d="M18.1219 70.074L24.5167 78.6991L55.5728 47.4876L43.7415 49.3146L32.8064 36.7051L21.388 58.4392L14.4628 52.9316L0.822775 90.2373L18.1219 70.074Z" fill="#231F20"/>
<ellipse cx="87.2498" cy="32.4628" rx="87.2498" ry="32.4628" transform="matrix(1 1.76964e-06 1.94474e-06 1 4.50024 0)" fill="black"/>
<path d="M16.9409 65.7031L24.3968 74.6703L49.7175 47.7371L44.7638 41.8974L32.8101 40.7111L22.6417 63.305L15.6436 57.3027L7.03284 79.4349L16.9409 65.7031Z" fill="white"/>
<ellipse cx="85.3599" cy="30.1441" rx="85.3599" ry="30.1441" transform="matrix(1 3.51153e-06 2.97168e-06 1 8.28003 1.98755)" fill="white"/>
</g>
<defs>
<clipPath id="clip0_266_374">
<rect width="178.431" height="89.3627" fill="white" transform="matrix(-1 -4.74446e-05 -5.01945e-05 1 178.932 0.0100098)"/>
</clipPath>
</defs>
</svg>
