<svg width="179" height="82" viewBox="0 0 179 82" fill="none" xmlns="http://www.w3.org/2000/svg">
<path fill-rule="evenodd" clip-rule="evenodd" d="M9 81C4.58172 81 1 77.4183 1 73V9C1 4.58172 4.58172 1 9 1H145C149.418 1 153 4.58173 153 9V32.219L178 26.5061L153 44.8632V73C153 77.4183 149.418 81 145 81H9Z" fill="white"/>
<path d="M153 32.219L153.111 32.7065L152.5 32.8462V32.219H153ZM178 26.5061L177.888 26.0187L178.296 26.9091L178 26.5061ZM153 44.8632H152.5V44.61L152.704 44.4602L153 44.8632ZM1.5 73C1.5 77.1421 4.85786 80.5 9 80.5V81.5C4.30558 81.5 0.5 77.6944 0.5 73H1.5ZM1.5 9V73H0.5V9H1.5ZM9 1.5C4.85786 1.5 1.5 4.85786 1.5 9H0.5C0.5 4.30557 4.30558 0.5 9 0.5V1.5ZM145 1.5H9V0.5H145V1.5ZM152.5 9C152.5 4.85787 149.142 1.5 145 1.5V0.5C149.694 0.5 153.5 4.30558 153.5 9H152.5ZM152.5 32.219V9H153.5V32.219H152.5ZM178.111 26.9935L153.111 32.7065L152.889 31.7316L177.888 26.0187L178.111 26.9935ZM152.704 44.4602L177.704 26.1031L178.296 26.9091L153.296 45.2662L152.704 44.4602ZM152.5 73V44.8632H153.5V73H152.5ZM145 80.5C149.142 80.5 152.5 77.1421 152.5 73H153.5C153.5 77.6944 149.694 81.5 145 81.5V80.5ZM9 80.5H145V81.5H9V80.5Z" fill="#BBBBBB"/>
</svg>
