<svg width="179" height="105" viewBox="0 0 179 105" fill="none" xmlns="http://www.w3.org/2000/svg">
<path fill-rule="evenodd" clip-rule="evenodd" d="M9 104C4.58172 104 1 100.418 1 96V9C1 4.58172 4.58172 1 9 1H145C149.418 1 153 4.58173 153 9V69.293L178 62.6279L153 81.4154V96C153 100.418 149.418 104 145 104H9Z" fill="white"/>
<path d="M153 69.293L153.129 69.7762L152.5 69.9438V69.293H153ZM178 62.6279L177.871 62.1448L178.3 63.0276L178 62.6279ZM153 81.4154H152.5V81.1657L152.7 81.0157L153 81.4154ZM1.5 96C1.5 100.142 4.85786 103.5 9 103.5V104.5C4.30558 104.5 0.5 100.694 0.5 96H1.5ZM1.5 9V96H0.5V9H1.5ZM9 1.5C4.85786 1.5 1.5 4.85786 1.5 9H0.5C0.5 4.30557 4.30558 0.5 9 0.5V1.5ZM145 1.5H9V0.5H145V1.5ZM152.5 9C152.5 4.85787 149.142 1.5 145 1.5V0.5C149.694 0.5 153.5 4.30558 153.5 9H152.5ZM152.5 69.293V9H153.5V69.293H152.5ZM178.129 63.1111L153.129 69.7762L152.871 68.8099L177.871 62.1448L178.129 63.1111ZM152.7 81.0157L177.7 62.2282L178.3 63.0276L153.3 81.8151L152.7 81.0157ZM152.5 96V81.4154H153.5V96H152.5ZM145 103.5C149.142 103.5 152.5 100.142 152.5 96H153.5C153.5 100.694 149.694 104.5 145 104.5V103.5ZM9 103.5H145V104.5H9V103.5Z" fill="#BBBBBB"/>
</svg>
