<svg width="244" height="148" viewBox="0 0 244 148" fill="none" xmlns="http://www.w3.org/2000/svg">
<path fill-rule="evenodd" clip-rule="evenodd" d="M57.9998 1C53.5816 1 49.9998 4.58173 49.9998 9V93.3051L1.06445 130.668L49.9998 120.351V139C49.9998 143.418 53.5816 147 57.9998 147H235C239.418 147 243 143.418 243 139V9C243 4.58172 239.418 1 235 1H57.9998Z" fill="white"/>
<path d="M49.9998 93.3051L50.3033 93.7025L50.4998 93.5524V93.3051H49.9998ZM1.06445 130.668L0.761027 130.271L1.1676 131.157L1.06445 130.668ZM49.9998 120.351H50.4998V119.734L49.8967 119.861L49.9998 120.351ZM50.4998 9C50.4998 4.85787 53.8577 1.5 57.9998 1.5V0.5C53.3054 0.5 49.4998 4.30558 49.4998 9H50.4998ZM50.4998 93.3051V9H49.4998V93.3051H50.4998ZM49.6964 92.9077L0.761027 130.271L1.36788 131.065L50.3033 93.7025L49.6964 92.9077ZM1.1676 131.157L50.103 120.84L49.8967 119.861L0.961302 130.179L1.1676 131.157ZM50.4998 139V120.351H49.4998V139H50.4998ZM57.9998 146.5C53.8577 146.5 50.4998 143.142 50.4998 139H49.4998C49.4998 143.694 53.3054 147.5 57.9998 147.5V146.5ZM235 146.5H57.9998V147.5H235V146.5ZM242.5 139C242.5 143.142 239.142 146.5 235 146.5V147.5C239.694 147.5 243.5 143.694 243.5 139H242.5ZM242.5 9V139H243.5V9H242.5ZM235 1.5C239.142 1.5 242.5 4.85786 242.5 9H243.5C243.5 4.30558 239.694 0.5 235 0.5V1.5ZM57.9998 1.5H235V0.5H57.9998V1.5Z" fill="#BDBDBD"/>
</svg>
