<svg width="325" height="132" viewBox="0 0 325 132" fill="none" xmlns="http://www.w3.org/2000/svg">
<g clip-path="url(#clip0_60_4516)">
<path d="M35.4379 101.766L42.6063 115.411L91.572 79.8226L73.6306 79.8224L60.3184 58.2682L43.7532 85.7307L35.4378 75.9527L0.702518 131.521L35.4379 101.766Z" fill="#231F20"/>
<ellipse cx="151.121" cy="49.5168" rx="151.121" ry="49.5168" transform="matrix(1 9.57065e-07 1.03338e-06 1 21.1958 0.666992)" fill="black"/>
<path d="M35.1714 97.1484L42.3111 110.737L82.8431 78.8354L76.8418 68.8791L59.4082 64.308L42.7415 91.9318L35.1714 81.511L12.3718 116.682L35.1714 97.1484Z" fill="white"/>
<ellipse cx="147.848" cy="45.9799" rx="147.848" ry="45.9799" transform="matrix(1 2.24838e-06 2.49703e-06 1 27.7427 3.69873)" fill="white"/>
</g>
<defs>
<clipPath id="clip0_60_4516">
<rect width="324.475" height="130.849" fill="white" transform="matrix(-1 -4.74446e-05 -5.01945e-05 1 324.824 0.684082)"/>
</clipPath>
</defs>
</svg>
