<svg width="449" height="183" viewBox="0 0 449 183" fill="none" xmlns="http://www.w3.org/2000/svg">
<g clip-path="url(#clip0_60_4521)">
<path d="M388.051 152.059L401.988 134.664L344.612 107.216L336.267 113.168L315.427 143.32L361.785 149.989L348.813 167.627L448.196 181.86L388.051 152.059Z" fill="#231F20"/>
<ellipse cx="203.502" cy="83.7104" rx="203.502" ry="83.7104" transform="matrix(-1 -0.000104184 -9.21662e-05 1 410.019 0.55542)" fill="black"/>
<path d="M382.06 155.041L395.938 137.717L346.088 113.868L339.681 118.436L324.008 141.111L370.641 147.826L357.675 165.454L421.542 174.6L382.06 155.041Z" fill="white"/>
<ellipse cx="199.094" cy="77.7311" rx="199.094" ry="77.7311" transform="matrix(-1 -0.000104184 -9.21662e-05 1 401.202 5.67944)" fill="white"/>
</g>
<defs>
<clipPath id="clip0_60_4521">
<rect width="447.86" height="181.853" fill="white" transform="matrix(1 4.74446e-05 -5.01945e-05 1 0.685059 0.538818)"/>
</clipPath>
</defs>
</svg>
