<svg width="297" height="103" viewBox="0 0 297 103" fill="none" xmlns="http://www.w3.org/2000/svg">
<path fill-rule="evenodd" clip-rule="evenodd" d="M107 102C102.582 102 99 98.4183 99 94V57.8107L1 34.5L99 28.3155V9C99 4.58172 102.582 1 107 1H288C292.418 1 296 4.58172 296 9V94C296 98.4183 292.418 102 288 102H107Z" fill="white"/>
<path d="M99 57.8107L99.1157 57.3243L99.5 57.4157V57.8107H99ZM1 34.5L0.884296 34.9864L0.968509 34.001L1 34.5ZM99 28.3155H99.5V28.785L99.0315 28.8145L99 28.3155ZM99.5 94C99.5 98.1421 102.858 101.5 107 101.5V102.5C102.306 102.5 98.5 98.6944 98.5 94H99.5ZM99.5 57.8107V94H98.5V57.8107H99.5ZM98.8843 58.2971L0.884296 34.9864L1.1157 34.0136L99.1157 57.3243L98.8843 58.2971ZM0.968509 34.001L98.9685 27.8165L99.0315 28.8145L1.03149 34.999L0.968509 34.001ZM99.5 9V28.3155H98.5V9H99.5ZM107 1.5C102.858 1.5 99.5 4.85786 99.5 9H98.5C98.5 4.30557 102.306 0.5 107 0.5V1.5ZM288 1.5H107V0.5H288V1.5ZM295.5 9C295.5 4.85786 292.142 1.5 288 1.5V0.5C292.694 0.5 296.5 4.30557 296.5 9H295.5ZM295.5 94V9H296.5V94H295.5ZM288 101.5C292.142 101.5 295.5 98.1421 295.5 94H296.5C296.5 98.6944 292.694 102.5 288 102.5V101.5ZM107 101.5H288V102.5H107V101.5Z" fill="#BDBDBD"/>
</svg>
