<svg width="314" height="79" viewBox="0 0 314 79" fill="none" xmlns="http://www.w3.org/2000/svg">
<path fill-rule="evenodd" clip-rule="evenodd" d="M230.314 57.0001H9C4.58173 57.0001 1 53.4184 1 49.0001V9.00012C1 4.58185 4.58173 1.00012 9 1.00012H305C309.418 1.00012 313 4.58185 313 9.00012V49.0001C313 53.4184 309.418 57.0001 305 57.0001H257.057L263 77.2224L230.314 57.0001Z" fill="white"/>
<path d="M230.314 57.0001L230.577 56.5749L230.456 56.5001H230.314V57.0001ZM257.057 57.0001V56.5001H256.389L256.577 57.1411L257.057 57.0001ZM263 77.2224L262.737 77.6476L263.848 78.335L263.48 77.0814L263 77.2224ZM230.314 56.5001H9V57.5001H230.314V56.5001ZM9 56.5001C4.85788 56.5001 1.5 53.1423 1.5 49.0001H0.5C0.5 53.6945 4.30557 57.5001 9 57.5001V56.5001ZM1.5 49.0001V9.00012H0.5V49.0001H1.5ZM1.5 9.00012C1.5 4.85799 4.85788 1.50012 9 1.50012V0.500122C4.30557 0.500122 0.5 4.3057 0.5 9.00012H1.5ZM9 1.50012H305V0.500122H9V1.50012ZM305 1.50012C309.142 1.50012 312.5 4.85799 312.5 9.00012H313.5C313.5 4.3057 309.694 0.500122 305 0.500122V1.50012ZM312.5 9.00012V49.0001H313.5V9.00012H312.5ZM312.5 49.0001C312.5 53.1423 309.142 56.5001 305 56.5001V57.5001C309.694 57.5001 313.5 53.6945 313.5 49.0001H312.5ZM305 56.5001H257.057V57.5001H305V56.5001ZM256.577 57.1411L262.52 77.3633L263.48 77.0814L257.537 56.8591L256.577 57.1411ZM263.263 76.7971L230.577 56.5749L230.051 57.4253L262.737 77.6476L263.263 76.7971Z" fill="#BDBDBD"/>
</svg>
