<svg width="344" height="124" viewBox="0 0 344 124" fill="none" xmlns="http://www.w3.org/2000/svg">
<path fill-rule="evenodd" clip-rule="evenodd" d="M215 1C219.418 1 223 4.58172 223 9V57.4144L343.09 107.758L223 92.541V115C223 119.418 219.418 123 215 123H9C4.58173 123 1 119.418 1 115V9C1 4.58172 4.58173 1 9 1H215Z" fill="white"/>
<path d="M223 57.4144L222.807 57.8755L222.5 57.7469V57.4144H223ZM343.09 107.758L343.284 107.297L343.027 108.254L343.09 107.758ZM223 92.541H222.5V91.9737L223.063 92.045L223 92.541ZM222.5 9C222.5 4.85786 219.142 1.5 215 1.5V0.5C219.694 0.5 223.5 4.30558 223.5 9H222.5ZM222.5 57.4144V9H223.5V57.4144H222.5ZM223.193 56.9532L343.284 107.297L342.897 108.219L222.807 57.8755L223.193 56.9532ZM343.027 108.254L222.937 93.0371L223.063 92.045L343.153 107.262L343.027 108.254ZM222.5 115V92.541H223.5V115H222.5ZM215 122.5C219.142 122.5 222.5 119.142 222.5 115H223.5C223.5 119.694 219.694 123.5 215 123.5V122.5ZM9 122.5H215V123.5H9V122.5ZM1.5 115C1.5 119.142 4.85788 122.5 9 122.5V123.5C4.30557 123.5 0.5 119.694 0.5 115H1.5ZM1.5 9V115H0.5V9H1.5ZM9 1.5C4.85788 1.5 1.5 4.85786 1.5 9H0.5C0.5 4.30558 4.30557 0.5 9 0.5V1.5ZM215 1.5H9V0.5H215V1.5Z" fill="#BDBDBD"/>
</svg>
