<svg width="433" height="132" viewBox="0 0 433 132" fill="none" xmlns="http://www.w3.org/2000/svg">
<g clip-path="url(#clip0_60_4506)">
<path d="M381.833 80.625L383.576 98.0029L338.348 80.3319L335.589 72.3536L334.575 44.1167L365.16 66.8275L364.095 49.8658L429.64 98.5892L381.833 80.625Z" fill="#231F20"/>
<path d="M343.861 123.655L1.62329 119.196L47.869 2.3631L359.735 15.7213L343.861 123.655Z" fill="#231F20"/>
<path d="M379.358 75.5985L381.092 92.9046L341.796 77.5526L339.677 71.428L338.914 50.1921L369.683 73.0348L368.617 56.0814L410.739 87.393L379.358 75.5985Z" fill="white"/>
<path d="M23.6155 112.502L52.3222 4.24671L351.436 18.9322L337.903 115.699L23.6155 112.502Z" fill="white"/>
</g>
<defs>
<clipPath id="clip0_60_4506">
<rect width="428.628" height="119.449" fill="white" transform="matrix(0.999661 0.0260535 0.0275624 -0.99962 0.75293 120.114)"/>
</clipPath>
</defs>
</svg>
