<svg width="582" height="179" viewBox="0 0 582 179" fill="none" xmlns="http://www.w3.org/2000/svg">
<g clip-path="url(#clip0_65_16343)">
<path d="M0.607695 30.1629C-2.79175 14.595 9.0323 -0.0997264 24.9605 -0.102308L427.365 -0.167529C441.544 -0.169827 452.92 11.6049 452.425 25.7715L448.782 130.137C448.333 142.991 438.199 153.38 425.358 154.149L54.2236 176.365C41.9061 177.103 30.8683 168.742 28.2343 156.68L0.607695 30.1629Z" fill="black"/>
<path d="M504.814 65.6938L515.381 44.3207L443.221 43.9026L435.602 52.7169L421 88.3716L474.816 74.8696L465.401 96.0549L580.754 67.0506L504.814 65.6938Z" fill="#231F20"/>
<path d="M12.868 26.5988C9.85627 10.8942 22.1593 -3.56152 38.1434 -3.09919L424.941 8.08884C439.153 8.49991 450.162 20.6646 449.156 34.8467L442.548 128.031C441.639 140.848 431.163 150.889 418.319 151.253L60.0895 161.398C47.8357 161.745 37.1379 153.156 34.8291 141.117L12.868 26.5988Z" fill="white"/>
<path d="M498.971 70.8709L509.493 49.5856L446.798 49.2203L440.948 55.9863L429.966 82.8008L484.103 69.2234L474.69 90.3977L548.821 71.7583L498.971 70.8709Z" fill="white"/>
<path d="M132.142 72C122.905 72 115.418 78.9368 115.418 87.4954V118.484C115.418 127.043 122.905 133.98 132.142 133.98H165.587C174.824 133.98 182.311 127.043 182.311 118.484V72H132.142Z" fill="#B4FF0A"/>
<path d="M133.702 96.7487C133.154 94.5327 135.542 92.5711 138.629 92.5711C141.41 92.5711 144.197 93.1484 145.259 96.7411H148.823V102.225C144.377 98.8395 134.741 100.962 133.702 96.7487ZM170.692 95.2315H162.663L155.022 102.983V87.4952H148.823V91.2475C148.622 91.0045 148.407 90.7652 148.169 90.5297C145.914 88.3193 142.666 87.199 138.514 87.199C133.712 87.199 130.982 89.1891 129.537 90.8601C127.742 92.9338 126.941 95.7632 127.496 98.0685C128.933 104.039 134.911 104.992 139.303 105.522C142.771 105.94 146.087 106.523 145.998 109.386C145.906 112.358 142.291 113.089 139.918 113.089C133.739 113.089 133.53 108.856 133.53 108.856H126.881C126.979 110.446 127.498 112.998 129.609 115.187C131.923 117.586 135.39 118.803 139.918 118.803C143.392 118.803 146.556 117.755 148.823 115.892V118.452H155.022V111.139L157.215 108.915L163.476 118.452H170.69L161.58 104.487L170.692 95.2315Z" fill="#4D5759"/>
<path d="M198.087 114.574C198.503 114.703 198.989 114.768 199.545 114.768C200.239 114.768 200.793 114.574 201.211 114.189C201.627 113.803 201.904 113.289 202.043 112.709L193.23 95.4138H199.094L204.748 107.823L209.71 95.4138H215.297L207.351 112.453C206.31 114.703 205.236 116.374 204.055 117.436C202.875 118.53 201.592 119.075 200.17 119.075C199.684 119.075 199.303 119.075 198.989 119.01C198.643 118.98 198.366 118.915 198.122 118.851L197.462 118.657C197.29 118.592 197.116 118.53 196.942 118.497V114.124C197.255 114.318 197.637 114.477 198.087 114.574Z" fill="#4D5759"/>
<path d="M224.849 112.003C224.503 112.098 224.122 112.163 223.703 112.259C223.287 112.324 222.837 112.389 222.386 112.421C221.935 112.485 221.484 112.485 221.066 112.485C219.992 112.485 219.09 112.389 218.256 112.227C217.459 112.035 216.766 111.777 216.211 111.392C215.655 111.006 215.239 110.491 214.96 109.848C214.684 109.238 214.544 108.467 214.544 107.565V101.394H219.332V106.697C219.332 107.18 219.402 107.598 219.541 107.888C219.646 108.209 219.853 108.467 220.131 108.659C220.408 108.853 220.719 108.98 221.135 109.045C221.554 109.109 222.039 109.141 222.595 109.141C223.427 109.141 224.052 109.077 224.538 108.948C225.023 108.788 225.405 108.627 225.681 108.467V101.394H230.471V118.497H225.681V111.745C225.474 111.809 225.198 111.906 224.849 112.003Z" fill="#4D5759"/>
<path d="M243.239 110.524C242.927 110.653 242.546 110.782 242.06 110.845L240.775 111.071C240.22 111.168 239.734 111.263 239.318 111.392C238.902 111.521 238.556 111.68 238.277 111.874C238 112.098 237.791 112.356 237.652 112.645C237.515 112.936 237.445 113.289 237.445 113.739C237.445 114.092 237.515 114.413 237.617 114.671C237.757 114.96 237.931 115.153 238.173 115.345C238.382 115.507 238.623 115.668 238.902 115.733C239.214 115.828 239.527 115.86 239.874 115.86C240.048 115.86 240.29 115.828 240.568 115.795C240.845 115.763 241.122 115.7 241.47 115.604C241.782 115.474 242.093 115.345 242.407 115.153C242.718 114.992 242.997 114.736 243.239 114.445C243.518 114.157 243.725 113.803 243.864 113.353C244.003 112.936 244.108 112.453 244.108 111.874V110.138C243.829 110.298 243.518 110.427 243.239 110.524ZM249 116.375C249.033 116.695 249.137 116.986 249.242 117.147C249.346 117.371 249.451 117.501 249.588 117.596C249.727 117.692 249.832 117.757 250.004 117.789V118.498H244.696L244.419 117.692C244.28 117.371 244.245 116.986 244.245 116.504L243.169 117.501C242.788 117.789 242.407 118.047 241.956 118.272C241.505 118.498 241.019 118.689 240.429 118.818C239.839 118.946 239.144 119.01 238.347 119.01C237.515 119.01 236.75 118.915 236.058 118.689C235.363 118.463 234.773 118.11 234.252 117.692C233.766 117.242 233.35 116.695 233.074 116.021C232.795 115.378 232.657 114.607 232.657 113.739C232.657 113.03 232.76 112.389 233.004 111.777C233.246 111.168 233.594 110.653 234.01 110.203C234.461 109.753 234.982 109.367 235.607 109.077C236.23 108.756 236.924 108.562 237.722 108.467L242.407 107.824C242.579 107.791 242.753 107.791 242.962 107.727C243.169 107.694 243.343 107.63 243.518 107.503C243.69 107.406 243.829 107.277 243.934 107.115C244.038 106.923 244.108 106.698 244.108 106.409C244.108 106.118 244.038 105.862 243.968 105.638C243.864 105.38 243.69 105.188 243.483 105.026C243.239 104.833 242.962 104.706 242.579 104.609C242.198 104.512 241.712 104.48 241.157 104.48C240.499 104.48 240.013 104.544 239.632 104.641C239.214 104.77 238.902 104.962 238.693 105.156C238.451 105.38 238.277 105.638 238.173 105.894L237.966 106.827H233.178C233.178 106.635 233.213 106.344 233.281 105.959C233.35 105.606 233.49 105.188 233.699 104.738C233.871 104.32 234.182 103.868 234.531 103.42C234.877 102.97 235.328 102.55 235.953 102.165C236.508 101.812 237.236 101.491 238.07 101.265C238.902 101.041 239.874 100.911 241.052 100.879C242.683 100.879 244.038 101.041 245.077 101.329C246.083 101.65 246.883 102.068 247.473 102.55C248.026 103.065 248.41 103.612 248.617 104.223C248.791 104.833 248.895 105.444 248.895 106.056V115.121C248.895 115.636 248.93 116.054 249 116.375Z" fill="#4D5759"/>
<path d="M262.385 106.247C262.246 105.894 262.039 105.606 261.795 105.38C261.518 105.123 261.207 104.962 260.86 104.833C260.477 104.738 260.026 104.673 259.506 104.673C258.708 104.673 258.083 104.833 257.598 105.188C257.112 105.541 256.731 105.959 256.487 106.473C256.21 107.02 256.071 107.598 255.966 108.209C255.896 108.821 255.829 109.398 255.829 109.945C255.829 110.492 255.864 111.103 255.933 111.713C256.001 112.356 256.14 112.903 256.417 113.418C256.661 113.932 257.007 114.383 257.528 114.703C258.014 115.057 258.674 115.218 259.506 115.218C260.061 115.218 260.547 115.121 260.963 114.895C261.344 114.703 261.692 114.445 261.969 114.157C262.246 113.836 262.455 113.513 262.594 113.16C262.699 112.839 262.766 112.518 262.766 112.227H267.763C267.763 112.518 267.73 112.871 267.626 113.321C267.486 113.803 267.312 114.253 267.07 114.768C266.828 115.25 266.48 115.763 266.099 116.278C265.648 116.792 265.162 117.242 264.537 117.628C263.912 118.047 263.217 118.368 262.385 118.627C261.553 118.883 260.582 119.01 259.506 119.01C258.118 119.01 256.868 118.818 255.794 118.433C254.718 118.015 253.816 117.436 253.087 116.663C252.359 115.892 251.804 114.96 251.42 113.803C251.039 112.677 250.832 111.392 250.832 109.945C250.832 108.467 251.039 107.18 251.455 106.056C251.871 104.962 252.464 103.997 253.226 103.226C253.988 102.455 254.89 101.876 255.966 101.491C257.007 101.073 258.223 100.879 259.506 100.879C260.061 100.879 260.651 100.944 261.276 101.008C261.865 101.073 262.455 101.232 263.045 101.426C263.635 101.65 264.191 101.908 264.744 102.229C265.265 102.55 265.752 102.97 266.203 103.452C266.619 103.933 266.966 104.512 267.242 105.156C267.521 105.797 267.695 106.57 267.763 107.438H262.766C262.664 106.988 262.559 106.57 262.385 106.247Z" fill="#4D5759"/>
<path d="M284.478 101.394V104.994H278.891V118.497H274.104V104.994H268.517V101.394H284.478Z" fill="#4D5759"/>
<path d="M297.791 107.565V101.394H302.579V118.497H297.791V111.168H290.747V118.497H285.96V101.394H290.747V107.565H297.791Z" fill="#4D5759"/>
<path d="M310.648 111.938L317.378 101.394H322.41V118.497H317.62V108.177H317.553L311.029 118.497H305.791V101.394H310.578V111.938H310.648Z" fill="#4D5759"/>
<path d="M337.374 101.394H343.758L336.126 108.498L344.072 118.497H337.825L332.413 111.262L330.47 113.095V118.497H325.682V101.394H330.47V107.888L337.374 101.394Z" fill="#4D5759"/>
</g>
<defs>
<clipPath id="clip0_65_16343">
<rect width="582" height="179" fill="white"/>
</clipPath>
</defs>
</svg>
