<svg width="352" height="110" viewBox="0 0 352 110" fill="none" xmlns="http://www.w3.org/2000/svg">
<path fill-rule="evenodd" clip-rule="evenodd" d="M215 1C219.418 1 223 4.58172 223 9V17.4545L351 32L223 52.3636V101C223 105.418 219.418 109 215 109H8.99994C4.58167 109 0.999939 105.418 0.999939 101V9C0.999939 4.58172 4.58167 1 8.99994 1H215Z" fill="white"/>
<path d="M223 17.4545L222.943 17.9514L222.5 17.9009V17.4545H223ZM351 32L351.056 31.5032L351.079 32.4938L351 32ZM223 52.3636H222.5V51.9369L222.921 51.8698L223 52.3636ZM222.5 9C222.5 4.85787 219.142 1.5 215 1.5V0.5C219.694 0.5 223.5 4.30558 223.5 9H222.5ZM222.5 17.4545V9H223.5V17.4545H222.5ZM223.056 16.9577L351.056 31.5032L350.944 32.4968L222.943 17.9514L223.056 16.9577ZM351.079 32.4938L223.078 52.8574L222.921 51.8698L350.921 31.5062L351.079 32.4938ZM222.5 101V52.3636H223.5V101H222.5ZM215 108.5C219.142 108.5 222.5 105.142 222.5 101H223.5C223.5 105.694 219.694 109.5 215 109.5V108.5ZM8.99994 108.5H215V109.5H8.99994V108.5ZM1.49994 101C1.49994 105.142 4.85782 108.5 8.99994 108.5V109.5C4.30551 109.5 0.499939 105.694 0.499939 101H1.49994ZM1.49994 9V101H0.499939V9H1.49994ZM8.99994 1.5C4.85782 1.5 1.49994 4.85786 1.49994 9H0.499939C0.499939 4.30558 4.30551 0.5 8.99994 0.5V1.5ZM215 1.5H8.99994V0.5H215V1.5Z" fill="#BDBDBD"/>
</svg>
