<svg width="248" height="134" viewBox="0 0 248 134" fill="none" xmlns="http://www.w3.org/2000/svg">
<path fill-rule="evenodd" clip-rule="evenodd" d="M8.90332 1.02014C4.48504 1.02014 0.90332 4.60186 0.90332 9.02014V78.0201C0.90332 82.4384 4.48505 86.0201 8.90332 86.0201H51.7878L47 132L88.1113 86.0201H239.354C243.772 86.0201 247.354 82.4384 247.354 78.0201V9.02014C247.354 4.60186 243.772 1.02014 239.354 1.02014H8.90332Z" fill="white"/>
<path d="M51.7878 86.0201L52.2851 86.0719L52.3426 85.5201H51.7878V86.0201ZM47 132L46.5027 131.948L46.3426 133.485L47.3727 132.333L47 132ZM88.1113 86.0201V85.5201H87.8876L87.7385 85.6869L88.1113 86.0201ZM1.40332 9.02014C1.40332 4.87801 4.76118 1.52014 8.90332 1.52014V0.520142C4.2089 0.520142 0.40332 4.32572 0.40332 9.02014H1.40332ZM1.40332 78.0201V9.02014H0.40332V78.0201H1.40332ZM8.90332 85.5201C4.76119 85.5201 1.40332 82.1623 1.40332 78.0201H0.40332C0.40332 82.7146 4.2089 86.5201 8.90332 86.5201V85.5201ZM51.7878 85.5201H8.90332V86.5201H51.7878V85.5201ZM47.4973 132.052L52.2851 86.0719L51.2905 85.9684L46.5027 131.948L47.4973 132.052ZM87.7385 85.6869L46.6273 131.667L47.3727 132.333L88.484 86.3534L87.7385 85.6869ZM239.354 85.5201H88.1113V86.5201H239.354V85.5201ZM246.854 78.0201C246.854 82.1623 243.496 85.5201 239.354 85.5201V86.5201C244.048 86.5201 247.854 82.7146 247.854 78.0201H246.854ZM246.854 9.02014V78.0201H247.854V9.02014H246.854ZM239.354 1.52014C243.496 1.52014 246.854 4.87801 246.854 9.02014H247.854C247.854 4.32572 244.048 0.520142 239.354 0.520142V1.52014ZM8.90332 1.52014H239.354V0.520142H8.90332V1.52014Z" fill="#BDBDBD"/>
</svg>
