<svg width="418" height="147" viewBox="0 0 418 147" fill="none" xmlns="http://www.w3.org/2000/svg">
<g clip-path="url(#clip0_60_4531)">
<path d="M352.921 37.6642C356.039 27.9692 348.777 18.0305 338.583 18.0414L16.4129 18.3883C6.47117 18.399 -0.685861 27.8992 2.04194 37.4641L29.6052 134.113C31.5785 141.032 38.182 145.591 45.346 144.979L316.193 121.859C322.205 121.346 327.315 117.28 329.161 111.54L352.921 37.6642Z" fill="black"/>
<path d="M370.262 56.466C357.122 56.5447 335.668 49.5619 332.494 47.3846C308.814 59.7229 254.776 95.2053 348.001 84.3916C384.819 80.1208 409.599 53.4616 412.878 42.9086C407.088 47.6555 394.022 56.3239 370.262 56.466Z" fill="black"/>
<path d="M348.134 39.9077C351.473 30.1481 344.173 19.987 333.847 20.0225L21.1245 21.0972C11.1195 21.1316 3.97615 30.7622 6.84166 40.3534L32.8107 127.275C34.8467 134.09 41.3839 138.553 48.467 137.963L312.634 115.982C318.559 115.489 323.624 111.543 325.547 105.922L348.134 39.9077Z" fill="white"/>
<path d="M369.043 60.1545C358.543 60.8654 338.855 56.2071 336.664 54.3598C315.612 64.7616 277.541 78.3987 347.035 77.7828C377.925 77.5091 401.827 58.6925 406.197 49.7685C400.766 53.7758 391.716 58.6194 369.043 60.1545Z" fill="white"/>
</g>
<defs>
<clipPath id="clip0_60_4531">
<rect width="411.253" height="127.983" fill="white" transform="matrix(0.998975 -0.0452653 0.047883 0.998853 0.294189 18.8633)"/>
</clipPath>
</defs>
</svg>
