<svg width="199" height="247" viewBox="0 0 199 247" fill="none" xmlns="http://www.w3.org/2000/svg">
<path fill-rule="evenodd" clip-rule="evenodd" d="M9 246C4.58172 246 1 242.418 1 238V73C1 68.5817 4.58172 65 9 65H46.8618L25.135 0.728409L75.5372 65H190C194.418 65 198 68.5817 198 73V238C198 242.418 194.418 246 190 246H9Z" fill="white"/>
<path d="M46.8618 65L47.3355 64.8399L47.5587 65.5H46.8618V65ZM25.135 0.728409L24.6613 0.888535L25.5284 0.419861L25.135 0.728409ZM75.5372 65V65.5H75.2939L75.1438 65.3085L75.5372 65ZM1.5 238C1.5 242.142 4.85786 245.5 9 245.5V246.5C4.30558 246.5 0.5 242.694 0.5 238H1.5ZM1.5 73V238H0.5V73H1.5ZM9 65.5C4.85786 65.5 1.5 68.8579 1.5 73H0.5C0.5 68.3056 4.30558 64.5 9 64.5V65.5ZM46.8618 65.5H9V64.5H46.8618V65.5ZM46.3882 65.1601L24.6613 0.888535L25.6086 0.568283L47.3355 64.8399L46.3882 65.1601ZM25.5284 0.419861L75.9307 64.6915L75.1438 65.3085L24.7415 1.03696L25.5284 0.419861ZM190 65.5H75.5372V64.5H190V65.5ZM197.5 73C197.5 68.8578 194.142 65.5 190 65.5V64.5C194.694 64.5 198.5 68.3056 198.5 73H197.5ZM197.5 238V73H198.5V238H197.5ZM190 245.5C194.142 245.5 197.5 242.142 197.5 238H198.5C198.5 242.694 194.694 246.5 190 246.5V245.5ZM9 245.5H190V246.5H9V245.5Z" fill="#BDBDBD"/>
</svg>
