<svg width="312" height="94" viewBox="0 0 312 94" fill="none" xmlns="http://www.w3.org/2000/svg">
<g clip-path="url(#clip0_60_4526)">
<path d="M47.1038 62.7156C43.3537 72.3022 50.1533 82.7309 60.438 83.1665L295.053 93.1017C305.033 93.5243 312.631 84.257 310.259 74.5535L294.896 11.6926C293.204 4.76914 286.873 -0.0074927 279.751 0.265181L78.1846 7.98228C72.2226 8.21054 66.9626 11.9506 64.7889 17.507L47.1038 62.7156Z" fill="black"/>
<path d="M39.5263 28.2754C61.7447 34.2438 70.2776 28.5324 72.2482 27.0134C95.7693 44.7069 133.894 89.9807 92.7768 74.2168C45.9789 56.2749 6.34063 18.4462 0.356142 7.01464C6.64029 13.0977 28.5613 25.33 39.5263 28.2754Z" fill="black"/>
<path d="M52.2508 58.6208C48.1539 68.2819 54.9887 79.0557 65.4745 79.4653L290.715 88.2633C300.797 88.6571 308.385 79.1855 305.801 69.4327L291.75 16.3985C289.957 9.62993 283.719 5.00267 276.721 5.24984L81.3642 12.1499C75.5386 12.3557 70.3596 15.918 68.0837 21.2847L52.2508 58.6208Z" fill="white"/>
<path d="M44.4 31.9801C53.4145 34.6697 71.3372 34.2988 72.747 32.8527C93.8971 47.3756 106.564 72.4737 71.0301 58.0071C43.47 46.7868 13.8354 23.264 7.61789 13.4206C13.4322 18.5036 26.42 26.6156 44.4 31.9801Z" fill="white"/>
</g>
<defs>
<clipPath id="clip0_60_4526">
<rect width="311.398" height="93.4991" fill="white" transform="matrix(-1 4.74446e-05 -5.01945e-05 -1 311.402 93.7009)"/>
</clipPath>
</defs>
</svg>
