<svg width="359" height="109" viewBox="0 0 359 109" fill="none" xmlns="http://www.w3.org/2000/svg">
<g clip-path="url(#clip0_60_4511)">
<path d="M39.0593 77.1732L42.3218 90.0707L75.0031 67.1337L75.1275 60.7698L68.3215 40.2236L49.1347 63.4773L45.4239 51.0324L4.32172 100.904L39.0593 77.1732Z" fill="#231F20"/>
<path d="M58.7947 13.9479L355.366 0.840576L322.105 96.8719L51.3134 101.356L58.7947 13.9479Z" fill="#231F20"/>
<path d="M39.7494 72.9967L42.9991 85.8407L71.3948 65.913L71.4911 61.0274L66.3726 45.5754L47.0696 68.9654L43.3615 56.5263L16.9477 88.5756L39.7494 72.9967Z" fill="white"/>
<path d="M336.713 7.2854L318.14 95.5769L58.3123 98.3734L64.4143 20.0434L336.713 7.2854Z" fill="white"/>
</g>
<defs>
<clipPath id="clip0_60_4511">
<rect width="354.882" height="95.2908" fill="white" transform="matrix(-0.999356 0.0358747 0.037951 0.99928 355.349 0.296631)"/>
</clipPath>
</defs>
</svg>
