<svg width="266" height="121" viewBox="0 0 266 121" fill="none" xmlns="http://www.w3.org/2000/svg">
<path fill-rule="evenodd" clip-rule="evenodd" d="M229 20.3409V9.33301C229 4.91473 225.418 1.33301 221 1.33301H9C4.58173 1.33301 1 4.91473 1 9.33301V112.333C1 116.751 4.58173 120.333 9 120.333H221C225.418 120.333 229 116.751 229 112.333V52.9527L265 1.00012L229 20.3409Z" fill="white"/>
<path d="M229 20.3409L229.237 20.7814L228.5 21.1771V20.3409H229ZM229 52.9527H228.5V52.7964L228.589 52.6679L229 52.9527ZM265 1.00012L264.763 0.559663L265.411 1.2849L265 1.00012ZM228.5 20.3409V9.33301H229.5V20.3409H228.5ZM228.5 9.33301C228.5 5.19087 225.142 1.83301 221 1.83301V0.833008C225.694 0.833008 229.5 4.63859 229.5 9.33301H228.5ZM221 1.83301H9V0.833008H221V1.83301ZM9 1.83301C4.85788 1.83301 1.5 5.19087 1.5 9.33301H0.5C0.5 4.63859 4.30557 0.833008 9 0.833008V1.83301ZM1.5 9.33301V112.333H0.5V9.33301H1.5ZM1.5 112.333C1.5 116.475 4.85788 119.833 9 119.833V120.833C4.30557 120.833 0.5 117.027 0.5 112.333H1.5ZM9 119.833H221V120.833H9V119.833ZM221 119.833C225.142 119.833 228.5 116.475 228.5 112.333H229.5C229.5 117.027 225.694 120.833 221 120.833V119.833ZM228.5 112.333V52.9527H229.5V112.333H228.5ZM228.589 52.6679L264.589 0.715341L265.411 1.2849L229.411 53.2375L228.589 52.6679ZM265.237 1.44058L229.237 20.7814L228.763 19.9005L264.763 0.559663L265.237 1.44058Z" fill="#BDBDBD"/>
</svg>
