<svg width="240" height="179" viewBox="0 0 240 179" fill="none" xmlns="http://www.w3.org/2000/svg">
<path fill-rule="evenodd" clip-rule="evenodd" d="M97.9966 75H9C4.58173 75 1 78.5817 1 83V170C1 174.418 4.58173 178 9 178H231C235.418 178 239 174.418 239 170V83C239 78.5817 235.418 75 231 75H134.889L128.397 1L97.9966 75Z" fill="white"/>
<path d="M97.9966 75L98.4591 75.19L98.3318 75.5H97.9966V75ZM134.889 75V75.5H134.431L134.391 75.0437L134.889 75ZM128.397 1L127.935 0.809999L128.895 0.956304L128.397 1ZM97.9966 75.5H9V74.5H97.9966V75.5ZM9 75.5C4.85786 75.5 1.5 78.8579 1.5 83H0.5C0.5 78.3056 4.30559 74.5 9 74.5V75.5ZM1.5 83V170H0.5V83H1.5ZM1.5 170C1.5 174.142 4.85786 177.5 9 177.5V178.5C4.30559 178.5 0.5 174.694 0.5 170H1.5ZM9 177.5H231V178.5H9V177.5ZM231 177.5C235.142 177.5 238.5 174.142 238.5 170H239.5C239.5 174.694 235.694 178.5 231 178.5V177.5ZM238.5 170V83H239.5V170H238.5ZM238.5 83C238.5 78.8579 235.142 75.5 231 75.5V74.5C235.694 74.5 239.5 78.3056 239.5 83H238.5ZM231 75.5H134.889V74.5H231V75.5ZM134.391 75.0437L127.899 1.0437L128.895 0.956304L135.387 74.9563L134.391 75.0437ZM128.86 1.19L98.4591 75.19L97.5341 74.81L127.935 0.809999L128.86 1.19Z" fill="#BDBDBD"/>
</svg>
