<svg width="260" height="92" viewBox="0 0 260 92" fill="none" xmlns="http://www.w3.org/2000/svg">
<path fill-rule="evenodd" clip-rule="evenodd" d="M102.926 46.0001H9C4.58173 46.0001 1 49.5818 1 54.0001V83.0001C1 87.4184 4.58173 91.0001 9 91.0001H251C255.418 91.0001 259 87.4184 259 83.0001V54.0001C259 49.5818 255.418 46.0001 251 46.0001H133.947L90 1.00012L102.926 46.0001Z" fill="white"/>
<path d="M102.926 46.0001L103.406 45.8621L103.589 46.5001H102.926V46.0001ZM133.947 46.0001V46.5001H133.736L133.589 46.3495L133.947 46.0001ZM90 1.00012L89.5194 1.13816L90.3577 0.650779L90 1.00012ZM102.926 46.5001H9V45.5001H102.926V46.5001ZM9 46.5001C4.85787 46.5001 1.5 49.858 1.5 54.0001H0.5C0.5 49.3057 4.30558 45.5001 9 45.5001V46.5001ZM1.5 54.0001V83.0001H0.5V54.0001H1.5ZM1.5 83.0001C1.5 87.1423 4.85787 90.5001 9 90.5001V91.5001C4.30558 91.5001 0.5 87.6945 0.5 83.0001H1.5ZM9 90.5001H251V91.5001H9V90.5001ZM251 90.5001C255.142 90.5001 258.5 87.1423 258.5 83.0001H259.5C259.5 87.6945 255.694 91.5001 251 91.5001V90.5001ZM258.5 83.0001V54.0001H259.5V83.0001H258.5ZM258.5 54.0001C258.5 49.858 255.142 46.5001 251 46.5001V45.5001C255.694 45.5001 259.5 49.3057 259.5 54.0001H258.5ZM251 46.5001H133.947V45.5001H251V46.5001ZM133.589 46.3495L89.6423 1.34946L90.3577 0.650779L134.305 45.6508L133.589 46.3495ZM90.4806 0.862086L103.406 45.8621L102.445 46.1382L89.5194 1.13816L90.4806 0.862086Z" fill="#BDBDBD"/>
</svg>
