<svg width="250" height="103" viewBox="0 0 250 103" fill="none" xmlns="http://www.w3.org/2000/svg">
<path fill-rule="evenodd" clip-rule="evenodd" d="M60 102C55.5817 102 52 98.4184 52 94.0001V86.7273L2 94.0001L52 54.0001V9.00012C52 4.58184 55.5817 1.00012 60 1.00012H241C245.418 1.00012 249 4.58184 249 9.00012V94.0001C249 98.4184 245.418 102 241 102H60Z" fill="white"/>
<path d="M52 86.7273L51.928 86.2325L52.5 86.1493V86.7273H52ZM2 94.0001L2.07197 94.4949L0.249815 94.7599L1.68765 93.6096L2 94.0001ZM52 54.0001H52.5V54.2404L52.3123 54.3906L52 54.0001ZM52.5 94.0001C52.5 98.1423 55.8579 101.5 60 101.5V102.5C55.3056 102.5 51.5 98.6945 51.5 94.0001H52.5ZM52.5 86.7273V94.0001H51.5V86.7273H52.5ZM52.072 87.2221L2.07197 94.4949L1.92803 93.5053L51.928 86.2325L52.072 87.2221ZM1.68765 93.6096L51.6877 53.6097L52.3123 54.3906L2.31235 94.3905L1.68765 93.6096ZM52.5 9.00012V54.0001H51.5V9.00012H52.5ZM60 1.50012C55.8579 1.50012 52.5 4.85799 52.5 9.00012H51.5C51.5 4.30569 55.3056 0.500122 60 0.500122V1.50012ZM241 1.50012H60V0.500122H241V1.50012ZM248.5 9.00012C248.5 4.85799 245.142 1.50012 241 1.50012V0.500122C245.694 0.500122 249.5 4.30569 249.5 9.00012H248.5ZM248.5 94.0001V9.00012H249.5V94.0001H248.5ZM241 101.5C245.142 101.5 248.5 98.1423 248.5 94.0001H249.5C249.5 98.6945 245.694 102.5 241 102.5V101.5ZM60 101.5H241V102.5H60V101.5Z" fill="#BDBDBD"/>
</svg>
