<svg width="278" height="61" viewBox="0 0 278 61" fill="none" xmlns="http://www.w3.org/2000/svg">
<path d="M273.645 16.8482L41.0468 9.12158L70.2519 61.0001L265.301 51.0659L273.645 16.8482Z" fill="#FF0009"/>
<path d="M171.028 7.98131L17.673 0L36.9283 53.5888L165.527 43.3271L171.028 7.98131Z" fill="black"/>
<g clip-path="url(#clip0_266_310)">
<path fill-rule="evenodd" clip-rule="evenodd" d="M6.55263 12.7189C5.37224 13.4893 4.43904 14.0096 3.41503 14.9101C2.50704 15.7106 1.57384 16.5511 0.827271 17.6367L0.993735 17.8869C1.88154 18.2621 5.51349 20.8136 6.8452 21.5841L8.61577 19.713C9.27658 19.0926 9.86677 18.7224 10.689 18.2571C14.7901 15.9257 24.4652 15.9257 24.8284 22.3695C24.9393 24.6258 23.8044 26.0066 22.7703 27.2174L19.1535 30.5243C16.7927 32.6806 14.0082 36.0675 14.4521 39.7547H15.1785C16.4446 39.7597 21.5495 39.9648 22.291 39.6747C22.8207 37.9887 22.1296 36.793 25.1562 33.9363L29.0303 30.2792C29.227 30.079 29.4137 29.969 29.6104 29.7689C30.1098 29.2786 31.0228 28.0979 31.4466 27.3524C34.448 22.0143 33.3382 15.6906 27.739 12.4587C23.6278 10.0923 17.8268 9.71209 13.1305 10.4975C10.2501 10.9778 8.89321 11.7233 6.55263 12.7189Z" fill="white"/>
<path fill-rule="evenodd" clip-rule="evenodd" d="M6.55261 12.7187C8.8932 11.7231 10.2501 10.9776 13.1305 10.4974C17.8268 9.7119 23.6278 10.0921 27.7389 12.4585C33.3382 15.6904 34.448 22.0141 31.4466 27.3522C31.0228 28.0977 30.1098 29.2784 29.6104 29.7687C29.4137 29.9688 29.227 30.0788 29.0303 30.279L25.1562 33.9361C22.1296 36.7928 22.8207 37.9885 22.291 39.6745C21.5495 39.9646 16.4446 39.7595 15.1785 39.7545L15.2491 41.7907C15.7233 41.8958 25.4488 41.5005 26.044 41.3605C26.3417 39.2842 25.3883 38.5888 27.4615 35.8622C28.4098 34.6165 31.6382 31.8149 33.1112 29.8537C35.9058 26.1315 37.2072 20.168 34.1856 15.5053C29.1463 7.72073 15.3046 7.80078 8.05583 11.7731L6.8805 12.4235C6.86032 12.4385 6.83005 12.4585 6.80987 12.4735L6.55261 12.7187Z" fill="black"/>
<path fill-rule="evenodd" clip-rule="evenodd" d="M16.1773 54.1431C17.963 54.6334 19.3048 54.8385 20.9341 53.948C23.5017 52.5422 24.3239 48.6499 21.943 46.3986C21.605 46.0834 21.6101 45.9883 21.1662 45.7182C20.9341 45.5731 20.5054 45.348 20.1876 45.2379C19.2947 44.9177 18.4775 44.9477 17.4787 45.0078C15.6829 45.6031 13.8922 46.2935 13.4836 48.87C13.2818 50.1358 13.524 51.3115 14.099 52.242C14.8658 53.4777 15.3853 53.5478 16.1773 54.1431Z" fill="white"/>
<path fill-rule="evenodd" clip-rule="evenodd" d="M17.4787 45.0078C18.4775 44.9477 19.2947 44.9177 20.1875 45.2379C20.5053 45.348 20.9341 45.5731 21.1661 45.7182C21.61 45.9883 21.605 46.0834 21.943 46.3986C24.3239 48.6499 23.5017 52.5422 20.9341 53.948C19.3048 54.8385 17.963 54.6334 16.1772 54.1431C16.3286 54.6234 16.8179 54.9386 17.3475 55.3138C20.7424 57.7102 26.5333 56.2394 27.411 51.2814C28.5713 44.7776 20.6617 42.1961 17.4787 45.0078Z" fill="black"/>
<path fill-rule="evenodd" clip-rule="evenodd" d="M0.99374 17.8869C0.595235 18.3071 0.292573 18.8675 0 19.3377C0.206819 19.5729 8.29294 24.3106 8.72675 24.4307C9.39765 23.6903 10.1341 22.0493 11.5566 21.0587C12.9691 20.0782 13.8115 19.5078 15.8998 19.0776C17.7057 18.7024 19.9656 18.6073 21.6908 19.1826C24.0919 19.9881 24.2684 21.2238 24.8284 22.3695C24.4652 15.9257 14.7901 15.9257 10.689 18.2571C9.86678 18.7224 9.27659 19.0926 8.61578 19.713L6.8452 21.584C5.51349 20.8136 1.88155 18.2621 0.99374 17.8869Z" fill="black"/>
</g>
<path d="M191.309 40.24C190.203 40.24 189.176 40.06 188.229 39.7C187.296 39.34 186.483 38.8333 185.789 38.18C185.109 37.5267 184.576 36.76 184.189 35.88C183.816 35 183.629 34.04 183.629 33C183.629 31.96 183.816 31 184.189 30.12C184.576 29.24 185.116 28.4733 185.809 27.82C186.503 27.1667 187.316 26.66 188.249 26.3C189.183 25.94 190.196 25.76 191.289 25.76C192.396 25.76 193.409 25.94 194.329 26.3C195.263 26.66 196.069 27.1667 196.749 27.82C197.443 28.4733 197.983 29.24 198.369 30.12C198.756 30.9867 198.949 31.9467 198.949 33C198.949 34.04 198.756 35.0067 198.369 35.9C197.983 36.78 197.443 37.5467 196.749 38.2C196.069 38.84 195.263 39.34 194.329 39.7C193.409 40.06 192.403 40.24 191.309 40.24ZM191.289 37.48C191.916 37.48 192.489 37.3733 193.009 37.16C193.543 36.9467 194.009 36.64 194.409 36.24C194.809 35.84 195.116 35.3667 195.329 34.82C195.556 34.2733 195.669 33.6667 195.669 33C195.669 32.3333 195.556 31.7267 195.329 31.18C195.116 30.6333 194.809 30.16 194.409 29.76C194.023 29.36 193.563 29.0533 193.029 28.84C192.496 28.6267 191.916 28.52 191.289 28.52C190.663 28.52 190.083 28.6267 189.549 28.84C189.029 29.0533 188.569 29.36 188.169 29.76C187.769 30.16 187.456 30.6333 187.229 31.18C187.016 31.7267 186.909 32.3333 186.909 33C186.909 33.6533 187.016 34.26 187.229 34.82C187.456 35.3667 187.763 35.84 188.149 36.24C188.549 36.64 189.016 36.9467 189.549 37.16C190.083 37.3733 190.663 37.48 191.289 37.48ZM203.388 40V31.08L204.088 31.8H199.748V29.24H210.128V31.8H205.788L206.488 31.08V40H203.388ZM211.791 40V29.24H217.291C218.638 29.24 219.691 29.4867 220.451 29.98C221.211 30.46 221.591 31.14 221.591 32.02C221.591 32.9 221.231 33.5933 220.511 34.1C219.805 34.5933 218.865 34.84 217.691 34.84L218.011 34.12C219.318 34.12 220.291 34.36 220.931 34.84C221.585 35.32 221.911 36.02 221.911 36.94C221.911 37.8867 221.551 38.6333 220.831 39.18C220.111 39.7267 219.011 40 217.531 40H211.791ZM214.651 37.88H217.271C217.845 37.88 218.271 37.7867 218.551 37.6C218.845 37.4 218.991 37.1 218.991 36.7C218.991 36.2867 218.858 35.9867 218.591 35.8C218.325 35.6 217.905 35.5 217.331 35.5H214.651V37.88ZM214.651 33.66H217.011C217.558 33.66 217.965 33.56 218.231 33.36C218.511 33.16 218.651 32.8733 218.651 32.5C218.651 32.1133 218.511 31.8267 218.231 31.64C217.965 31.4533 217.558 31.36 217.011 31.36H214.651V33.66ZM229.493 40.16C228.266 40.16 227.186 39.92 226.253 39.44C225.333 38.96 224.619 38.3067 224.113 37.48C223.606 36.64 223.353 35.6867 223.353 34.62C223.353 33.54 223.599 32.5867 224.093 31.76C224.599 30.92 225.286 30.2667 226.153 29.8C227.019 29.32 227.999 29.08 229.093 29.08C230.146 29.08 231.093 29.3067 231.933 29.76C232.786 30.2 233.459 30.84 233.953 31.68C234.446 32.5067 234.693 33.5 234.693 34.66C234.693 34.78 234.686 34.92 234.673 35.08C234.659 35.2267 234.646 35.3667 234.633 35.5H225.893V33.68H232.993L231.793 34.22C231.793 33.66 231.679 33.1733 231.453 32.76C231.226 32.3467 230.913 32.0267 230.513 31.8C230.113 31.56 229.646 31.44 229.113 31.44C228.579 31.44 228.106 31.56 227.693 31.8C227.293 32.0267 226.979 32.3533 226.753 32.78C226.526 33.1933 226.413 33.6867 226.413 34.26V34.74C226.413 35.3267 226.539 35.8467 226.793 36.3C227.059 36.74 227.426 37.08 227.893 37.32C228.373 37.5467 228.933 37.66 229.573 37.66C230.146 37.66 230.646 37.5733 231.073 37.4C231.513 37.2267 231.913 36.9667 232.273 36.62L233.933 38.42C233.439 38.98 232.819 39.4133 232.073 39.72C231.326 40.0133 230.466 40.16 229.493 40.16ZM239.013 40V31.08L239.713 31.8H235.373V29.24H245.753V31.8H241.413L242.113 31.08V40H239.013Z" fill="white"/>
<path d="M57.9959 30V16H64.5159C66.1425 16 67.4092 16.3133 68.3159 16.94C69.2225 17.5667 69.6759 18.46 69.6759 19.62C69.6759 20.7667 69.2492 21.66 68.3959 22.3C67.5425 22.9267 66.4092 23.24 64.9959 23.24L65.3759 22.4C66.9492 22.4 68.1692 22.7133 69.0359 23.34C69.9025 23.9667 70.3359 24.8733 70.3359 26.06C70.3359 27.2867 69.8692 28.2533 68.9359 28.96C68.0159 29.6533 66.6692 30 64.8959 30H57.9959ZM61.2159 27.6H64.7759C65.5225 27.6 66.0892 27.4533 66.4759 27.16C66.8625 26.8667 67.0559 26.4133 67.0559 25.8C67.0559 25.2133 66.8625 24.78 66.4759 24.5C66.0892 24.2067 65.5225 24.06 64.7759 24.06H61.2159V27.6ZM61.2159 21.8H64.2359C64.9425 21.8 65.4759 21.66 65.8359 21.38C66.1959 21.0867 66.3759 20.66 66.3759 20.1C66.3759 19.54 66.1959 19.12 65.8359 18.84C65.4759 18.5467 64.9425 18.4 64.2359 18.4H61.2159V21.8ZM77.6982 30.16C76.5515 30.16 75.5315 29.92 74.6382 29.44C73.7582 28.96 73.0582 28.3067 72.5382 27.48C72.0315 26.64 71.7782 25.6867 71.7782 24.62C71.7782 23.54 72.0315 22.5867 72.5382 21.76C73.0582 20.92 73.7582 20.2667 74.6382 19.8C75.5315 19.32 76.5515 19.08 77.6982 19.08C78.8315 19.08 79.8449 19.32 80.7382 19.8C81.6315 20.2667 82.3315 20.9133 82.8382 21.74C83.3449 22.5667 83.5982 23.5267 83.5982 24.62C83.5982 25.6867 83.3449 26.64 82.8382 27.48C82.3315 28.3067 81.6315 28.96 80.7382 29.44C79.8449 29.92 78.8315 30.16 77.6982 30.16ZM77.6982 27.6C78.2182 27.6 78.6849 27.48 79.0982 27.24C79.5115 27 79.8382 26.66 80.0782 26.22C80.3182 25.7667 80.4382 25.2333 80.4382 24.62C80.4382 23.9933 80.3182 23.46 80.0782 23.02C79.8382 22.58 79.5115 22.24 79.0982 22C78.6849 21.76 78.2182 21.64 77.6982 21.64C77.1782 21.64 76.7115 21.76 76.2982 22C75.8849 22.24 75.5515 22.58 75.2982 23.02C75.0582 23.46 74.9382 23.9933 74.9382 24.62C74.9382 25.2333 75.0582 25.7667 75.2982 26.22C75.5515 26.66 75.8849 27 76.2982 27.24C76.7115 27.48 77.1782 27.6 77.6982 27.6ZM85.7441 30V19.24H96.4441V30H93.3241V21.1L94.0241 21.8H88.1441L88.8441 21.1V30H85.7441ZM105.776 30.16C104.869 30.16 104.076 29.96 103.396 29.56C102.716 29.16 102.182 28.5533 101.796 27.74C101.422 26.9133 101.236 25.8733 101.236 24.62C101.236 23.3533 101.416 22.3133 101.776 21.5C102.136 20.6867 102.656 20.08 103.336 19.68C104.016 19.28 104.829 19.08 105.776 19.08C106.789 19.08 107.696 19.3133 108.496 19.78C109.309 20.2333 109.949 20.8733 110.416 21.7C110.896 22.5267 111.136 23.5 111.136 24.62C111.136 25.7533 110.896 26.7333 110.416 27.56C109.949 28.3867 109.309 29.0267 108.496 29.48C107.696 29.9333 106.789 30.16 105.776 30.16ZM99.4155 33.88V19.24H102.396V21.44L102.336 24.64L102.536 27.82V33.88H99.4155ZM105.236 27.6C105.756 27.6 106.216 27.48 106.616 27.24C107.029 27 107.356 26.66 107.596 26.22C107.849 25.7667 107.976 25.2333 107.976 24.62C107.976 23.9933 107.849 23.46 107.596 23.02C107.356 22.58 107.029 22.24 106.616 22C106.216 21.76 105.756 21.64 105.236 21.64C104.716 21.64 104.249 21.76 103.836 22C103.422 22.24 103.096 22.58 102.856 23.02C102.616 23.46 102.496 23.9933 102.496 24.62C102.496 25.2333 102.616 25.7667 102.856 26.22C103.096 26.66 103.422 27 103.836 27.24C104.249 27.48 104.716 27.6 105.236 27.6ZM118.362 30.16C117.216 30.16 116.196 29.92 115.302 29.44C114.422 28.96 113.722 28.3067 113.202 27.48C112.696 26.64 112.442 25.6867 112.442 24.62C112.442 23.54 112.696 22.5867 113.202 21.76C113.722 20.92 114.422 20.2667 115.302 19.8C116.196 19.32 117.216 19.08 118.362 19.08C119.496 19.08 120.509 19.32 121.402 19.8C122.296 20.2667 122.996 20.9133 123.502 21.74C124.009 22.5667 124.262 23.5267 124.262 24.62C124.262 25.6867 124.009 26.64 123.502 27.48C122.996 28.3067 122.296 28.96 121.402 29.44C120.509 29.92 119.496 30.16 118.362 30.16ZM118.362 27.6C118.882 27.6 119.349 27.48 119.762 27.24C120.176 27 120.502 26.66 120.742 26.22C120.982 25.7667 121.102 25.2333 121.102 24.62C121.102 23.9933 120.982 23.46 120.742 23.02C120.502 22.58 120.176 22.24 119.762 22C119.349 21.76 118.882 21.64 118.362 21.64C117.842 21.64 117.376 21.76 116.962 22C116.549 22.24 116.216 22.58 115.962 23.02C115.722 23.46 115.602 23.9933 115.602 24.62C115.602 25.2333 115.722 25.7667 115.962 26.22C116.216 26.66 116.549 27 116.962 27.24C117.376 27.48 117.842 27.6 118.362 27.6ZM131.528 30.16C130.368 30.16 129.335 29.9267 128.428 29.46C127.522 28.98 126.808 28.32 126.288 27.48C125.782 26.64 125.528 25.6867 125.528 24.62C125.528 23.54 125.782 22.5867 126.288 21.76C126.808 20.92 127.522 20.2667 128.428 19.8C129.335 19.32 130.368 19.08 131.528 19.08C132.662 19.08 133.648 19.32 134.488 19.8C135.328 20.2667 135.948 20.94 136.348 21.82L133.928 23.12C133.648 22.6133 133.295 22.24 132.868 22C132.455 21.76 132.002 21.64 131.508 21.64C130.975 21.64 130.495 21.76 130.068 22C129.642 22.24 129.302 22.58 129.048 23.02C128.808 23.46 128.688 23.9933 128.688 24.62C128.688 25.2467 128.808 25.78 129.048 26.22C129.302 26.66 129.642 27 130.068 27.24C130.495 27.48 130.975 27.6 131.508 27.6C132.002 27.6 132.455 27.4867 132.868 27.26C133.295 27.02 133.648 26.64 133.928 26.12L136.348 27.44C135.948 28.3067 135.328 28.98 134.488 29.46C133.648 29.9267 132.662 30.16 131.528 30.16Z" fill="white"/>
<defs>
<clipPath id="clip0_266_310">
<rect width="35.9159" height="47.3178" fill="white" transform="translate(0 9.12158)"/>
</clipPath>
</defs>
</svg>
