<svg width="305" height="117" viewBox="0 0 305 117" fill="none" xmlns="http://www.w3.org/2000/svg">
<g clip-path="url(#clip0_31_420)">
<path d="M256.201 33.3258C258.936 23.759 251.752 14.2088 241.793 14.1717L16.5144 13.331C6.6792 13.2943 -0.505935 22.5705 1.9847 32.0893L20.8779 104.296C22.7368 111.4 29.4612 116.13 36.7705 115.474L227.652 98.3452C233.816 97.7921 238.997 93.5096 240.697 87.5631L256.201 33.3258Z" fill="black"/>
<path d="M271.185 33.4148C261.056 38.0701 242.094 39.5538 238.899 38.7888C224.804 57.6695 195.135 107.057 263.5 65.2082C290.5 48.6804 300.563 17.097 299.5 6.87471C296.644 12.9792 289.5 24.9975 271.185 33.4148Z" fill="black"/>
<path d="M252.643 35.1688C255.576 25.5329 248.35 15.7806 238.268 15.7694L19.9872 15.5259C10.0974 15.5148 2.92759 24.9069 5.54106 34.4496L23.1666 98.8075C25.0858 105.815 31.7465 110.455 38.9796 109.823L225.064 93.5689C231.15 93.0374 236.295 88.8684 238.073 83.0289L252.643 35.1688Z" fill="white"/>
<path d="M271.5 37.0135C263.627 41.2907 246.823 44.1571 244.5 43.333C231.775 59.6306 207 84.6525 260.5 59.8608C284.281 48.841 296.34 24.3099 296.676 15.1079C293.844 20.4512 288.5 27.7774 271.5 37.0135Z" fill="white"/>
</g>
<defs>
<clipPath id="clip0_31_420">
<rect width="298.818" height="103.077" fill="white" transform="matrix(0.998975 -0.0452653 0.047883 0.998853 0.760986 14.0186)"/>
</clipPath>
</defs>
</svg>
