<svg width="432" height="127" viewBox="0 0 432 127" fill="none" xmlns="http://www.w3.org/2000/svg">
<g clip-path="url(#clip0_31_415)">
<path d="M66.9108 35.3272C63.1144 25.7298 69.9194 15.2547 80.2313 14.8228L416.09 0.756162C426.084 0.337605 433.68 9.63205 431.28 19.3422L407.532 115.428C405.826 122.331 399.508 127.087 392.403 126.818L108.485 116.07C102.541 115.845 97.2918 112.13 95.1039 106.599L66.9108 35.3272Z" fill="black"/>
<path d="M52.0914 52.4492C79 51.6024 85.9734 41.0196 87.5 38.3194C120.763 52.0016 181.645 95.4471 129.867 90.9664C70.9353 85.8665 11.5163 52.5416 0.143366 40.1791C9.59951 45.5722 38.8118 52.8672 52.0914 52.4492Z" fill="black"/>
<path d="M72.0149 37.3347C67.9824 27.6864 74.8116 16.9765 85.2604 16.5623L411.318 3.63759C421.381 3.23872 428.97 12.6721 426.426 22.4159L403.857 108.844C402.082 115.641 395.827 120.296 388.807 120.044L111.891 110.123C106.041 109.913 100.846 106.318 98.5886 100.916L72.0149 37.3347Z" fill="white"/>
<path d="M59 55.3332C70.03 55.3332 89.5588 48.0044 90.5 45.612C119.827 56.1373 144.278 83.4599 99.1766 78.5069C64.1959 74.6654 21.771 55.8499 10.8091 45.612C19.3293 49.9032 37 55.3332 59 55.3332Z" fill="white"/>
</g>
<defs>
<clipPath id="clip0_31_415">
<rect width="431.736" height="126.162" fill="white" transform="matrix(-1 -4.74446e-05 -5.01945e-05 1 431.744 0.699951)"/>
</clipPath>
</defs>
</svg>
