<svg width="480" height="107" viewBox="0 0 480 107" fill="none" xmlns="http://www.w3.org/2000/svg">
<path d="M480 29.5532L72 16L123.229 107L465.363 89.5745L480 29.5532Z" fill="#FF0009"/>
<path d="M300 14L31 0L64.7758 94L290.35 76L300 14Z" fill="black"/>
<g clip-path="url(#clip0_137_2333)">
<path fill-rule="evenodd" clip-rule="evenodd" d="M11.4939 22.3097C9.42344 23.6612 7.7865 24.5739 5.9903 26.1535C4.3976 27.5576 2.76066 29.0319 1.45111 30.9362L1.74311 31.375C3.30041 32.0332 9.67119 36.5087 12.0071 37.8602L15.1129 34.5781C16.272 33.4899 17.3073 32.8405 18.7496 32.0244C25.9432 27.9349 42.9143 27.9349 43.5514 39.238C43.746 43.1958 41.7552 45.6178 39.9413 47.7416L33.597 53.5423C29.456 57.3246 24.5718 63.2657 25.3504 69.7333H26.6246C28.8455 69.7421 37.8 70.1019 39.1007 69.5929C40.0298 66.6355 38.8175 64.5381 44.1265 59.5272L50.922 53.1122C51.2671 52.7612 51.5945 52.5682 51.9396 52.2171C52.8156 51.3571 54.4171 49.2861 55.1604 47.9785C60.4251 38.6149 58.4785 27.5225 48.6569 21.8534C41.4455 17.7025 31.2699 17.0356 23.0321 18.4134C17.9798 19.2558 15.5996 20.5634 11.4939 22.3097Z" fill="white"/>
<path fill-rule="evenodd" clip-rule="evenodd" d="M11.494 22.3098C15.5996 20.5634 17.9798 19.2558 23.0322 18.4134C31.2699 17.0356 41.4455 17.7025 48.6569 21.8534C58.4785 27.5225 60.4251 38.6149 55.1604 47.9785C54.4171 49.2861 52.8156 51.3571 51.9396 52.2171C51.5945 52.5682 51.2671 52.7612 50.922 53.1123L44.1265 59.5272C38.8175 64.5381 40.0298 66.6355 39.1007 69.5929C37.8 70.1019 28.8455 69.7421 26.6246 69.7333L26.7484 73.305C27.5802 73.4893 44.6397 72.796 45.6838 72.5503C46.2059 68.9084 44.5336 67.6886 48.1702 62.9059C49.8337 60.7207 55.4966 55.8064 58.0803 52.3663C62.9823 45.8372 65.2652 35.3767 59.965 27.1978C51.1255 13.5429 26.8458 13.6833 14.1308 20.6512L12.0691 21.792C12.0337 21.8183 11.9806 21.8534 11.9452 21.8797L11.494 22.3098Z" fill="black"/>
<path fill-rule="evenodd" clip-rule="evenodd" d="M28.3765 94.9721C31.5089 95.8321 33.8625 96.1919 36.7205 94.6298C41.2243 92.1639 42.6666 85.3364 38.4902 81.3874C37.8973 80.8345 37.9062 80.6678 37.1275 80.1939C36.7205 79.9394 35.9684 79.5445 35.411 79.3514C33.8448 78.7898 32.4114 78.8425 30.6594 78.9478C27.5094 79.9921 24.3683 81.2031 23.6516 85.7226C23.2976 87.9428 23.7223 90.0051 24.731 91.6373C26.076 93.8049 26.9874 93.9278 28.3765 94.9721Z" fill="white"/>
<path fill-rule="evenodd" clip-rule="evenodd" d="M30.6594 78.9477C32.4114 78.8423 33.8448 78.7897 35.4109 79.3513C35.9684 79.5444 36.7205 79.9393 37.1275 80.1938C37.9062 80.6677 37.8973 80.8344 38.4901 81.3873C42.6666 85.3363 41.2243 92.1638 36.7205 94.6297C33.8625 96.1918 31.5088 95.832 28.3765 94.972C28.642 95.8144 29.5003 96.3673 30.4293 97.0255C36.3842 101.229 46.5421 98.649 48.0817 89.9523C50.1168 78.544 36.2427 74.0157 30.6594 78.9477Z" fill="black"/>
<path fill-rule="evenodd" clip-rule="evenodd" d="M1.74312 31.3749C1.0441 32.112 0.513202 33.0949 0 33.9198C0.362781 34.3323 14.5466 42.6428 15.3076 42.8534C16.4844 41.5546 17.7763 38.6762 20.2715 36.9387C22.749 35.2186 24.2267 34.2182 27.8899 33.4635C31.0576 32.8053 35.0216 32.6386 38.0477 33.6478C42.2595 35.0607 42.5692 37.2282 43.5514 39.2379C42.9143 27.9348 25.9433 27.9348 18.7496 32.0243C17.3073 32.8404 16.272 33.4898 15.1129 34.578L12.0072 37.8601C9.67121 36.5086 3.30042 32.0331 1.74312 31.3749Z" fill="black"/>
</g>
<defs>
<clipPath id="clip0_137_2333">
<rect width="63" height="83" fill="white" transform="translate(0 16)"/>
</clipPath>
</defs>
</svg>
