<svg width="357" height="95" viewBox="0 0 357 95" fill="none" xmlns="http://www.w3.org/2000/svg">
<g clip-path="url(#clip0_31_113)">
<path d="M315.169 36.2498L316.662 23.6697L279.155 36.5805L276.848 42.3615L275.926 62.7976L301.321 46.2798L300.39 58.5568L354.812 23.1199L315.169 36.2498Z" fill="#231F20"/>
<path d="M283.846 5.21448L0.405205 9.37427L38.3672 93.7935L296.681 83.2769L283.846 5.21448Z" fill="#231F20"/>
<path d="M313.104 39.8941L314.591 27.3659L282.002 38.5824L280.23 43.0202L279.537 58.3894L305.085 41.7757L304.153 54.0467L339.127 31.2735L313.104 39.8941Z" fill="white"/>
<path d="M18.5989 14.1582L42.0605 92.4183L289.817 80.9759L278.889 10.9883L18.5989 14.1582Z" fill="white"/>
</g>
<defs>
<clipPath id="clip0_31_113">
<rect width="353.95" height="85.3995" fill="white" transform="matrix(0.999661 -0.0260535 0.0275624 0.99962 0.340881 9.36377)"/>
</clipPath>
</defs>
</svg>
