<svg width="389" height="131" viewBox="0 0 389 131" fill="none" xmlns="http://www.w3.org/2000/svg">
<g clip-path="url(#clip0_31_118)">
<path d="M42.5745 93.1361L46.0919 108.689L81.3283 81.0297L81.4624 73.3556L74.1244 48.5796L53.4376 76.6205L49.4366 61.6135L5.12106 121.752L42.5745 93.1361Z" fill="#231F20"/>
<path d="M63.8525 16.8944L383.61 1.08862L347.749 116.89L55.7863 122.297L63.8525 16.8944Z" fill="#231F20"/>
<path d="M43.3184 88.0997L46.8222 103.588L77.4379 79.5577L77.5416 73.6663L72.0229 55.0332L51.2109 83.2385L47.2129 68.2386L18.734 106.886L43.3184 88.0997Z" fill="white"/>
<path d="M363.499 8.86035L343.474 115.329L63.3326 118.701L69.9117 24.2449L363.499 8.86035Z" fill="white"/>
</g>
<defs>
<clipPath id="clip0_31_118">
<rect width="383.683" height="116.396" fill="white" transform="matrix(-0.999356 0.0358747 0.037951 0.99928 383.938 0.538574)"/>
</clipPath>
</defs>
</svg>
