<svg width="370" height="146" viewBox="0 0 370 146" fill="none" xmlns="http://www.w3.org/2000/svg">
<g clip-path="url(#clip0_31_123)">
<path d="M38.8325 115.084L47.0695 130.489L103.335 90.3104L82.7186 90.3102L67.422 65.9758L48.3873 96.9805L38.8324 85.9413L-1.0809 148.677L38.8325 115.084Z" fill="#231F20"/>
<ellipse cx="173.649" cy="55.9038" rx="173.649" ry="55.9038" transform="matrix(1 1.76964e-06 1.94475e-06 1 22.4671 0.94458)" fill="black"/>
<path d="M38.5262 109.871L46.7302 125.212L93.3043 89.1956L86.4084 77.955L66.376 72.7942L47.2248 103.981L38.5261 92.2162L12.3278 131.924L38.5262 109.871Z" fill="white"/>
<ellipse cx="169.888" cy="51.9107" rx="169.888" ry="51.9107" transform="matrix(1 3.03839e-06 3.43444e-06 1 29.9898 4.36743)" fill="white"/>
</g>
<defs>
<clipPath id="clip0_31_123">
<rect width="369.093" height="144.864" fill="white" transform="matrix(-1 -4.74446e-05 -5.01945e-05 1 369.908 0.964355)"/>
</clipPath>
</defs>
</svg>
