<svg width="385" height="159" viewBox="0 0 385 159" fill="none" xmlns="http://www.w3.org/2000/svg">
<g clip-path="url(#clip0_31_410)">
<path d="M331.054 131.123L343.046 116.156L293.678 92.5395L286.498 97.6609L268.566 123.604L308.454 129.342L297.293 144.519L382.805 156.765L331.054 131.123Z" fill="#231F20"/>
<ellipse cx="175.099" cy="72.0268" rx="175.099" ry="72.0268" transform="matrix(-1 -0.000105805 -9.10003e-05 1 349.956 0.765381)" fill="black"/>
<path d="M325.899 133.689L337.84 118.783L294.948 98.2625L289.435 102.193L275.949 121.704L316.073 127.481L304.917 142.649L359.87 150.519L325.899 133.689Z" fill="white"/>
<ellipse cx="171.306" cy="66.882" rx="171.306" ry="66.882" transform="matrix(-1 -0.000104184 -9.21662e-05 1 342.37 5.17456)" fill="white"/>
</g>
<defs>
<clipPath id="clip0_31_410">
<rect width="383.822" height="157.376" fill="white" transform="matrix(1 4.74446e-05 -5.01945e-05 1 0.415955 0.75293)"/>
</clipPath>
</defs>
</svg>
