<svg width="40" height="42" viewBox="0 0 40 42" fill="none" xmlns="http://www.w3.org/2000/svg">
<g clip-path="url(#clip0_110_4644)">
<path fill-rule="evenodd" clip-rule="evenodd" d="M12.2627 31.1316C11.8845 31.1779 10.3614 30.8336 9.86925 30.7513L6.38265 30.1346C6.03037 30.0473 5.6988 29.9805 5.2429 29.9959C2.34173 30.0987 0.642463 33.3825 2.51269 35.7773C3.11883 36.5533 3.8493 36.8873 4.56942 37.0466L13.6304 39.4723C14.1019 39.5648 14.3764 39.7086 14.7805 39.7857L18.1376 40.6594C18.635 40.829 18.8318 40.8392 19.2929 40.9574C20.5 41.2761 21.3652 41.5741 22.6552 41.8156C25.4372 42.3398 27.8825 41.5587 30.4521 40.0684C32.4259 38.9224 33.949 38.2235 35.3582 36.5636C37.3942 34.1585 38.2801 30.7462 37.3994 27.5189C36.8761 25.5969 35.6068 23.7417 34.5655 21.9482C33.4672 20.0622 32.3689 18.171 31.2654 16.285C30.0635 14.214 28.6181 10.5293 25.2455 11.6804C24.7326 11.8551 24.2612 12.1481 23.8882 12.5027C23.5048 12.8727 23.4012 13.1502 23.1266 13.4894C22.3288 12.5695 21.1476 12.1738 20.1529 12.2354C18.3552 12.3536 17.8112 13.3712 17.1533 14.1677C16.9305 14.0495 16.7181 13.7617 16.4746 13.5767C15.2727 12.6671 13.5993 12.6003 12.3042 13.438C11.5944 13.9056 11.4804 14.2859 11.0556 14.7638C10.0713 13.1039 9.11287 11.4235 8.14408 9.75842C7.11831 8.00088 6.57952 6.49514 4.93724 5.77568C2.17594 4.56801 -1.45571 7.53837 0.606199 11.0843L9.35118 26.1057C10.3044 27.7501 11.3768 29.4614 12.2627 31.1316Z" fill="#B2B3B3" fill-opacity="0.501961"/>
<path fill-rule="evenodd" clip-rule="evenodd" d="M4.27927 28.2691C4.26891 28.6032 4.10313 28.7779 4.07204 29.1633C4.06168 29.3586 4.0565 29.446 4.08759 29.631C4.12903 29.8931 4.18084 29.9085 4.15494 30.1243C5.13408 31.2446 4.87505 31.1521 6.10805 31.4605C6.8178 31.6352 7.49129 31.8099 8.19068 32.0104C12.2368 33.1666 16.6404 34.1944 20.7227 35.3456C23.1732 36.0342 26.0692 36.9644 29.6439 35.6025C30.9442 35.104 33.6537 33.5983 34.7986 32.7555C36.9797 31.1419 37.3164 29.595 37.7102 29.1222C37.7257 28.9732 37.7154 29.0708 37.7516 28.9269C37.7516 28.9167 37.7982 28.7728 37.8034 28.7573C37.8345 28.6546 37.8656 28.5723 37.8915 28.4953L38.3578 26.7377C38.1972 26.2649 38.622 24.8466 37.7827 22.6522C37.2595 21.2801 36.0627 19.4609 35.2701 18.1042C34.2857 16.4134 30.6023 9.86117 29.8666 8.81795C29.0947 7.71306 27.1675 7.55375 26.3334 9.00809C25.5667 10.3597 26.7427 11.6958 27.6648 13.2838C28.5715 14.8409 29.4781 16.4083 30.3899 17.9654C30.6334 18.3817 30.8147 18.6283 30.6852 19.0138C30.5867 19.317 30.2345 19.6253 29.8459 19.5996C29.1465 19.5585 28.7476 18.4896 28.3694 17.8369C27.4576 16.2747 26.551 14.7175 25.6444 13.1553C24.9813 12.0144 23.8156 9.50144 22.8624 8.97726C21.6138 8.28863 19.842 9.13657 19.7902 10.704C19.7591 11.7472 21.4169 14.1368 22.0438 15.216C22.4997 15.9972 22.9504 16.7783 23.4063 17.5543C23.826 18.2789 24.458 19.096 23.6757 19.5893C22.8261 20.1238 22.4324 19.2296 21.9868 18.4588L17.9407 11.5057C17.49 10.7297 17.1947 9.99992 16.4746 9.60935C15.9772 9.33699 15.2364 9.22907 14.537 9.59394C13.7392 10.0153 13.475 10.7245 13.4335 11.2795C13.3765 12.1378 13.8273 12.6876 14.2987 13.4996C15.195 15.0362 16.086 16.5779 16.9875 18.1093C17.2102 18.4896 17.4537 18.8031 17.376 19.1988C17.3139 19.4968 17.0445 19.8103 16.6404 19.8566C15.8943 19.9439 15.5369 18.9521 15.0913 18.1864L7.02503 4.26477C6.66238 3.64295 6.11323 2.51237 5.58998 2.11666C5.09782 1.74665 4.3518 1.56679 3.68349 1.7929C2.81832 2.08069 2.39351 2.81043 2.28989 3.37058C2.15001 4.12088 2.48158 4.70159 2.94784 5.49814L15.1224 26.4294C15.6094 27.2619 16.1327 27.8632 15.625 28.5055C15.081 29.1993 14.2262 28.8087 13.7185 28.706L7.139 27.4366C5.03047 27.0512 5.41384 27.4469 4.27927 28.2691Z" fill="#FEFEFE"/>
<path fill-rule="evenodd" clip-rule="evenodd" d="M38.4096 29.7389C38.2542 30.1655 38.3578 30.0421 37.8864 30.0473C37.9071 30.0678 37.933 30.0575 37.9589 30.0935L38.1765 30.2528C38.3682 30.5971 38.2387 30.0113 38.192 30.3402C38.1713 30.5046 38.0366 30.5355 37.8916 30.6485C37.9019 30.6742 37.9537 30.7256 37.9589 30.7462L38.0107 31.0134C37.7258 31.0288 37.5652 30.9774 37.3476 30.8695C37.3165 30.5509 37.3321 30.186 37.7465 29.9804C37.5237 29.8263 37.5704 29.9342 37.5963 29.6927C37.6377 29.3021 37.8346 29.5179 37.8449 29.5179L37.9952 29.5745C38.0055 29.5796 38.0263 29.595 38.0366 29.6002C38.0418 29.6002 38.0625 29.6156 38.0677 29.6207L38.4096 29.7389ZM4.27934 28.2692C5.41391 27.4469 5.03054 27.0512 7.13908 27.4366L13.7185 28.706C14.2262 28.8088 15.0811 29.1993 15.625 28.5056C16.1327 27.8632 15.6095 27.2619 15.1225 26.4294L2.94791 5.49815C2.48165 4.7016 2.15008 4.12089 2.28996 3.37059C2.39358 2.81044 2.81839 2.0807 3.68357 1.79291C4.35187 1.5668 5.09789 1.74666 5.59005 2.11667C6.1133 2.51238 6.66245 3.64296 7.0251 4.26478L15.0914 18.1864C15.537 18.9521 15.8944 19.9439 16.6404 19.8566C17.0445 19.8103 17.3139 19.4968 17.3761 19.1988C17.4538 18.8031 17.2103 18.4896 16.9875 18.1093C16.0861 16.5779 15.195 15.0362 14.2988 13.4996C13.8273 12.6876 13.3766 12.1378 13.4336 11.2795C13.475 10.7245 13.7393 10.0153 14.5371 9.59395C15.2365 9.22908 15.9773 9.337 16.4747 9.60937C17.1948 9.99993 17.4901 10.7297 17.9408 11.5057L21.9869 18.4588C22.4324 19.2296 22.8262 20.1238 23.6758 19.5893C24.4581 19.096 23.826 18.2789 23.4064 17.5543C22.9505 16.7783 22.4998 15.9972 22.0439 15.216C21.417 14.1368 19.7592 11.7472 19.7903 10.704C19.8421 9.13658 21.6139 8.28864 22.8624 8.97727C23.8157 9.50145 24.9813 12.0144 25.6445 13.1553C26.5511 14.7176 27.4577 16.2747 28.3695 17.8369C28.7477 18.4896 29.1466 19.5585 29.846 19.5996C30.2345 19.6253 30.5868 19.317 30.6852 19.0138C30.8148 18.6283 30.6334 18.3817 30.3899 17.9654C29.4782 16.4083 28.5715 14.8409 27.6649 13.2838C26.7428 11.6958 25.5667 10.3597 26.3335 9.0081C27.1676 7.55376 29.0948 7.71307 29.8667 8.81796C30.6024 9.86118 34.2858 16.4134 35.2701 18.1042C36.0628 19.4609 37.2595 21.2801 37.7828 22.6522C38.622 24.8466 38.1972 26.2649 38.3578 26.7377L38.6169 27.1129L39.0365 27.0255L38.8863 27.5651C38.8863 27.5754 38.8863 27.6011 38.8863 27.6114C38.8914 27.858 38.8189 27.7141 38.8914 27.9968C38.6428 28.0225 38.6531 28.0019 38.4407 27.9711C38.5547 28.4953 38.363 28.3822 38.4873 28.7265C38.5702 28.9629 38.5754 28.8447 38.534 29.0657C38.4977 29.297 38.5133 29.2558 38.42 29.4922C38.2128 29.5539 38.0729 29.5847 37.9019 29.4717C37.3787 29.1171 38.0522 29.2867 37.7102 29.1222C37.3165 29.595 36.9798 31.1419 34.7987 32.7555C33.6538 33.5983 30.9443 35.1041 29.6439 35.6025C26.0693 36.9644 23.1733 36.0342 20.7228 35.3456C16.6404 34.1944 12.2369 33.1666 8.19075 32.0104C7.49136 31.8099 6.81787 31.6352 6.10812 31.4605C4.87512 31.1521 5.13415 31.2447 4.15501 30.1243L4.03067 30.0216C4.02549 30.0421 4.27934 29.9548 3.95296 30.1089L3.84935 30.1398C3.1914 30.222 3.35718 29.6721 3.35718 29.6721C3.8079 29.5077 2.82875 29.6516 3.60585 29.7029L3.79754 29.6978C4.2638 29.9496 3.55405 29.6772 3.91151 29.816C3.76646 29.7235 3.90633 29.9291 3.89079 29.6207C3.69393 29.559 3.70429 29.5693 3.49188 29.4152L3.8338 28.2537C4.00995 28.2743 4.11874 28.3 4.27934 28.2692ZM13.3818 26.7994C12.9881 26.8508 11.3976 26.4859 10.8795 26.3986L7.23751 25.7562C6.86968 25.6688 6.52258 25.5917 6.04595 25.6123C3.01526 25.7202 1.23829 29.1531 3.1914 31.6558C3.82862 32.4626 4.59018 32.8172 5.34656 32.9816L14.8117 35.51C15.3038 35.6128 15.5888 35.7619 16.0136 35.8441L19.5209 36.7537C20.039 36.9284 20.2462 36.9438 20.728 37.0672C21.9921 37.4012 22.8935 37.7095 24.2405 37.9614C27.1468 38.5112 29.7009 37.6941 32.3845 36.137C34.4464 34.9396 36.0421 34.2099 37.5134 32.4729C39.6426 29.965 40.5648 26.3986 39.6426 23.0222C39.0987 21.0129 37.7724 19.0754 36.6845 17.2048C35.5344 15.2315 34.3843 13.2581 33.2393 11.2847C31.9804 9.12116 30.4677 5.27203 26.9448 6.47456C26.4112 6.65443 25.9138 6.96277 25.5305 7.33278C25.1264 7.71821 25.0228 8.01113 24.7327 8.36572C23.8986 7.40473 22.6656 6.98846 21.6242 7.05527C19.7437 7.17861 19.179 8.24239 18.4899 9.07491C18.262 8.95157 18.034 8.65351 17.7802 8.45823C16.5265 7.50751 14.7806 7.43556 13.4284 8.31433C12.6824 8.7974 12.5684 9.19824 12.1229 9.69673C11.0919 7.96488 10.0921 6.20733 9.07665 4.4652C8.00943 2.63057 7.43956 1.05803 5.72993 0.307735C2.8443 -0.956464 -0.94796 2.14751 1.20202 5.85274L10.3356 21.5473C11.3354 23.2689 12.4544 25.0521 13.3818 26.7994Z" fill="black"/>
<path fill-rule="evenodd" clip-rule="evenodd" d="M37.7102 29.1222C38.0521 29.2867 37.3786 29.1171 37.9019 29.4717C38.0729 29.5848 38.2127 29.5539 38.42 29.4922C38.5132 29.2559 38.4977 29.297 38.5339 29.0657C38.5754 28.8447 38.5702 28.9629 38.4873 28.7265C38.363 28.3822 38.5547 28.4953 38.4407 27.9711C38.6531 28.0019 38.6427 28.0225 38.8914 27.9968C38.8189 27.7141 38.8914 27.858 38.8862 27.6114C38.8862 27.6011 38.8862 27.5754 38.8862 27.5651L39.0365 27.0255L38.6168 27.1129L38.3578 26.7377L37.8915 28.4953C37.8656 28.5724 37.8345 28.6546 37.8035 28.7574C37.7983 28.7728 37.7517 28.9167 37.7517 28.927C37.7154 29.0708 37.7258 28.9732 37.7102 29.1222Z" fill="#121212"/>
<path fill-rule="evenodd" clip-rule="evenodd" d="M4.15491 30.1243C4.18081 29.9085 4.12901 29.8931 4.08756 29.631C4.05648 29.446 4.06166 29.3586 4.07202 29.1633C4.1031 28.7779 4.26889 28.6032 4.27925 28.2691C4.11865 28.3 4.00985 28.2743 3.83371 28.2537L3.49178 29.4151C3.70419 29.5693 3.69383 29.559 3.8907 29.6207C3.90624 29.929 3.76636 29.7235 3.91142 29.816C3.55395 29.6772 4.2637 29.9496 3.79744 29.6978L3.60576 29.7029C2.82866 29.6515 3.80781 29.5076 3.35709 29.6721C3.35709 29.6721 3.1913 30.222 3.84925 30.1397L3.95286 30.1089C4.27925 29.9547 4.02539 30.0421 4.03057 30.0215L4.15491 30.1243Z" fill="#121212"/>
<path fill-rule="evenodd" clip-rule="evenodd" d="M38.0677 29.6207C38.0625 29.6156 38.0417 29.6001 38.0366 29.6001C38.0262 29.595 38.0055 29.5796 37.9951 29.5745L37.8449 29.5179C37.8345 29.5179 37.6377 29.3021 37.5962 29.6927C37.5703 29.9342 37.5237 29.8263 37.7464 29.9804C37.332 30.186 37.3165 30.5509 37.3475 30.8695C37.5651 30.9774 37.7257 31.0288 38.0107 31.0134L37.9589 30.7462C37.9537 30.7256 37.9019 30.6742 37.8915 30.6485C38.0366 30.5355 38.1713 30.5046 38.192 30.3402C38.2386 30.0113 38.3681 30.5971 38.1764 30.2528L37.9589 30.0935C37.933 30.0575 37.907 30.0678 37.8863 30.0472C38.3578 30.0421 38.2542 30.1654 38.4096 29.7389L38.0677 29.6207Z" fill="#121212"/>
</g>
<defs>
<clipPath id="clip0_110_4644">
<rect width="40" height="42" fill="white"/>
</clipPath>
</defs>
</svg>
