<svg width="103" height="32" viewBox="0 0 103 32" fill="none" xmlns="http://www.w3.org/2000/svg">
<g clip-path="url(#clip0_130_88)">
<path fill-rule="evenodd" clip-rule="evenodd" d="M0 26.5187V4.40041C0.00208654 3.33817 0.267077 2.43568 0.794971 1.64938C1.03075 1.30083 1.28322 0.966805 1.61289 0.705394C2.45794 0.0269709 3.32177 -0.5 4.54031 -0.5H98.1153C98.6995 -0.5 99.4924 -0.236515 99.8972 -0.0352697C100.425 0.23029 100.784 0.495851 101.18 0.887967C101.923 1.62863 102.576 2.82158 102.576 3.93361V26.9855C102.576 29.3008 100.362 31.5 98.036 31.5H4.54031C3.82045 31.5 3.13398 31.2407 2.63738 30.9938C1.98221 30.668 1.99264 30.5892 1.57325 30.2552L1.00988 29.6577C0.302548 28.7158 0.00208654 27.8071 0 26.5187ZM78.3224 20.5207H79.9561V16.0685C79.9561 14.612 81.2957 14.8029 82.2555 14.8029C82.2555 14.2407 82.1345 13.7552 82.1345 13.2386C81.2561 13.2386 80.8179 13.2012 80.1815 13.8257C80.0375 13.9689 79.9499 14.0021 79.8956 14.2012C79.7308 14.083 79.5868 13.4689 79.5326 13.2386H78.3224V20.5207ZM64.522 13.2386H63.3118V14.6826H64.4615V17.7531C64.4615 18.9046 64.6159 19.7905 65.5695 20.2614C66.3373 20.6411 67.3451 20.5207 68.3362 20.5207C68.3362 20.0581 68.4572 19.61 68.4572 19.0768C67.0113 19.0768 66.1558 19.3174 66.1558 18.3548V14.6826H68.1547C68.4656 14.6826 68.3362 14.0892 68.3362 13.2386H66.1558V11.1328H64.8851C64.8746 11.5768 64.522 12.6992 64.522 13.2386ZM47.6357 17.8734C47.6357 18.8506 48.2408 19.888 49.1275 20.361C50.0727 20.8631 51.3622 20.7158 52.1614 19.9066C52.2636 19.8029 52.2803 19.7863 52.3575 19.6784C52.3658 19.666 52.4055 19.6058 52.4305 19.5705C52.4869 19.4958 52.4889 19.4938 52.539 19.4378C52.5557 19.6473 52.6204 19.8216 52.683 20.0166C52.7143 20.1183 52.7414 20.2407 52.7623 20.2988C52.8708 20.6203 52.7978 20.5207 54.0518 20.5207V13.2386H52.418V17.5124C52.418 19.751 49.2715 19.7075 49.2715 17.5726V13.2386H47.6357V17.8734ZM73.2375 19.1369H72.8139C70.1724 19.1369 70.1765 14.6224 72.8139 14.6224H73.2375C75.879 14.6224 75.8749 19.1369 73.2375 19.1369ZM69.1228 16.61C69.1228 17.8506 69.2918 18.668 70.1953 19.5726C71.8562 21.2344 75.3553 21.0456 76.5676 18.5954C77.4106 16.8942 76.8743 14.3983 74.8212 13.471C73.4002 12.8299 71.3471 13.0353 70.2558 14.1266C69.6173 14.7635 69.1228 15.6037 69.1228 16.61ZM88.4296 16.0685H84.4338C84.4651 15.6992 84.8491 15.1618 85.089 14.973C86.0363 14.2282 87.5031 14.4398 88.1395 15.4523C88.2835 15.6805 88.319 15.8402 88.4296 16.0685ZM82.6186 16.6701V17.0913C82.6186 19.0249 84.2481 20.6411 86.1907 20.6411C87.2131 20.6411 87.8704 20.5456 88.6695 20.0373C89.1265 19.7448 89.742 19.1349 89.8818 18.5353C89.4228 18.4958 88.8886 18.3319 88.4296 18.2946C88.102 18.3776 88.1375 19.1369 86.2512 19.1369C85.1141 19.1369 84.5423 18.305 84.3128 17.3319H90.1843C90.1843 16.5104 90.2156 15.8983 89.8442 15.1432C89.2767 13.9938 88.0498 13.1183 86.6143 13.1183H86.1907C84.244 13.1183 82.6186 14.7386 82.6186 16.6701ZM55.8671 13.0581V13.5394C55.8671 16.6452 60.8309 15.9481 60.8309 17.8133C60.8309 18.2158 60.7913 18.5207 60.3615 18.7905C59.9024 19.0788 59.5352 19.0768 59.0156 19.0768C57.9599 19.0768 57.3861 18.3257 57.0167 17.6328C56.4951 17.7531 55.9046 17.8133 55.383 17.9336C55.4372 18.5788 56.1717 19.471 56.6015 19.7905C59.1116 21.6535 62.5857 20.2552 62.5857 18.0539C62.5857 17.195 62.5586 16.668 61.9055 16.0207C60.5367 14.666 57.6218 14.6452 57.6218 13.4191V13.0581C57.6218 12.5332 58.35 12.0954 58.8946 12.0954C59.5122 12.0954 59.8377 12.0892 60.3406 12.4627C60.5555 12.6245 60.8831 13.0104 60.9519 13.2988C61.5132 13.2988 62.062 13.1017 62.5857 13.0581C62.5377 12.4958 61.8429 11.6349 61.4798 11.3299C59.5185 9.68672 55.8671 10.6763 55.8671 13.0581ZM42.8554 15.3444H40.8586V12.2158H42.9159C45.1172 12.2158 45.1026 15.3444 42.8554 15.3444ZM39.1622 20.5207H40.8586V16.9108H42.0688C42.123 17.1141 42.2253 17.1929 42.3442 17.3568L43.327 18.7282C43.7505 19.3444 44.1991 19.9108 44.6102 20.5207H46.607C45.8767 19.4357 44.8501 18.1203 44.0719 17.0249C43.9237 16.8154 43.9675 17.0145 43.9446 16.7303C44.6978 16.7137 45.7286 15.8008 46.0562 15.0373C46.9805 12.89 45.3739 10.6515 43.0974 10.6515H39.1622V20.5207ZM24.0724 12.0456C24.0724 11.0041 23.605 11.0104 23.3901 10.4772C23.9973 10.5415 24.3916 10.9793 24.6566 11.3776C25.003 11.9046 24.9633 12.471 24.9863 13.1535L25.2075 19.2842C25.3181 19.8195 26.0129 19.834 26.6284 19.9938C27.2418 20.1535 27.8073 20.3963 28.404 20.1037C28.8923 19.8651 29.1343 19.4149 29.1343 18.7863V9.99792C29.1343 8.69087 28.4583 8.37137 27.3545 8.10166C26.3697 7.85892 25.4432 7.62033 24.473 7.37759C23.7093 7.1888 22.2592 6.65975 21.556 6.98133C20.5378 7.45021 20.9092 8.59751 20.7903 9.80498C19.916 9.60166 18.0131 8.9917 17.2077 8.93568C15.4195 8.81535 15.7492 10.9149 15.7492 11.89C13.5792 11.4627 10.6852 10.027 10.6852 12.471V21.2593C10.6852 23.1411 12.4212 23.1535 14.7289 23.7261C16.2604 24.1058 19.0104 25.305 19.0104 22.9668V14.1784C19.0104 13.1203 18.5326 12.9523 18.3344 12.5622C18.6683 12.5892 18.9019 12.7199 19.1023 12.8942C19.3109 13.0768 19.4695 13.2593 19.578 13.4419C19.9306 14.029 19.8993 14.4627 19.9223 15.2012C19.9661 16.5768 20.0162 17.9295 20.0621 19.2967C20.1476 21.9004 19.8305 21.6577 21.5352 22.0768C22.3802 22.2863 24.0724 22.7386 24.0724 20.834V12.0456Z" fill="black"/>
</g>
<defs>
<clipPath id="clip0_130_88">
<rect width="102.667" height="32" fill="white"/>
</clipPath>
</defs>
</svg>
