<svg width="116" height="34" viewBox="0 0 116 34" fill="none" xmlns="http://www.w3.org/2000/svg">
<path d="M8.481 0C3.7967 0 0 3.80533 0 8.50026V25.4997C0 30.1947 3.7967 34 8.481 34H25.442C30.1263 34 33.923 30.1947 33.923 25.4997V0H8.481Z" fill="#B4FF0A"/>
<path d="M9.27194 13.5765C8.99443 12.3608 10.2053 11.2847 11.7705 11.2847C13.1809 11.2847 14.5944 11.6014 15.1328 13.5723H16.9402V16.5807C14.6859 14.7234 9.79888 15.888 9.27194 13.5765ZM28.031 12.7442H23.9588L20.0842 16.9964V8.50027H16.9402V10.5587C16.8383 10.4253 16.7292 10.2941 16.6086 10.1649C15.4654 8.95237 13.818 8.33777 11.7123 8.33777C9.27713 8.33777 7.89274 9.42947 7.16 10.3462C6.24954 11.4837 5.84316 13.0358 6.12482 14.3005C6.8534 17.5756 9.88515 18.0985 12.1124 18.3891C13.871 18.6183 15.5527 18.9381 15.508 20.509C15.4612 22.1392 13.6278 22.5403 12.4243 22.5403C9.29065 22.5403 9.18463 20.2183 9.18463 20.2183H5.81302C5.86291 21.0902 6.12586 22.4903 7.19638 23.6914C8.36979 25.007 10.1284 25.6748 12.4243 25.6748C14.1859 25.6748 15.7907 25.0997 16.9402 24.0778V25.482H20.0842V21.4705L21.1963 20.2506L24.3714 25.482H28.0299L23.4101 17.8214L28.031 12.7442Z" fill="#4D5759"/>
<path d="M41.9238 23.3549C42.1348 23.4257 42.3811 23.4611 42.6628 23.4611C43.0151 23.4611 43.2957 23.3549 43.5078 23.1434C43.7187 22.9319 43.8591 22.6496 43.9297 22.3319L39.4606 12.8441H42.4341L45.3017 19.6516L47.8179 12.8441H50.6511L46.6216 22.1913C46.0936 23.4257 45.549 24.3424 44.9504 24.9247C44.3517 25.5247 43.7011 25.8237 42.9798 25.8237C42.7334 25.8237 42.5401 25.8237 42.3811 25.7883C42.2055 25.7716 42.0652 25.7362 41.9415 25.7008L41.6068 25.5945C41.5195 25.5591 41.4312 25.5247 41.3428 25.507V23.108C41.5018 23.2142 41.6951 23.3017 41.9238 23.3549Z" fill="#4D5759"/>
<path d="M55.4955 21.9444C55.3198 21.9965 55.1265 22.0319 54.9145 22.0851C54.7035 22.1205 54.4748 22.1559 54.2462 22.1736C54.0175 22.209 53.7889 22.209 53.5769 22.209C53.0322 22.209 52.5749 22.1559 52.1519 22.0673C51.7476 21.9621 51.3963 21.8205 51.1147 21.609C50.833 21.3975 50.622 21.1152 50.4807 20.7621C50.3404 20.4277 50.2697 20.0048 50.2697 19.51V16.1245H52.6976V19.0339C52.6976 19.2985 52.7329 19.5277 52.8036 19.6871C52.8566 19.8631 52.9616 20.0048 53.1029 20.11C53.2432 20.2162 53.4012 20.286 53.6122 20.3215C53.8242 20.3569 54.0705 20.3746 54.3522 20.3746C54.7742 20.3746 55.0912 20.3392 55.3375 20.2683C55.5838 20.1808 55.7771 20.0923 55.9174 20.0048V16.1245H58.3464V25.507H55.9174V21.8028C55.8125 21.8382 55.6722 21.8913 55.4955 21.9444Z" fill="#4D5759"/>
<path d="M64.8215 21.1329C64.6635 21.2037 64.4702 21.2746 64.2238 21.3089L63.5722 21.4329C63.2905 21.486 63.0442 21.5381 62.8332 21.6089C62.6222 21.6798 62.4466 21.7673 62.3052 21.8735C62.1649 21.9965 62.0589 22.1381 61.9882 22.2965C61.9186 22.4558 61.8832 22.6496 61.8832 22.8965C61.8832 23.0902 61.9186 23.2663 61.9706 23.408C62.0412 23.5663 62.1296 23.6725 62.2522 23.7778C62.3582 23.8663 62.4809 23.9549 62.6222 23.9903C62.7802 24.0424 62.9392 24.0601 63.1149 24.0601C63.2032 24.0601 63.3259 24.0424 63.4672 24.0246C63.6075 24.0069 63.7478 23.9726 63.9245 23.9194C64.0825 23.8486 64.2405 23.7778 64.3995 23.6725C64.5575 23.584 64.6988 23.4434 64.8215 23.284C64.9628 23.1257 65.0678 22.9319 65.1385 22.685C65.2091 22.4558 65.2621 22.1913 65.2621 21.8735V20.9214C65.1208 21.0089 64.9628 21.0798 64.8215 21.1329ZM67.743 24.3424C67.7597 24.5184 67.8127 24.6778 67.8657 24.7663C67.9187 24.8893 67.9717 24.9601 68.0413 25.0122C68.112 25.0653 68.165 25.1007 68.2523 25.1184V25.507H65.5604L65.4201 25.0653C65.3494 24.8893 65.3318 24.6778 65.3318 24.4132L64.7861 24.9601C64.5928 25.1184 64.3995 25.2601 64.1708 25.383C63.9422 25.507 63.6959 25.6122 63.3965 25.683C63.0972 25.7528 62.7449 25.7882 62.3406 25.7882C61.9186 25.7882 61.5309 25.7362 61.1796 25.6122C60.8273 25.4882 60.528 25.2945 60.264 25.0653C60.0176 24.8184 59.8067 24.5184 59.6663 24.1486C59.525 23.7955 59.4554 23.3725 59.4554 22.8965C59.4554 22.5079 59.5073 22.1558 59.631 21.8204C59.7536 21.486 59.9303 21.2037 60.1413 20.9568C60.37 20.71 60.634 20.4985 60.951 20.3391C61.2669 20.1631 61.6193 20.0568 62.0236 20.0047L64.3995 19.6516C64.4868 19.6339 64.5751 19.6339 64.6811 19.5985C64.7861 19.5808 64.8745 19.5453 64.9628 19.4755C65.0501 19.4224 65.1208 19.3516 65.1738 19.263C65.2268 19.1578 65.2621 19.0339 65.2621 18.8755C65.2621 18.7161 65.2268 18.5755 65.1915 18.4526C65.1385 18.3109 65.0501 18.2057 64.9451 18.1172C64.8215 18.0109 64.6812 17.9411 64.4868 17.888C64.2935 17.8349 64.0472 17.8172 63.7655 17.8172C63.4319 17.8172 63.1855 17.8526 62.9922 17.9057C62.7802 17.9765 62.6222 18.0818 62.5162 18.188C62.3936 18.3109 62.3052 18.4526 62.2522 18.5932L62.1472 19.1047H59.7193C59.7193 18.9995 59.737 18.8401 59.7713 18.6286C59.8067 18.4349 59.8773 18.2057 59.9833 17.9588C60.0706 17.7297 60.2286 17.4817 60.4053 17.2359C60.581 16.989 60.8096 16.7588 61.1266 16.5473C61.4083 16.3536 61.7772 16.1775 62.2002 16.0536C62.6222 15.9306 63.1149 15.8598 63.7125 15.8421C64.5398 15.8421 65.2268 15.9306 65.7537 16.089C66.2641 16.265 66.6694 16.4942 66.9687 16.7588C67.2494 17.0411 67.4437 17.3411 67.5487 17.6765C67.637 18.0109 67.69 18.3463 67.69 18.6818V23.6548C67.69 23.9371 67.7077 24.1663 67.743 24.3424Z" fill="#4D5759"/>
<path d="M74.531 18.787C74.4603 18.5932 74.3553 18.4349 74.2316 18.3109C74.0913 18.1703 73.9333 18.0818 73.7577 18.0109C73.5633 17.9588 73.3347 17.9234 73.0707 17.9234C72.6664 17.9234 72.3494 18.0109 72.1031 18.2057C71.8567 18.3995 71.6634 18.6286 71.5397 18.9109C71.3994 19.211 71.3288 19.5276 71.2758 19.8631C71.2404 20.1985 71.2061 20.5152 71.2061 20.8152C71.2061 21.1152 71.2238 21.4506 71.2591 21.785C71.2934 22.1381 71.3641 22.4381 71.5044 22.7204C71.6281 23.0027 71.8037 23.2496 72.0677 23.4257C72.3141 23.6194 72.6487 23.708 73.0707 23.708C73.3524 23.708 73.5987 23.6548 73.8097 23.5309C74.003 23.4257 74.1797 23.284 74.32 23.1257C74.4603 22.9496 74.5663 22.7725 74.637 22.5788C74.69 22.4027 74.7243 22.2267 74.7243 22.0673H77.2582C77.2582 22.2267 77.2416 22.4204 77.1885 22.6673C77.1179 22.9319 77.0295 23.1788 76.9069 23.4611C76.7843 23.7257 76.6076 24.0069 76.4142 24.2892C76.1856 24.5715 75.9393 24.8184 75.6223 25.0299C75.3053 25.2601 74.9529 25.4361 74.531 25.5778C74.109 25.7184 73.6163 25.7882 73.0707 25.7882C72.3671 25.7882 71.7331 25.683 71.1885 25.4716C70.6428 25.2424 70.1855 24.9247 69.8155 24.5007C69.4465 24.0778 69.1649 23.5663 68.9705 22.9319C68.7772 22.3142 68.6722 21.6089 68.6722 20.8152C68.6722 20.0047 68.7772 19.2985 68.9882 18.6818C69.1992 18.0818 69.4995 17.5526 69.8862 17.1296C70.2728 16.7067 70.7301 16.389 71.2758 16.1775C71.8037 15.9484 72.4201 15.8421 73.0707 15.8421C73.3524 15.8421 73.6517 15.8775 73.9687 15.9129C74.267 15.9484 74.5663 16.0359 74.8656 16.1421C75.165 16.265 75.4466 16.4067 75.7272 16.5827C75.9912 16.7588 76.2386 16.989 76.4672 17.2536C76.6782 17.5172 76.8539 17.8349 76.9942 18.188C77.1355 18.5401 77.2239 18.9641 77.2582 19.4401H74.7243C74.6723 19.1932 74.6193 18.9641 74.531 18.787Z" fill="#4D5759"/>
<path d="M85.7351 16.1245V18.0995H82.9018V25.507H80.4739V18.0995H77.6407V16.1245H85.7351Z" fill="#4D5759"/>
<path d="M92.4866 19.51V16.1245H94.9145V25.507H92.4866V21.4861H88.9144V25.507H86.4865V16.1245H88.9144V19.51H92.4866Z" fill="#4D5759"/>
<path d="M99.0064 21.909L102.42 16.1245H104.971V25.507H102.542V19.8454H102.508L99.1997 25.507H96.5431V16.1245H98.971V21.909H99.0064Z" fill="#4D5759"/>
<path d="M112.56 16.1245H115.798L111.927 20.0214L115.957 25.507H112.789L110.044 21.5382L109.059 22.5434V25.507H106.631V16.1245H109.059V19.6871L112.56 16.1245Z" fill="#4D5759"/>
</svg>
