<svg width="228" height="74" viewBox="0 0 228 74" fill="none" xmlns="http://www.w3.org/2000/svg">
<g clip-path="url(#clip0_252_178)">
<path d="M25.0724 53.0423L27.151 62.0772L47.7202 46.0601L47.788 41.6044L43.4623 27.2094L31.4027 43.4659L29.042 34.7473L3.20791 69.6123L25.0724 53.0423Z" fill="#231F20"/>
<path d="M37.4111 8.79897L224.394 0.0117188L203.581 67.2075L32.8394 69.9906L37.4111 8.79897Z" fill="#231F20"/>
<path d="M25.5005 50.1191L27.571 59.1165L45.4429 45.2008L45.4954 41.7802L42.2422 30.9542L30.1096 47.3061L27.7507 38.5916L11.1487 60.9972L25.5005 50.1191Z" fill="white"/>
<path d="M212.643 4.5L201.079 66.2958L37.2477 67.912L40.9649 13.0746L212.643 4.5Z" fill="white"/>
</g>
<defs>
<clipPath id="clip0_252_178">
<rect width="224.079" height="66.5127" fill="white" transform="matrix(-0.999438 0.0335377 0.0405945 0.999176 224.431 0.0020752)"/>
</clipPath>
</defs>
</svg>
