<svg width="189" height="86" viewBox="0 0 189 86" fill="none" xmlns="http://www.w3.org/2000/svg">
<path fill-rule="evenodd" clip-rule="evenodd" d="M47.481 18.0049H180.298C184.716 18.0049 188.298 21.5866 188.298 26.0049V77.0001C188.298 81.4183 184.716 85.0001 180.298 85.0001H8.73341C4.31513 85.0001 0.733398 81.4183 0.733398 77.0001V26.0049C0.733398 21.5866 4.31512 18.0049 8.7334 18.0049H31.2901L27.6921 1.45312L47.481 18.0049Z" fill="white"/>
<path d="M47.481 18.0049L47.1602 18.3884L47.2995 18.5049H47.481V18.0049ZM31.2901 18.0049V18.5049H31.9105L31.7787 17.8987L31.2901 18.0049ZM27.6921 1.45312L28.0129 1.0696L26.8935 0.13335L27.2035 1.55933L27.6921 1.45312ZM47.481 18.5049H180.298V17.5049H47.481V18.5049ZM180.298 18.5049C184.44 18.5049 187.798 21.8627 187.798 26.0049H188.798C188.798 21.3105 184.992 17.5049 180.298 17.5049V18.5049ZM187.798 26.0049V77.0001H188.798V26.0049H187.798ZM187.798 77.0001C187.798 81.1422 184.44 84.5001 180.298 84.5001V85.5001C184.992 85.5001 188.798 81.6945 188.798 77.0001H187.798ZM180.298 84.5001H8.73341V85.5001H180.298V84.5001ZM8.73341 84.5001C4.59127 84.5001 1.2334 81.1422 1.2334 77.0001H0.233398C0.233398 81.6945 4.03899 85.5001 8.73341 85.5001V84.5001ZM1.2334 77.0001V26.0049H0.233398V77.0001H1.2334ZM1.2334 26.0049C1.2334 21.8628 4.59126 18.5049 8.7334 18.5049V17.5049C4.03898 17.5049 0.233398 21.3105 0.233398 26.0049H1.2334ZM8.7334 18.5049H31.2901V17.5049H8.7334V18.5049ZM31.7787 17.8987L28.1807 1.34692L27.2035 1.55933L30.8015 18.1111L31.7787 17.8987ZM27.3713 1.83665L47.1602 18.3884L47.8018 17.6214L28.0129 1.0696L27.3713 1.83665Z" fill="#BBBBBB"/>
</svg>
