<svg width="125" height="75" viewBox="0 0 125 75" fill="none" xmlns="http://www.w3.org/2000/svg">
<g clip-path="url(#clip0_248_9249)">
<path d="M29.1111 32.3277L25.4572 49.614L21.3143 50.0599L16.4329 39.145L13.8651 50.8626L9.74671 51.3042L2.47555 35.1921L6.47379 34.7616L11.4979 46.0962L14.1631 33.935L17.7326 33.5519L22.8144 44.9753L25.4217 32.7236L29.1111 32.3277ZM31.6106 32.0584L35.4659 31.6431L37.2631 48.3444L33.4078 48.7596L31.6106 32.0584ZM54.6998 29.5747L56.4953 46.2762L53.3302 46.6163L43.9324 37.3699L45.0231 47.5103L41.2137 47.919L39.4181 31.2176L42.6079 30.8748L51.9811 40.1238L50.8904 29.9834L54.6998 29.5747ZM58.8264 37.7227L65.5624 36.9975L65.8832 39.9807L59.1469 40.7042L58.8264 37.7227Z" fill="black"/>
<path d="M94.4772 25.2952L90.8234 42.5832L86.6806 43.0291L81.7991 32.1141L79.2312 43.8301L75.113 44.2734L67.8416 28.1596L71.8401 27.7308L76.864 39.0638L79.5292 26.9026L83.0987 26.5194L88.1805 37.9428L90.7878 25.6912L94.4772 25.2952ZM96.9767 25.0259L100.832 24.6107L102.629 41.3119L98.7723 41.7274L96.9767 25.0259ZM120.066 22.5423L121.861 39.2437L118.696 39.5839L109.298 30.3375L110.389 40.4779L106.58 40.8882L104.784 24.1868L107.974 23.8424L117.347 33.0914L116.257 22.9526L120.066 22.5423Z" fill="#FC0314"/>
<path d="M68.8695 28.3685L68.8699 28.3718" stroke="#FFFF00" stroke-width="2.93631" stroke-miterlimit="10"/>
<path d="M38.8093 23.575C38.8093 23.575 45.8267 13.06 58.6152 11.6991C70.72 10.411 77.9538 16.6438 77.9538 16.6438L80.2146 14.069C80.2146 14.069 70.6754 5.00929 56.1316 6.55695C41.5894 8.10443 34.8186 17.282 33.4559 18.7682L38.8093 23.575Z" fill="black"/>
<path d="M77.8606 20.2508L84.0665 12.9977L85.6558 20.7159L77.8606 20.2508Z" fill="black"/>
<path d="M84.6219 49.6759C84.6219 49.6759 78.4777 60.7262 65.8407 63.1205C53.8816 65.3878 46.169 59.7624 46.169 59.7624L44.1229 62.5126C44.1229 62.5126 54.3628 70.7681 68.7334 68.0459C83.1022 65.3223 89.1079 55.6247 90.3464 54.0334L84.6219 49.6759Z" fill="#FC0314"/>
<path d="M45.9701 56.1598L40.3706 63.8949L38.1628 56.3309L45.9701 56.1598Z" fill="#FC0314"/>
</g>
<defs>
<clipPath id="clip0_248_9249">
<rect width="118.414" height="62.5816" fill="white" transform="translate(0 12.5301) rotate(-6.07417)"/>
</clipPath>
</defs>
</svg>
