<svg width="237" height="105" viewBox="0 0 237 105" fill="none" xmlns="http://www.w3.org/2000/svg">
<path fill-rule="evenodd" clip-rule="evenodd" d="M83.8 69.0001H9C4.58171 69.0001 1 72.5818 1 77.0001V96.0001C1 100.418 4.58173 104 9 104H228C232.418 104 236 100.418 236 96.0001V77.0001C236 72.5818 232.418 69.0001 228 69.0001H124.12L67 1L83.8 69.0001Z" fill="white"/>
<path d="M83.8 69.0001L84.2854 68.8802L84.4386 69.5001H83.8V69.0001ZM124.12 69.0001V69.5001H123.887L123.737 69.3217L124.12 69.0001ZM67 1L66.5146 1.11992L67.3829 0.678404L67 1ZM83.8 69.5001H9V68.5001H83.8V69.5001ZM9 69.5001C4.85785 69.5001 1.5 72.858 1.5 77.0001H0.5C0.5 72.3057 4.30557 68.5001 9 68.5001V69.5001ZM1.5 77.0001V96.0001H0.5V77.0001H1.5ZM1.5 96.0001C1.5 100.142 4.85786 103.5 9 103.5V104.5C4.30559 104.5 0.5 100.695 0.5 96.0001H1.5ZM9 103.5H228V104.5H9V103.5ZM228 103.5C232.142 103.5 235.5 100.142 235.5 96.0001H236.5C236.5 100.695 232.694 104.5 228 104.5V103.5ZM235.5 96.0001V77.0001H236.5V96.0001H235.5ZM235.5 77.0001C235.5 72.858 232.142 69.5001 228 69.5001V68.5001C232.694 68.5001 236.5 72.3057 236.5 77.0001H235.5ZM228 69.5001H124.12V68.5001H228V69.5001ZM123.737 69.3217L66.6171 1.3216L67.3829 0.678404L124.503 68.6785L123.737 69.3217ZM67.4854 0.880076L84.2854 68.8802L83.3146 69.12L66.5146 1.11992L67.4854 0.880076Z" fill="#BDBDBD"/>
</svg>
