<svg width="232" height="86" viewBox="0 0 232 86" fill="none" xmlns="http://www.w3.org/2000/svg">
<g clip-path="url(#clip0_252_183)">
<path d="M25.7014 66.2796L30.8183 75.2255L65.7704 51.8939L52.9636 51.8938L43.4613 37.763L31.6369 55.7672L25.7013 49.3568L0.90705 85.7867L25.7014 66.2796Z" fill="#231F20"/>
<ellipse cx="107.872" cy="32.4628" rx="107.872" ry="32.4628" transform="matrix(1 1.65423e-06 2.08042e-06 1 15.5352 0)" fill="black"/>
<path d="M25.511 63.2525L30.6074 72.1612L59.5394 51.2467L55.2557 44.7194L42.8114 41.7226L30.9146 59.8325L25.511 53.0007L9.23648 76.0586L25.511 63.2525Z" fill="white"/>
<ellipse cx="105.535" cy="30.1441" rx="105.535" ry="30.1441" transform="matrix(1 2.84024e-06 3.67405e-06 1 20.2084 1.98767)" fill="white"/>
</g>
<defs>
<clipPath id="clip0_252_183">
<rect width="230.649" height="85.8308" fill="white" transform="matrix(-1 -4.43504e-05 -5.36964e-05 1 231.421 0.0114746)"/>
</clipPath>
</defs>
</svg>
