<svg width="268" height="83" viewBox="0 0 268 83" fill="none" xmlns="http://www.w3.org/2000/svg">
<g clip-path="url(#clip0_252_193)">
<path d="M44.4312 29.2404C40.8264 19.6895 47.6083 9.40581 57.807 8.95808L251.461 0.456592C261.4 0.0202907 269.002 9.20271 266.719 18.8851L254.554 70.4701C252.905 77.4593 246.535 82.3 239.36 82.0153L71.62 75.3614C65.6007 75.1227 60.3082 71.306 58.1809 65.67L44.4312 29.2404Z" fill="black"/>
<path d="M32.7343 33.7884C49.4501 33.237 53.7821 26.347 54.7304 24.589C75.3933 33.4967 113.214 61.7817 81.0489 58.8647C44.4401 55.5446 7.52894 33.8487 0.464087 25.8001C6.33826 29.3113 24.485 34.0605 32.7343 33.7884Z" fill="black"/>
<path d="M47.7816 30.645C43.9513 21.0399 50.7602 10.531 61.0919 10.1017L248.426 2.31814C258.429 1.90251 266.024 11.2168 263.604 20.9318L252.311 66.2551C250.595 73.1425 244.286 77.8843 237.193 77.618L73.6737 71.4785C67.7433 71.2559 62.5017 67.5577 60.3035 62.0453L47.7816 30.645Z" fill="white"/>
<path d="M37.0259 35.6659C43.8778 35.6659 56.0092 30.8945 56.5939 29.3368C74.8121 36.1892 90.0008 53.9776 61.9837 50.7531C40.2536 48.2522 13.8991 36.0025 7.08955 29.3371C12.3823 32.1308 23.3594 35.666 37.0259 35.6659Z" fill="white"/>
</g>
<defs>
<clipPath id="clip0_252_193">
<rect width="266.807" height="81.6906" fill="white" transform="matrix(-1 -4.43504e-05 -5.36964e-05 1 267.256 0.393311)"/>
</clipPath>
</defs>
</svg>
