<svg width="238" height="69" viewBox="0 0 238 69" fill="none" xmlns="http://www.w3.org/2000/svg">
<g clip-path="url(#clip0_252_173)">
<path d="M209.423 26.3722L210.372 17.1711L185.533 26.5093L184.022 30.7328L183.477 45.6841L200.27 33.6712L199.693 42.6521L235.679 16.8799L209.423 26.3722Z" fill="#231F20"/>
<path d="M188.542 3.57104L0.524536 5.78979L25.9861 67.6736L197.313 60.7301L188.542 3.57104Z" fill="#231F20"/>
<path d="M208.065 29.0326L209.01 19.8696L187.428 27.9822L186.268 31.2244L185.858 42.4688L202.751 30.3861L202.174 39.3627L225.3 22.8004L208.065 29.0326Z" fill="white"/>
<path d="M12.6097 9.34326L28.4317 66.6779L192.752 59.0263L185.272 7.78147L12.6097 9.34326Z" fill="white"/>
</g>
<defs>
<clipPath id="clip0_252_173">
<rect width="234.899" height="62.5023" fill="white" transform="matrix(0.999703 -0.0243554 0.0294838 0.999565 0.462402 5.81409)"/>
</clipPath>
</defs>
</svg>
