<svg width="239" height="91" viewBox="0 0 239 91" fill="none" xmlns="http://www.w3.org/2000/svg">
<g clip-path="url(#clip0_252_188)">
<path d="M206.773 76.0981L214.222 67.407L183.555 53.693L179.094 56.6669L167.955 71.7317L192.733 75.0641L185.8 83.877L238.92 90.9881L206.773 76.0981Z" fill="#231F20"/>
<ellipse cx="108.772" cy="41.8253" rx="108.772" ry="41.8253" transform="matrix(-1 -9.89051e-05 -9.73491e-05 1 218.514 0.400513)" fill="black"/>
<path d="M203.57 77.5882L210.988 68.9324L184.343 57.0161L180.918 59.2987L172.541 70.6283L197.466 73.983L190.536 82.791L224.673 87.3609L203.57 77.5882Z" fill="white"/>
<ellipse cx="106.416" cy="38.8378" rx="106.416" ry="38.8378" transform="matrix(-1 -9.73897e-05 -9.85963e-05 1 213.802 2.96082)" fill="white"/>
</g>
<defs>
<clipPath id="clip0_252_188">
<rect width="238.239" height="90.6127" fill="white" transform="matrix(1 4.43504e-05 -5.36964e-05 1 0.647095 0.377563)"/>
</clipPath>
</defs>
</svg>
