<svg width="224" height="117" viewBox="0 0 224 117" fill="none" xmlns="http://www.w3.org/2000/svg">
<path fill-rule="evenodd" clip-rule="evenodd" d="M128.38 38.0001H9C4.58171 38.0001 1 41.5818 1 46.0001V108C1 112.418 4.58173 116 9 116H215C219.418 116 223 112.418 223 108V46.0001C223 41.5818 219.418 38.0001 215 38.0001H150.083L157.761 0.999969L128.38 38.0001Z" fill="white"/>
<path d="M128.38 38.0001L128.772 38.311L128.621 38.5001H128.38V38.0001ZM150.083 38.0001V38.5001H149.469L149.593 37.8985L150.083 38.0001ZM157.761 0.999969L157.369 0.689041L158.25 1.10156L157.761 0.999969ZM128.38 38.5001H9V37.5001H128.38V38.5001ZM9 38.5001C4.85785 38.5001 1.5 41.8579 1.5 46.0001H0.5C0.5 41.3056 4.30557 37.5001 9 37.5001V38.5001ZM1.5 46.0001V108H0.5V46.0001H1.5ZM1.5 108C1.5 112.142 4.85786 115.5 9 115.5V116.5C4.30559 116.5 0.5 112.694 0.5 108H1.5ZM9 115.5H215V116.5H9V115.5ZM215 115.5C219.142 115.5 222.5 112.142 222.5 108H223.5C223.5 112.694 219.694 116.5 215 116.5V115.5ZM222.5 108V46.0001H223.5V108H222.5ZM222.5 46.0001C222.5 41.8579 219.142 38.5001 215 38.5001V37.5001C219.694 37.5001 223.5 41.3056 223.5 46.0001H222.5ZM215 38.5001H150.083V37.5001H215V38.5001ZM149.593 37.8985L157.271 0.898382L158.25 1.10156L150.572 38.1016L149.593 37.8985ZM158.152 1.3109L128.772 38.311L127.988 37.6891L157.369 0.689041L158.152 1.3109Z" fill="#BDBDBD"/>
</svg>
