<svg width="274" height="61" viewBox="0 0 274 61" fill="none" xmlns="http://www.w3.org/2000/svg">
<path d="M273.645 16.848L41.0468 9.12146L70.2519 61L265.301 51.0658L273.645 16.848Z" fill="#FF0009"/>
<path d="M171.028 7.98131L17.673 0L36.9283 53.5888L165.527 43.3271L171.028 7.98131Z" fill="black"/>
<g clip-path="url(#clip0_252_157)">
<path fill-rule="evenodd" clip-rule="evenodd" d="M6.55263 12.7186C5.37224 13.4891 4.43904 14.0094 3.41503 14.9099C2.50704 15.7104 1.57384 16.5509 0.827271 17.6365L0.993735 17.8866C1.88154 18.2619 5.51349 20.8134 6.8452 21.5838L8.61577 19.7127C9.27658 19.0923 9.86677 18.7221 10.689 18.2569C14.7901 15.9255 24.4652 15.9255 24.8284 22.3693C24.9393 24.6256 23.8044 26.0064 22.7703 27.2171L19.1535 30.5241C16.7927 32.6803 14.0082 36.0673 14.4521 39.7545H15.1785C16.4446 39.7595 21.5495 39.9646 22.291 39.6744C22.8207 37.9884 22.1296 36.7927 25.1562 33.9361L29.0303 30.2789C29.227 30.0788 29.4137 29.9687 29.6104 29.7686C30.1098 29.2783 31.0228 28.0976 31.4466 27.3522C34.448 22.0141 33.3382 15.6904 27.739 12.4585C23.6278 10.0921 17.8268 9.71184 13.1305 10.4973C10.2501 10.9776 8.89321 11.723 6.55263 12.7186Z" fill="white"/>
<path fill-rule="evenodd" clip-rule="evenodd" d="M6.55261 12.7187C8.8932 11.7231 10.2501 10.9776 13.1305 10.4974C17.8268 9.7119 23.6278 10.0921 27.7389 12.4585C33.3382 15.6904 34.448 22.0141 31.4466 27.3522C31.0228 28.0977 30.1098 29.2784 29.6104 29.7687C29.4137 29.9688 29.227 30.0788 29.0303 30.279L25.1562 33.9361C22.1296 36.7928 22.8207 37.9885 22.291 39.6745C21.5495 39.9646 16.4446 39.7595 15.1785 39.7545L15.2491 41.7907C15.7233 41.8958 25.4488 41.5005 26.044 41.3605C26.3417 39.2842 25.3883 38.5888 27.4615 35.8622C28.4098 34.6165 31.6382 31.8149 33.1112 29.8537C35.9058 26.1315 37.2072 20.168 34.1856 15.5053C29.1463 7.72073 15.3046 7.80078 8.05583 11.7731L6.8805 12.4235C6.86032 12.4385 6.83005 12.4585 6.80987 12.4735L6.55261 12.7187Z" fill="black"/>
<path fill-rule="evenodd" clip-rule="evenodd" d="M16.1773 54.1429C17.963 54.6332 19.3048 54.8383 20.9341 53.9478C23.5017 52.5419 24.3239 48.6497 21.943 46.3983C21.605 46.0831 21.6101 45.9881 21.1662 45.7179C20.9341 45.5728 20.5054 45.3477 20.1876 45.2377C19.2947 44.9175 18.4775 44.9475 17.4787 45.0075C15.6829 45.6029 13.8922 46.2933 13.4836 48.8698C13.2818 50.1355 13.524 51.3112 14.099 52.2418C14.8658 53.4775 15.3853 53.5475 16.1773 54.1429Z" fill="white"/>
<path fill-rule="evenodd" clip-rule="evenodd" d="M17.4787 45.0075C18.4775 44.9475 19.2947 44.9175 20.1875 45.2377C20.5053 45.3477 20.9341 45.5729 21.1661 45.7179C21.61 45.9881 21.605 46.0832 21.943 46.3983C24.3239 48.6497 23.5017 52.5419 20.9341 53.9478C19.3048 54.8383 17.963 54.6332 16.1772 54.1429C16.3286 54.6232 16.8179 54.9383 17.3475 55.3136C20.7424 57.71 26.5333 56.2391 27.411 51.2812C28.5713 44.7774 20.6617 42.1959 17.4787 45.0075Z" fill="black"/>
<path fill-rule="evenodd" clip-rule="evenodd" d="M0.99374 17.8866C0.595235 18.3069 0.292573 18.8672 0 19.3375C0.206819 19.5726 8.29294 24.3104 8.72675 24.4305C9.39765 23.69 10.1341 22.0491 11.5566 21.0585C12.9691 20.0779 13.8115 19.5076 15.8998 19.0773C17.7057 18.7021 19.9656 18.6071 21.6908 19.1824C24.0919 19.9879 24.2684 21.2236 24.8284 22.3693C24.4652 15.9255 14.7901 15.9255 10.689 18.2569C9.86678 18.7221 9.27659 19.0923 8.61578 19.7127L6.8452 21.5838C5.51349 20.8134 1.88155 18.2619 0.99374 17.8866Z" fill="black"/>
</g>
<defs>
<clipPath id="clip0_252_157">
<rect width="35.9159" height="47.3178" fill="white" transform="translate(0 9.12146)"/>
</clipPath>
</defs>
</svg>
