<svg width="221" height="129" viewBox="0 0 221 129" fill="none" xmlns="http://www.w3.org/2000/svg">
<path fill-rule="evenodd" clip-rule="evenodd" d="M82.2397 98.9908L82.7892 127.155L100.361 98.9908H213C217.418 98.9908 221 95.4091 221 90.9908V9.00002C221 4.58174 217.418 1.00002 213 1.00002H9C4.58173 1.00002 1 4.58173 1 9.00002V90.9908C1 95.409 4.58173 98.9908 9 98.9908H82.2397Z" fill="white"/>
<path d="M82.7892 127.155L82.2893 127.164L82.3222 128.848L83.2134 127.419L82.7892 127.155ZM82.2397 98.9908L82.7396 98.981L82.73 98.4908H82.2397V98.9908ZM100.361 98.9908V98.4908H100.084L99.9368 98.7261L100.361 98.9908ZM83.2891 127.145L82.7396 98.981L81.7398 99.0005L82.2893 127.164L83.2891 127.145ZM99.9368 98.7261L82.365 126.89L83.2134 127.419L100.785 99.2554L99.9368 98.7261ZM100.361 99.4908H213V98.4908H100.361V99.4908ZM213 99.4908C217.694 99.4908 221.5 95.6852 221.5 90.9908H220.5C220.5 95.1329 217.142 98.4908 213 98.4908V99.4908ZM221.5 90.9908V9.00002H220.5V90.9908H221.5ZM221.5 9.00002C221.5 4.3056 217.694 0.500015 213 0.500015V1.50002C217.142 1.50002 220.5 4.85788 220.5 9.00002H221.5ZM213 0.500015H9V1.50002H213V0.500015ZM9 0.500015C4.30559 0.500015 0.5 4.30559 0.5 9.00002H1.5C1.5 4.85787 4.85786 1.50002 9 1.50002V0.500015ZM0.5 9.00002V90.9908H1.5V9.00002H0.5ZM0.5 90.9908C0.5 95.6852 4.30559 99.4908 9 99.4908V98.4908C4.85786 98.4908 1.5 95.1329 1.5 90.9908H0.5ZM9 99.4908H82.2397V98.4908H9V99.4908Z" fill="#C8C8C8"/>
</svg>
