<svg width="224" height="155" viewBox="0 0 224 155" fill="none" xmlns="http://www.w3.org/2000/svg">
<path fill-rule="evenodd" clip-rule="evenodd" d="M214.994 1C219.412 1 222.994 4.58172 222.994 9V94C222.994 98.4183 219.412 102 214.994 102H127.902L92.4114 154.211L99.7931 102H8.99365C4.57538 102 0.993652 98.4183 0.993652 94V9C0.993652 4.58172 4.57536 1 8.99365 1H214.994Z" fill="white"/>
<path d="M127.902 102L127.488 101.719L127.637 101.5H127.902V102ZM92.4114 154.211L92.8249 154.492L91.9163 154.141L92.4114 154.211ZM99.7931 102V101.5H100.369L100.288 102.07L99.7931 102ZM222.494 9C222.494 4.85786 219.136 1.5 214.994 1.5V0.5C219.688 0.5 223.494 4.30558 223.494 9H222.494ZM222.494 94V9H223.494V94H222.494ZM214.994 101.5C219.136 101.5 222.494 98.1421 222.494 94H223.494C223.494 98.6944 219.688 102.5 214.994 102.5V101.5ZM127.902 101.5H214.994V102.5H127.902V101.5ZM91.9979 153.93L127.488 101.719L128.315 102.281L92.8249 154.492L91.9979 153.93ZM100.288 102.07L92.9064 154.281L91.9163 154.141L99.298 101.93L100.288 102.07ZM8.99365 101.5H99.7931V102.5H8.99365V101.5ZM1.49365 94C1.49365 98.1421 4.85152 101.5 8.99365 101.5V102.5C4.29924 102.5 0.493652 98.6944 0.493652 94H1.49365ZM1.49365 9V94H0.493652V9H1.49365ZM8.99365 1.5C4.8515 1.5 1.49365 4.85786 1.49365 9H0.493652C0.493652 4.30558 4.29922 0.5 8.99365 0.5V1.5ZM214.994 1.5H8.99365V0.5H214.994V1.5Z" fill="#BDBDBD"/>
</svg>
