<svg width="206" height="75" viewBox="0 0 206 75" fill="none" xmlns="http://www.w3.org/2000/svg">
<g clip-path="url(#clip0_252_198)">
<path d="M170.86 28.4994C173.808 18.8602 166.538 9.04378 156.425 9.00851L16.0713 8.51889C6.16602 8.48434 -0.971226 17.879 1.70277 27.4321L11.4503 62.256C13.4066 69.2452 20.0703 73.883 27.2863 73.2777L150.555 62.9376C156.622 62.4287 161.747 58.3016 163.523 52.4936L170.86 28.4994Z" fill="black"/>
<path d="M183.297 21.297C176.39 24.2641 163.462 25.2097 161.283 24.7222C151.673 36.7559 131.444 68.2337 178.057 41.5608C196.466 31.0267 203.327 10.8968 202.602 4.38146C200.655 8.27222 195.784 15.9322 183.297 21.297Z" fill="black"/>
<path d="M168.252 29.7907C171.413 20.0857 164.102 10.0542 153.861 10.0435L18.5163 9.90233C8.55083 9.89194 1.42825 19.4118 4.23465 28.9908L12.9799 58.8404C14.9979 65.7283 21.5958 70.2725 28.7326 69.6898L148.851 59.8818C154.834 59.3933 159.917 55.384 161.771 49.6913L168.252 29.7907Z" fill="white"/>
<path d="M183.511 23.5909C178.144 26.317 166.686 28.144 165.102 27.6187C156.426 38.0062 139.534 53.954 176.011 38.1529C192.226 31.1293 200.448 15.4942 200.677 9.62919C198.746 13.0348 195.102 17.7042 183.511 23.5909Z" fill="white"/>
</g>
<defs>
<clipPath id="clip0_252_198">
<rect width="202.292" height="65.2689" fill="white" transform="matrix(0.999104 -0.0423187 0.0512152 0.998688 0.369385 9.13989)"/>
</clipPath>
</defs>
</svg>
