<svg width="230" height="144" viewBox="0 0 230 144" fill="none" xmlns="http://www.w3.org/2000/svg">
<path fill-rule="evenodd" clip-rule="evenodd" d="M61.7388 55H9C4.58173 55 1 58.5817 1 63V135C1 139.418 4.58173 143 9 143H221C225.418 143 229 139.418 229 135V63C229 58.5817 225.418 55 221 55H93.662L51 1L61.7388 55Z" fill="white"/>
<path d="M61.7388 55L62.2292 54.9025L62.3481 55.5H61.7388V55ZM93.662 55V55.5H93.4198L93.2697 55.31L93.662 55ZM51 1L50.5096 1.09752L51.3923 0.690042L51 1ZM61.7388 55.5H9V54.5H61.7388V55.5ZM9 55.5C4.85786 55.5 1.5 58.8579 1.5 63H0.5C0.5 58.3056 4.30559 54.5 9 54.5V55.5ZM1.5 63V135H0.5V63H1.5ZM1.5 135C1.5 139.142 4.85786 142.5 9 142.5V143.5C4.30559 143.5 0.5 139.694 0.5 135H1.5ZM9 142.5H221V143.5H9V142.5ZM221 142.5C225.142 142.5 228.5 139.142 228.5 135H229.5C229.5 139.694 225.694 143.5 221 143.5V142.5ZM228.5 135V63H229.5V135H228.5ZM228.5 63C228.5 58.8579 225.142 55.5 221 55.5V54.5C225.694 54.5 229.5 58.3056 229.5 63H228.5ZM221 55.5H93.662V54.5H221V55.5ZM93.2697 55.31L50.6077 1.30996L51.3923 0.690042L94.0544 54.69L93.2697 55.31ZM51.4904 0.902476L62.2292 54.9025L61.2484 55.0975L50.5096 1.09752L51.4904 0.902476Z" fill="#BDBDBD"/>
</svg>
