<svg width="265" height="130" viewBox="0 0 265 130" fill="none" xmlns="http://www.w3.org/2000/svg">
<g clip-path="url(#clip0_360_6400)">
<path d="M242.5 112.384L254.139 104.969L223.237 78.5517L217.034 80.4255L198.92 93.8921L226.551 106.323L215.47 114.056L262.949 128.76L242.5 112.384Z" fill="#231F20"/>
<ellipse cx="131.84" cy="57.2288" rx="131.84" ry="57.2288" transform="matrix(-1 -0.000113451 -8.33298e-05 1 264.43 0.543213)" fill="black"/>
<path d="M237.32 112.227L248.91 104.842L222.061 81.8884L217.3 83.3261L203.677 93.4539L231.471 105.961L220.395 113.69L254 124L237.32 112.227Z" fill="white"/>
<ellipse cx="128.984" cy="53.141" rx="128.984" ry="53.141" transform="matrix(-1 -0.000113451 -8.33298e-05 1 258.718 4.04663)" fill="white"/>
</g>
<defs>
<clipPath id="clip0_360_6400">
<rect width="263.548" height="129.102" fill="white" transform="matrix(1 4.74446e-05 -5.01945e-05 1 0.760254 0.500488)"/>
</clipPath>
</defs>
</svg>
