<svg width="195" height="171" viewBox="0 0 195 171" fill="none" xmlns="http://www.w3.org/2000/svg">
<path fill-rule="evenodd" clip-rule="evenodd" d="M9 1C4.58172 1 1 4.58173 1 9V106C1 110.418 4.58173 114 9 114H64.3044L81.4354 170.021L91.1775 114H186C190.418 114 194 110.418 194 106V9C194 4.58172 190.418 1 186 1H9Z" fill="white"/>
<path d="M64.3044 114L64.7825 113.854L64.6744 113.5H64.3044V114ZM81.4354 170.021L80.9572 170.168L81.928 170.107L81.4354 170.021ZM91.1775 114V113.5H90.757L90.6849 113.914L91.1775 114ZM1.5 9C1.5 4.85787 4.85786 1.5 9 1.5V0.5C4.30558 0.5 0.5 4.30558 0.5 9H1.5ZM1.5 106V9H0.5V106H1.5ZM9 113.5C4.85787 113.5 1.5 110.142 1.5 106H0.5C0.5 110.694 4.30558 114.5 9 114.5V113.5ZM64.3044 113.5H9V114.5H64.3044V113.5ZM63.8263 114.146L80.9572 170.168L81.9135 169.875L64.7825 113.854L63.8263 114.146ZM81.928 170.107L91.6701 114.086L90.6849 113.914L80.9428 169.936L81.928 170.107ZM186 113.5H91.1775V114.5H186V113.5ZM193.5 106C193.5 110.142 190.142 113.5 186 113.5V114.5C190.694 114.5 194.5 110.694 194.5 106H193.5ZM193.5 9V106H194.5V9H193.5ZM186 1.5C190.142 1.5 193.5 4.85786 193.5 9H194.5C194.5 4.30558 190.694 0.5 186 0.5V1.5ZM9 1.5H186V0.5H9V1.5Z" fill="#BDBDBD"/>
</svg>
