<svg width="181" height="73" viewBox="0 0 181 73" fill="none" xmlns="http://www.w3.org/2000/svg">
<path fill-rule="evenodd" clip-rule="evenodd" d="M134.474 54.3399H9.00021C4.58194 54.3399 1.00023 50.7582 1.00023 46.3399V8.74376C1.00023 4.32548 4.58195 0.743759 9.00023 0.743759H171.961C176.379 0.743759 179.961 4.32549 179.961 8.74376V46.3399C179.961 50.7582 176.379 54.3399 171.961 54.3399H150.572L154.149 71.0665L134.474 54.3399Z" fill="white"/>
<path d="M134.474 54.3399L134.798 53.959L134.658 53.8399H134.474V54.3399ZM150.572 54.3399V53.8399H149.954L150.083 54.4445L150.572 54.3399ZM154.149 71.0665L153.825 71.4475L154.946 72.3999L154.638 70.962L154.149 71.0665ZM134.474 53.8399H9.00021V54.8399H134.474V53.8399ZM9.00021 53.8399C4.85808 53.8399 1.50023 50.482 1.50023 46.3399H0.500229C0.500229 51.0343 4.3058 54.8399 9.00021 54.8399V53.8399ZM1.50023 46.3399V8.74376H0.500229V46.3399H1.50023ZM1.50023 8.74376C1.50023 4.60162 4.85809 1.24376 9.00023 1.24376V0.243759C4.30582 0.243759 0.500229 4.04933 0.500229 8.74376H1.50023ZM9.00023 1.24376H171.961V0.243759H9.00023V1.24376ZM171.961 1.24376C176.103 1.24376 179.461 4.60162 179.461 8.74376H180.461C180.461 4.04935 176.655 0.243759 171.961 0.243759V1.24376ZM179.461 8.74376V46.3399H180.461V8.74376H179.461ZM179.461 46.3399C179.461 50.482 176.103 53.8399 171.961 53.8399V54.8399C176.655 54.8399 180.461 51.0343 180.461 46.3399H179.461ZM171.961 53.8399H150.572V54.8399H171.961V53.8399ZM150.083 54.4445L153.66 71.1711L154.638 70.962L151.061 54.2353L150.083 54.4445ZM154.473 70.6856L134.798 53.959L134.15 54.7208L153.825 71.4475L154.473 70.6856Z" fill="#BBBBBB"/>
</svg>
