<svg width="314" height="75" viewBox="0 0 314 75" fill="none" xmlns="http://www.w3.org/2000/svg">
<path fill-rule="evenodd" clip-rule="evenodd" d="M41.2367 50H9C4.58173 50 1 46.4183 1 42V9C1 4.58172 4.58173 1 9 1H305C309.418 1 313 4.58172 313 9V42C313 46.4183 309.418 50 305 50H71.9469L31 73.2222L41.2367 50Z" fill="white"/>
<path d="M41.2367 50L41.6942 50.2017L42.0036 49.5H41.2367V50ZM71.9469 50V49.5H71.815L71.7003 49.5651L71.9469 50ZM31 73.2222L30.5425 73.0205L29.9336 74.4018L31.2467 73.6572L31 73.2222ZM41.2367 49.5H9V50.5H41.2367V49.5ZM9 49.5C4.85787 49.5 1.5 46.1421 1.5 42H0.5C0.5 46.6944 4.30558 50.5 9 50.5V49.5ZM1.5 42V9H0.5V42H1.5ZM1.5 9C1.5 4.85786 4.85787 1.5 9 1.5V0.5C4.30558 0.5 0.5 4.30558 0.5 9H1.5ZM9 1.5H305V0.5H9V1.5ZM305 1.5C309.142 1.5 312.5 4.85786 312.5 9H313.5C313.5 4.30558 309.694 0.5 305 0.5V1.5ZM312.5 9V42H313.5V9H312.5ZM312.5 42C312.5 46.1421 309.142 49.5 305 49.5V50.5C309.694 50.5 313.5 46.6944 313.5 42H312.5ZM305 49.5H71.9469V50.5H305V49.5ZM71.7003 49.5651L30.7533 72.7873L31.2467 73.6572L72.1936 50.4349L71.7003 49.5651ZM31.4575 73.4239L41.6942 50.2017L40.7792 49.7983L30.5425 73.0205L31.4575 73.4239Z" fill="#BDBDBD"/>
</svg>
