<svg width="188" height="74" viewBox="0 0 188 74" fill="none" xmlns="http://www.w3.org/2000/svg">
<path fill-rule="evenodd" clip-rule="evenodd" d="M48.0867 55.0294H179C183.418 55.0294 187 51.4477 187 47.0294V9.00002C187 4.58174 183.418 1.00003 179 1.00003H8.74609C4.32781 1.00003 0.746094 4.58175 0.746094 9.00003V47.0294C0.746094 51.4477 4.32782 55.0294 8.74609 55.0294H31.3326L27.6095 71.8915L48.0867 55.0294Z" fill="white"/>
<path d="M48.0867 55.0294L47.7688 54.6434L47.9073 54.5294H48.0867V55.0294ZM31.3326 55.0294V54.5294H31.9551L31.8209 55.1372L31.3326 55.0294ZM27.6095 71.8915L27.9274 72.2775L26.8089 73.1985L27.1213 71.7837L27.6095 71.8915ZM48.0867 54.5294H179V55.5294H48.0867V54.5294ZM179 54.5294C183.142 54.5294 186.5 51.1716 186.5 47.0294H187.5C187.5 51.7238 183.694 55.5294 179 55.5294V54.5294ZM186.5 47.0294V9.00002H187.5V47.0294H186.5ZM186.5 9.00002C186.5 4.85789 183.142 1.50003 179 1.50003V0.500031C183.694 0.500031 187.5 4.3056 187.5 9.00002H186.5ZM179 1.50003H8.74609V0.500031H179V1.50003ZM8.74609 1.50003C4.60395 1.50003 1.24609 4.85789 1.24609 9.00003H0.246094C0.246094 4.3056 4.05167 0.500031 8.74609 0.500031V1.50003ZM1.24609 9.00003V47.0294H0.246094V9.00003H1.24609ZM1.24609 47.0294C1.24609 51.1716 4.60396 54.5294 8.74609 54.5294V55.5294C4.05167 55.5294 0.246094 51.7238 0.246094 47.0294H1.24609ZM8.74609 54.5294H31.3326V55.5294H8.74609V54.5294ZM31.8209 55.1372L28.0978 71.9993L27.1213 71.7837L30.8444 54.9216L31.8209 55.1372ZM27.2917 71.5055L47.7688 54.6434L48.4045 55.4154L27.9274 72.2775L27.2917 71.5055Z" fill="#BBBBBB"/>
</svg>
