<svg width="188" height="74" viewBox="0 0 188 74" fill="none" xmlns="http://www.w3.org/2000/svg">
<path fill-rule="evenodd" clip-rule="evenodd" d="M139.763 18.8916H8.85071C4.43243 18.8916 0.850708 22.4733 0.850708 26.8916V64.921C0.850708 69.3393 4.43243 72.921 8.85071 72.921H179.104C183.523 72.921 187.104 69.3393 187.104 64.921V26.8916C187.104 22.4733 183.523 18.8916 179.104 18.8916H156.517L160.24 2.02954L139.763 18.8916Z" fill="white"/>
<path d="M139.763 18.8916L140.081 19.2776L139.942 19.3916H139.763V18.8916ZM156.517 18.8916V19.3916H155.895L156.029 18.7838L156.517 18.8916ZM160.24 2.02954L159.922 1.64356L161.041 0.722557L160.728 2.13734L160.24 2.02954ZM139.763 19.3916H8.85071V18.3916H139.763V19.3916ZM8.85071 19.3916C4.70857 19.3916 1.35071 22.7495 1.35071 26.8916H0.350708C0.350708 22.1972 4.15628 18.3916 8.85071 18.3916V19.3916ZM1.35071 26.8916V64.921H0.350708V26.8916H1.35071ZM1.35071 64.921C1.35071 69.0631 4.70857 72.421 8.85071 72.421V73.421C4.15628 73.421 0.350708 69.6154 0.350708 64.921H1.35071ZM8.85071 72.421H179.104V73.421H8.85071V72.421ZM179.104 72.421C183.247 72.421 186.604 69.0631 186.604 64.921H187.604C187.604 69.6154 183.799 73.421 179.104 73.421V72.421ZM186.604 64.921V26.8916H187.604V64.921H186.604ZM186.604 26.8916C186.604 22.7495 183.247 19.3916 179.104 19.3916V18.3916C183.799 18.3916 187.604 22.1972 187.604 26.8916H186.604ZM179.104 19.3916H156.517V18.3916H179.104V19.3916ZM156.029 18.7838L159.752 1.92174L160.728 2.13734L157.005 18.9994L156.029 18.7838ZM160.558 2.41552L140.081 19.2776L139.445 18.5056L159.922 1.64356L160.558 2.41552Z" fill="#BBBBBB"/>
</svg>
