<svg width="204" height="80" viewBox="0 0 204 80" fill="none" xmlns="http://www.w3.org/2000/svg">
<g clip-path="url(#clip0_360_6394)">
<path d="M21.6506 48.5626L19.4547 58.0536L37.9202 51.5811L39.6598 47.367L42.5493 31.8125L29.1053 42.1454L31.0112 32.8353L2.19611 55.0088L21.6506 48.5626Z" fill="#231F20"/>
<path d="M35.7896 8.40891L200.336 0.640869L182.604 72.9988L32.3038 74.4336L35.7896 8.40891Z" fill="#231F20"/>
<path d="M23.0225 45.9613L20.836 55.4131L46.5 46.5552L38.2154 46.5553L40.3885 34.8574L26.8643 45.2499L28.7697 35.9444L10.252 50.194L23.0225 45.9613Z" fill="white"/>
<path d="M190.03 5.37842L180.393 71.9911L36.1666 72.2297L38.9561 13.0576L190.03 5.37842Z" fill="white"/>
</g>
<defs>
<clipPath id="clip0_360_6394">
<rect width="200.423" height="71.7946" fill="white" transform="matrix(-0.999356 0.0358747 0.037951 0.99928 200.374 0.609863)"/>
</clipPath>
</defs>
</svg>
