<svg width="226" height="83" viewBox="0 0 226 83" fill="none" xmlns="http://www.w3.org/2000/svg">
<path fill-rule="evenodd" clip-rule="evenodd" d="M177 1C181.419 1 185 4.58173 185 9V42.0271L225.123 72.3376L185 60.8791V74C185 78.4183 181.419 82 177 82H9.00026C4.58199 82 1.00026 78.4183 1.00026 74V9C1.00026 4.58173 4.58199 1 9.00026 1H177Z" fill="white"/>
<path d="M185 42.0271H184.5V42.276L184.699 42.4261L185 42.0271ZM225.123 72.3376L224.986 72.8184L225.424 71.9386L225.123 72.3376ZM185 60.8791L185.138 60.3984L184.5 60.2164V60.8791H185ZM185.5 9C185.5 4.30558 181.695 0.5 177 0.5V1.5C181.142 1.5 184.5 4.85787 184.5 9H185.5ZM185.5 42.0271V9H184.5V42.0271H185.5ZM184.699 42.4261L224.822 72.7366L225.424 71.9386L185.302 41.6281L184.699 42.4261ZM225.26 71.8568L185.138 60.3984L184.863 61.3599L224.986 72.8184L225.26 71.8568ZM185.5 74V60.8791H184.5V74H185.5ZM177 82.5C181.695 82.5 185.5 78.6944 185.5 74H184.5C184.5 78.1421 181.142 81.5 177 81.5V82.5ZM9.00026 82.5H177V81.5H9.00026V82.5ZM0.500259 74C0.500259 78.6944 4.30585 82.5 9.00026 82.5V81.5C4.85812 81.5 1.50026 78.1421 1.50026 74H0.500259ZM0.500259 9V74H1.50026V9H0.500259ZM9.00026 0.5C4.30585 0.5 0.500259 4.30558 0.500259 9H1.50026C1.50026 4.85787 4.85812 1.5 9.00026 1.5V0.5ZM177 0.5H9.00026V1.5H177V0.5Z" fill="#C8C8C8"/>
</svg>
