<svg width="247" height="81" viewBox="0 0 247 81" fill="none" xmlns="http://www.w3.org/2000/svg">
<mask id="path-1-inside-1_376_16837" fill="white">
<path fill-rule="evenodd" clip-rule="evenodd" d="M189 3.05176e-05C193.418 3.05176e-05 197 3.58175 197 8.00003V36.2729L247 29.0002L197 69.0002V73C197 77.4183 193.418 81 189 81H8C3.58173 81 0 77.4183 0 73V8.00003C0 3.58175 3.58173 3.05176e-05 8 3.05176e-05H189Z"/>
</mask>
<path fill-rule="evenodd" clip-rule="evenodd" d="M189 3.05176e-05C193.418 3.05176e-05 197 3.58175 197 8.00003V36.2729L247 29.0002L197 69.0002V73C197 77.4183 193.418 81 189 81H8C3.58173 81 0 77.4183 0 73V8.00003C0 3.58175 3.58173 3.05176e-05 8 3.05176e-05H189Z" fill="white"/>
<path d="M197 36.2729H196V37.4289L197.144 37.2625L197 36.2729ZM247 29.0002L247.625 29.7811L250.5 27.4805L246.856 28.0106L247 29.0002ZM197 69.0002L196.375 68.2193L196 68.5195V69.0002H197ZM198 8.00003C198 3.02946 193.971 -0.999969 189 -0.999969V1.00003C192.866 1.00003 196 4.13403 196 8.00003H198ZM198 36.2729V8.00003H196V36.2729H198ZM197.144 37.2625L247.144 29.9898L246.856 28.0106L196.856 35.2834L197.144 37.2625ZM246.375 28.2193L196.375 68.2193L197.625 69.781L247.625 29.7811L246.375 28.2193ZM198 73V69.0002H196V73H198ZM189 82C193.971 82 198 77.9706 198 73H196C196 76.866 192.866 80 189 80V82ZM8 82H189V80H8V82ZM-1 73C-1 77.9706 3.02943 82 8 82V80C4.13402 80 1 76.866 1 73H-1ZM-1 8.00003V73H1V8.00003H-1ZM8 -0.999969C3.02945 -0.999969 -1 3.02946 -1 8.00003H1C1 4.13403 4.134 1.00003 8 1.00003V-0.999969ZM189 -0.999969H8V1.00003H189V-0.999969Z" fill="#C8C8C8" mask="url(#path-1-inside-1_376_16837)"/>
</svg>
