<svg width="464" height="118" viewBox="0 0 464 118" fill="none" xmlns="http://www.w3.org/2000/svg">
<g clip-path="url(#clip0_360_5882)">
<path d="M3.35765 33.6071C-0.883954 17.8241 10.8109 2.50616 27.104 2.50401L333.738 2.46363C348.13 2.46174 359.749 14.5668 359.132 28.9214L356.985 78.9009C356.438 91.6409 346.36 101.767 333.611 102.387L46.3009 116.362C34.4146 116.94 23.6346 109.057 20.5341 97.5208L3.35765 33.6071Z" fill="black"/>
<path d="M402.29 45.0185L410.693 31.2085L353.31 30.9383L347.252 36.6336L335.64 59.6715L378.436 50.9474L370.948 64.636L462.679 45.8952L402.29 45.0185Z" fill="#231F20"/>
<path d="M13.4282 31.493C9.6703 15.5609 21.9835 0.375886 38.3482 0.760739L331.368 7.65173C345.795 7.99101 356.939 20.4405 355.685 34.8169L351.976 77.3537C350.868 90.0503 340.387 99.8816 327.646 100.175L51.4941 106.534C39.6855 106.805 29.2979 98.7757 26.5863 87.2794L13.4282 31.493Z" fill="white"/>
<path d="M397.644 48.3635L406.011 34.6103L356.155 34.3742L351.503 38.746L342.77 56.0719L385.82 47.299L378.335 60.9806L437.286 48.9369L397.644 48.3635Z" fill="white"/>
<path d="M127.772 53.7488C122.375 53.7488 118 57.7991 118 62.7962V80.8899C118 85.887 122.375 89.9373 127.772 89.9373H147.314C152.712 89.9373 157.086 85.887 157.086 80.8899V53.7488H127.772Z" fill="#B4FF0A"/>
<path d="M128.683 68.1991C128.363 66.9052 129.759 65.7599 131.562 65.7599C133.187 65.7599 134.816 66.0969 135.436 68.1947H137.519V71.3968C134.921 69.4199 129.29 70.6594 128.683 68.1991ZM150.297 67.3132H145.606L141.141 71.8391V62.7962H137.519V64.9871C137.401 64.8452 137.275 64.7055 137.137 64.568C135.819 63.2774 133.921 62.6232 131.495 62.6232C128.689 62.6232 127.094 63.7852 126.25 64.7609C125.201 65.9717 124.732 67.6237 125.057 68.9697C125.896 72.4556 129.39 73.0122 131.956 73.3215C133.982 73.5655 135.92 73.9059 135.868 75.5778C135.814 77.313 133.702 77.7399 132.315 77.7399C128.705 77.7399 128.583 75.2685 128.583 75.2685H124.698C124.755 76.1965 125.058 77.6867 126.292 78.9651C127.644 80.3654 129.67 81.0761 132.315 81.0761C134.345 81.0761 136.194 80.4641 137.519 79.3764V80.871H141.141V76.6012L142.422 75.3029L146.081 80.871H150.296L144.973 72.7173L150.297 67.3132Z" fill="#4D5759"/>
<path d="M166.305 78.6069C166.548 78.6823 166.832 78.72 167.156 78.72C167.562 78.72 167.886 78.6069 168.13 78.3818C168.373 78.1567 168.535 77.8563 168.616 77.5181L163.467 67.4196H166.893L170.197 74.6653L173.096 67.4196H176.361L171.718 77.3684C171.109 78.6823 170.482 79.658 169.792 80.2778C169.102 80.9164 168.353 81.2346 167.522 81.2346C167.238 81.2346 167.015 81.2346 166.832 81.1969C166.629 81.1792 166.468 81.1415 166.325 81.1038L165.94 80.9907C165.839 80.953 165.737 80.9164 165.636 80.8976V78.3441C165.819 78.4572 166.041 78.5503 166.305 78.6069Z" fill="#4D5759"/>
<path d="M181.942 77.1057C181.74 77.1611 181.517 77.1988 181.273 77.2554C181.03 77.2931 180.766 77.3308 180.503 77.3496C180.239 77.3873 179.976 77.3873 179.731 77.3873C179.104 77.3873 178.577 77.3308 178.09 77.2365C177.624 77.1246 177.219 76.9738 176.894 76.7487C176.57 76.5236 176.327 76.2231 176.164 75.8473C176.002 75.4914 175.921 75.0412 175.921 74.5146V70.9111H178.718V74.0079C178.718 74.2895 178.759 74.5334 178.84 74.7031C178.902 74.8904 179.023 75.0412 179.185 75.1532C179.347 75.2663 179.529 75.3406 179.772 75.3783C180.016 75.416 180.3 75.4348 180.625 75.4348C181.111 75.4348 181.476 75.3971 181.76 75.3217C182.044 75.2286 182.267 75.1344 182.428 75.0412V70.9111H185.227V80.8976H182.428V76.9549C182.307 76.9926 182.146 77.0492 181.942 77.1057Z" fill="#4D5759"/>
<path d="M192.688 76.2421C192.506 76.3174 192.283 76.3928 191.999 76.4294L191.248 76.5614C190.924 76.6179 190.64 76.6734 190.397 76.7488C190.154 76.8241 189.951 76.9173 189.789 77.0304C189.627 77.1612 189.505 77.312 189.423 77.4805C189.343 77.6502 189.302 77.8564 189.302 78.1192C189.302 78.3254 189.343 78.5128 189.403 78.6636C189.484 78.8321 189.586 78.9452 189.727 79.0572C189.85 79.1514 189.991 79.2457 190.154 79.2833C190.336 79.3388 190.519 79.3576 190.721 79.3576C190.823 79.3576 190.965 79.3388 191.127 79.3199C191.289 79.3011 191.451 79.2645 191.654 79.208C191.836 79.1326 192.018 79.0572 192.202 78.9452C192.384 78.8509 192.546 78.7013 192.688 78.5316C192.851 78.3631 192.972 78.1569 193.053 77.8941C193.134 77.6502 193.196 77.3685 193.196 77.0304V76.017C193.033 76.1101 192.851 76.1855 192.688 76.2421ZM196.054 79.6581C196.073 79.8455 196.134 80.0151 196.195 80.1094C196.256 80.2402 196.317 80.3156 196.398 80.371C196.479 80.4276 196.54 80.4653 196.641 80.4841V80.8977H193.539L193.378 80.4276C193.296 80.2402 193.276 80.0151 193.276 79.7335L192.647 80.3156C192.424 80.4841 192.202 80.6349 191.938 80.7657C191.675 80.8977 191.391 81.0097 191.046 81.0851C190.701 81.1594 190.295 81.1971 189.829 81.1971C189.343 81.1971 188.896 81.1416 188.492 81.0097C188.086 80.8777 187.741 80.6715 187.437 80.4276C187.153 80.1648 186.91 79.8455 186.748 79.4519C186.585 79.076 186.505 78.6259 186.505 78.1192C186.505 77.7056 186.565 77.3308 186.707 76.9738C186.849 76.6179 187.052 76.3174 187.295 76.0547C187.559 75.7919 187.863 75.5668 188.228 75.3972C188.592 75.2098 188.998 75.0967 189.464 75.0413L192.202 74.6654C192.302 74.6466 192.404 74.6466 192.526 74.6089C192.647 74.59 192.749 74.5523 192.851 74.478C192.951 74.4215 193.033 74.3461 193.094 74.2518C193.155 74.1399 193.196 74.0079 193.196 73.8394C193.196 73.6698 193.155 73.5201 193.114 73.3892C193.053 73.2385 192.951 73.1265 192.83 73.0322C192.688 72.9191 192.526 72.8448 192.302 72.7883C192.079 72.7318 191.796 72.7129 191.471 72.7129C191.087 72.7129 190.803 72.7506 190.58 72.8071C190.336 72.8825 190.154 72.9945 190.032 73.1076C189.89 73.2385 189.789 73.3892 189.727 73.5389L189.607 74.0833H186.809C186.809 73.9713 186.829 73.8017 186.869 73.5766C186.91 73.3704 186.991 73.1265 187.113 72.8637C187.214 72.6198 187.396 72.3559 187.599 72.0942C187.802 71.8315 188.065 71.5864 188.431 71.3613C188.755 71.1551 189.18 70.9677 189.668 70.8358C190.154 70.705 190.721 70.6296 191.41 70.6107C192.363 70.6107 193.155 70.705 193.762 70.8735C194.35 71.0609 194.817 71.3048 195.162 71.5864C195.485 71.8869 195.709 72.2062 195.83 72.5632C195.932 72.9191 195.993 73.2761 195.993 73.6332V78.9263C195.993 79.2268 196.013 79.4707 196.054 79.6581Z" fill="#4D5759"/>
<path d="M203.875 73.7452C203.794 73.5389 203.673 73.3704 203.53 73.2385C203.368 73.0888 203.186 72.9945 202.984 72.9191C202.76 72.8637 202.497 72.826 202.192 72.826C201.727 72.826 201.361 72.9191 201.078 73.1265C200.794 73.3327 200.571 73.5766 200.429 73.8771C200.267 74.1964 200.185 74.5335 200.124 74.8905C200.084 75.2475 200.044 75.5846 200.044 75.9039C200.044 76.2232 200.064 76.5802 200.105 76.9361C200.145 77.312 200.226 77.6313 200.388 77.9318C200.53 78.2323 200.733 78.495 201.037 78.6824C201.321 78.8886 201.706 78.9829 202.192 78.9829C202.517 78.9829 202.801 78.9263 203.044 78.7944C203.267 78.6824 203.47 78.5316 203.632 78.3631C203.794 78.1757 203.916 77.9872 203.997 77.781C204.058 77.5936 204.098 77.4062 204.098 77.2366H207.017C207.017 77.4062 206.998 77.6125 206.937 77.8752C206.856 78.1569 206.754 78.4196 206.613 78.7201C206.471 79.0017 206.268 79.3011 206.045 79.6016C205.781 79.902 205.498 80.1648 205.132 80.3899C204.767 80.6349 204.361 80.8223 203.875 80.9731C203.389 81.1228 202.821 81.1971 202.192 81.1971C201.382 81.1971 200.651 81.0851 200.024 80.86C199.395 80.6161 198.868 80.2779 198.442 79.8266C198.017 79.3765 197.692 78.8321 197.468 78.1569C197.245 77.4994 197.125 76.7488 197.125 75.9039C197.125 75.0413 197.245 74.2895 197.489 73.6332C197.732 72.9945 198.078 72.4313 198.523 71.9811C198.969 71.531 199.496 71.1928 200.124 70.9677C200.733 70.7238 201.443 70.6107 202.192 70.6107C202.517 70.6107 202.862 70.6484 203.227 70.6861C203.571 70.7238 203.916 70.8169 204.261 70.93C204.606 71.0609 204.93 71.2117 205.253 71.399C205.558 71.5864 205.843 71.8315 206.106 72.1131C206.349 72.3936 206.552 72.7318 206.713 73.1076C206.876 73.4824 206.978 73.9336 207.017 74.4403H204.098C204.038 74.1776 203.977 73.9336 203.875 73.7452Z" fill="#4D5759"/>
<path d="M216.784 70.9111V73.0133H213.52V80.8976H210.722V73.0133H207.458V70.9111H216.784Z" fill="#4D5759"/>
<path d="M224.564 74.5146V70.9111H227.361V80.8976H224.564V76.6179H220.448V80.8976H217.65V70.9111H220.448V74.5146H224.564Z" fill="#4D5759"/>
<path d="M232.076 77.068L236.009 70.9111H238.949V80.8976H236.15V74.8716H236.11L232.299 80.8976H229.238V70.9111H232.035V77.068H232.076Z" fill="#4D5759"/>
<path d="M247.693 70.9111H251.423L246.963 75.059L251.606 80.8976H247.956L244.794 76.6733L243.658 77.7432V80.8976H240.861V70.9111H243.658V74.7031L247.693 70.9111Z" fill="#4D5759"/>
</g>
<defs>
<clipPath id="clip0_360_5882">
<rect width="464" height="118" fill="white"/>
</clipPath>
</defs>
</svg>
