<svg width="44" height="44" viewBox="0 0 44 44" fill="none" xmlns="http://www.w3.org/2000/svg">
<path fill-rule="evenodd" clip-rule="evenodd" d="M22 44C34.1503 44 44 34.1503 44 22C44 9.84974 34.1503 0 22 0C9.84974 0 0 9.84974 0 22C0 34.1503 9.84974 44 22 44ZM34 21.7824C34 15.2773 28.7238 10.0011 22.2188 10.0011C21.5434 10.0011 21 10.5445 21 11.2199C21 11.8953 21.5434 12.4386 22.2188 12.4386C27.3781 12.4386 31.5625 16.623 31.5625 21.7824C31.5625 22.4578 32.1059 23.0011 32.7812 23.0011C33.4566 23.0011 34 22.4578 34 21.7824ZM23.774 20.2271C23.4693 19.9223 23.056 19.7511 22.625 19.7511C22.194 19.7511 21.7807 19.9223 21.476 20.2271C21.1712 20.5318 21 20.9452 21 21.3761C21 21.8071 21.1712 22.2204 21.476 22.5252C21.7807 22.8299 22.194 23.0011 22.625 23.0011C23.056 23.0011 23.4693 22.8299 23.774 22.5252C24.0788 22.2204 24.25 21.8071 24.25 21.3761C24.25 20.9452 24.0788 20.5318 23.774 20.2271ZM22.2188 14.8761C21.5434 14.8761 21 15.4195 21 16.0949C21 16.7703 21.5434 17.3136 22.2188 17.3136C24.6867 17.3136 26.6875 19.3144 26.6875 21.7824C26.6875 22.4578 27.2309 23.0011 27.9062 23.0011C28.5816 23.0011 29.125 22.4578 29.125 21.7824C29.125 17.9687 26.0324 14.8761 22.2188 14.8761ZM16.3738 11.2504C15.9828 10.3058 14.952 9.8031 13.9668 10.0722L9.49805 11.291C8.61445 11.5347 8 12.3371 8 13.2511C8 25.8144 18.1867 36.0011 30.75 36.0011C31.6641 36.0011 32.4664 35.3867 32.7051 34.5031L33.9238 30.0343C34.193 29.0492 33.6902 28.0183 32.7457 27.6273L27.8707 25.5961C27.043 25.2508 26.0883 25.4894 25.5195 26.1851L23.473 28.6886C19.898 26.9976 17.0035 24.1031 15.3125 20.5281L17.816 18.4765C18.5117 17.9129 18.7504 16.9531 18.4051 16.1254L16.3738 11.2504Z" fill="#FF0009"/>
</svg>
