<svg width="48" height="48" viewBox="0 0 48 48" fill="none" xmlns="http://www.w3.org/2000/svg">
<path d="M24.0187 47.25C36.8284 47.25 47.25 36.8284 47.25 24.0187C47.25 11.1719 36.8286 0.75 24.0187 0.75C11.1716 0.75 0.75 11.1716 0.75 24.0187C0.75 36.8286 11.1719 47.25 24.0187 47.25Z" fill="#FF0009" stroke="white" stroke-width="0.5"/>
<path fill-rule="evenodd" clip-rule="evenodd" d="M18.1328 12.7718C17.7205 11.7596 16.6333 11.2347 15.5835 11.5347L10.9348 12.8093C9.99756 13.0717 9.36023 13.8965 9.36023 14.8713C9.36023 27.9927 20.0073 38.6398 33.1663 38.6398C34.1035 38.6398 34.9283 38.0025 35.1907 37.0652L36.4654 32.4165C36.7653 31.3668 36.2404 30.2796 35.2282 29.8672L30.1296 27.7678C29.2673 27.3929 28.2926 27.6553 27.6927 28.3676L25.5558 30.9919C21.8068 29.2299 18.7702 26.1932 17.0082 22.4442L19.6324 20.3073C20.3447 19.7449 20.6072 18.7327 20.2323 17.8704L18.1328 12.7718ZM36.5403 23.7563C36.5403 16.9707 31.0293 11.4597 24.2437 11.4597C23.5314 11.4597 22.969 12.022 22.969 12.7343C22.969 13.4466 23.5314 14.009 24.2437 14.009C29.6422 14.009 33.991 18.3953 33.991 23.7563C33.991 24.4686 34.5534 25.031 35.2657 25.031C35.978 25.031 36.5403 24.4686 36.5403 23.7563ZM25.8557 22.1443C25.5558 21.8444 25.106 21.6569 24.6561 21.6569C24.2062 21.6569 23.7563 21.8444 23.4564 22.1443C23.119 22.4817 22.969 22.8941 22.969 23.344C22.969 23.7938 23.119 24.2437 23.4564 24.5436C23.7563 24.881 24.2062 25.031 24.6561 25.031C25.106 25.031 25.5558 24.881 25.8557 24.5436C26.1932 24.2437 26.3431 23.7938 26.3431 23.344C26.3431 22.8941 26.1932 22.4817 25.8557 22.1443ZM24.2437 16.5583C23.5314 16.5583 22.969 17.1206 22.969 17.8329C22.969 18.5453 23.5314 19.1076 24.2437 19.1076C26.793 19.1076 28.8924 21.207 28.8924 23.7563C28.8924 24.4686 29.4548 25.031 30.1671 25.031C30.8794 25.031 31.4417 24.4686 31.4417 23.7563C31.4417 19.7824 28.2176 16.5583 24.2437 16.5583Z" fill="white"/>
<path fill-rule="evenodd" clip-rule="evenodd" d="M24.0187 46.2127C30.1296 46.2127 35.6781 43.7384 39.6895 39.6895C43.7384 35.6781 46.2127 30.1296 46.2127 24.0187C46.2127 17.8704 43.7384 12.3219 39.6895 8.31051C35.6781 4.26161 30.1296 1.78729 24.0187 1.78729C17.8704 1.78729 12.3219 4.26161 8.31051 8.31051C4.26161 12.3219 1.78729 17.8704 1.78729 24.0187C1.78729 30.1296 4.26161 35.6781 8.31051 39.6895C12.3219 43.7384 17.8704 46.2127 24.0187 46.2127ZM24.0187 47C36.6903 47 47 36.6903 47 24.0187C47 11.3097 36.6903 1 24.0187 1C11.3097 1 1 11.3097 1 24.0187C1 36.6903 11.3097 47 24.0187 47Z" fill="white"/>
</svg>
