<svg width="24" height="24" viewBox="0 0 24 24" fill="none" xmlns="http://www.w3.org/2000/svg">
<g clip-path="url(#clip0_10_761)">
<path d="M12.0002 0C5.37305 0 0.000549316 5.3732 0.000549316 12.0007C0.000549316 18.6261 5.37305 24.0003 12.0002 24.0003C18.6274 24.0003 23.9999 18.6261 23.9999 12.0007C23.9999 5.3732 18.6274 0 12.0002 0Z" fill="black"/>
<path d="M17.8413 7.12592C17.7954 6.99077 17.7407 6.95525 17.655 6.92146C17.4679 6.85214 17.1513 6.95699 17.1513 6.95699C17.1513 6.95699 5.93644 10.9891 5.29588 11.4353C5.15794 11.5311 5.11161 11.5883 5.08862 11.6537C4.97786 11.9704 5.32304 12.1107 5.32304 12.1107L8.21376 13.0529C8.21376 13.0529 8.32139 13.069 8.35971 13.0442C9.01733 12.628 14.9757 8.86648 15.3195 8.74004C15.3735 8.72437 15.4139 8.74213 15.4031 8.7794C15.2655 9.26287 10.0902 13.8617 10.0902 13.8617C10.0902 13.8617 10.0707 13.8868 10.0581 13.915L10.0515 13.9116L9.7819 16.7789C9.7819 16.7789 9.66869 17.6574 10.5472 16.7789C11.1668 16.1586 11.7663 15.6396 12.0665 15.3888C13.0603 16.075 14.13 16.8343 14.5919 17.2307C14.8235 17.4296 15.0175 17.4616 15.177 17.4564C15.6152 17.4404 15.7375 16.9587 15.7375 16.9587C15.7375 16.9587 17.7814 8.73307 17.8497 7.63099C17.8563 7.52266 17.8657 7.45474 17.8664 7.3802C17.8675 7.27709 17.8581 7.17399 17.8413 7.12592Z" fill="white"/>
</g>
<defs>
<clipPath id="clip0_10_761">
<rect width="24" height="24" fill="white"/>
</clipPath>
</defs>
</svg>
