<svg width="293" height="124" viewBox="0 0 293 124" fill="none" xmlns="http://www.w3.org/2000/svg">
<path d="M269.052 40.0281C255.824 40.0281 245.1 50.0316 245.1 62.3699C245.1 74.7128 255.824 84.7164 269.052 84.7164C282.277 84.7164 293 74.7128 293 62.3699C293 50.0316 282.277 40.0281 269.052 40.0281ZM269.052 74.5652C262.962 74.5652 258.025 69.1066 258.025 62.3699C258.025 55.6378 262.962 50.1746 269.052 50.1746C275.143 50.1746 280.08 55.6378 280.08 62.3699C280.08 69.1066 275.143 74.5652 269.052 74.5652Z" fill="#FF0009"/>
<path d="M239.54 59.8321C239.586 82.3631 230.524 102.509 200.301 102.509C177.844 102.509 159.637 84.3057 159.637 61.8439C159.637 39.3867 177.844 21.1791 200.301 21.1791C212.653 21.1791 223.289 26.1348 230.358 34.3295L217.9 45.3759C213.872 40.1111 207.615 37.2088 200.301 37.2088C187.478 37.2088 177.083 48.3935 177.083 62.1899C177.083 75.9863 187.478 87.1664 200.301 87.1664C209.668 87.1664 215.473 83.5212 218.823 77.975C219.459 76.9137 219.796 75.6956 219.796 74.4544V73.6792H198.534V59.8321H239.54Z" fill="#FF0009"/>
<path d="M48.6011 27.6528H0V38.1685H17.8246V84.0103H30.7765V38.1685H48.6011V27.6528ZM134.305 41.0016H116.314H103.824V84.0103H116.314V51.2635H134.305V84.0103H146.791V41.0016H134.305ZM71.6489 40.028C58.4201 40.028 47.6967 50.0315 47.6967 62.3698C47.6967 74.7127 58.4201 84.7163 71.6489 84.7163C84.8731 84.7163 95.5965 74.7127 95.5965 62.3698C95.5965 50.0315 84.8731 40.028 71.6489 40.028ZM71.6489 74.5651C65.5582 74.5651 60.621 69.1065 60.621 62.3698C60.621 55.6377 65.5582 50.1746 71.6489 50.1746C77.7396 50.1746 82.6768 55.6377 82.6768 62.3698C82.6768 69.1065 77.7396 74.5651 71.6489 74.5651Z" fill="black"/>
<path d="M167.135 95.0335L154.529 109.014L151.774 93.7416L167.135 95.0335ZM159.886 29.7199C159.886 29.7199 175.86 10.5895 201.252 10.5895C225.282 10.5895 238.184 24.3029 238.184 24.3029L243.162 19.7302C243.162 19.7302 226.325 0 197.45 0C168.574 0 153.366 16.5649 150.381 19.1903L159.886 29.7199ZM237.247 31.3487L250.946 18.4336L252.455 33.8819L237.247 31.3487ZM244.376 90.3917C244.376 90.3917 230.003 110.749 204.694 112.807C180.742 114.755 166.775 102.13 166.775 102.13L162.184 107.09C162.184 107.09 180.562 125.395 209.34 123.055C238.119 120.716 251.939 102.975 254.702 100.118L244.376 90.3917Z" fill="black"/>
</svg>
