<svg width="24" height="24" viewBox="0 0 24 24" fill="none" xmlns="http://www.w3.org/2000/svg">
<g clip-path="url(#clip0_10_753)">
<path d="M24 12.0006C24 18.628 18.628 24 12.0006 24C5.37323 24 0 18.628 0 12.0006C0 5.37323 5.37323 0 12.0006 0C18.628 0 24 5.37323 24 12.0006Z" fill="black"/>
<path fill-rule="evenodd" clip-rule="evenodd" d="M3.63511 7.85728C3.12689 7.90337 3.05412 8.17628 3.14994 8.68206C3.32702 9.61965 3.87163 10.8398 4.28887 11.6658C4.4417 11.9691 4.60423 12.2735 4.77282 12.5561C5.25678 13.3676 5.9918 14.5611 6.57279 15.2124L6.73168 15.4016C6.78263 15.4635 6.83963 15.5156 6.89058 15.5751L7.78571 16.4011C8.28179 16.7989 8.82761 17.1373 9.50441 17.4321C10.1655 17.7207 10.9745 17.9112 11.792 17.893C12.1983 17.8833 12.6689 17.859 12.88 17.6079C13.0025 17.4612 12.9952 17.2622 12.9952 17.0488C12.994 16.6376 12.9552 15.2718 13.0631 15.0559C13.1444 14.8946 13.3518 14.8619 13.5738 14.8886C13.951 14.9334 14.3961 15.2694 14.6811 15.5047L15.2257 15.9875C15.4465 16.1827 15.5751 16.3586 15.7376 16.503C15.7995 16.5588 15.8383 16.6267 15.9013 16.6873C16.0978 16.8729 16.5442 17.426 16.7334 17.5776C16.7977 17.6285 16.8547 17.6783 16.9299 17.728C17.2732 17.956 17.6831 17.8954 18.138 17.8954C18.4097 17.8954 19.3011 17.9075 19.5025 17.8845C19.944 17.8323 20.1187 17.5339 19.9683 17.0779C19.836 16.6764 19.4297 16.15 19.1677 15.8225L18.2956 14.8061C18.2653 14.7745 18.2423 14.743 18.2119 14.7078L17.5279 14.0177C16.7358 13.2329 16.8511 13.1929 17.4684 12.316C17.6601 12.0431 17.8359 11.7762 18.0215 11.4936L18.8075 10.2407C18.8936 10.0975 18.9858 9.94835 19.0622 9.80037C19.2235 9.48744 19.3824 9.21696 19.517 8.88098C20.0046 7.66564 19.2454 7.85243 18.1222 7.85243C17.785 7.85243 17.0973 7.80755 16.828 7.92884C16.5078 8.07318 16.4168 8.3752 16.2592 8.73422C16.1282 9.03381 15.962 9.36979 15.8079 9.65846C15.4708 10.2892 15.1433 10.8289 14.7758 11.3602C14.6072 11.6052 14.2396 12.0855 14.0056 12.2978C13.9425 12.3548 13.8928 12.4009 13.8236 12.4627C13.7351 12.5416 13.5483 12.6871 13.3821 12.7162C12.92 12.7999 12.9952 12.1001 12.9952 11.7459V8.99621C12.9952 8.6105 13.0631 8.03679 12.7247 7.89609C12.5355 7.81725 11.6852 7.85243 11.4148 7.85243C11.171 7.85243 9.55414 7.82332 9.3904 7.88033C9.23757 7.93248 9.09202 8.06469 9.08838 8.2721C9.08353 8.74877 9.82341 8.82155 9.82341 10.2807C9.82341 10.7392 9.82341 11.1964 9.82341 11.6549C9.82341 12.0843 9.84888 12.6022 9.81735 13.0207C9.80279 13.2147 9.7749 13.4367 9.60994 13.4925C8.82639 13.7605 7.32965 10.8022 6.98033 9.98595C6.84206 9.66574 6.70621 9.34432 6.58128 9.01076C6.47818 8.73179 6.33627 8.23328 6.15555 8.05984C6.01606 7.9252 5.91782 7.86941 5.68372 7.85485L3.63511 7.85728Z" fill="white"/>
</g>
<defs>
<clipPath id="clip0_10_753">
<rect width="24" height="24" fill="white"/>
</clipPath>
</defs>
</svg>
