<svg width="203" height="122" viewBox="0 0 203 122" fill="none" xmlns="http://www.w3.org/2000/svg">
<g clip-path="url(#clip0_42_3741)">
<path d="M47.5927 52.7651L41.6372 80.9396L34.8848 81.6663L26.9287 63.8764L22.7436 82.9746L16.0312 83.6943L4.18009 57.4337L10.6967 56.7321L18.8854 75.206L23.2293 55.3849L29.0471 54.7604L37.3298 73.3791L41.5794 53.4105L47.5927 52.7651ZM51.6666 52.3262L57.9501 51.6494L60.8793 78.8703L54.5957 79.5471L51.6666 52.3262ZM89.2989 48.2782L92.2254 75.4993L87.0666 76.0537L71.7494 60.9833L73.5271 77.5108L67.3182 78.1769L64.3917 50.9558L69.5907 50.3971L84.8678 65.4718L83.0901 48.9443L89.2989 48.2782ZM96.0247 61.5582L107.004 60.3763L107.526 65.2385L96.5472 66.4177L96.0247 61.5582Z" fill="black"/>
<path d="M154.131 41.3031L148.176 69.4803L141.423 70.207L133.467 52.4171L129.282 71.5126L122.57 72.235L110.718 45.9717L117.235 45.2728L125.424 63.744L129.767 43.9229L135.585 43.2984L143.868 61.9171L148.118 41.9485L154.131 41.3031ZM158.205 40.8642L164.488 40.1874L167.417 67.4083L161.131 68.0854L158.205 40.8642ZM195.837 36.8162L198.764 64.0373L193.605 64.5917L178.288 49.5213L180.065 66.0488L173.857 66.7176L170.93 39.4964L176.129 38.9351L191.406 54.0098L189.629 37.485L195.837 36.8162Z" fill="#FC0314"/>
<path d="M112.394 46.3121L112.394 46.3154" stroke="#FFFF00" stroke-width="2.93631" stroke-miterlimit="10"/>
<path d="M63.3994 38.4994C63.3994 38.4994 74.8368 21.3612 95.6805 19.1432C115.41 17.0437 127.2 27.2024 127.2 27.2024L130.885 23.0059C130.885 23.0059 115.337 8.23961 91.6325 10.7621C67.9306 13.2843 56.8951 28.2426 54.6741 30.6649L63.3994 38.4994Z" fill="black"/>
<path d="M127.048 33.0814L137.163 21.2597L139.753 33.8393L127.048 33.0814Z" fill="black"/>
<path d="M138.068 81.0405C138.068 81.0405 128.054 99.051 107.457 102.954C87.9654 106.649 75.3947 97.4802 75.3947 97.4802L72.06 101.963C72.06 101.963 88.7496 115.418 112.172 110.981C135.591 106.542 145.38 90.7362 147.398 88.1426L138.068 81.0405Z" fill="#FC0314"/>
<path d="M75.0706 91.6084L65.9441 104.216L62.3457 91.8872L75.0706 91.6084Z" fill="#FC0314"/>
</g>
<defs>
<clipPath id="clip0_42_3741">
<rect width="193" height="102" fill="white" transform="translate(0.145142 20.4976) rotate(-6.07417)"/>
</clipPath>
</defs>
</svg>
