<svg width="24" height="24" viewBox="0 0 24 24" fill="none" xmlns="http://www.w3.org/2000/svg">
<g clip-path="url(#clip0_10_766)">
<path d="M24 12.0011C24 18.6272 18.6272 24 12.0011 24C5.37283 24 0 18.6272 0 12.0011C0 5.37283 5.37283 0 12.0011 0C18.6272 0 24 5.37283 24 12.0011Z" fill="black"/>
<path d="M10.4014 14.3996V9.60046L14.557 12.0011L10.4014 14.3996ZM19.6666 8.14926C19.4821 7.46078 18.9399 6.91855 18.2514 6.73405C17.005 6.40106 12.0011 6.40106 12.0011 6.40106C12.0011 6.40106 6.99727 6.40106 5.74856 6.73405C5.06008 6.91855 4.51785 7.46078 4.33561 8.14926C4.00037 9.39797 4.00037 12.0011 4.00037 12.0011C4.00037 12.0011 4.00037 14.6043 4.33561 15.8508C4.51785 16.5392 5.06008 17.0815 5.74856 17.266C6.99727 17.6012 12.0011 17.6012 12.0011 17.6012C12.0011 17.6012 17.005 17.6012 18.2514 17.266C18.9399 17.0815 19.4821 16.5392 19.6666 15.8508C19.9996 14.6043 19.9996 12.0011 19.9996 12.0011C19.9996 12.0011 19.9996 9.39797 19.6666 8.14926Z" fill="white"/>
</g>
<defs>
<clipPath id="clip0_10_766">
<rect width="24" height="24" fill="white"/>
</clipPath>
</defs>
</svg>
